<svg xmlns="http://www.w3.org/2000/svg" width="512.737" height="518.443" viewBox="0 0 512.737 518.443">
    <g data-name="درخواست رسیدگی به بدهی قطعی ماده 16">
        <path data-name="Path 15809" d="M276.609 371.05c.848-6.79 6.511-12.8 13.341-13.68 5.883.808 11.865.03 17.748.489a16.4 16.4 0 0 0 2.174 30.949c-6.591.788-13.321.279-19.961.269-8.346-1.077-14.687-9.741-13.302-18.027z" transform="translate(-.809 113.774)" style="fill:#d4e1f4"/>
        <path data-name="Path 15807" d="M281.37 338.6a90.154 90.154 0 0 0 19.1-8.545 16.282 16.282 0 0 0 6.252 12.274c-5.574.17-11.157-.249-16.711.329-3.277-.125-6.118-2.129-8.641-4.058z" transform="translate(-.823 113.854)" style="fill:#d4e1f4"/>
        <path data-name="Path 15819" d="M287.38 0h-132.5a8.92 8.92 0 0 0-5.74 2.52Q93.52 57.45 37.93 112.42c-3.16 2.61-2.33 7-2.45 10.61-.169 33.315-.357 70.3-.545 106.215-.088 16.795 13.021 1.258 13.021 1.258s.322-72.774.6-106.184c20.34.06 40.68.21 61.02.27a50.708 50.708 0 0 0 50.93-49.61c.19-20.63.23-41.26.33-61.89 49.91.11 99.82.48 149.73.65A37.763 37.763 0 0 1 348.9 52q-.735 160.515-1.53 321.03a49.535 49.535 0 0 1-.535 9.553c-1 6.621 6.642 20.431 9.416 14.034A50.588 50.588 0 0 0 360.36 376l1.53-325.02c.08-19.8-12.73-38.76-31.02-46.24C317.49-1.24 303.045.246 287.38 0M147.75 22.31c-.01 17.22-.14 34.45-.23 51.68a37.744 37.744 0 0 1-37.93 37.59q-25.98-.12-51.96-.26 44.985-44.58 90.12-89.01z" transform="translate(150.847)" style="fill:#1ae5be"/>
        <path data-name="Path 15820" d="M233.848 39.88a37.2 37.2 0 0 0-21.92-22.62c3.02 8.27 2.02 17.16 2.12 25.77q-.78 156.975-1.53 313.96a35.113 35.113 0 0 1-3.25 14.473c-3.912 8.693 24.95 4.227 25-.413q.765-157.515 1.52-315.02c.13-5.43-.07-10.98-1.94-16.15z" transform="translate(262.909 -1)" style="fill:#d4e1f4"/>
        <path data-name="Path 15795" d="M7.907 117.881A30.439 30.439 0 0 1 30.959 108h186.413a31.457 31.457 0 0 1 14.727 3.181c11.915 5.693 18.974 19.762 16.312 32.714-1.137 7.039-5.324 13.062-10.3 17.957a32.44 32.44 0 0 1 6.611 7.857 95.138 95.138 0 0 0-15.285 3.32 17.465 17.465 0 0 0-11.058-3.938q-81.795-.03-163.6-.01c-2.353-.02-19.642.07-25.824.379-9.223.409-16.462 10.24-14.288 19.184 1.087 6.91 7.289 12.184 14.069 13.121 8.346.548 16.731-.02 25.1.209 44.37.09 88.74-.07 133.1.07-2.612 4.776-6.182 9-8.475 13.989-41.558.13-83.116 0-124.674.06-9 .538-18.187-.818-27.14.518-6.4 1.735-11.666 7.388-12.2 14.109-1.187 8.336 5.175 16.382 13.331 17.888 2.672.528 5.414.229 8.116.309q66.644-.015 133.289.01a90.912 90.912 0 0 0 .09 14.079q-57.207.03-114.4 0c-9.093.509-18.3-.668-27.35.419a20.1 20.1 0 0 0-5.972 2.523l-.12.08-.1.07a16.2 16.2 0 0 0-6.461 17.419c1.356 6.122 6.71 10.7 12.713 12.015 6.371.788 12.862.229 19.273.329 44.061.15 88.151-.03 132.222.1a106.788 106.788 0 0 0 9.123 13.979c-44.789.17-89.587 0-134.386.09-8.734.359-17.519-.518-26.243.289l-.718.03c-.5.229-1.476.7-1.974.927-8.5 2.792-12.892 13.321-9.323 21.427a16.2 16.2 0 0 0 9.761 9.093l.229.08c7.937 1.476 16.123.429 24.159.708a125.38 125.38 0 0 0 13.131.329q77.7-.03 155.394-.03a18.162 18.162 0 0 0 12.045-4.876 88.6 88.6 0 0 0 14.856 3.111 34.97 34.97 0 0 1-7.548 8.864 30.578 30.578 0 0 1 10.968 28.676c-2.064 13.949-14.986 25.206-29.095 25.256q-94.3.06-188.577.02a30.463 30.463 0 0 1-25.1-12.563C2.562 387.1.937 381.926 0 376.731v-4.247a30.585 30.585 0 0 1 11.407-22.344A31.571 31.571 0 0 1 0 327.157v-4.068a33.236 33.236 0 0 1 11.048-20.43A31.017 31.017 0 0 1 0 280.275v-2.562a31.951 31.951 0 0 1 11.028-22.145A32.313 32.313 0 0 1 0 235.177v-4.347a30.971 30.971 0 0 1 11.087-22.215A32.821 32.821 0 0 1 0 188.274v-4.307A30.986 30.986 0 0 1 10.968 161.7 32.72 32.72 0 0 1 0 141.422v-5.265a31.3 31.3 0 0 1 7.907-18.276m11.746 8.7a16.163 16.163 0 0 0-3.57 19.343 16.843 16.843 0 0 0 15.853 8.934c6.391-.06 22.324.09 23.9.14q81.242-.03 162.493-.02c8.7.239 16.6-7.428 16.531-16.153.4-8.884-7.548-16.95-16.422-16.721-55.477.03-110.954-.14-166.432.08-6.69.02-13.411.08-20.111.04-4.4.03-9.073 1.127-12.244 4.357M27.9 357.239c-8.136 1.5-14.607 9.432-13.48 17.8.578 7.438 7.049 14.109 14.577 14.418 6.232.289 24.079.4 26.821.389q81.735-.045 163.49-.03c9.223-.2 16.861-9.363 15.425-18.476A16.476 16.476 0 0 0 218.4 357q-82.3.015-164.587.01c-8.636.219-17.3-.34-25.913.229z" transform="translate(0 114.503)" style="fill:#0635c9"/>
        <path data-name="Path 15796" d="M19.694 126.627c3.171-3.231 7.847-4.327 12.244-4.357 6.7.04 13.421-.02 20.111-.04-8.1.887-14.8 8.525-14.418 16.711.01 7.648 6.042 14.517 13.51 15.863-6.381.219-12.773.04-19.164.1a16.843 16.843 0 0 1-15.853-8.934 16.163 16.163 0 0 1 3.57-19.343z" transform="translate(-.042 114.462)" style="fill:#d4e1f4"/>
        <path data-name="Path 15797" d="M14.709 188.823c-2.174-8.944 5.065-18.775 14.288-19.184 6.182-.309 12.374.01 18.556-.169l.359.987c-7.927 3-12.354 12.653-9.382 20.61 1.8 4.955 6.242 9.9 11.756 10.07 1.107.768-2.562.937-1.964.738-6.511.2-13.032.06-19.543.07-6.779-.938-12.979-6.212-14.07-13.122z" transform="translate(-.042 114.324)" style="fill:#d4e1f4"/>
        <path data-name="Path 15798" d="M230.11 173.22a95.417 95.417 0 0 1 15.33-3.33 86.6 86.6 0 0 1 96.87 79.44 91.311 91.311 0 0 1-.08 14.13 85.277 85.277 0 0 1-9.85 32.98 82.112 82.112 0 0 1-9.42 14.22 88.236 88.236 0 0 1-22.43 19.4 84.233 84.233 0 0 1-35.25 11.8 87.749 87.749 0 0 1-19.44-.06 88.859 88.859 0 0 1-14.9-3.12c-16.5-4.87-31.16-15.03-42.2-28.15a107.1 107.1 0 0 1-9.15-14.02 86.6 86.6 0 0 1-9.83-33.05 91.181 91.181 0 0 1-.09-14.12 86.486 86.486 0 0 1 9.31-32.99c2.3-5 5.88-9.24 8.5-14.03l.48.22a85.635 85.635 0 0 1 42.15-29.32m13.07 11.31c-12.14 2.24-23.93 7.41-33.24 15.58a73.9 73.9 0 0 0-22.53 33.17 72.317 72.317 0 0 0 56.6 93.74c23.3 3.95 49.3-3.74 64.63-22.26-.42.02 24.856-27.537 18.25-63.79a72.428 72.428 0 0 0-83.71-56.44z" style="fill:#0635c9" transform="translate(-1.498 114.635)"/>
        <path data-name="Path 15799" d="M187.41 233.28a73.9 73.9 0 0 1 22.53-33.17 21.31 21.31 0 0 1-1.37 2.36 72.2 72.2 0 0 0 7.16 91.84 72.131 72.131 0 0 0 91.22 10.56c.43-.03 1.27-.09 1.69-.11-15.33 18.52-41.33 26.21-64.63 22.26a72.317 72.317 0 0 1-56.6-93.74z" style="fill:#d4e1f4" transform="translate(-1.498 114.635)"/>
        <path data-name="Path 15801" d="M14.48 231.038c.538-6.72 5.8-12.374 12.2-14.109a224.928 224.928 0 0 1 22.753-.09c-5.075 1.884-9.542 5.8-11.077 11.117-2.921 8.535 2.8 19.134 11.855 20.6-7.4.937-14.946.3-22.4.369-8.157-1.505-14.518-9.552-13.331-17.887z" transform="translate(-.042 114.186)" style="fill:#d4e1f4"/>
        <path data-name="Path 15802" d="M342.076 249.33q69.172.03 138.334.02a30.569 30.569 0 0 1 22.683 9.721c4.577 4.736 7.029 11.038 8.176 17.429v4.178a31.038 31.038 0 0 1-11.058 22.474 31.472 31.472 0 0 1 11.058 21.9v2.5a31.1 31.1 0 0 1-10.728 22.248 32.057 32.057 0 0 1 10.729 20.251v6.012c-1.077 6.611-3.729 13.112-8.535 17.907a30.534 30.534 0 0 1-22.354 9.243q-88.226.03-176.462.01c-7.707-.16-15.794.847-23.042-2.433-11.716-4.766-19.573-17.439-18.466-30.062A30.256 30.256 0 0 1 273 349.925a31.7 31.7 0 0 1-5.275-6.042c-.7-.857-1.087-2.363-2.453-2.293a90.741 90.741 0 0 0 16.043-3.221c2.523 1.924 5.364 3.928 8.645 4.058 5.554-.578 11.137-.16 16.711-.329q81.361.1 162.713.03c4.965.04 9.951-.2 14.906.369a16.272 16.272 0 0 0 12.733-17.818 16.461 16.461 0 0 0-16.641-14.258c-52.536.04-105.062-.08-157.6.06a81.873 81.873 0 0 0 9.392-14.178q74.107.09 148.225.02a16.45 16.45 0 1 0-.02-32.893c-46.125-.02-95.259.01-141.384-.01a91.048 91.048 0 0 0 .08-14.089m-62.508 121.4c-1.386 8.286 4.955 16.95 13.3 18.027 8.276 1.007 16.671-.17 24.957.359q80.793.015 161.586.01c3-.04 6.082.2 9.014-.678a16.3 16.3 0 0 0 11.287-11.815c2.174-8.306-3.52-17.539-11.875-19.4-59 .5-189.014-.179-194.928-.179-6.829.876-12.492 6.889-13.34 13.679z" transform="translate(-.767 114.09)" style="fill:#0635c9"/>
        <path data-name="Path 15803" d="M21.579 266.4a20.1 20.1 0 0 1 5.972-2.523c7.319-.2 14.667-.349 21.976.05-5.4 1.924-10.08 6.252-11.4 11.965-2.333 8.266 3.181 18.1 11.746 19.712-7.309 1.067-14.856.349-22.265.379-6-1.316-11.357-5.893-12.713-12.015a16.2 16.2 0 0 1 6.461-17.419 1.7 1.7 0 0 0 .223-.149z" transform="translate(-.042 114.048)" style="fill:#d4e1f4"/>
        <path data-name="Path 15804" d="m21.48 266.49.12-.08a1.7 1.7 0 0 1-.22.15z" style="fill:#1ae5be" transform="translate(-1.498 114.635)"/>
        <path data-name="Path 15805" d="M24.94 311.87c.5-.23 1.48-.7 1.98-.93-.5.23-1.48.7-1.98.93z" style="fill:#1ae5be" transform="translate(-1.498 114.635)"/>
        <path data-name="Path 15806" d="m26.883 310.94.718-.03c7.478.169 15.056-.678 22.454.489-9.014 1.386-14.577 12.065-11.7 20.49 1.555 5.464 6.222 9.323 11.377 11.287-8.036-.279-16.222.768-24.159-.708l-.229-.08a16.2 16.2 0 0 1-9.761-9.093c-3.57-8.106.828-18.635 9.323-21.427.502-.231 1.479-.699 1.977-.928z" transform="translate(-.042 113.91)" style="fill:#d4e1f4"/>
        <path data-name="Path 15808" d="m25.38 342.48.23.08z" style="fill:#1ae5be" transform="translate(-1.498 114.635)"/>
        <path data-name="Path 15810" d="M14.46 375.768c-1.127-8.365 5.344-16.3 13.48-17.8 7.468.04 14.956-.259 22.414.179a16.4 16.4 0 0 0-2.6 31.139v1.087c-6.242-.249-12.483.1-18.715-.189-7.53-.308-14.001-6.978-14.579-14.416z" transform="translate(-.042 113.772)" style="fill:#d4e1f4"/>
        <text data-name="16" transform="translate(398.143 294.307)" style="font-size:100px;font-family:IRANSansWebFaNum,'IRANSansWeb\(FaNum\)';fill:#1ae5be"><tspan x="-87.913" y="0">16</tspan></text>
        <text transform="translate(442.92 191.183)" style="font-size:100px;font-family:IRANSansWebFaNum,'IRANSansWeb\(FaNum\)';fill:#1ae5be"><tspan x="-169.826" y="0">ماده</tspan></text>
        <path data-name="Path 15080" d="M52.5 6.555a6.151 6.151 0 0 1 6.18 1.6c1.724 1.929 1.832 4.672 2 7.114.376 9.111.484 18.239 1.252 27.328.1 1.8.757 3.995 2.669 4.593 3.153.933 6.493.364 9.7.051a10.131 10.131 0 0 0 5.827-2.407c-.609-4.723-2.618-9.06-4.029-13.561 2.834-1.411 5.566-3.01 8.354-4.507a57.42 57.42 0 0 1 4.3 15.223c.541 4.786-.535 10.158-4.365 13.4-4.308 3.7-10.261 4.314-15.707 4.53-4.422.091-9.492-.672-12.378-4.393-2.988-4.006-3.631-9.208-3.756-14.062-.04-8.121-.2-16.242-.825-24.346-2.2.609-4.393 1.275-6.584 1.941.654 7.819.524 15.673.939 23.5.08 7.04.876 14.307-1.451 21.1-1.69 5.549-5.691 10.557-11.245 12.56-8.383 2.919-18.717 1.326-24.937-5.3a18.807 18.807 0 0 1-4.728-14.666A56 56 0 0 1 8.81 39.107q3.85 1.776 7.705 3.54c-1.815 4.513-4.132 9.105-3.8 14.108-.006 3.329 2.589 6.066 5.492 7.347a17.938 17.938 0 0 0 13.106.222 9.183 9.183 0 0 0 5.3-5.566c1.7-4.877.546-10.073.62-15.092-.415-7.8-.922-15.6-1.764-23.367 2.18-3.6 4.194-7.3 6.385-10.892 3.571-.849 7.076-1.97 10.646-2.852z" transform="translate(196.724 323.747)" style="fill:#0635c9"/>
        <path data-name="Path 15081" d="M151.99 55.475c3.176-.535 6.266-1.463 9.447-1.975 1.081 7.256 1.537 14.7.324 21.961-.973 5.822-5.179 10.517-10 13.624a51.321 51.321 0 0 1-13.994 6.084c-1.3-3.506-2.407-7.091-3.489-10.67 5.748-1.707 11.5-3.847 16.35-7.449 1.241-1.041 2.794-2.157 2.919-3.921.213-5.929-.954-11.781-1.557-17.654z" transform="translate(140.42 303.418)" style="fill:#0635c9"/>
        <path data-name="Path 15082" d="M80.887 113.208a110.173 110.173 0 0 0 25.051-2.908c1.053 3.409 2.066 6.835 3.079 10.261a92.805 92.805 0 0 1-30.127 1.9c.677-3.078 1.235-6.191 1.997-9.253z" transform="translate(164.289 278.942)" style="fill:#0635c9"/>
    </g>
</svg>
