<svg xmlns="http://www.w3.org/2000/svg" data-name="Layer 1" viewBox="0 0 512 512"><path fill="#0635c9" d="M250.506,147.094h-44.4a6,6,0,1,0,0,12h44.4a6,6,0,0,0,0-12Z"></path><path fill="#0635c9" d="M275.218,215.659a6,6,0,0,0,6,6h101.53a6,6,0,0,0,0-12H281.218A6,6,0,0,0,275.218,215.659Z"></path><path fill="#0635c9" d="M232.045,215.659a6,6,0,0,0,6,6h20.7a6,6,0,0,0,0-12h-20.7A6,6,0,0,0,232.045,215.659Z"></path><path fill="#0635c9" d="M206.105,221.659h9.1a6,6,0,1,0,0-12h-9.1a6,6,0,0,0,0,12Z"></path><path fill="#0635c9" d="M382.748,272.223h-7.8a6,6,0,0,0,0,12h7.8a6,6,0,0,0,0-12Z"></path><path fill="#0635c9" d="M326.81,272.223a6,6,0,0,0,0,12h25.652a6,6,0,0,0,0-12Z"></path><path fill="#0635c9" d="M206.105,284.223h100.9a6,6,0,0,0,0-12h-100.9a6,6,0,1,0,0,12Z"></path><path fill="#0635c9" d="M462.755,58.266c-.429,0-.852.018-1.277.032a6.114,6.114,0,0,0-.623-.032H204.725a44.139,44.139,0,0,0-43.993,43.561l-.741,90.609a6,6,0,0,0,5.951,6.049h.05a6,6,0,0,0,6-5.95l.741-90.6a32.1,32.1,0,0,1,31.993-31.671H434.548A39.1,39.1,0,0,0,423.51,97.511v134.1l-.149,147.374A48.911,48.911,0,0,1,421.416,393c-6.156,20.46-24.341,34.206-45.282,34.206-26.107,0-47.346-21.77-47.346-48.528V343.368a6,6,0,0,0-6-6H173.64a5.971,5.971,0,0,0-2.839.714l.325-39.74a6,6,0,0,0-12-.1l-.34,41.567a6,6,0,0,0,5.951,6.049h.05a5.967,5.967,0,0,0,3.083-.86,6,6,0,0,0,5.77,4.368H316.788v29.308A60.864,60.864,0,0,0,340.711,427.2H242.036a6,6,0,0,0,0,12H372.854a6.009,6.009,0,0,0,.831-.065c.823.035,1.648.065,2.48.065,26.245,0,49.048-17.18,56.742-42.749A60.876,60.876,0,0,0,435.361,379l.149-147.381V174H496a6,6,0,0,0,6-6V97.511A39.289,39.289,0,0,0,462.755,58.266ZM490,162H435.51V97.511a27.245,27.245,0,1,1,54.49,0Z"></path><path fill="#0635c9" d="M382.748,159.094a6,6,0,0,0,0-12H369.99a6,6,0,0,0,0,12Z"></path><path fill="#0635c9" d="M347.6,147.094h-75a6,6,0,0,0,0,12h75a6,6,0,0,0,0-12Z"></path><path fill="#1ae5be" d="M131.272,314.146a69.04,69.04,0,1,0-69.04-69.039A69.118,69.118,0,0,0,131.272,314.146Zm0-126.079a57.04,57.04,0,1,1-57.04,57.04A57.1,57.1,0,0,1,131.272,188.067Z"></path><path fill="#1ae5be" d="M16,453.734H242.942a6,6,0,0,0,6-6,121.066,121.066,0,0,0-.954-15.171A119.478,119.478,0,0,0,10,447.734,6,6,0,0,0,16,453.734ZM129.472,340.263a107.378,107.378,0,0,1,106.612,93.81c.32,2.529.552,5.09.693,7.661H22.165A107.614,107.614,0,0,1,129.472,340.263Z"></path></svg>