<?xml version="1.0" encoding="utf-8"?>
<!-- Generator: Adobe Illustrator 23.1.0, SVG Export Plug-In . SVG Version: 6.00 Build 0)  -->
<svg version="1.1" id="Layer_1" xmlns="http://www.w3.org/2000/svg" xmlns:xlink="http://www.w3.org/1999/xlink" x="0px" y="0px"
	 viewBox="0 0 512 512" style="enable-background:new 0 0 512 512;" xml:space="preserve">
<style type="text/css">
	.st0{fill:#D4E1F4;}
	.st1{fill:#0635C9;}
	.st2{fill:#1AE5BE;}
</style>
<path class="st0" d="M374.1,100.4c0.8,0,1.7,0,2.5-0.1l19.4-1.9v-1.6c0-0.4,0-0.9-0.1-1.3l-32,3.1
	C367.2,99.8,370.6,100.4,374.1,100.4L374.1,100.4z"/>
<path class="st0" d="M78,475.2V36.8C78,28.6,85.1,22,93.9,22h-30C55.1,22,48,28.6,48,36.8v438.4c0,8.2,7.1,14.8,15.9,14.8h30
	C85.1,490,78,483.4,78,475.2z"/>
<path class="st1" d="M405.9,86.7L405.9,86.7c-1.2-2.9-3-5.5-5.1-7.8l-56.1-60c-2.4-2.6-5.4-4.7-8.6-6.2c-0.1-0.1-0.2-0.1-0.3-0.2
	C332.1,10.9,328,10,324,10H63.9C48.5,10,36,22,36,36.8v438.4C36,490,48.5,502,63.9,502h149.7c0.1-4,0.2-8,0.2-12H63.9
	c-8.8,0-15.9-6.6-15.9-14.8V36.8C48,28.6,55.1,22,63.9,22H324c0.8,0,1.7,0.1,2.5,0.2l-10,47.2c0,0.1,0,0.2-0.1,0.3
	c-1.2,7.9,1.3,16,6.9,21.8c5.4,5.7,12.9,8.9,20.7,8.9c0.8,0,1.7,0,2.5-0.1l49.3-4.8c0,0.4,0.1,0.9,0.1,1.3v27.7
	c4.1,1.4,8.1,3,12,4.7V96.8C408,93.3,407.3,89.9,405.9,86.7z M345.5,88.4c-5,0.5-10-1.4-13.4-5c-3-3.1-4.4-7.4-3.8-11.6l9.1-43.1
	l51.9,55.4L345.5,88.4z"/>
<path class="st1" d="M171.4,437.4c-4.1,2.4-8.7,3.6-13.4,3.6c-3.9,0-7.7-1-11.1-2.8c-1.3-0.7-2.6-1.6-3.7-2.6
	c-1.9-2-4.5-3.2-7.3-3.3c-5.8-0.2-9.1,4.1-11.4,7.3c-1.5,2.3-3.5,4.3-5.7,5.9c-4.6,2.9-11.8,3.5-16.3,1.4c-1.6-0.8-3.1-2-4.2-3.4
	c4.9-0.7,9.6-2.7,13.6-5.7c3.7-3,6.7-6.7,8.8-11.1c2.6-5.7,2.6-11.1-0.1-15.3c-2.3-3.5-6.3-5.9-11.5-6.7c-6.9-1.1-14.5,0.6-19.3,4.4
	c-5.4,4.3-8.4,11.7-8.2,20.3c-0.1-0.1-0.3-0.1-0.4-0.2c-3-1.3-6.6,0.1-7.9,3.2c-1.3,3,0.1,6.6,3.2,7.9l0,0c2.5,1.1,5.1,1.9,7.8,2.5
	c2.7,6.7,7.4,12.1,13.1,14.8c3.6,1.6,7.6,2.5,11.6,2.4c5.7,0,11.4-1.5,16.3-4.5c3.5-2.3,6.5-5.3,8.9-8.8c0.4-0.6,1-1.3,1.5-1.9
	c1.7,1.5,3.6,2.9,5.6,3.9c5.1,2.7,10.7,4.1,16.5,4.2c6.9,0.1,13.7-1.7,19.7-5.2c2.9-1.7,3.8-5.3,2.2-8.2
	C177.9,436.7,174.3,435.7,171.4,437.4L171.4,437.4z M93.8,431.8l0-0.1c-0.7-5.8,0.7-11,3.5-13.2c2.2-1.5,4.9-2.3,7.6-2.2
	c0.8,0,1.6,0.1,2.3,0.2c2.3,0.4,3.2,1.2,3.4,1.4c0.6,0.9-1,6.4-6,10.4C101.5,430.5,97.7,431.8,93.8,431.8L93.8,431.8z"/>
<g>
	<path class="st2" d="M74.2,83.4h86c1.5,0,2.8-2.7,2.8-6s-1.2-6-2.8-6h-86c-1.5,0-2.8,2.7-2.8,6S72.7,83.4,74.2,83.4z"/>
	<path class="st2" d="M74.2,131.9h86c1.5,0,2.8-2.7,2.8-6s-1.2-6-2.8-6h-86c-1.5,0-2.8,2.7-2.8,6S72.7,131.9,74.2,131.9z"/>
	<path class="st2" d="M227.3,168.3H74.6c-1.7,0-3.1,2.7-3.1,6s1.4,6,3.1,6h152.8c1.7,0,3.1-2.7,3.1-6S229.1,168.3,227.3,168.3z"/>
	<path class="st2" d="M227.3,216.7H74.6c-1.7,0-3.1,2.7-3.1,6s1.4,6,3.1,6h152.8c1.7,0,3.1-2.7,3.1-6S229.1,216.7,227.3,216.7z"/>
	<path class="st2" d="M227.3,265.1H74.6c-1.7,0-3.1,2.7-3.1,6s1.4,6,3.1,6h152.8c1.7,0,3.1-2.7,3.1-6S229.1,265.1,227.3,265.1z"/>
	<path class="st2" d="M217.6,313.6H74.4c-1.6,0-2.9,2.7-2.9,6s1.3,6,2.9,6h143.2c1.6,0,2.9-2.7,2.9-6S219.2,313.6,217.6,313.6z"/>
	<path class="st2" d="M208.6,361.5H74.2c-1.5,0-2.8,2.7-2.8,6s1.2,6,2.8,6h134.4c1.5,0,2.8-2.7,2.8-6S210.2,361.5,208.6,361.5z"/>
</g>
<path class="st1" d="M454.9,379.2l-4.3,9.2c12.8,4.9,21.2,16.4,21.2,29v74.4h-33.6c4.1-11.9,3.4-24.8-2.1-36.3
	c-1.2-2.6-4.4-3.8-7.2-2.7s-4.1,4-3,6.6c0,0,0,0.1,0,0.1c4.9,10.3,5,21.9,0.5,32.3H298.4c-4.6-10.4-4.4-22,0.5-32.3
	c1.2-2.5,0-5.5-2.8-6.6s-6,0-7.3,2.5c0,0,0,0.1,0,0.1c-5.4,11.5-6.2,24.3-2.1,36.3h-33.6v-74.4c0-12.2,7.7-23.2,19.8-28.5l-4.7-9.1
	c-15.9,6.9-26,21.5-26,37.5v79.4c0,2.8,2.5,5,5.5,5l0,0h229.7c3,0,5.5-2.2,5.5-5v-79.4C482.8,400.8,471.8,385.7,454.9,379.2
	L454.9,379.2z"/>
<g>
	<path class="st2" d="M415.8,375.9c-6.7,5-14.1,8.9-22.1,11.8c-2.8,1-4.2,3.9-3.1,6.5c1.1,2.6,4.3,3.9,7.1,2.9
		c9.1-3.2,17.6-7.7,25.1-13.4c2.4-1.8,2.7-4.9,0.8-7.1C421.7,374.5,418.2,374.2,415.8,375.9L415.8,375.9L415.8,375.9z"/>
	<path class="st2" d="M438.5,281.3v-30.1c0-37.3-33.2-67.6-74.2-67.6S290,214,290,251.3v30.1c0,37.3,33.2,67.6,74.2,67.6
		S438.5,318.7,438.5,281.3z M400.2,204c-23.7-4.4-48.1-4.4-71.8,0C349.9,190.3,378.6,190.3,400.2,204z M364.3,338.9
		c-34.9,0-63.2-25.8-63.2-57.5v-30.1c0-11.9,4.1-23.5,11.6-33.2c33.5-9.8,69.6-9.8,103.2,0c7.6,9.7,11.6,21.3,11.6,33.2v30.1
		C427.4,313.1,399.1,338.8,364.3,338.9z"/>
	<path class="st2" d="M395.9,239.2c-9.6,0-17.4,7.1-17.4,15.8c0,2.8,2.5,5,5.5,5c3,0,5.5-2.2,5.5-5c0-3.2,2.8-5.8,6.3-5.8
		c3.5,0,6.3,2.6,6.3,5.8c0,0,0,0,0,0c0,2.8,2.5,5,5.5,5c3,0,5.5-2.2,5.5-5C413.2,246.2,405.4,239.2,395.9,239.2z"/>
	<path class="st2" d="M344.5,260c3,0,5.5-2.2,5.5-5c0-8.7-7.8-15.8-17.4-15.8c-9.6,0-17.4,7.1-17.4,15.8c0,2.8,2.5,5,5.5,5
		s5.5-2.2,5.5-5c0-3.2,2.8-5.8,6.3-5.8c3.5,0,6.3,2.6,6.3,5.8l0,0C339,257.7,341.5,260,344.5,260z"/>
	<path class="st2" d="M380.1,291.8c-8.8,8-23,8-31.7,0c-2.2-1.9-5.7-1.9-7.8,0.1c-2.1,2-2.1,5.1,0,7c13.1,11.9,34.2,11.9,47.3,0
		c2.1-2,2.1-5.2-0.1-7.1C385.7,289.9,382.3,289.9,380.1,291.8L380.1,291.8z"/>
	<path class="st2" d="M272.2,392.1l59.7,54.4c17.8,16.2,46.7,16.2,64.6,0l59.7-54.4c17.8-16.2,17.8-42.4,0.1-58.7l-0.8-0.8
		c0.9-4.7,1.3-9.4,1.3-14.2v-88.6c0-46.5-41.5-84.3-92.6-84.3c-51.1,0-92.6,37.7-92.6,84.3c0,0,0,0,0,0v88.6c0,4.7,0.4,9.5,1.3,14.1
		l-0.8,0.8C254.4,349.7,254.5,375.9,272.2,392.1z M364.3,402.7c3,0,5.5-2.2,5.5-5c0-2.8-2.5-5-5.5-5c-45,0-81.5-33.3-81.6-74.2
		v-88.6c0-41,36.5-74.3,81.5-74.3c45.1,0,81.6,33.2,81.6,74.2c0,0,0,0,0,0.1v88.6c0,11.2-2.8,22.2-8.1,32.3
		c-2.5,4.7-5.6,9.2-9.1,13.3c-1.9,2.2-1.5,5.3,0.9,7c2.4,1.7,5.9,1.3,7.7-0.9c6.6-7.7,11.7-16.4,15.1-25.7
		c9.7,12.5,8.1,29.6-3.8,40.4l-59.7,54.4c-13.5,12.3-35.5,12.3-49,0L280,385c-11.9-10.9-13.5-27.9-3.8-40.4
		C288.7,379.2,324.2,402.7,364.3,402.7L364.3,402.7z"/>
	<path class="st2" d="M317.1,187.7c1.3,0,2.5-0.4,3.5-1.2c12.9-9.8,29.2-15.1,46-15.1c3,0,5.5-2.2,5.5-5s-2.5-5-5.5-5
		c-19.4,0-38.1,6.2-53.1,17.4c-2.3,1.8-2.7,4.9-0.7,7.1C313.9,187,315.5,187.7,317.1,187.7L317.1,187.7z"/>
</g>
</svg>
