<svg xmlns="http://www.w3.org/2000/svg" width="498.529" height="563.218" viewBox="0 0 498.529 563.218">
    <g data-name="پیمان های واگذارنده">
        <path data-name="Path 15912" d="M4826.453 6905.8H4604.69" transform="translate(-4462.908 -6661.857)" style="stroke-linecap:round;stroke-linejoin:round;fill:none;stroke:#0635c9;stroke-width:14px"/>
        <path data-name="Path 15895" d="M25.45 189.66c.025-.075.088-.225.113-.3-.025.075-.088.225-.113.3z" transform="translate(309.625 153.625)" style="fill:#1ae5be"/>
        <g data-name="Group 2669">
            <path data-name="Path 15894" d="M52.533 161.592c5.918-.878 6.832-.97 15.61-.6-9.052 2.469-19.528 8.577-24.849 17.511a36.324 36.324 0 0 0-5.256 18.51c-.048 10.585 0 21.17-.016 31.755-5.337-.3-10.689.176-16.042.032.04-10.072 0-20.144.016-30.209a43.146 43.146 0 0 1 2.764-14.7c.016-.048.056-.144.072-.192a36.275 36.275 0 0 1 27.701-22.107z" transform="translate(207.347 193.156)" style="fill:#d4e1f4"/>
            <path data-name="Path 15891" d="M62.838 90.556c.048-12.813 10.745-24.463 23.446-25.826 3.966-.633 7.925.136 11.851.609l-.3.1a27.693 27.693 0 0 0-17.906 17.817c-4.792 13.71 3.59 30.144 17.508 34.263-.849.3-1.7.585-2.556.849a32.647 32.647 0 0 1-12.708-.657c-.353-.2-1.05-.609-1.4-.809-11.012-3.173-18.681-14.984-17.935-26.346z" transform="translate(199.237 212.301)" style="fill:#d4e1f4"/>
            <path data-name="Path 15890" d="M81.815 52.649a36.923 36.923 0 1 1-25.881 17.323 37 37 0 0 1 25.881-17.323m-21.4 35.465c-.745 11.362 6.923 23.173 17.933 26.346l.008.713.713.425.681-.329a32.647 32.647 0 0 0 12.708.657c12.484-1.859 22.324-13.638 22.372-26.186a27.413 27.413 0 0 0-19.417-26.747l.3-.1c-3.926-.473-7.885-1.242-11.851-.609C71.158 63.65 60.461 75.3 60.413 88.114z" transform="translate(201.662 214.743)" style="stroke-width:4px;stroke:#1ae5be;fill:#1ae5be"/>
            <path data-name="Path 15893" d="M48.067 149.635a52.154 52.154 0 0 1 9.215-.705q22.837.012 45.665 0a46.077 46.077 0 0 1 45.786 45.77c.064 12 .024 24.007.024 36.01a4.867 4.867 0 0 1-4.848 5.425q-64.183.1-128.382.032a4.891 4.891 0 0 1-5.489-4.6c-.088-12.308-.04-24.624-.016-36.939a46.075 46.075 0 0 1 38.045-44.992m2.083 9.591a36.275 36.275 0 0 0-27.7 22.1c-.016.048-.056.144-.072.192a43.146 43.146 0 0 0-2.764 14.7c-.016 10.064.024 20.136-.016 30.209 39.832.272 79.68.04 119.52.128.08-7.684.016-15.377.032-23.061-.048-6.162.4-12.476-1.4-18.454a36.562 36.562 0 0 0-25.465-25.225c-6.715-1.883-13.75-1.162-20.625-1.226-5.06 5.063-12.76 15.789-12.76 15.789s-12.644-16.315-13.606-15.842c-5.048.272-10.16-.377-15.144.689m26.267-.729a66.608 66.608 0 0 0 2.483 6.947s1.795-4.736 2.788-6.955h-6.146" transform="translate(209.729 195.522)" style="stroke-width:4px;stroke:#1ae5be;fill:#1ae5be"/>
        </g>
        <path data-name="Path 15899" d="M30.279 276.262a2.054 2.054 0 0 1 2.928-.754c3.426 2.126 6.819 4.314 10.228 6.467a2.1 2.1 0 0 1 1.065 2.338 2.037 2.037 0 0 1-2.976 1.276c-1.918-1.136-3.751-2.413-5.675-3.542a69.648 69.648 0 0 0 95.818 52.34c.908-.406 2.013-.966 2.962-.331a2.048 2.048 0 0 1-.055 3.518 73.592 73.592 0 0 1-97.217-36.9 69.7 69.7 0 0 1-5.665-19.049c-1.375 2.389-2.9 4.692-4.344 7.034a2.077 2.077 0 0 1-2.751.884 2.052 2.052 0 0 1-.758-2.976c2.134-3.445 4.29-6.867 6.44-10.305z" transform="rotate(10.02 -846.8 1605.707)" style="stroke-width:10px;stroke:#1ae5be;fill:#1ae5be;stroke-linecap:round;stroke-linejoin:round"/>
        <path data-name="Path 15310" d="M139.557 216.117a54.284 54.284 0 0 0 21.343 0c10.989-2.213 20.142-9.058 10.67-17.972-22.465-10.671-24.15 12.918-24.15 12.918s6.318 18.674 16.849 20.78 15.164-8.986 23.589-15.726-1.685 11.441 13.479 9.194 16.849-9.194 16.849-9.194" transform="translate(2.066 257.267)" style="stroke-linecap:round;stroke-linejoin:round;fill:none;stroke:#0635c9;stroke-width:14px"/>
        <path data-name="Path 15910" d="M4661.189 6905.8h-56.5" transform="translate(-4380.069 -6767.857)" style="stroke-linecap:round;stroke-linejoin:round;fill:none;stroke:#0635c9;stroke-width:14px"/>
        <path data-name="Path 15911" d="M4826.453 6905.8h-221.764" transform="translate(-4462.908 -6711.857)" style="stroke-linecap:round;stroke-linejoin:round;fill:none;stroke:#0635c9;stroke-width:14px"/>
        <path data-name="Path 15913" d="M4745.862 7320.873h-221.5s-25 2.122-38-9.016-14-35.534-14-35.534v-370.185s-2.5-25.722 10.5-41.1 41.5-12.994 41.5-12.994h235s28.584-2.21 42.334 11.314 12.666 42.782 12.666 42.782v176.77" transform="translate(-4390.259 -6764.857)" style="stroke-linecap:round;stroke-linejoin:round;fill:none;stroke:#0635c9;stroke-width:14px"/>
        <g data-name="Group 2670">
            <path data-name="Path 15894" d="M52.533 161.592c5.918-.878 6.832-.97 15.61-.6-9.052 2.469-19.528 8.577-24.849 17.511a36.324 36.324 0 0 0-5.256 18.51c-.048 10.585 0 21.17-.016 31.755-5.337-.3-10.689.176-16.042.032.04-10.072 0-20.144.016-30.209a43.146 43.146 0 0 1 2.764-14.7c.016-.048.056-.144.072-.192a36.275 36.275 0 0 1 27.701-22.107z" transform="translate(345.347 322.157)" style="fill:#d4e1f4"/>
            <path data-name="Path 15891" d="M62.838 90.556c.048-12.813 10.745-24.463 23.446-25.826 3.966-.633 7.925.136 11.851.609l-.3.1a27.693 27.693 0 0 0-17.906 17.817c-4.792 13.71 3.59 30.144 17.508 34.263-.849.3-1.7.585-2.556.849a32.647 32.647 0 0 1-12.708-.657c-.353-.2-1.05-.609-1.4-.809-11.012-3.173-18.681-14.984-17.935-26.346z" transform="translate(337.237 341.302)" style="fill:#d4e1f4"/>
            <path data-name="Path 15890" d="M81.815 52.649a36.923 36.923 0 1 1-25.881 17.323 37 37 0 0 1 25.881-17.323m-21.4 35.465c-.745 11.362 6.923 23.173 17.933 26.346l.008.713.713.425.681-.329a32.647 32.647 0 0 0 12.708.657c12.484-1.859 22.324-13.638 22.372-26.186a27.413 27.413 0 0 0-19.417-26.747l.3-.1c-3.926-.473-7.885-1.242-11.851-.609C71.158 63.65 60.461 75.3 60.413 88.114z" transform="translate(339.662 343.744)" style="stroke-width:4px;stroke:#1ae5be;fill:#1ae5be"/>
            <path data-name="Path 15893" d="M48.067 149.635a52.154 52.154 0 0 1 9.215-.705q22.837.012 45.665 0a46.077 46.077 0 0 1 45.786 45.77c.064 12 .024 24.007.024 36.01a4.867 4.867 0 0 1-4.848 5.425q-64.183.1-128.382.032a4.891 4.891 0 0 1-5.489-4.6c-.088-12.308-.04-24.624-.016-36.939a46.075 46.075 0 0 1 38.045-44.992m2.083 9.591a36.275 36.275 0 0 0-27.7 22.1c-.016.048-.056.144-.072.192a43.146 43.146 0 0 0-2.764 14.7c-.016 10.064.024 20.136-.016 30.209 39.832.272 79.68.04 119.52.128.08-7.684.016-15.377.032-23.061-.048-6.162.4-12.476-1.4-18.454a36.562 36.562 0 0 0-25.465-25.225c-6.715-1.883-13.75-1.162-20.625-1.226-5.06 5.063-12.76 15.789-12.76 15.789s-12.644-16.315-13.606-15.842c-5.048.272-10.16-.377-15.144.689m26.267-.729a66.608 66.608 0 0 0 2.483 6.947s1.795-4.736 2.788-6.955h-6.146" transform="translate(347.729 324.523)" style="stroke-width:4px;stroke:#1ae5be;fill:#1ae5be"/>
        </g>
        <path data-name="Path 15914" d="M4684.932 6905.8h-80.242" transform="translate(-4463.068 -6611.857)" style="stroke-linecap:round;stroke-linejoin:round;fill:none;stroke:#0635c9;stroke-width:14px"/>
        <path data-name="Path 15915" d="M4653.018 6905.8h-48.328" transform="translate(-4463.068 -6561.857)" style="stroke-linecap:round;stroke-linejoin:round;fill:none;stroke:#0635c9;stroke-width:14px"/>
        <path data-name="Path 15916" d="M4506.044 7319.962c-6.646-1.088-14.222-3.427-19.682-8.105-13-11.137-14-35.534-14-35.534v-370.185s-2.5-25.722 10.5-41.1 41.5-12.994 41.5-12.994h235s28.584-2.21 42.334 11.314c7.494 7.371 10.582 19.415 11.879 29.148" transform="translate(-4427.123 -6804.857)" style="stroke-linecap:round;stroke-linejoin:round;fill:none;stroke:#0635c9;stroke-width:14px"/>
        <path data-name="Path 15917" d="M4506.044 7319.962c-6.646-1.088-14.222-3.427-19.682-8.105-13-11.137-14-35.534-14-35.534v-370.185s-2.5-25.722 10.5-41.1 41.5-12.994 41.5-12.994h235s28.584-2.21 42.334 11.314c7.494 7.371 10.582 19.415 11.879 29.148" transform="translate(-4465.123 -6844.857)" style="stroke-linecap:round;stroke-linejoin:round;fill:none;stroke:#0635c9;stroke-width:14px"/>
        <path data-name="Path 15889" d="M139.9 44.674a78.233 78.233 0 0 1 95.94 16.519 79.355 79.355 0 0 1 17.988 34.213 6.732 6.732 0 0 0 .658 2.132c1.157-1.786 2.488-3.449 3.71-5.191.455-.6.884-1.335 1.659-1.553a2.191 2.191 0 0 1 2.8 1.67 2.676 2.676 0 0 1-.738 2.2c-2.459 3.343-4.875 6.715-7.341 10.051a2.189 2.189 0 0 1-3.139.538q-5.255-3.874-10.5-7.752a2.176 2.176 0 0 1-.386-3.216 2.2 2.2 0 0 1 3.059-.222q3.29 2.417 6.573 4.853a75.935 75.935 0 0 0-13.376-29.647 73.937 73.937 0 0 0-94.42-21.026 2.229 2.229 0 0 1-2.79-.367 2.172 2.172 0 0 1 .303-3.202z" transform="rotate(9 -1402.113 1480.89)" style="stroke-width:10px;stroke:#1ae5be;fill:#1ae5be;stroke-linecap:round;stroke-linejoin:round"/>
        <path data-name="Path 15918" d="M4644.811 6905.8h-40.121" transform="translate(-4463.068 -6511.857)" style="stroke-linecap:round;stroke-linejoin:round;fill:none;stroke:#0635c9;stroke-width:14px"/>
    </g>
</svg>
