<?xml version="1.0" encoding="utf-8"?>
<!-- Generator: Adobe Illustrator 23.1.0, SVG Export Plug-In . SVG Version: 6.00 Build 0)  -->
<svg version="1.1" id="Layer_1" xmlns="http://www.w3.org/2000/svg" xmlns:xlink="http://www.w3.org/1999/xlink" x="0px" y="0px"
	 viewBox="0 0 512 512" style="enable-background:new 0 0 512 512;" xml:space="preserve">
<style type="text/css">
	.st0{fill:#D4E1F4;}
	.st1{fill:#0635C9;}
	.st2{fill:#1AE5BE;}
</style>
<path class="st0" d="M14.9,483.5l30-24V36l-30-24L14.9,483.5z"/>
<g>
	<path class="st1" d="M48.6,202.1h2.3c3.3,0,6-2.7,6-6s-2.7-6-6-6h-2.3c-3.3,0-6,2.7-6,6S45.3,202.1,48.6,202.1z"/>
	<path class="st1" d="M91.7,190.1H74.1c-3.3,0-6,2.7-6,6s2.7,6,6,6h17.6c3.3,0,6-2.7,6-6S95,190.1,91.7,190.1z"/>
	<path class="st1" d="M241.1,190.1H115.3c-3.3,0-6,2.7-6,6s2.7,6,6,6h125.9c3.3,0,6-2.7,6-6S244.5,190.1,241.1,190.1z"/>
	<g>
		<path class="st1" d="M67,400.1c-2.4,0-4.7-0.3-6.7-0.9c-2-0.6-3.7-1.6-5.1-2.8c-1.4-1.2-2.5-2.8-3.3-4.6s-1.2-4-1.2-6.5
			c0-2.4,0.4-4.7,1.1-7c0.7-2.3,1.8-4.6,3.3-6.9l4.8,3.4c-0.3,0.4-0.6,1-1,1.7c-0.4,0.8-0.8,1.6-1.1,2.6c-0.4,1-0.7,2-0.9,3.1
			c-0.2,1.1-0.4,2.2-0.4,3.2c0,1.2,0.3,2.2,0.8,3.2c0.5,0.9,1.2,1.8,2.1,2.4c0.9,0.7,1.9,1.2,3.1,1.6c1.2,0.4,2.4,0.6,3.6,0.6
			c1.5,0,3-0.2,4.3-0.6c1.4-0.4,2.6-1,3.6-1.8c1-0.8,1.9-1.7,2.5-2.7s0.9-2.2,0.8-3.4c0-0.6-0.1-1.3-0.3-2.1
			c-0.2-0.8-0.4-1.6-0.7-2.4c-0.3-0.8-0.6-1.6-0.9-2.4c-0.3-0.8-0.6-1.5-0.9-2.2c-0.3-0.7-0.5-1.2-0.8-1.7c-0.2-0.5-0.3-0.8-0.4-1
			l5.8-3.2c0.1,0.1,0.2,0.3,0.4,0.8c0.2,0.5,0.5,1.1,0.8,1.9c0.3,0.8,0.6,1.7,1,2.7c0.3,1,0.7,2,0.9,3.1c0.3,1.1,0.5,2.1,0.7,3.2
			c0.2,1.1,0.3,2,0.3,2.9c0,1.3-0.1,2.5-0.4,3.8c-0.3,1.2-0.7,2.4-1.3,3.6c-0.6,1.1-1.3,2.2-2.2,3.2c-0.9,1-1.9,1.8-3.1,2.5
			c-1.2,0.7-2.6,1.3-4.1,1.7C70.5,399.9,68.8,400.1,67,400.1z M67.1,374.5l-4.7-4.7l4.7-4.7l4.7,4.7L67.1,374.5z"/>
		<path class="st1" d="M97.2,385.4c-1.8,0-3.3-0.2-4.5-0.7c-1.2-0.5-2.2-1.1-3-2c-0.8-0.8-1.3-1.8-1.7-3c-0.3-1.1-0.5-2.4-0.5-3.7
			c0-0.7,0-1.5,0-2.5c0-1,0-2.2,0-3.5c0-1.3,0-2.8,0-4.4c0-1.6-0.1-3.2-0.1-4.8c-0.1-1.6-0.2-3.1-0.3-4.6c-0.1-1.5-0.3-2.8-0.5-3.9
			l6.4-1.9c0.2,0.9,0.3,2,0.5,3.3c0.1,1.3,0.2,2.6,0.3,4c0.1,1.4,0.1,2.8,0.2,4.2c0,1.4,0.1,2.7,0.1,3.9c0,1.1,0,2.2-0.1,3.4
			c0,1.2-0.1,2.3-0.1,3.4c0,1.1,0,2,0,2.9c0,0.9,0.2,1.5,0.4,2c0.1,0.3,0.3,0.6,0.5,0.7c0.2,0.2,0.4,0.3,0.7,0.4
			c0.3,0.1,0.5,0.1,0.8,0.1c0.3,0,0.6,0,1,0h0.6v6.7H97.2z"/>
		<path class="st1" d="M115.4,385.3c-0.9,0-1.7-0.1-2.6-0.3c-0.9-0.2-1.8-0.4-2.7-0.7c-0.9-0.3-1.7-0.6-2.5-1
			c-0.8-0.4-1.5-0.8-2.1-1.2c-0.5,0.6-1,1.1-1.5,1.6c-0.5,0.4-1.1,0.8-1.7,1c-0.6,0.3-1.3,0.4-2,0.5c-0.7,0.1-1.5,0.2-2.3,0.2H97
			v-6.7H98c0.9,0,1.7-0.2,2.4-0.6c0.6-0.4,1.2-0.9,1.6-1.5c0.5-0.6,0.9-1.3,1.2-2c0.3-0.7,0.7-1.4,1.1-2.1c0.4-0.9,0.9-1.7,1.4-2.6
			c0.5-0.9,1.1-1.6,1.8-2.3c0.7-0.7,1.5-1.3,2.4-1.7c0.9-0.4,1.9-0.6,2.9-0.6c1.5,0,2.8,0.3,3.8,1c1.1,0.7,2,1.6,2.6,2.7
			c0.7,1.1,1.2,2.4,1.5,3.8c0.3,1.4,0.5,2.8,0.5,4.3c0,1.2-0.2,2.3-0.5,3.3c-0.4,1-0.8,1.9-1.4,2.6c-0.6,0.7-1.2,1.3-1.9,1.7
			C116.8,385.1,116.1,385.3,115.4,385.3z M112.7,371.7c-0.4,0-0.8,0.2-1.1,0.5c-0.4,0.3-0.7,0.7-1,1.2c-0.3,0.5-0.6,1-0.8,1.5
			s-0.5,1.1-0.7,1.5c0.5,0.3,1,0.6,1.6,0.8s1.2,0.5,1.9,0.7c0.6,0.2,1.3,0.4,1.9,0.5c0.7,0.1,1.3,0.2,1.9,0.3c0.1-0.9,0-1.7-0.1-2.6
			c-0.2-0.8-0.4-1.6-0.7-2.2c-0.3-0.7-0.7-1.2-1.2-1.6C113.7,371.9,113.2,371.7,112.7,371.7z"/>
		<path class="st1" d="M122.8,393.9c2-0.4,3.8-0.9,5.5-1.5c1.6-0.6,3.1-1.3,4.3-2c1.2-0.7,2.3-1.5,3.1-2.4c0.8-0.8,1.4-1.7,1.7-2.6
			c-0.6,0-1.3,0-1.9,0c-0.7,0-1.2,0-1.7-0.1c-1.4-0.1-2.7-0.4-3.8-0.8c-1.1-0.4-2.1-1-3-1.7c-0.8-0.7-1.5-1.6-1.9-2.7
			c-0.5-1-0.7-2.3-0.7-3.6c0-0.9,0.1-1.8,0.3-2.7c0.2-0.9,0.5-1.8,0.8-2.7c0.3-0.9,0.8-1.7,1.3-2.4c0.5-0.8,1.1-1.4,1.8-2
			c0.7-0.6,1.4-1,2.2-1.4c0.8-0.3,1.6-0.5,2.5-0.5c1.1,0,2.1,0.2,3,0.6c0.9,0.4,1.7,0.9,2.5,1.6c0.8,0.7,1.4,1.5,2,2.4
			c0.6,0.9,1.1,1.9,1.5,2.9c0.4,1,0.8,2.1,1.1,3.2c0.3,1.1,0.5,2.2,0.6,3.2h0.9v6.7h-1.4c-0.6,2.1-1.4,4-2.6,5.7
			c-1.2,1.7-2.7,3.2-4.4,4.4c-1.7,1.3-3.6,2.3-5.6,3.1c-2.1,0.8-4.2,1.4-6.5,1.7L122.8,393.9z M133.2,371.6c-0.3-0.1-0.6,0-1,0.3
			c-0.4,0.3-0.7,0.6-1.1,1.1c-0.3,0.4-0.6,0.9-0.8,1.5c-0.2,0.5-0.3,1.1-0.3,1.6c0,0.5,0.2,0.9,0.5,1.2c0.3,0.3,0.7,0.6,1.1,0.8
			c0.5,0.2,1,0.4,1.6,0.5c0.6,0.1,1.2,0.2,1.8,0.2c0.6,0,1.1,0.1,1.6,0.1h1.3c-0.2-0.9-0.5-1.7-0.8-2.5c-0.3-0.8-0.6-1.5-1-2.2
			c-0.4-0.6-0.8-1.2-1.3-1.6C134.3,372,133.8,371.7,133.2,371.6z"/>
		<path class="st1" d="M143.9,378.7h5.1c0.6,0,1.3,0,2-0.1c0.7-0.1,1.4-0.2,2.1-0.4c0.6-0.2,1.2-0.5,1.6-0.9
			c0.4-0.4,0.6-0.9,0.6-1.5c0-0.3-0.1-0.8-0.3-1.5s-0.5-1.4-0.8-2.3c-0.3-0.8-0.7-1.7-1.1-2.6c-0.4-0.9-0.8-1.8-1.2-2.6l6.1-3
			c0.4,0.9,0.8,1.8,1.2,2.9c0.4,1,0.7,2,1.1,3.1c0.3,1,0.6,2.1,0.8,3.1c0.2,1,0.3,2,0.3,2.9c0,1.8-0.3,3.3-1,4.5
			c-0.6,1.2-1.5,2.2-2.6,3c-1.1,0.8-2.4,1.3-3.9,1.7c-1.5,0.3-3.1,0.5-4.8,0.5h-5.1V378.7z M153.9,356.7l-4,4l-4.1-4.1l4.1-4.1l4,4
			l4-4l4.1,4.1l-4.1,4.1L153.9,356.7z"/>
	</g>
	<path class="st1" d="M277.5,6.6c-2.1-1-4.5-0.7-6.3,0.7l-28.8,23l-28.8-23c-2.2-1.8-5.3-1.8-7.5,0l-28.8,23l-28.8-23
		c-2.2-1.8-5.3-1.8-7.5,0l-28.8,23l-28.7-23c-2.2-1.8-5.3-1.8-7.5,0l-28.8,23l-28.7-23c-2.6-2.1-6.4-1.6-8.4,1
		C9.3,9.3,8.9,10.6,8.9,12v471.5c0,3.3,2.7,6,6,6c1.4,0,2.7-0.5,3.7-1.3l28.8-23l28.8,23c2.2,1.8,5.3,1.8,7.5,0l28.8-23l28.8,23
		c2.2,1.8,5.3,1.8,7.5,0l28.4-22.7l15.6,15l8.3-8.6l-19.4-18.6c-2.2-2.1-5.6-2.2-7.9-0.4l-28.8,23l-28.8-23c-2.2-1.8-5.3-1.8-7.5,0
		l-28.8,23l-28.8-23c-2.2-1.8-5.3-1.8-7.5,0L20.9,471V24.5l22.7,18.2c2.2,1.8,5.3,1.8,7.5,0l28.8-23l28.7,23c2.2,1.8,5.3,1.8,7.5,0
		l28.8-23l28.8,23c2.2,1.8,5.3,1.8,7.5,0l28.8-23l28.8,23c2.2,1.8,5.3,1.8,7.5,0l22.8-18.2v277.9h12V12
		C280.9,9.7,279.6,7.6,277.5,6.6L277.5,6.6z"/>
	<path class="st1" d="M48.6,252.1h2.3c3.3,0,6-2.7,6-6s-2.7-6-6-6h-2.3c-3.3,0-6,2.7-6,6S45.3,252.1,48.6,252.1z"/>
	<path class="st1" d="M91.7,240.1H74.1c-3.3,0-6,2.7-6,6s2.7,6,6,6h17.6c3.3,0,6-2.7,6-6S95,240.1,91.7,240.1z"/>
	<path class="st1" d="M241.1,240.1H115.3c-3.3,0-6,2.7-6,6s2.7,6,6,6h125.9c3.3,0,6-2.7,6-6S244.5,240.1,241.1,240.1z"/>
	<path class="st1" d="M48.6,302.1h2.3c3.3,0,6-2.7,6-6s-2.7-6-6-6h-2.3c-3.3,0-6,2.7-6,6S45.3,302.1,48.6,302.1z"/>
	<path class="st1" d="M97.7,296.1c0-3.3-2.7-6-6-6H74.1c-3.3,0-6,2.7-6,6s2.7,6,6,6h17.6C95,302.1,97.7,299.4,97.7,296.1z"/>
	<path class="st1" d="M179.1,296.1c0-3.3-2.7-6-6-6h-57.9c-3.3,0-6,2.7-6,6s2.7,6,6,6h57.9C176.5,302.1,179.1,299.4,179.1,296.1z"/>
	<path class="st1" d="M48.6,152.1h2.3c3.3,0,6-2.7,6-6s-2.7-6-6-6h-2.3c-3.3,0-6,2.7-6,6S45.3,152.1,48.6,152.1z"/>
	<path class="st1" d="M91.7,140.1H74.1c-3.3,0-6,2.7-6,6s2.7,6,6,6h17.6c3.3,0,6-2.7,6-6S95,140.1,91.7,140.1z"/>
	<path class="st1" d="M241.1,140.1H115.3c-3.3,0-6,2.7-6,6s2.7,6,6,6h125.9c3.3,0,6-2.7,6-6S244.5,140.1,241.1,140.1z"/>
	<path class="st1" d="M48.6,102.1h2.3c3.3,0,6-2.7,6-6s-2.7-6-6-6h-2.3c-3.3,0-6,2.7-6,6S45.3,102.1,48.6,102.1z"/>
	<path class="st1" d="M91.7,90.1H74.1c-3.3,0-6,2.7-6,6s2.7,6,6,6h17.6c3.3,0,6-2.7,6-6S95,90.1,91.7,90.1z"/>
	<path class="st1" d="M241.1,90.1H115.3c-3.3,0-6,2.7-6,6s2.7,6,6,6h125.9c3.3,0,6-2.7,6-6S244.5,90.1,241.1,90.1z"/>
</g>
<path class="st2" d="M477.1,296.4H257.4c-3.3,0-6,2.7-6,6s2.7,6,6,6h219.7c7.7,0,14,6.3,14,14V480c0,7.7-6.3,14-14,14h-260
	c-7.7,0-14-6.3-14-14V322.4c0-7.7,6.3-14,14-14h10.4c3.3,0,6-2.7,6-6s-2.7-6-6-6l0,0h-10.4c-14.4,0-26,11.6-26,26V480
	c0,14.4,11.6,26,26,26h260c14.4,0,26-11.6,26-26V322.4C503.1,308,491.5,296.4,477.1,296.4z"/>
<path class="st2" d="M316.3,468.2h-8.9c-3.3,0-6,2.7-6,6s2.7,6,6,6h8.9c3.3,0,6-2.7,6-6S319.6,468.2,316.3,468.2z"/>
<path class="st2" d="M229.3,474.2c0,3.3,2.7,6,6,6h53.9c3.3,0,6-2.7,6-6s-2.7-6-6-6h-53.9C232,468.2,229.3,470.9,229.3,474.2z"/>
<path class="st2" d="M212.8,329.9v8.9c0,3.3,2.7,6,6,6s6-2.7,6-6v-8.9c0-3.3-2.7-6-6-6S212.8,326.5,212.8,329.9z"/>
<path class="st2" d="M248.2,338.8v-8.9c0-3.3-2.7-6-6-6s-6,2.7-6,6v8.9c0,3.3,2.7,6,6,6S248.2,342.1,248.2,338.8z"/>
<path class="st2" d="M265.5,344.8c3.3,0,6-2.7,6-6v-8.9c0-3.3-2.7-6-6-6s-6,2.7-6,6v8.9C259.5,342.1,262.2,344.8,265.5,344.8z"/>
<path class="st2" d="M312.3,323.9c-3.3,0-6,2.7-6,6v8.9c0,3.3,2.7,6,6,6s6-2.7,6-6v-8.9C318.3,326.5,315.6,323.9,312.3,323.9z"/>
<path class="st2" d="M341.6,338.8v-8.9c0-3.3-2.7-6-6-6s-6,2.7-6,6v8.9c0,3.3,2.7,6,6,6S341.6,342.1,341.6,338.8z"/>
<path class="st2" d="M365,338.8v-8.9c0-3.3-2.7-6-6-6s-6,2.7-6,6v8.9c0,3.3,2.7,6,6,6S365,342.1,365,338.8z"/>
<path class="st2" d="M411.7,338.8v-8.9c0-3.3-2.7-6-6-6s-6,2.7-6,6v8.9c0,3.3,2.7,6,6,6S411.7,342.1,411.7,338.8z"/>
<path class="st2" d="M458.4,338.8v-8.9c0-3.3-2.7-6-6-6s-6,2.7-6,6v8.9c0,3.3,2.7,6,6,6S458.4,342.1,458.4,338.8z"/>
<path class="st2" d="M481.8,338.8v-8.9c0-3.3-2.7-6-6-6s-6,2.7-6,6v8.9c0,3.3,2.7,6,6,6S481.8,342.1,481.8,338.8z"/>
<path class="st2" d="M294.9,338.8v-8.9c0-3.3-2.7-6-6-6s-6,2.7-6,6v8.9c0,3.3,2.7,6,6,6S294.9,342.1,294.9,338.8z"/>
<path class="st2" d="M388.4,338.8v-8.9c0-3.3-2.7-6-6-6s-6,2.7-6,6v8.9c0,3.3,2.7,6,6,6S388.4,342.1,388.4,338.8z"/>
<path class="st2" d="M435.1,338.8v-8.9c0-3.3-2.7-6-6-6s-6,2.7-6,6v8.9c0,3.3,2.7,6,6,6S435.1,342.1,435.1,338.8z"/>
<g>
	<path class="st2" d="M234.4,404.2c1.4,0.7,2.8,1.3,4.2,1.8c1.5,0.5,2.9,1,4.2,1.3c1.4,0.3,2.5,0.5,3.6,0.5c0.6,0,1.3,0,2.3-0.1
		c1-0.1,2-0.3,2.9-0.6c1-0.3,1.8-0.7,2.5-1.2c0.7-0.5,1.1-1.2,1.2-2c0-1-0.3-2-0.9-3.2c-0.6-1.2-1.4-2.4-2.4-3.8
		c-1-1.3-2.2-2.6-3.5-4c-1.3-1.3-2.7-2.6-4.1-3.8c-1.4-1.2-2.8-2.4-4.2-3.4c-1.4-1.1-2.7-2-3.9-2.7l6.5-9.6c2.4,1.7,4.7,3.5,7,5.6
		c2.3,2.1,4.5,4.2,6.4,6.5c2,2.3,3.7,4.7,5.1,7.1c1.5,2.5,2.5,4.9,3.1,7.4c0.2,0.7,0.3,1.4,0.4,2.1c0.1,0.7,0.1,1.4,0.1,2.1
		c0,2.3-0.4,4.4-1.3,6.2c-0.9,1.9-2.1,3.5-3.7,4.9c-1.6,1.4-3.5,2.4-5.7,3.2c-2.2,0.8-4.6,1.1-7.2,1.1c-0.2,0-0.4,0-0.6,0
		c-0.2,0-0.4,0-0.6,0c-1.7,0-3.4-0.2-5.2-0.5c-1.8-0.4-3.5-0.8-5.2-1.4c-1.7-0.6-3.4-1.3-5-2c-1.6-0.8-3.1-1.6-4.5-2.5l4.8-11
		C231.9,402.9,233.1,403.6,234.4,404.2z"/>
	<path class="st2" d="M296.2,419.4c-0.5,0-1.2,0-2.1-0.1c-0.9-0.1-1.9-0.3-3-0.8c-0.5,3-1.5,5.9-3,8.6c-1.5,2.7-3.3,5.3-5.5,7.7
		c-2.2,2.4-4.6,4.6-7.4,6.6c-2.8,2-5.7,3.8-8.9,5.4l-6.7-9.3c1.7-0.9,3.5-1.8,5.2-2.9c1.8-1,3.4-2.1,5-3.3c1.6-1.2,3.1-2.4,4.5-3.6
		c1.4-1.3,2.6-2.6,3.6-3.9c1-1.3,1.8-2.7,2.4-4.1c0.6-1.4,0.9-2.8,0.9-4.3c0-1-0.2-2.2-0.5-3.6c-0.4-1.5-0.8-3-1.4-4.7
		c-0.6-1.7-1.2-3.4-1.9-5.1c-0.7-1.7-1.3-3.3-2-4.7l10.6-4.6c1,2.9,1.9,5.4,2.8,7.3c0.9,2,1.8,3.5,2.6,4.7c0.8,1.2,1.6,2,2.4,2.5
		c0.8,0.5,1.5,0.7,2.3,0.7h0.9v11.6H296.2z M280.8,385.4l-8.1-8.1l8.1-8.1l8.1,8.1L280.8,385.4z"/>
	<path class="st2" d="M327.8,419.2c-1.2,0.1-2.7,0-4.4-0.3c-1.7-0.3-3.4-0.6-5.1-1.1c-1.7-0.5-3.4-1.1-5.1-1.8
		c-1.7-0.7-3.1-1.5-4.3-2.3c-1.6,1.9-3.4,3.4-5.5,4.3c-2.1,0.9-4.5,1.4-7.3,1.4h-0.7v-11.6h0.7c1.6,0,3-0.3,4.1-1
		c1.1-0.7,2-1.5,2.8-2.5s1.5-2.2,2.1-3.4c0.6-1.3,1.2-2.5,1.8-3.7c0.8-1.5,1.6-2.9,2.5-4.4c0.9-1.5,2-2.8,3.2-4
		c1.2-1.2,2.5-2.2,4-2.9c1.5-0.8,3.2-1.1,5.1-1.1c2.4,0,4.5,0.4,6.1,1.3c1.7,0.9,3.1,2,4.2,3.5c1.1,1.5,2,3.2,2.7,5.1
		c0.7,2,1.2,4,1.7,6.2c0.4,2.1,0.8,3.9,1.2,5.1s0.8,1.9,1.3,1.9h1.1v11.6h-1.4c-1.4,0-2.7-0.3-3.7-1c-1-0.7-2-1.5-2.8-2.4
		c-0.3,0.4-0.7,0.7-1,1.1c-0.4,0.4-0.7,0.7-1,1.1c-0.3,0.3-0.7,0.6-1,0.8C328.6,419.1,328.2,419.2,327.8,419.2z M321.3,395.8
		c-0.7,0-1.4,0.2-2,0.7c-0.6,0.5-1.2,1.1-1.7,1.8c-0.5,0.7-1,1.6-1.4,2.5c-0.4,0.9-0.8,1.7-1.1,2.5c0.8,0.6,1.8,1.1,2.9,1.6
		c1.1,0.5,2.2,0.9,3.4,1.3c1.2,0.4,2.3,0.7,3.5,0.9c1.1,0.2,2.2,0.4,3.1,0.5c-0.3-1.3-0.7-2.7-1.1-4.1c-0.4-1.4-0.8-2.7-1.4-3.8
		c-0.5-1.1-1.1-2.1-1.8-2.8C323.1,396.1,322.3,395.8,321.3,395.8z"/>
	<path class="st2" d="M371.2,407.8v11.6h-0.8c-1.2,0-2.3-0.1-3.5-0.3s-2.2-0.5-3.2-0.8c-1-0.4-1.9-0.8-2.8-1.3
		c-0.8-0.5-1.6-1-2.2-1.6c-1.1,0.9-2.5,1.6-3.9,2.1c-1.5,0.5-3,0.9-4.7,1.2c-1.6,0.3-3.3,0.5-5.1,0.5c-1.7,0.1-3.5,0.1-5.1,0.1h-1.4
		v-11.6h1.4c1.8,0,3.3,0,4.7-0.1c1.4-0.1,2.6-0.3,3.6-0.5c1-0.2,1.9-0.6,2.6-1c0.7-0.4,1.3-0.9,1.7-1.5c0.6-0.8,0.9-1.6,1-2.6
		c0.1-1,0.1-1.9,0-2.9c-0.1-1-0.3-2-0.6-3c-0.3-1-0.5-2-0.7-2.9l10.7-3c0.3,1.1,0.5,2.1,0.8,3c0.2,0.9,0.4,1.8,0.5,2.6
		c0.2,0.9,0.3,1.7,0.4,2.6c0.1,0.9,0.3,1.8,0.4,2.9c0.1,0.7,0.2,1.4,0.4,2.1c0.2,0.8,0.4,1.5,0.8,2.1c0.4,0.7,0.9,1.2,1.5,1.6
		c0.6,0.4,1.5,0.7,2.5,0.7H371.2z M355.6,375.8l-6.9,6.9l-7.1-7.1l7-7.1l7,7l6.9-6.9l7.1,7.1l-7,7.1L355.6,375.8z"/>
	<path class="st2" d="M370.4,407.8c1.8,0,3.4-0.5,4.6-1.5c1.3-1,2.3-2.3,3.2-3.9c0.9-1.6,1.6-3.4,2.3-5.5c0.6-2.1,1.2-4.2,1.8-6.3
		l9.7,1.8c-0.2,0.9-0.4,1.8-0.7,3c-0.3,1.1-0.5,2.3-0.8,3.5c-0.2,1.2-0.4,2.4-0.6,3.6c-0.1,1.2-0.2,2.2-0.1,3.1
		c0.1,0.9,0.3,1.6,0.7,2.1c0.4,0.5,0.9,0.7,1.7,0.6c1-0.1,1.9-0.4,2.7-1c0.8-0.6,1.5-1.4,2.1-2.3c0.6-1,1.2-2,1.7-3.2
		c0.5-1.2,0.9-2.4,1.3-3.7c0.4-1.3,0.6-2.5,0.9-3.8c0.2-1.2,0.4-2.4,0.6-3.4l9.3,1.6c0,0.7-0.1,1.6-0.3,2.7
		c-0.1,1.1-0.3,2.2-0.4,3.4c-0.1,1.2-0.2,2.4-0.2,3.6c0,1.2,0.1,2.2,0.4,3.2c0.3,0.9,0.7,1.7,1.3,2.3c0.6,0.6,1.5,0.9,2.6,0.9
		c0.7,0,1.4-0.1,2.1-0.3c0.7-0.2,1.3-0.6,1.9-1c0.6-0.4,1-0.9,1.4-1.5c0.4-0.6,0.5-1.2,0.5-2c0-1.3-0.2-2.7-0.6-4.2
		c-0.4-1.5-0.9-3-1.5-4.5c-0.6-1.5-1.2-2.9-1.8-4.3c-0.6-1.3-1.2-2.5-1.6-3.4l9.1-5.1l0.8,1.7c0.4,0.8,0.8,1.7,1.2,2.9
		c0.5,1.1,0.9,2.4,1.4,3.8c0.5,1.4,1,2.9,1.4,4.4s0.8,3.1,1,4.6c0.3,1.6,0.4,3.1,0.4,4.6c0,2.4-0.3,4.6-1,6.6c-0.7,2-1.7,3.6-3,5
		c-1.4,1.4-3.1,2.4-5.1,3.2c-2,0.8-4.4,1.1-7.2,1.2c-1.3,0-2.5-0.1-3.6-0.4c-1.1-0.3-2-0.6-2.9-1c-0.9-0.4-1.6-1-2.3-1.6
		c-0.7-0.6-1.2-1.3-1.8-2c-0.6,0.8-1.2,1.4-1.9,2c-0.7,0.6-1.4,1.1-2.3,1.5c-0.9,0.4-1.8,0.8-2.9,1c-1.1,0.2-2.3,0.4-3.7,0.4
		c-1.2,0-2.3-0.1-3.2-0.3c-1-0.2-1.8-0.6-2.7-1c-0.8-0.4-1.5-1-2.2-1.6c-0.6-0.6-1.3-1.3-1.8-2.1c-0.5,0.6-1.1,1.2-1.8,1.8
		c-0.7,0.5-1.4,1-2.3,1.4c-0.9,0.4-2,0.7-3.1,1c-1.2,0.2-2.6,0.3-4.2,0.3h-1.3v-11.6H370.4z"/>
	<path class="st2" d="M440.5,404.2c1.4,0.7,2.8,1.3,4.2,1.8c1.5,0.5,2.9,1,4.2,1.3c1.4,0.3,2.5,0.5,3.6,0.5c0.6,0,1.3,0,2.3-0.1
		c1-0.1,2-0.3,2.9-0.6c1-0.3,1.8-0.7,2.5-1.2c0.7-0.5,1.1-1.2,1.2-2c0-1-0.3-2-0.9-3.2c-0.6-1.2-1.4-2.4-2.4-3.8
		c-1-1.3-2.2-2.6-3.5-4c-1.3-1.3-2.7-2.6-4.1-3.8c-1.4-1.2-2.8-2.4-4.2-3.4c-1.4-1.1-2.7-2-3.9-2.7l6.5-9.6c2.4,1.7,4.7,3.5,7,5.6
		c2.3,2.1,4.5,4.2,6.4,6.5c2,2.3,3.7,4.7,5.1,7.1c1.5,2.5,2.5,4.9,3.1,7.4c0.2,0.7,0.3,1.4,0.4,2.1c0.1,0.7,0.1,1.4,0.1,2.1
		c0,2.3-0.4,4.4-1.3,6.2c-0.9,1.9-2.1,3.5-3.7,4.9c-1.6,1.4-3.5,2.4-5.7,3.2c-2.2,0.8-4.6,1.1-7.2,1.1c-0.2,0-0.4,0-0.6,0
		c-0.2,0-0.4,0-0.6,0c-1.7,0-3.4-0.2-5.2-0.5c-1.8-0.4-3.5-0.8-5.2-1.4c-1.7-0.6-3.4-1.3-5-2c-1.6-0.8-3.1-1.6-4.5-2.5l4.8-11
		C437.9,402.9,439.1,403.6,440.5,404.2z"/>
</g>
</svg>
