<svg id="Layer_1" height="512" viewBox="0 0 512 512" width="512" xmlns="http://www.w3.org/2000/svg" data-name="Layer 1"><path d="m108 421.48v-399.67c0-5.8 4.224-10.7 9.958-10.965l-29.538-.025c-5.97.01-10.42 5.03-10.42 10.99v399.67a10.251 10.251 0 0 0 10.42 10.52h30a10.251 10.251 0 0 1 -10.42-10.52z" fill="#d4e1f4"/><g fill="#1ae5be"><path d="m468 253h-155a6 6 0 0 0 -6 6v35a6 6 0 0 0 6 6h155a6 6 0 0 0 6-6v-35a6 6 0 0 0 -6-6zm-7 35h-142v-23h142z"/><path d="m333.563 482.4a24.006 24.006 0 1 0 -24.006-24.005 24.033 24.033 0 0 0 24.006 24.005zm0-36.011a12.006 12.006 0 1 1 -12.006 12.006 12.019 12.019 0 0 1 12.006-12.008z"/><path d="m390.513 482.4a24.006 24.006 0 1 0 -24.006-24.005 24.033 24.033 0 0 0 24.006 24.005zm0-36.011a12.006 12.006 0 1 1 -12.006 12.006 12.019 12.019 0 0 1 12.006-12.008z"/><path d="m447.464 482.4a24.006 24.006 0 1 0 -24.006-24.005 24.033 24.033 0 0 0 24.006 24.005zm0-36.011a12.006 12.006 0 1 1 -12.006 12.006 12.018 12.018 0 0 1 12.006-12.008z"/><path d="m333.563 429.425a24.006 24.006 0 1 0 -24.006-24.006 24.033 24.033 0 0 0 24.006 24.006zm0-36.011a12.006 12.006 0 1 1 -12.006 12 12.019 12.019 0 0 1 12.006-12z"/><path d="m390.513 429.425a24.006 24.006 0 1 0 -24.006-24.006 24.033 24.033 0 0 0 24.006 24.006zm0-36.011a12.006 12.006 0 1 1 -12.006 12 12.019 12.019 0 0 1 12.006-12z"/><path d="m447.464 429.425a24.006 24.006 0 1 0 -24.006-24.006 24.033 24.033 0 0 0 24.006 24.006zm0-36.011a12.006 12.006 0 1 1 -12.006 12 12.018 12.018 0 0 1 12.006-12z"/><path d="m333.563 376.453a24.006 24.006 0 1 0 -24.006-24.006 24.033 24.033 0 0 0 24.006 24.006zm0-36.012a12.006 12.006 0 1 1 -12.006 12.006 12.02 12.02 0 0 1 12.006-12.006z"/><path d="m390.513 376.453a24.006 24.006 0 1 0 -24.006-24.006 24.033 24.033 0 0 0 24.006 24.006zm0-36.012a12.006 12.006 0 1 1 -12.006 12.006 12.02 12.02 0 0 1 12.006-12.006z"/><path d="m447.464 376.453a24.006 24.006 0 1 0 -24.006-24.006 24.033 24.033 0 0 0 24.006 24.006zm0-36.012a12.006 12.006 0 1 1 -12.006 12.006 12.019 12.019 0 0 1 12.006-12.006z"/></g><path d="m26.912 496h261.088v-12h-261.085a5.009 5.009 0 0 1 -3.452-1.51 5.074 5.074 0 0 1 -1.463-3.507v-398.583a4.385 4.385 0 0 1 1.461-3.194 4.731 4.731 0 0 1 3.451-1.206h12.088v375.856a17.329 17.329 0 0 0 17.049 17.144h227.951v-12h-227.947a5.328 5.328 0 0 1 -5.053-5.146v-397.495a4.407 4.407 0 0 1 1.531-3.172 4.875 4.875 0 0 1 3.518-1.187h15.951v371.472a16.25 16.25 0 0 0 16.424 16.528h195.576v-12h-195.573a4.225 4.225 0 0 1 -3.208-1.267 4.3 4.3 0 0 1 -1.219-3.263v-399.67a4.506 4.506 0 0 1 4.424-4.8h206.576v41.136a42.779 42.779 0 0 0 42.369 42.864h40.631v133h12v-135.261a16.68 16.68 0 0 0 -4.724-11.746l-75.021-76.919a16.817 16.817 0 0 0 -11.988-5.074h-209.855a16.513 16.513 0 0 0 -16.412 16.811v16.189h-15.962a16.761 16.761 0 0 0 -12 4.711 16.324 16.324 0 0 0 -5.038 11.655v9.634h-12.1a16.618 16.618 0 0 0 -11.933 4.733 16.3 16.3 0 0 0 -4.967 11.676v398.577a17.076 17.076 0 0 0 16.912 17.014zm280.088-472.091 63.093 65.091h-32.718a30.39 30.39 0 0 1 -21.486-9.14 30.739 30.739 0 0 1 -8.889-21.721z" fill="#0635c9"/><path d="m272.959 321a6 6 0 1 0 0-12h-22.452a6 6 0 0 0 0 12z" fill="#0635c9"/><path d="m228.051 315a6 6 0 0 0 -6-6h-62.5a6 6 0 0 0 0 12h62.5a6 6 0 0 0 6-6z" fill="#0635c9"/><path d="m130.985 321h6.1a6 6 0 0 0 0-12h-6.1a6 6 0 0 0 0 12z" fill="#0635c9"/><path d="m230.216 366a6 6 0 0 0 6 6h42.743a6 6 0 1 0 0-12h-42.743a6 6 0 0 0 -6 6z" fill="#0635c9"/><path d="m180.508 360a6 6 0 0 0 0 12h32.638a6 6 0 0 0 0-12z" fill="#0635c9"/><path d="m130.985 372h26.081a6 6 0 1 0 0-12h-26.081a6 6 0 0 0 0 12z" fill="#0635c9"/><path d="m113 52.806a6 6 0 1 0 -12 0v2.413a6 6 0 0 0 12 0z" fill="#0635c9"/><path d="m107 72.649a6 6 0 0 0 -6 6v79.478a6 6 0 0 0 12 0v-79.478a6 6 0 0 0 -6-6z" fill="#0635c9"/><path d="m319.136 153.39a88.536 88.536 0 1 0 -88.536 88.535 88.636 88.636 0 0 0 88.536-88.535zm-12.136-4.39h-63.525l45.282-45.282a76.176 76.176 0 0 1 18.243 45.282zm-76.4-72.146a76.185 76.185 0 0 1 49.672 18.379l-49.643 49.643-39.068-57.276a76.056 76.056 0 0 1 39.039-10.746zm0 153.071a76.5 76.5 0 0 1 -48.843-135.409l43.557 63.865a6 6 0 0 0 4.957 2.619h76.485a76.641 76.641 0 0 1 -76.156 68.925z" fill="#0635c9"/><path d="m470.609 228h-162.218a30.392 30.392 0 0 0 -30.391 30.391v218.218a30.392 30.392 0 0 0 30.391 30.391h162.218a30.392 30.392 0 0 0 30.391-30.391v-218.218a30.392 30.392 0 0 0 -30.391-30.391zm19.391 248.609a18.515 18.515 0 0 1 -18.511 18.391h-162.615c-10.141 0-18.874-8.25-18.874-18.391v-155.609h200zm0-167.609h-200v-50.588c0-10.141 8.733-18.412 18.874-18.412h162.615a18.533 18.533 0 0 1 18.511 18.412z" fill="#1ae5be"/></svg>