<?xml version="1.0"?>
<svg xmlns="http://www.w3.org/2000/svg" id="Layer_1" data-name="Layer 1" viewBox="0 0 512 512" width="512" height="512"><title>maths</title><path d="M96,209a33,33,0,0,1-33-33V56a32.878,32.878,0,0,1,9.347-23H66A33,33,0,0,0,33,66V186a33,33,0,0,0,33,33H185a32.891,32.891,0,0,0,23.653-10Z" style="fill:#d4e1f4"/><path d="M96,471a33,33,0,0,1-33-33V318a32.878,32.878,0,0,1,9.347-23H66a33,33,0,0,0-33,33V448a33,33,0,0,0,33,33H185a32.891,32.891,0,0,0,23.653-10Z" style="fill:#d4e1f4"/><path d="M357,471a33,33,0,0,1-33-33V318a32.878,32.878,0,0,1,9.347-23H327a33,33,0,0,0-33,33V448a33,33,0,0,0,33,33H446a32.891,32.891,0,0,0,23.653-10Z" style="fill:#d4e1f4"/><path d="M357,209a33,33,0,0,1-33-33V56a32.878,32.878,0,0,1,9.347-23H327a33,33,0,0,0-33,33V186a33,33,0,0,0,33,33H446a32.891,32.891,0,0,0,23.653-10Z" style="fill:#d4e1f4"/><path d="M79,133h40v40.553a7,7,0,0,0,14,0V133h40a7,7,0,0,0,0-14H133V79.2a7,7,0,1,0-14,0V119H79a7,7,0,0,0,0,14Z" style="fill:#0635c9"/><path d="M352.766,427.712a6.983,6.983,0,0,0,4.959-2.059l66.468-66.718a7,7,0,1,0-9.918-9.88l-66.468,66.717a7,7,0,0,0,4.959,11.94Z" style="fill:#0635c9"/><path d="M232,66a47,47,0,0,0-47-47H66A47,47,0,0,0,19,66V186a47,47,0,0,0,47,47H185a47,47,0,0,0,47-47ZM218,186a33,33,0,0,1-33,33H66a33,33,0,0,1-33-33V66A33,33,0,0,1,66,33H185a33,33,0,0,1,33,33Z" style="fill:#0635c9"/><path d="M493,328a47,47,0,0,0-47-47H327a47,47,0,0,0-47,47V448a47,47,0,0,0,47,47H446a47,47,0,0,0,47-47ZM479,448a33,33,0,0,1-33,33H327a33,33,0,0,1-33-33V328a33,33,0,0,1,33-33H446a33,33,0,0,1,33,33Z" style="fill:#0635c9"/><path d="M433,119H339a7,7,0,0,0,0,14h94a7,7,0,0,0,0-14Z" style="fill:#1ae5be"/><path d="M87.577,425.671a7,7,0,0,0,9.9-.018l28.275-28.381,28.275,28.381a7,7,0,0,0,9.918-9.881l-28.312-28.418,28.312-28.419a7,7,0,1,0-9.918-9.88l-28.275,28.381L97.477,349.055a7,7,0,1,0-9.918,9.88l28.312,28.419L87.559,415.772A7,7,0,0,0,87.577,425.671Z" style="fill:#1ae5be"/><path d="M493,66a47,47,0,0,0-47-47H327a47,47,0,0,0-47,47V186a47,47,0,0,0,47,47H446a47,47,0,0,0,47-47ZM479,186a33,33,0,0,1-33,33H327a33,33,0,0,1-33-33V66a33,33,0,0,1,33-33H446a33,33,0,0,1,33,33Z" style="fill:#1ae5be"/><path d="M232,328a47,47,0,0,0-47-47H66a47,47,0,0,0-47,47V448a47,47,0,0,0,47,47H185a47,47,0,0,0,47-47ZM218,448a33,33,0,0,1-33,33H66a33,33,0,0,1-33-33V328a33,33,0,0,1,33-33H185a33,33,0,0,1,33,33Z" style="fill:#1ae5be"/></svg>
