<svg id="Guide" height="512" viewBox="0 0 512 512" width="512" xmlns="http://www.w3.org/2000/svg"><path d="m476 139.295h-13.831v-16.98a8.009 8.009 0 0 0 -8-8h-54.225a8.009 8.009 0 0 0 -8 8v16.98h-50.844l-6.4-38.383a25.919 25.919 0 0 0 -25.646-21.726h-106.112a25.919 25.919 0 0 0 -25.642 21.726l-6.4 38.383h-56.85v-8.332c0-4.148-3.514-7.4-8-7.4h-54.225c-4.486 0-8 3.25-8 7.4v8.332h-7.825a26.029 26.029 0 0 0 -26 26v251.205a26.03 26.03 0 0 0 26 26h440a26.03 26.03 0 0 0 26-26v-251.2a26.029 26.029 0 0 0 -26-26.005zm-72.056-12.98h46.225v12.98h-46.225zm-214.811-23.431a13.956 13.956 0 0 1 13.809-11.7h106.116a13.956 13.956 0 0 1 13.809 11.7l6.069 36.411h-145.872zm-133.308 32.681h46.225v3.73h-46.225zm420.175 294.935h-440a14.015 14.015 0 0 1 -14-14v-36.792h168.219v-12h-168.219v-141.425h155.283v-12h-155.283v-48.983a14.015 14.015 0 0 1 14-14h440a14.015 14.015 0 0 1 14 14v48.988h-155.276v12h155.276v141.42h-168.219v12h168.219v36.792a14.015 14.015 0 0 1 -14 14z" fill="#0635c9"/><g fill="#1ae5be"><path d="m256 402.659a111.762 111.762 0 1 0 -111.748-111.759 111.881 111.881 0 0 0 111.748 111.759zm0-211.523a99.762 99.762 0 1 1 -99.748 99.764 99.868 99.868 0 0 1 99.748-99.764z"/><path d="m254.169 367.49c.611.014 1.217.022 1.826.022a76.774 76.774 0 0 0 76.605-74.525 7.9 7.9 0 0 0 -7.912-8.1h-62.675v-62.687a7.906 7.906 0 0 0 -8.1-7.912 76.631 76.631 0 0 0 .259 153.2zm-4.156-140.957v62.439a7.921 7.921 0 0 0 7.912 7.913h62.43a64.621 64.621 0 1 1 -70.342-70.352z"/></g></svg>