<svg xmlns="http://www.w3.org/2000/svg" width="575" height="575" viewBox="0 0 575 575">
    <defs>
        <clipPath id="35u61wu8za">
            <path data-name="Rectangle 2947" transform="translate(1460.334 141)" style="fill:#fb9d9d;opacity:0" d="M0 0h575v575H0z"/>
        </clipPath>
    </defs>
    <g data-name="Group 2042" transform="translate(-1460.334 -141)" style="clip-path:url(#35u61wu8za)">
        <g data-name="Group 2039">
            <path data-name="Path 7831" d="M101.334-42.976S81.333-44.341 84-.669 84 418.3 84 418.3s-2.666 21.836 10.667 24.565S68 449.691 68 449.691l-18.666-15.013V-19.776l9.333-23.2z" transform="translate(1453.125 228.393)" style="fill:#d4e1f4"/>
            <path data-name="Path 7832" d="M1869.52 677.667h-275.28s-14.249-.916-19.158-7.636-6.749-10.394-6.749-29.019V216.591s-1.7-32.583 25.907-32.922 295.547 0 295.547 0a17.152 17.152 0 0 1 3.932.538 23.286 23.286 0 0 1 16.18 13.378c2.123 4.687 1.9 9.778 1.79 19.006-.411 35.251.6 255.3.6 255.3" transform="translate(-64.02 .417)" style="stroke-width:12px;stroke-linejoin:round;stroke-linecap:round;stroke:#0635c9;fill:none"/>
            <path data-name="Path 7833" d="M1845.974 662.667c14.562-.015 21.565-.026 21.565-.026a16.7 16.7 0 0 0 3.66-.477 21.542 21.542 0 0 0 15.061-11.873c1.976-4.159 1.766-8.678 1.666-16.869-.057-4.7-.085-13.969-.091-26.628 0-.147.091-32.808.091-33.211" transform="translate(-40.02 15.417)" style="stroke-width:12px;stroke-linejoin:round;stroke-linecap:round;stroke:#0635c9;fill:none"/>
            <g data-name="Group 2037">
                <path data-name="Path 7834" d="M-14764-2410.667h69.039" transform="translate(16427.62 2911.584)" style="stroke-width:12px;stroke-linecap:round;stroke:#0635c9;fill:none"/>
                <path data-name="Path 7835" d="M-14762-2410.667h73.373" transform="translate(16415.958 2949.584)" style="stroke-width:12px;stroke-linecap:round;stroke:#0635c9;fill:none"/>
                <path data-name="Path 7836" d="M-14761.993-2410.667h95.46" transform="translate(16407.325 2985.584)" style="stroke-width:12px;stroke-linecap:round;stroke:#0635c9;fill:none"/>
                <path data-name="Path 7837" d="M-14762-2410.667h52.873" transform="translate(16325.792 2911.584)" style="stroke-width:12px;stroke-linecap:round;stroke:#0635c9;fill:none"/>
                <path data-name="Path 7838" d="M-14762-2410.667h38.207" transform="translate(16325.792 2949.584)" style="stroke-width:12px;stroke-linecap:round;stroke:#0635c9;fill:none"/>
                <path data-name="Path 7839" d="M-14762-2410.667h29.537" transform="translate(16325.792 2987.584)" style="stroke-width:12px;stroke-linecap:round;stroke:#0635c9;fill:none"/>
                <path data-name="Path 7840" d="M202.86 436.532a24.957 24.957 0 0 1-13.038 3.46 23.879 23.879 0 0 1-10.79-2.709 16.374 16.374 0 0 1-3.582-2.572 10.471 10.471 0 0 0-7.067-3.224c-5.69-.173-8.844 4.023-11.139 7.08a21.493 21.493 0 0 1-5.575 5.728c-4.51 2.844-11.476 3.441-15.858 1.364a12.041 12.041 0 0 1-4.07-3.293 28.157 28.157 0 0 0 13.227-5.539 30.277 30.277 0 0 0 8.543-10.773c2.557-5.545 2.533-10.823-.078-14.863-2.2-3.41-6.178-5.743-11.2-6.576-6.712-1.114-14.1.58-18.817 4.309-5.261 4.159-8.139 11.4-8.008 19.791-.128-.053-.255-.105-.382-.161a5.846 5.846 0 1 0-4.607 10.746 43.84 43.84 0 0 0 7.6 2.476c2.657 6.572 7.169 11.788 12.785 14.446a26.407 26.407 0 0 0 11.253 2.371 30.163 30.163 0 0 0 15.849-4.41 32.26 32.26 0 0 0 8.689-8.6c.437-.584.974-1.3 1.426-1.836a27.282 27.282 0 0 0 5.482 3.835 35.621 35.621 0 0 0 16.062 4.1 36.674 36.674 0 0 0 19.182-5.047 5.846 5.846 0 1 0-5.886-10.1zm-75.592-5.456-.012-.1c-.645-5.68.694-10.738 3.41-12.886a12.553 12.553 0 0 1 7.385-2.129 13.977 13.977 0 0 1 2.269.181c2.2.366 3.118 1.122 3.29 1.382.585.912-.958 6.256-5.855 10.1a17.619 17.619 0 0 1-10.484 3.456z" transform="translate(1438.921 197.64)" style="fill:#0635c9"/>
            </g>
            <g data-name="Group 2038">
                <path data-name="Path 7841" d="M178.884 132.359A43.021 43.021 0 0 0 118.8 72.272L83.587 37.065a5.827 5.827 0 0 0-9.6 2.125S75.342 61.784 60.4 99.547 30.751 159.49 7.141 183.172a24.456 24.456 0 0 0 0 34.543l26.3 26.3a24.422 24.422 0 0 0 34.543 0c.159-.159.326-.315.486-.474l54.387 54.387a5.827 5.827 0 0 0 8.243 0 43.071 43.071 0 0 0 0-60.843l-24.232-24.232c14.061-8.968 16.863-14.776 44.9-21.929s60.186-13.754 60.186-13.754a5.828 5.828 0 0 0 2.129-9.6zm-12.645-47.442a31.409 31.409 0 0 1 4.254 39.051l-43.305-43.306a31.413 31.413 0 0 1 39.047 4.254zM50.713 239.505a12.676 12.676 0 0 1-9.028-3.738l-26.3-26.3a12.777 12.777 0 0 1 0-18.053q6.814-6.814 13.066-14.19l45.48 45.476q-7.366 6.256-14.19 13.07a12.682 12.682 0 0 1-9.028 3.738zm72.144 5.822a31.42 31.42 0 0 1 3.738 39.844l-49.647-49.643a229.821 229.821 0 0 1 20.076-16.038zm15.943-64.406c-29.583 11-37.044 18.459-56.623 33.533l-43.439-43.436c15.07-19.583 24.145-33.573 34.471-63.227s13.453-51.166 13.453-51.166l110.309 110.309a268.235 268.235 0 0 0-58.171 13.987z" transform="rotate(45 512.408 2436.921)" style="fill:#1ae5be"/>
            </g>
            <path data-name="Path 7842" d="M3.515 4.419a5.615 5.615 0 0 0 4.2 10.415 49.766 49.766 0 0 1 64.757 64.758 5.613 5.613 0 0 0 10.412 4.2A60.992 60.992 0 0 0 3.519 4.419zm0 0" transform="rotate(49 455.747 2359.386)" style="fill:#1ae5be"/>
            <path data-name="Path 7843" d="M3.518 6.524a5.614 5.614 0 1 0 4.2 10.415 78.772 78.772 0 0 1 102.5 102.5 5.613 5.613 0 1 0 10.412 4.2A90 90 0 0 0 3.518 6.523zm0 0" transform="rotate(49 493.459 2360.245)" style="fill:#1ae5be"/>
        </g>
        <g data-name="Group 2040">
            <g data-name="Rectangle 2940" style="stroke-width:12px;stroke-linejoin:round;stroke-linecap:round;stroke:#0635c9;fill:none">
                <path style="stroke:none" d="M0 0h128v169H0z" transform="translate(1608.791 264.417)"/>
                <path style="fill:none" d="M6 6h116v157H6z" transform="translate(1608.791 264.417)"/>
            </g>
            <g data-name="Rectangle 2941" style="stroke-width:12px;stroke-linejoin:round;stroke-linecap:round;stroke:#0635c9;fill:none">
                <path style="stroke:none" d="M0 0h38v53H0z" transform="translate(1653.791 380.417)"/>
                <path style="fill:none" d="M6 6h26v41H6z" transform="translate(1653.791 380.417)"/>
            </g>
            <g data-name="Rectangle 2942" style="stroke-width:12px;stroke-linejoin:round;stroke-linecap:round;stroke:#0635c9;fill:none">
                <path style="stroke:none" d="M0 0h78v36H0z" transform="translate(1633.791 240.417)"/>
                <path style="fill:none" d="M6 6h66v24H6z" transform="translate(1633.791 240.417)"/>
            </g>
            <g data-name="Rectangle 2943" style="stroke-width:12px;stroke-linejoin:round;stroke-linecap:round;stroke:#0635c9;fill:none">
                <path style="stroke:none" d="M0 0h36v36H0z" transform="translate(1633.792 289.417)"/>
                <path style="fill:none" d="M6 6h24v24H6z" transform="translate(1633.792 289.417)"/>
            </g>
            <g data-name="Rectangle 2944" style="stroke-width:12px;stroke-linejoin:round;stroke-linecap:round;stroke:#0635c9;fill:none">
                <path style="stroke:none" d="M0 0h36v36H0z" transform="translate(1675.792 289.417)"/>
                <path style="fill:none" d="M6 6h24v24H6z" transform="translate(1675.792 289.417)"/>
            </g>
            <g data-name="Rectangle 2945" style="stroke-width:12px;stroke-linejoin:round;stroke-linecap:round;stroke:#0635c9;fill:none">
                <path style="stroke:none" d="M0 0h36v36H0z" transform="translate(1633.792 331.417)"/>
                <path style="fill:none" d="M6 6h24v24H6z" transform="translate(1633.792 331.417)"/>
            </g>
            <g data-name="Rectangle 2946" style="stroke-width:12px;stroke-linejoin:round;stroke-linecap:round;stroke:#0635c9;fill:none">
                <path style="stroke:none" d="M0 0h36v36H0z" transform="translate(1675.792 331.417)"/>
                <path style="fill:none" d="M6 6h24v24H6z" transform="translate(1675.792 331.417)"/>
            </g>
        </g>
        <g data-name="Group 2041" transform="rotate(74.99 1827.86 372.281)">
            <g data-name="Ellipse 728" transform="translate(1623.332 378)" style="stroke-width:12px;stroke:#0635c9;fill:none">
                <circle cx="135.5" cy="135.5" r="135.5" style="stroke:none"/>
                <circle cx="135.5" cy="135.5" r="129.5" style="fill:none"/>
            </g>
            <path data-name="Line 596" transform="translate(1872.857 569.506)" style="stroke-width:12px;stroke:#0635c9;fill:none" d="m0 0 54 31"/>
            <path data-name="Line 597" transform="translate(1912.598 592.472)" style="stroke-width:20px;stroke-linecap:round;stroke:#0635c9;fill:none" d="m0 0 74.086 44.189"/>
            <path data-name="Path 7844" d="M1690.332 534s-29 33-10 89" transform="rotate(107 1799.1 543.156)" style="stroke-width:12px;stroke-linecap:round;stroke:#0635c9;fill:none"/>
            <circle data-name="Ellipse 729" cx="6" cy="6" r="6" transform="rotate(107 721.886 846.588)" style="fill:#0635c9"/>
        </g>
    </g>
</svg>
