<svg xmlns="http://www.w3.org/2000/svg" width="564.701" height="501.978" viewBox="0 0 564.701 501.978">
    <g data-name="امور قراردادها و پرداخت">
        <g data-name="#1ae5beff">
            <path data-name="Path 14562" d="M122.543 22.516c2.123-3.071 7.8-5.341 13.926-5.472 8.433-.1 16.866-.023 25.3-.046.014 6.565.416 206.925 0 216.461-13.352 13.623-26.718-1.554-40.3 12 .344-74.218-.1-141.944 0-216.162.131-2.263-.518-4.626 1.074-6.781z" transform="translate(191.949 98.04)" style="fill:#d4e1f4"/>
            <path data-name="Path 12159" d="M210.72 132.3c.59 3.86.19 7.8.28 11.69q45 .03 90 .01c3.99.01 7.97.02 11.96.01q61.02-.045 122.03-.02c5.48-.19 11.13.39 16.07 2.93A28.605 28.605 0 0 1 467 172.96V331c-.04 6.36.53 12.99-2.01 19a28.51 28.51 0 0 1-25.91 17.97q-63.06.09-126.12.02-5.985-.015-11.96.01-45 .015-90 .01c-.32 4.66.84 9.63-.83 14.09m.84-226.1q-.03 14.5-.01 28.99 121.995.015 243.99.01c-.2-5.53.55-11.15-.56-16.61A16.382 16.382 0 0 0 438.09 156q-113.55.015-227.08 0m-.01 41.01q-.015 9.48 0 18.98 121.995.015 244 0V197q-121.995 0-244 .01m0 31q0 63.99.01 127.99 110.985.015 221.98.01c4.16-.04 8.58.39 12.45-1.5a16.815 16.815 0 0 0 9.55-15.42q.03-55.545 0-111.09-121.99 0-243.99.01z" transform="translate(97.672 -30.322)" style="fill:#0635c9"/>
            <path data-name="Path 12160" d="M343.37 281.57c3.5-.73 7.09-.57 10.64-.58 17.36.06 34.72-.08 52.08.07 14.5.32 26.88 13.52 26.88 27.91.57 14.76-12 28.63-26.87 28.97-19.4.12-38.8.08-58.19.02-14.21-.23-26.62-12.81-27.11-26.92-1-13.59 9.17-26.94 22.57-29.47m1.05 12.08a16.778 16.778 0 0 0-11.66 16.37c.11 8.84 8.25 16.67 17.17 15.99 18.39-.05 36.77.03 55.16-.03 8.46.03 15.76-7.68 15.9-16.01.38-8.67-7.1-17.02-15.91-16.95-18.03-.06-36.07.02-54.11-.04a21.831 21.831 0 0 0-6.55.67z" style="fill:#0635c9" transform="translate(108.672 -30.322)"/>
            <path data-name="Path 12161" d="M224.38 292.43a14.8 14.8 0 0 1 4.55-.45c17.05.05 34.1 0 51.15.02a6.127 6.127 0 0 1 6.66 5.2 5.941 5.941 0 0 1-5.72 6.74c-17.36.16-34.73-.01-52.09.08-2.4.03-5.23 0-6.86-2.07a6.034 6.034 0 0 1 2.31-9.52z" style="fill:#0635c9" transform="translate(108.672 -30.322)"/>
            <path data-name="Path 12162" d="M295.29 292.35c3.96-.44 9.4-1.51 12.08 2.3 2.6 3.48 0 9.11-4.37 9.27-3.53.07-8.12.94-10.54-2.36a6.027 6.027 0 0 1 2.83-9.21z" style="fill:#0635c9" transform="translate(108.672 -30.322)"/>
            <path data-name="Path 12163" d="M224.38 315.43a37.95 37.95 0 0 1 11.46-.18c5.33 1.09 5.86 9.45.75 11.26a32.351 32.351 0 0 1-12.21.05c-4.96-1.63-4.95-9.49 0-11.13z" style="fill:#0635c9" transform="translate(108.672 -30.322)"/>
            <path data-name="Path 12164" d="M248.5 315.66c3.99-1.35 8.35-.38 12.49-.67 3.57.22 8.17-.99 10.66 2.37 2.8 3.28.56 9.03-3.74 9.51-4.3.33-8.63.04-12.94.15-2.75-.08-6.07.41-8.1-1.89a6.018 6.018 0 0 1 1.63-9.47z" style="fill:#0635c9" transform="translate(108.672 -30.322)"/>
            <path data-name="Path 12165" d="M281.31 315.38c5.17-.86 10.47-.16 15.69-.39 3.31.19 7.47-.83 9.92 2.06 2.97 3.1 1.17 8.94-3.06 9.73-5.27.52-10.58.07-15.87.24-3.04-.13-6.81.62-9.05-1.99a6.017 6.017 0 0 1 2.37-9.65z" style="fill:#0635c9" transform="translate(108.672 -30.322)"/>
        </g>
        <g data-name="#0635c9ff">
            <path data-name="Path 11963" d="M109.47 27.93c-.2-12.05 10.43-22.87 22.48-22.91Q259.48 4.96 387 5.01c12.19-.18 23.04 10.7 22.88 22.88q.96 165.705 1.8 331.4c-4.22-8.23-7.92-16.71-12-25.01-.52-22.08-.29-44.18-.52-66.27q-.66-120.015-1.29-240.03A11.252 11.252 0 0 0 386.03 17H149.56c-5.88.03-11.76-.07-17.64.06a11.093 11.093 0 0 0-9.71 7.11c-1.11 2.8-.66 5.87-.75 8.81-.07 96.43.14 192.87-.1 289.3-3.9 7.72-7.99 15.33-12.06 22.96.38-26.73.05-53.49.16-80.23q.015-118.545.01-237.08z" style="fill:#0635c9" transform="translate(-91.189 -4.996)"/>
            <path data-name="Path 11964" d="M140.07 44.07c2.61-2.3 6.32-1.24 9.47-1.47q48.72.015 97.44 0a6.024 6.024 0 1 1 .02 12q-48.72-.015-97.45-.01c-3.2-.23-7.01.85-9.61-1.58a6 6 0 0 1 .13-8.94z" style="fill:#0635c9" transform="translate(-91.189 -4.996)"/>
            <path data-name="Path 11965" d="M136.79 92.14c-4.69-1.87-4.48-9.4.32-10.99 4.04-.92 8.3-.18 12.43-.42 32.82.02 65.64-.03 98.47.02a6 6 0 0 1 5.41 7.21 6.124 6.124 0 0 1-6.42 4.76q-48.735.03-97.45.01c-4.23-.28-8.66.65-12.76-.59z" style="fill:#0635c9" transform="translate(-91.189 -4.996)"/>
            <path data-name="Path 11966" d="M137.17 119.23c4.03-.9 8.26-.21 12.38-.43h230.49a6.276 6.276 0 0 1 6.65 4.24 5.99 5.99 0 0 1-5.62 7.75q-115.755.03-231.52.01c-4.03-.18-8.16.39-12.14-.3-5.22-1.42-5.37-9.62-.24-11.27z" style="fill:#0635c9" transform="translate(-91.189 -4.996)"/>
            <path data-name="Path 11967" d="M137.23 157.32c4.03-.84 8.23-.18 12.33-.39h230.5a6.226 6.226 0 0 1 6.59 4.11 6.013 6.013 0 0 1-5.65 7.88q-115.725.045-231.44.01c-4.07-.2-8.23.44-12.24-.36-5.18-1.48-5.21-9.66-.09-11.25z" style="fill:#0635c9" transform="translate(-91.189 -4.996)"/>
            <path data-name="Path 11968" d="M149.43 197.8c5.88-6.89 15.91-9.12 24.47-6.82 4.47 1.2 8.71 4.29 10.15 8.85 1.72 5.18-.09 10.79-2.92 15.22a28.022 28.022 0 0 1-19.71 13.18c4.32 5.34 12.46 5.05 18.17 2.3 5.78-2.74 7.56-9.98 13.45-12.54a10.482 10.482 0 0 1 11.55 2.38c7.65 6.83 19.56 6.49 28.04 1.36 5.77-2.53 11.04 5.97 6.13 10-12.3 8.4-30.16 7.7-41.64-1.88-1.72 2.01-3.14 4.27-5.06 6.11-7.47 7.79-19.64 10.43-29.79 7.01-5.57-1.81-9.93-6.12-12.97-11.01-.73-1.39-1.4-2.81-2.09-4.22-3-.9-6.15-1.59-8.81-3.29a6.042 6.042 0 0 1 .37-9.66c1.71-1.35 3.91-.92 5.92-.89a27.34 27.34 0 0 1 4.74-16.1m10.19 6.79c-2.96 3.19-3.11 7.88-2.98 11.98 6.44.37 12.67-3.8 15.31-9.62.42-1.11 1.13-2.34.63-3.55a12.188 12.188 0 0 0-12.96 1.19z" style="fill:#0635c9" transform="translate(-91.189 -4.996)"/>
        </g>
        <g data-name="#d4e1f4ff">
            <path data-name="Path 11970" d="M122.21 24.17a11.093 11.093 0 0 1 9.71-7.11c5.88-.13 11.76-.03 17.64-.06.01 8.53.04 17.06-.02 25.6-3.15.23-6.86-.83-9.47 1.47a6 6 0 0 0-.13 8.94c2.6 2.43 6.41 1.35 9.61 1.58.03 8.71.05 17.43-.01 26.14-4.13.24-8.39-.5-12.43.42-4.8 1.59-5.01 9.12-.32 10.99 4.1 1.24 8.53.31 12.76.59q.045 13.035 0 26.07c-4.12.22-8.35-.47-12.38.43-5.13 1.65-4.98 9.85.24 11.27 3.98.69 8.11.12 12.14.3q.045 13.065.01 26.13c-4.1.21-8.3-.45-12.33.39-5.12 1.59-5.09 9.77.09 11.25 4.01.8 8.17.16 12.24.36-.06 9.62.19 19.25-.13 28.87a27.34 27.34 0 0 0-4.74 16.1c-2.01-.03-4.21-.46-5.92.89a6.042 6.042 0 0 0-.37 9.66c2.66 1.7 5.81 2.39 8.81 3.29.69 1.41 1.36 2.83 2.09 4.22.49 12.39.36 24.88.07 37.27-9.31 17.7-18.54 35.44-28.01 53.05.24-96.43.03-192.87.1-289.3.09-2.94-.36-6.01.75-8.81z" style="fill:#d4e1f4" transform="translate(-91.189 -4.996)"/>
        </g>
        <g data-name="#1ae5beff">
            <path data-name="Path 11971" d="M348.02 252.82a13.251 13.251 0 0 1 16.35 6.78q17.7 37.32 35.31 74.68c4.08 8.3 7.78 16.78 12 25.01 2.51 6.07 5.68 11.86 8.24 17.91a13.092 13.092 0 0 1-6.52 16.35c-7.82 3.49-15.71 6.82-23.6 10.16a13.243 13.243 0 0 1-15.65-4.46c-2.56 3.24-6.06 5.53-9.01 8.32 5.93 4.16 11.44 9.93 12.25 17.47 1.86 11.45-6.96 22.93-18.24 24.83a24.711 24.711 0 0 1-12.12-.95c-1.14 3.57-2.33 7.32-4.88 10.21-5.49 6.77-15.18 9.92-23.52 7.22-.98 3.2-1.75 6.67-3.82 9.47a22.372 22.372 0 0 1-24.05 9.18c-.28.08-.84.25-1.12.34a22.075 22.075 0 0 1-13.49 17.1 22.519 22.519 0 0 1-21.86-2.66c-3.14-2.4-6.18-4.94-9.32-7.31-2.71 3.43-4.88 7.4-8.43 10.09a20.881 20.881 0 0 1-33.42-12.74l-.6-.5c-10.87 2.26-22.27-6.29-23.7-17.22-10.95 2.1-22.62-5.91-24.17-17.03-1.82-.46-3.81.34-5.7-.1a20.817 20.817 0 0 1-14.86-32.94c4.52-6.33 9.17-12.56 13.67-18.9-2.65-1.9-4.96-4.58-7.76-6.05-1.66 1.94-2.32 4.72-4.19 6.61a13.263 13.263 0 0 1-16.23 2.77c-7.47-4.2-15.02-8.29-22.43-12.6a12.983 12.983 0 0 1-4.69-16.46c5.51-10.77 11.32-21.39 16.84-32.16 4.07-7.63 8.16-15.24 12.06-22.96 9.47-17.61 18.7-35.35 28.01-53.05 2.77-4.66 4.49-10.65 9.86-13.05 4.79-2.48 10.56-1.18 14.77 1.88 6.96 4.38 14.25 8.26 21.03 12.92 5.78 4.71 5.6 13.44 1.41 19.14a48.356 48.356 0 0 1 18.38 1.77c7.08-5.87 16.23-7.7 24.73-10.51 3.72-1.15 7.43-2.36 11.16-3.47a37.22 37.22 0 0 1 20.61-.02c8.55 2.36 17.08 4.78 25.65 7.09a45.48 45.48 0 0 0 22.62.12c-1.39-3.27-3.48-6.37-3.67-10.01a13.143 13.143 0 0 1 8.2-12.96c7.95-3.13 15.89-6.3 23.9-9.31m-19.73 20.57-.55.7c18.57 39.4 37.4 78.7 56.11 118.04.69 1.28 2.09.1 3.01-.17 7.3-3.38 15.06-6 22.09-9.85-12.89-27.76-26.14-55.35-39.18-83.05-5.68-11.67-10.86-23.63-16.84-35.12-8.34 2.77-16.43 6.33-24.64 9.45m-164.09-6.37c-20.14 37.94-40.06 75.99-60.13 113.96-.42.87-1.67 2.43-.14 2.98 7.33 4.11 14.63 8.28 22.04 12.26 1.58-.48 1.74-2.47 2.62-3.65q29.565-55.83 59.14-111.64l-.47-.79c-7.37-4.5-14.72-9.03-22.19-13.36l-.87.24m77.35 26.34c-6.97 2.39-14.83 3.53-20.28 8.93-4.98 4.4-6.82 10.95-9.37 16.84a356.029 356.029 0 0 0-12.96 35.74c8.9 2.41 19.21-.6 24.86-8.02a24.284 24.284 0 0 0 5.03-13.75c1.37-6.6 4.45-13.18 9.92-17.33 3.85-2.76 8.94-4.46 13.62-3.04 6.2 1.83 12.77 3.01 18.26 6.62a44.877 44.877 0 0 1 8.17 6.84q29.295 28.7 58.58 57.4c5.89 5.2 11.98 10.18 17.87 15.39a30.948 30.948 0 0 0 12.94-11.93q-21.825-45.51-43.4-91.16c-4.36 1.77-9.14 2.17-13.78 2.54-16.33.71-31.35-6.99-47.13-9.81-7.8-.98-15.02 2.71-22.33 4.74m-52.14 10.13q-21.93 41.175-43.71 82.41c3.19 2.27 5.9 5.49 9.35 7.2 3.23-4.9 8.06-9.05 13.99-10.12a20.818 20.818 0 0 1 21.15 7.85 21.563 21.563 0 0 1 3.73 17.26c1.6 1.1 4.13.84 5.94 1.95a21.008 21.008 0 0 1 12.29 22.65c11.85.36 21.53 12.5 19.08 24.14 11.93.59 21.69 12.64 19.16 24.45 4.15 3.38 8.22 7 12.75 9.85 6.76 3.64 15.87-2.56 14.77-10.2-.96-7.76-9.85-10.25-13.71-16.16-2.83-5.11 3.98-11.05 8.64-7.6 5.67 4.61 11.11 9.51 16.73 14.19a10.519 10.519 0 0 0 14.03-.69 10.128 10.128 0 0 0-.02-14.3c-5.45-4.89-11.13-9.53-16.64-14.36a5.885 5.885 0 0 1-1.75-6.08c.9-3.83 6.05-5.71 9.16-3.24 7.99 6.61 15.76 13.48 23.69 20.15a10.535 10.535 0 0 0 14.21-.62 10.152 10.152 0 0 0-.14-14.35c-7.81-6.83-15.77-13.51-23.62-20.3a5.984 5.984 0 0 1 7.34-9.45c10.83 9.16 21.55 18.46 32.35 27.65a10.586 10.586 0 0 0 14.64-.97 9.745 9.745 0 0 0-.53-14.04c-10.91-9.43-21.95-18.73-32.84-28.17q-30.85-30.18-61.67-60.39c-5.01-5.04-12.28-6-18.78-7.94-5.44.73-7.64 7.09-8.46 11.82-1.25 15.51-14.07 28.94-29.43 31.13a36.942 36.942 0 0 1-22.74-3.66 6.009 6.009 0 0 1-2.8-6.49c5.89-18.65 12.29-37.19 20.66-54.89a46.736 46.736 0 0 0-16.82 1.32m-20.02 91.99a10.87 10.87 0 0 0-4.04 3.9c-7.15 9.87-14.34 19.7-21.48 29.58a8.9 8.9 0 0 0 .75 11.45 8.989 8.989 0 0 0 13.21-.51c7.68-10.39 15.22-20.9 22.83-31.35a8.863 8.863 0 0 0-11.27-13.07m20.08 25.08a8.938 8.938 0 0 0-5.3 3.61q-8.025 10.98-16.01 22.01a8.894 8.894 0 0 0 .42 11.25 9 9 0 0 0 13.55-.32c5.42-7.27 10.67-14.66 16.03-21.96a9.378 9.378 0 0 0 2.16-7.06 8.872 8.872 0 0 0-10.85-7.53m17.75 24.71c-4.58 2.3-6.53 7.49-9.75 11.22-2.75 4.48-8.11 8.56-6.65 14.43 1.29 6.68 10.74 9.13 15.14 3.96 4.08-5.26 7.88-10.75 11.82-16.11a8.876 8.876 0 0 0-10.56-13.5m19.95 24.01c-5.15 1.82-7.08 7.55-10.46 11.39-3.85 4.53-1.49 12.31 4.25 13.91 4.53 1.61 9.19-1.23 11.37-5.17 2.44-3.95 6.83-7.41 6.38-12.51-.36-5.43-6.38-9.49-11.54-7.62z" style="fill:#1ae5be" transform="translate(-91.189 -4.996)"/>
        </g>
        <path data-name="Path 14561" d="M366.638 392.3a5.6 5.6 0 0 1 8.568.105c1.413 1.563 1.2 3.775 1.334 5.724a18.623 18.623 0 0 1 11.966 12.984c.518 2.5 1.159 5.5-.553 7.7a5.609 5.609 0 0 1-8.34.65c-2.52-2.265-1.027-6.338-3.494-8.656-3.011-3.67-9.551-2.844-11.571 1.449-2.423 4.214.931 10.157 5.82 10.157a19.109 19.109 0 0 1 13.335 5.373 18.254 18.254 0 0 1 3.977 19.875 18.782 18.782 0 0 1-11.158 10.4c-.123 2.063.2 4.416-1.22 6.136a5.618 5.618 0 0 1-8.4.535c-1.861-1.747-1.563-4.46-1.712-6.76a18.4 18.4 0 0 1-12.053-13.423c-.43-2.344-.939-5.109.632-7.155a5.6 5.6 0 0 1 8.551-.518c2.133 2.072 1.018 5.487 2.765 7.769a7.109 7.109 0 0 0 10.912.887 7.038 7.038 0 0 0-.685-10.306c-2.16-1.905-5.215-1.4-7.839-1.905a18.224 18.224 0 0 1-14.757-16.987c-.553-8.033 4.951-15.723 12.519-18.234.104-1.981-.072-4.238 1.403-5.8z" transform="translate(-104.451 -366.371)" style="fill:#1ae5be"/>
    </g>
</svg>
