<svg xmlns="http://www.w3.org/2000/svg" width="575" height="575" viewBox="0 0 575 575">
    <defs>
        <clipPath id="qlk20fsk9a">
            <path data-name="Rectangle 2938" transform="translate(1460.334 141)" style="fill:#fb9d9d;opacity:0" d="M0 0h575v575H0z"/>
        </clipPath>
    </defs>
    <g transform="translate(-1460.334 -141)" style="clip-path:url(#qlk20fsk9a)">
        <g data-name="Group 2033">
            <path data-name="Path 7829" d="M-15183 738s14 77 39 77h-11l-20-8-14-18-8-24-6-27z" transform="translate(16938.334 -341.5)" style="fill:#d4e1f4"/>
            <path data-name="Path 7825" d="M1633.034 580.457c-3.168 0-20.774-.592-33.443-13.26-11.046-11.046-23.818-28.616-26.616-32.52l-9.778-7.45-18.266-10.021c-8.586-4.673-22.282-18.557-12.421-37.52 5.276-10.146 13.546-14.576 22.3-19.265 9.569-5.125 20.416-10.934 30.511-26.267 10.968-16.658 13.5-29.836 16.176-43.786 1.947-10.143 3.96-20.631 9.427-32.012 7.612-15.845 15.074-23.025 20.5-26.265l-20.624-49.322a6 6 0 0 1 11.071-4.63l23 55a6 6 0 0 1-5.53 8.315c.257.009-7.754 1.607-17.6 22.1-4.793 9.976-6.574 19.255-8.459 29.078-2.781 14.489-5.657 29.472-17.938 48.124-11.769 17.874-24.577 24.734-34.868 30.246-7.985 4.277-13.755 7.367-17.32 14.223-6.616 12.724 5.147 20.123 7.573 21.477l19.006 10.5 11.234 8.479a6 6 0 0 1 1.262 1.307c.142.2 14.352 20.23 25.844 31.722 9.017 9.017 21.917 9.7 24.591 9.744a31.075 31.075 0 0 0 5.067-1.673c-3.957-2.6-8.306-7.143-13.408-18.949a101.28 101.28 0 0 1-4.025-11.332c-1.194-3.855-2.685-8.67-5.586-16.449a93.21 93.21 0 0 0-6.672-13.773c-3.849-6.868-7.485-13.355-7.7-23.7-.16-7.53 6.278-14.658 15.19-24.522 4.09-4.527 8.725-9.658 13.06-15.272 24.435-31.647 56.023-72.03 56.023-72.03l9.452 7.394s-31.564 40.35-55.977 71.97c-4.618 5.981-9.418 11.295-13.654 15.983-5.416 5.995-12.156 13.456-12.1 16.223.156 7.344 2.681 11.849 6.176 18.085a104.556 104.556 0 0 1 7.447 15.446c3.015 8.084 4.565 13.087 5.806 17.093a90.375 90.375 0 0 0 3.58 10.124c4.917 11.379 8.317 13.575 10.348 14.887a11 11 0 0 1 5.481 7.1 9.076 9.076 0 0 1-1.224 7.018c-3.338 5.252-11.877 7.516-15.393 8.246a6 6 0 0 1-1.048.123 6.068 6.068 0 0 1-.475.011z" style="fill:#0635c9" transform="translate(64.098 110)"/>
            <path data-name="Path 7826" d="M1748.334 428.454h-39a6 6 0 0 1-6-6v-56.3a6 6 0 0 1 12 0v50.3h27v-50.3a6 6 0 0 1 12 0v56.3a6 6 0 0 1-6 6z" style="fill:#0635c9" transform="translate(64.098 110)"/>
            <path data-name="Path 7827" d="M1813.531 577.42c-2.366 0-4.814-.234-7.579-.5-1.649-.157-3.477-.332-5.555-.484-12.9-.941-25-6.277-25.506-6.5s-9.13-3.762-17.5-3.972c-6.479 1.338-13.031 3.337-19.373 5.273-13.053 3.984-25.382 7.747-35.291 5-15.644-4.337-18.4-11.769-18.4-25.782 0-8.626 2-12.9 4.112-17.421a59.783 59.783 0 0 0 3.633-9.276 261.301 261.301 0 0 0 2.725-9.881c.9-3.483 1.571-6.094 3.844-12.839 3.231-9.585 11.159-19.943 14.575-24.131l-2.623-52.151a6 6 0 1 1 11.985-.6l2.741 54.5a6.007 6.007 0 0 1-1.472 4.247c-.1.12-10.518 12.132-13.834 21.971-2.126 6.306-2.756 8.746-3.6 12-.625 2.422-1.359 5.271-2.835 10.277a71.8 71.8 0 0 1-4.273 10.965c-1.86 3.978-2.982 6.379-2.982 12.339 0 10.25.534 11.7 9.6 14.218 6.541 1.813 17.247-1.454 28.582-4.914 6.823-2.082 13.877-4.236 21.139-5.688a5.988 5.988 0 0 1 1.2-.116c10.965.051 22.318 4.767 22.8 4.968.219.1 10.858 4.763 21.613 5.548 2.178.159 4.094.341 5.822.506 7.528.719 9.8.936 15.232-2.213 4.67-2.707 7.268-5.728 8.231-7.458-.61.062-1.3.153-1.886.23-6.04.794-16.15 2.122-30.843-6.389-2.326-1.347-4.248-2.266-6.037-3.126a52.178 52.178 0 0 1-13.926-9.068c-12.8-11.3-18.646-16.457-29.292-30.349-10.95-14.289-13.5-25.919-13.608-26.407a6 6 0 0 1-.13-1.243v-54.5a6 6 0 0 1 12 0v53.758c.585 2.118 3.3 10.7 11.262 21.092 9.937 12.966 15.139 17.558 27.708 28.651a40.552 40.552 0 0 0 11.18 7.247c2.034.977 4.214 2.028 6.857 3.559 11.161 6.465 17.872 5.584 23.265 4.875 3.972-.522 8.474-1.114 12.293 2.4a10.921 10.921 0 0 1 3.519 9.442c-.8 7.255-8.052 13.881-14.575 17.662-5.796 3.373-10.138 4.28-14.798 4.28z" style="fill:#0635c9" transform="translate(64.098 110)"/>
            <path data-name="Path 7828" d="M1736.1 484.954h-19.5a6 6 0 0 1 0-12h19.5a6 6 0 0 1 0 12z" transform="translate(68.836 110)" style="fill:#0635c9"/>
            <path data-name="Path 7829" d="M1756.093 484.954h-39.5a6 6 0 0 1 0-12h39.5a6 6 0 0 1 0 12z" transform="translate(56.838 133)" style="fill:#0635c9"/>
            <path data-name="Path 7830" d="M1666.334 274.454h83.5a6 6 0 0 1 4.431 1.954c.621.68 15.245 16.842 19.308 33.906 3.877 16.283.193 31.379-11.262 46.15-6.693 8.63-20.31 13.991-35.537 13.991a53.827 53.827 0 0 1-25.747-6.069c-19.038-10.4-27.685-39.017-28.044-40.23l-12.4-42a6 6 0 0 1 5.754-7.7zm80.743 12h-72.715l10.129 34.3c.072.242 7.618 25.085 22.289 33.1 5.429 2.966 12.53 4.6 19.993 4.6 11.25 0 21.72-3.755 26.055-9.345 9.211-11.878 12.094-23.322 9.072-36.017-2.625-11.021-11.174-22.226-14.823-26.638z" style="fill:#0635c9" transform="translate(64.098 110)"/>
        </g>
        <g data-name="Group 2034">
            <path data-name="Ellipse 740" d="M20.187 12a8.187 8.187 0 1 0 8.187 8.187A8.2 8.2 0 0 0 20.187 12m0-12A20.187 20.187 0 1 1 0 20.187 20.187 20.187 0 0 1 20.187 0z" transform="translate(1498.004 277.066)" style="fill:#0635c9"/>
            <path data-name="Path 7831" d="M1563.2 278.409c-.46-1.739-10.947-42.912 16.432-70.636 27.328-27.673 59.935-18.043 61.31-17.62l-3.374 11.515c-.426-.129-27.128-8.015-49.4 14.537-22.532 22.816-13.461 58.783-13.367 59.143z" transform="translate(-58.738 4.757)" style="fill:#0635c9"/>
            <path data-name="Path 7832" d="M1603.813 382.442c-9.99 0-19.79-3.563-24.558-8.971-7.915-8.976-7.642-24.53-7.585-26.274a6 6 0 0 1 11.994.382c-.093 3.2.552 13.375 4.592 17.956 2.162 2.452 8.915 5.022 16.059 4.9 3.3-.056 9.323-.746 12.619-4.749 4.54-5.512 7.907-11.741 11.162-17.765a124.766 124.766 0 0 1 9.493-15.659c3.608-4.823 8.738-10.213 14.168-15.919 6.388-6.712 12.994-13.653 17.005-19.6a48.814 48.814 0 0 0 9.393-28.654 57.877 57.877 0 0 0-2.374-16.89c-3.365-10.361-9.856-16.706-15.763-21.546-8.416-7.855-20.021-10.739-23.446-11.15-3.839-.461-15.521-1.865-29 8.381-12.617 9.591-14.637 24.935-14.656 25.089a6 6 0 0 1-11.916-1.39c.095-.831 2.521-20.489 19.313-33.253 11.511-8.75 24.193-12.364 37.692-10.742 5.915.711 19.78 4.56 29.916 14.042 6.532 5.336 14.928 13.475 19.275 26.862 2.486 7.654 3.225 17.6 2.94 21.018.213 14.548-6.151 28.185-11.66 35.268-4.335 6.457-11.294 13.769-18.025 20.841-5.178 5.441-10.07 10.58-13.251 14.833a114.052 114.052 0 0 0-8.545 14.177c-3.528 6.528-7.176 13.277-12.456 19.689-4.714 5.724-12.414 8.963-21.68 9.119-.236.003-.472.005-.706.005z" transform="translate(-59.155 4.012)" style="fill:#0635c9"/>
            <path data-name="Path 7833" d="M1676.106 341.609a5.987 5.987 0 0 1-3.919-1.457l-16.342-14.1 7.839-9.086 12.2 10.526c5.3-5.371 15.051-16.224 21.549-29.221 3.282-6.564 8.5-20.493 6.6-40.034-1.741-17.841-7.841-31.055-19.778-42.848a83.838 83.838 0 0 0-18.411-13.383 81.349 81.349 0 0 0-16.553-6.9l-6.2 20.648-11.5-3.437 7.868-26.192a6 6 0 0 1 6.922-4.155 98.762 98.762 0 0 1 46.307 24.882c14.073 13.9 21.255 29.39 23.288 50.219 1.63 16.7-1.142 33.238-7.805 46.566-10.336 20.673-27.37 35.835-28.09 36.47a5.987 5.987 0 0 1-3.975 1.502z" transform="translate(-61.466 4.903)" style="fill:#0635c9"/>
            <path data-name="Path 7834" d="M1600.928 348.975a18.261 18.261 0 0 1-7.208-1.567 15.55 15.55 0 0 1-8.591-8.762c-3.407-8.731 1.109-19.265 1.636-20.438a6 6 0 0 1 10.955 4.9c-1 2.277-2.662 8-1.405 11.192a3.571 3.571 0 0 0 2.133 2.08c1.524.653 5.094 2.183 8.489-5.511a27.286 27.286 0 0 0 .892-4.03c.78-4.4 1.665-9.386 5.231-12.374 2.489-2.085 6.121-3.246 10.326-4.589 4.529-1.447 10.167-3.248 13.157-6.107 5.2-4.966 7.615-11.408 7.615-20.272 0-6.59-2.223-14.807-6.343-17.056a6 6 0 0 1-.869-.577c-4.721-3.768-11.443-3.687-16.16-2.355-4.146 1.169-7.437 6.284-7.929 8.208-1.266 4.949.212 12.787.888 15.39a6 6 0 0 1-11.357 3.792c-.2-.5-5.016-12.346-6.125-24.144a37.923 37.923 0 0 1 3.712-19.453c2.64-5.142 8.054-11.745 14.2-14.9 7.722-3.967 20.351-5.508 31.16-.011 10.214 5.194 17.064 17.24 18.982 23.614a6 6 0 1 1-11.491 3.458c-1.214-4.035-6.254-12.981-12.931-16.376-7.469-3.8-16.195-2.088-20.237-.011-3.062 1.573-7.017 5.837-9 9.708a21.893 21.893 0 0 0-1.443 3.807 21.742 21.742 0 0 1 8.319-4.631c9.638-2.721 19.5-1.143 26.508 4.215 8.936 5.248 12.123 17.929 12.123 27.322 0 12.195-3.7 21.663-11.323 28.946-4.992 4.772-12.092 7.041-17.8 8.864-2.31.738-5.473 1.749-6.287 2.369a45.608 45.608 0 0 0-1.106 5.259 30 30 0 0 1-1.728 6.778c-3.799 8.594-9.972 13.262-16.993 13.262z" transform="translate(-59.628 3.184)" style="fill:#0635c9"/>
        </g>
        <g data-name="Group 2036">
            <path data-name="Path 7830" d="M-15014 571.5s-93.5 83 5.5 147c7.021 4.539-7.282 2.162-8 3-.859 1.464-2.138-1.227-8-3-11.529-3.485-8.873-2.089-3.5 0-19.254-9.645-18-9-18-9l-29.5-31s-5-37.5-5-39 9.5-33.5 9.5-33.5l22.5-24.5z" transform="translate(16936.334 -344.546)" style="fill:#d4e1f4"/>
            <path data-name="Ellipse 741" d="M80 12a68 68 0 1 0 68 68 68.077 68.077 0 0 0-68-68m0-12A80 80 0 1 1 0 80 80 80 0 0 1 80 0z" transform="translate(1848.334 220.454)" style="fill:#1ae5be"/>
            <g data-name="Group 2035">
                <path data-name="Path 7836" d="M1860.54 253.2c-6.514 0-11.61-1.885-15.178-5.621-5.592-5.855-4.747-13.637-4.632-14.505a6 6 0 1 1 11.9 1.572s-.257 2.95 1.458 4.691c1.88 1.909 5.725 2.015 8.619 1.767 6.559-.561 11.144-2.5 12.912-5.453a4.68 4.68 0 0 0 .495-4.057c-1.471-2.508-12.031-5.939-15.5-7.066l-1.955-.64c-11.09-3.688-17.47-9.8-17.963-17.218a16.213 16.213 0 0 1 3.9-12.475c9-10.989 25.3-12.879 34.3-7.7 8.183 4.709 9.282 12.4 8.641 16.2a6 6 0 0 1-11.861-1.812c.04-.581-.071-2.441-2.765-3.991-3.6-2.07-13.556-1.779-19.035 4.907a4.5 4.5 0 0 0-1.209 4.069c.112 1.677 3.576 4.569 9.777 6.631l1.875.614c10.35 3.362 19.883 6.941 22.811 13.721a16.754 16.754 0 0 1-1.212 14.973c-2.689 4.5-8.721 10.1-22.188 11.251q-1.65.142-3.19.142z" transform="translate(63.718 80.7)" style="fill:#1ae5be"/>
                <path data-name="Path 7837" d="M1917.5 279a6 6 0 0 1-6-6v-24.713a6 6 0 0 1 12 0V273a6 6 0 0 1-6 6z" transform="translate(13.005 79.616)" style="fill:#1ae5be"/>
                <path data-name="Path 7838" d="M1917.5 274.835a6 6 0 0 1-6-6v-20.548a6 6 0 0 1 12 0v20.547a6 6 0 0 1-6 6.001z" transform="translate(13.005 .167)" style="fill:#1ae5be"/>
            </g>
        </g>
        <path data-name="Ellipse 718" d="M324.222 12.439a6 6 0 0 1 1.9.31 245.715 245.715 0 0 1 25.624 10.211l.082.038.248.116.02.009.063.029.018.008.067.031.013.006.164.077h.01l.07.033.018.009.061.028.024.012.057.027.024.011.06.028.021.01.078.036.023.011.053.025.035.016.044.021.035.017.043.02.036.017.047.022.051.024.052.025.038.018.04.019.039.018.037.017.045.021.029.014.048.023.018.009.109.052.017.008.051.024.025.012.05.024.027.013.049.023.026.013.05.024.014.007.193.092h.007l.063.03h.009q4.351 2.083 8.607 4.33a6 6 0 1 1-5.6 10.613 234.785 234.785 0 0 0-34.936-14.94 6 6 0 0 1 1.9-11.691zM479.789 175.2a6 6 0 0 1 5.767 4.358 246.319 246.319 0 0 1 7.791 39.189 6 6 0 0 1-11.92 1.379 235.123 235.123 0 0 0-7.411-37.281 6 6 0 0 1 5.773-7.645zm8.964 77.22q.135 0 .271.006a6 6 0 0 1 5.728 6.254q-.519 11.673-2.1 23.051l-.053.38v.008l-.053.38-.041.286-.013.09v.01l-.013.091-.028.192-.013.09v.01l-.055.376v.007l-.042.285-.013.09v.012l-.013.089-.028.191-.013.084v.018l-.012.08v.01l-.028.188-.013.086v.014l-.013.089-.029.189v.01l-.012.079v.02l-.012.08v.009l-.029.188v.006l-.013.086v.013l-.013.086-.029.19-.013.086v.015l-.014.087-.03.189v.006l-.013.085v.015l-.044.279-.014.086v.016l-.014.086-.03.19-.014.09v.011l-.014.088-.046.283v.006l-.061.377v.006l-.062.374v.01l-.063.376-.064.378v.005l-.064.379q-.767 4.5-1.695 8.939a6 6 0 0 1-11.744-2.468 236.643 236.643 0 0 0 4.735-37.728 6 6 0 0 1 5.946-5.694zm-15.89 76.069a6 6 0 0 1 5.6 8.143 246.332 246.332 0 0 1-17.392 36.02 6 6 0 0 1-10.338-6.094 235.174 235.174 0 0 0 16.528-34.229 6 6 0 0 1 5.602-3.845zm-39.336 67.031a6 6 0 0 1 4.616 9.829q-4.789 5.778-9.916 11.255l-.32.341-.321.341-.321.339-.32.338-.429.45-.211.221-.1.109-.213.222-.1.109-.007.007-.211.219-.1.106-.01.011-.1.105-.1.106-.1.1-.013.013-.1.1-.105.108-.1.105-.011.012-.1.1-.011.011-.206.211-.01.01-.1.1-.009.01-.206.21-.011.011-.1.1-.011.012-.2.208-.013.013-.1.1-.013.013-.209.212-.005.005-.1.1-.015.015-.1.1-.006.006-.1.1-.008.008-.1.1-.015.015-.1.1-.01.01-.1.1-.006.006-.1.1-.016.016-.1.1-.012.012-.1.1-.1.1-.015.015-.1.1-.017.017-.2.2-.021.02-.1.095-.017.017-.1.1-.006.006-.094.094-.019.019-.094.093-.023.023-.1.094-.011.011-.091.09-.018.018-.094.093-.024.024-.092.091-.02.02-.082.08-.022.022-.091.09-.026.026-.092.091-.019.019-.083.081-.021.021-.091.089-.027.027-.091.089-.024.023-.084.082-.016.016-.092.09-.029.028-.088.086-.029.028-.078.076-.027.026-.082.079-.032.031-.086.083-.032.031-.076.074-.036.035-.073.07-.034.033-.084.082-.035.034-.071.069-.045.044-.066.064-.033.032-.084.081-.037.035-.082.079-.033.032-.066.064-.036.035-.082.079-.037.036-.084.081-.034.032-.063.061-.039.037-.078.075-.04.038-.082.078-.037.035-.064.061-.041.039-.076.073-.037.036-.081.077-.04.038-.062.059-.048.046-.067.063-.041.039-.08.076-.042.04-.056.053-.066.063-.052.049-.045.043-.077.073-.045.043-.056.053-.063.059-.052.049-.045.043-.077.072-.047.044-.055.052-.067.063-.048.045-.063.059-.058.054-.052.049-.051.048-.07.066-.044.041-.075.07-.048.045-.052.048-.048.045-.077.072-.041.038-.077.072-.047.044-.052.049-.053.049-.073.068-.036.033-.09.083-.035.033-.056.052-.036.033-.09.083-.036.034-.09.083-.033.03-.1.094-.025.023-.058.053-.031.028-.1.09-.029.027-.116.107-.01.009-.062.057-.022.02-.106.1-.025.023-.125.114-.066.061-.011.01-.119.109-.018.017-.123.113-.005.005-.066.06-.009.008-.122.111-.017.015-.117.106-.015.014-.2.179-.014.013-.127.115-.2.182-.013.012-.125.113-.007.006-.34.306-.344.309c-.761.681-1.518 1.351-2.287 2.023a6 6 0 0 1-7.885-9.046 237.705 237.705 0 0 0 26.476-27.181 5.987 5.987 0 0 1 4.627-2.172zM58.56 391.933a5.99 5.99 0 0 1 4.7 2.26 237.679 237.679 0 0 0 26.02 27.738 6 6 0 0 1-8.062 8.888l-.025-.022-.074-.068-.026-.024-.093-.082-.034-.031-.089-.081-.03-.028-.075-.069-.038-.034-.079-.072-.035-.032-.088-.08-.033-.03-.075-.069-.039-.036-.074-.067-.036-.033-.087-.08-.033-.03-.083-.076-.03-.028-.079-.072-.031-.029-.087-.081-.035-.032-.088-.081-.028-.026-.072-.066-.034-.031-.087-.08-.035-.032-.084-.078-.037-.034-.068-.063-.033-.03-.087-.081-.035-.033-.087-.081-.035-.029-.072-.067-.029-.027-.088-.082-.034-.032-.086-.08-.035-.033-.069-.065-.039-.036-.075-.071-.039-.036-.084-.079-.035-.033-.068-.064-.044-.041-.071-.067-.036-.034-.084-.079-.037-.035-.074-.069-.039-.036-.072-.067-.035-.033-.084-.079-.038-.036-.07-.066-.048-.045-.063-.059-.037-.035-.082-.078-.038-.036-.083-.078-.034-.033-.066-.062-.035-.034-.084-.08-.037-.035-.083-.079-.035-.034-.067-.063-.03-.029-.084-.08-.039-.038-.082-.078-.036-.035-.065-.062-.044-.042-.071-.068-.04-.038-.081-.078-.038-.037-.062-.06-.052-.05-.062-.06-.042-.04-.079-.076-.042-.04-.058-.056-.058-.056-.058-.056-.042-.04-.077-.074-.045-.043-.06-.058-.056-.054-.055-.053-.043-.042-.077-.075-.042-.041-.066-.064-.052-.051-.054-.053-.049-.048-.07-.068-.045-.044-.072-.07-.044-.043-.057-.056-.042-.041-.076-.074-.041-.04-.083-.079-.042-.041-.055-.054-.057-.056-.059-.058-.044-.043-.077-.075-.042-.041-.053-.052-.064-.063-.052-.051-.045-.044-.075-.074-.045-.044-.053-.053-.061-.06-.055-.054-.044-.043-.075-.074-.044-.044-.057-.056-.057-.057-.055-.054-.042-.042-.075-.075-.044-.044-.061-.06-.056-.056-.052-.052-.043-.043-.076-.076-.042-.042-.065-.065-.052-.052-.054-.054-.041-.041-.074-.074-.044-.045-.069-.07-.048-.048-.05-.05-.064-.064-.053-.053-.045-.046-.075-.075-.044-.044-.049-.049-.065-.066-.05-.051-.046-.047-.073-.074-.045-.045-.051-.052-.062-.062-.054-.054-.044-.044-.073-.074-.046-.047-.049-.05-.067-.068-.046-.047-.047-.048-.073-.074-.044-.045-.054-.055-.064-.066-.045-.046-.059-.06-.059-.061-.047-.048-.052-.053-.065-.067-.044-.045-.067-.068-.05-.052-.049-.05-.05-.051-.067-.069-.042-.044-.072-.074-.045-.046-.049-.051-.064-.066-.053-.055-.041-.043-.074-.077-.042-.044-.05-.051-.059-.061-.06-.062-.037-.039-.076-.079-.044-.045-.048-.05-.07-.072-.048-.049-.042-.044-.076-.079-.038-.04-.052-.054-.067-.07-.047-.049-.045-.047-.073-.077-.038-.039-.07-.073-.049-.051-.049-.051-.045-.047-.069-.073-.045-.047-.052-.054-.062-.065-.048-.05-.05-.052-.065-.069-.044-.046L68 417.9l-.049-.052-.051-.048-.06-.063-.058-.061-.04-.042-.071-.075-.045-.047-.047-.05-.069-.073-.048-.05-.041-.043-.073-.077-.043-.045-.048-.05-.067-.072-.05-.054-.036-.039-.08-.085-.034-.036-.078-.083-.039-.041-.051-.055-.038-.04-.078-.083-.037-.04-.066-.071-.05-.053-.05-.054-.041-.043-.072-.077-.042-.046-.056-.06-.058-.062-.047-.051-.046-.049-.07-.075-.04-.044-.069-.074-.045-.048-.049-.053-.054-.058-.06-.065-.039-.043-.074-.08-.04-.044-.047-.051-.061-.066-.055-.06-.039-.043-.073-.08-.04-.046-.048-.052-.066-.072-.048-.052-.041-.044-.073-.079-.038-.042-.049-.054-.066-.072-.047-.052-.045-.049-.067-.073-.044-.048-.051-.055-.064-.07-.045-.05-.046-.05-.067-.073-.044-.048-.042-.046-.07-.077-.045-.05-.052-.057-.06-.067-.043-.047-.065-.072-.048-.053-.046-.051-.057-.063-.057-.063-.04-.044-.071-.078-.041-.046-.048-.054-.056-.062-.056-.062-.041-.046-.067-.075-.046-.051-.045-.05-.067-.075-.046-.052-.043-.048-.065-.073-.044-.05-.045-.05-.068-.077-.043-.048-.048-.054-.062-.069-.046-.052-.042-.048-.07-.078-.042-.048-.054-.061-.056-.068-.048-.054-.041-.046-.07-.079-.042-.048-.054-.061-.057-.064-.045-.051-.059-.067-.05-.056-.046-.052-.059-.066-.052-.059-.042-.048-.063-.071-.049-.055-.043-.048-.066-.075-.045-.051-.046-.052-.056-.064-.054-.062-.04-.046-.069-.079-.042-.048-.046-.052-.06-.069-.048-.055-.041-.047-.067-.075-.041-.047-.049-.057-.06-.069-.044-.051-.044-.05-.068-.078-.042-.049-.049-.056-.058-.067-.049-.056-.037-.043-.071-.082-.04-.047-.057-.066-.05-.058-.05-.057-.044-.051-.064-.074-.04-.046-.068-.079-.039-.046-.051-.059-.043-.05-.064-.074-.039-.045-.071-.082-.038-.044-.051-.059-.051-.059-.057-.066-.038-.044-.071-.083-.037-.043-.055-.064-.046-.054-.057-.067-.038-.044-.072-.084-.035-.041-.058-.068-.047-.055-.055-.064-.037-.044-.071-.083-.037-.044-.06-.07-.043-.051-.056-.067-.033-.039-.074-.088-.034-.04-.067-.08-.038-.045-.057-.067-.032-.038-.073-.087-.034-.041-.075-.089-.029-.035-.057-.068-.034-.041-.072-.085-.033-.039-.074-.089-.031-.037-.06-.072-.03-.036-.073-.087-.031-.037-.075-.09-.029-.035-.064-.076-.031-.037-.068-.082-.032-.038-.074-.089-.032-.038-.065-.078-.033-.039-.065-.079-.029-.035-.077-.093-.028-.033-.072-.087-.027-.033-.069-.083-.023-.028-.079-.1-.027-.032-.08-.1-.02-.024-.067-.081-.027-.033-.077-.093-.028-.034-.078-.1-.023-.028-.067-.082-.022-.027-.078-.1-.028-.034-.078-.1-.023-.029-.068-.084-.021-.025-.08-.1-.026-.031-.077-.1-.026-.032-.069-.085-.018-.022-.078-.1-.026-.032-.078-.1-.024-.03-.073-.09-.021-.026-.074-.091-.022-.005-.08-.1-.022-.027-.083-.1-.01-.013-.076-.095-.022-.027-.08-.1-.022-.028-.081-.1-.016-.02-.072-.09-.021-.026-.079-.1-.025-.032-.08-.1-.018-.022-.07-.087-.022-.027-.078-.1-.026-.032-.077-.1-.01-.012a6 6 0 0 1 4.69-9.738zm-38.043-67.769a6 6 0 0 1 5.638 3.948 234.99 234.99 0 0 0 15.867 34.539 6 6 0 0 1-10.455 5.889q-2.849-5.072-5.464-10.287l-.167-.335-.04-.081v-.005l-.164-.33v-.009l-.037-.075v-.006l-.04-.081-.083-.167-.038-.077v-.01l-.055-.077-.005-.011-.122-.247v-.006l-.037-.075-.006-.012-.035-.071v-.01l-.037-.076v-.006l-.08-.164-.006-.012-.033-.068-.008-.017-.03-.062-.01-.02-.034-.069v-.01l-.04-.082-.038-.078-.007-.014-.032-.065-.01-.022-.029-.06-.01-.02-.031-.065-.008-.016-.039-.081-.036-.075-.014-.028-.042-.058-.012-.025-.028-.058-.01-.021-.033-.068-.005-.011-.038-.079-.011-.022-.027-.056-.015-.031-.023-.048-.016-.034-.022-.046-.016-.032-.022-.046-.017-.034-.036-.074-.013-.027-.024-.049-.018-.038-.02-.042-.017-.035-.021-.043-.017-.036-.023-.047-.014-.03-.035-.074-.016-.033-.022-.046-.016-.033-.021-.045-.018-.037-.02-.041-.017-.036-.024-.051-.013-.021-.036-.076-.013-.027-.023-.049-.018-.039-.019-.039-.019-.039-.019-.039-.018-.038-.02-.042-.045-.1-.006-.012-.022-.045-.016-.033-.02-.041-.017-.037-.02-.042-.017-.037-.019-.04-.018-.039-.028-.059-.026-.054-.016-.024-.021-.044-.018-.038-.019-.039-.019-.04-.017-.035-.02-.043-.017-.036-.033-.071-.02-.042-.019-.041-.017-.036-.019-.04-.018-.039-.019-.041-.017-.036-.019-.041-.014-.03-.046-.1-.009-.02-.025-.053-.01-.021-.024-.052-.013-.028-.022-.047-.014-.03-.021-.046-.016-.034-.043-.093-.009-.02-.023-.049-.014-.03-.02-.044-.016-.034-.021-.045-.014-.03-.023-.049-.007-.015-.048-.1-.014-.029-.021-.045-.014-.031-.021-.046-.015-.033-.021-.045-.014-.031-.022-.047-.011-.023-.046-.1-.011-.024-.022-.048-.014-.029-.021-.046-.014-.031-.022-.049-.011-.025-.024-.052v-.007l-.055-.12-.008-.018-.025-.054-.009-.021-.025-.054-.011-.024-.024-.053-.009-.02-.089-.2-.033-.063-.008-.018-.025-.056-.009-.019-.027-.059v-.007l-.092-.2v-.008l-.027-.06-.007-.014-.027-.06-.006-.014-.029-.063-.125-.278-.005-.012-.027-.059-.007-.017-.122-.271v-.006l-.03-.066v-.006l-.029-.064-.005-.012-.028-.063-.124-.278v-.008l-.028-.063-.006-.013-.122-.274v-.005l-.029-.065v-.01l-.028-.063-.005-.012-.122-.275-.056-.077v-.009l-.028-.063v-.011l-.122-.277-.03-.069-.03-.069-.156-.355-.03-.07v-.005l-.119-.272-.007-.016-.025-.058-.008-.018-.025-.058-.007-.015-.116-.268-.005-.012-.027-.062-.005-.012-.026-.061-.007-.016-.115-.267-.006-.014-.026-.061-.005-.013-.027-.063v-.009l-.116-.27-.032-.032-.026-.06-.006-.014-.026-.061-.006-.013-.114-.267-.008-.019-.024-.057-.008-.018-.025-.058-.007-.016-.113-.265-.007-.017-.024-.057-.009-.02-.024-.056-.006-.015-.084-.2v-.008l-.024-.057-.009-.022-.024-.056-.007-.018-.025-.058-.007-.017-.08-.189-.007-.016-.023-.056-.009-.022-.023-.055-.01-.023-.022-.053-.011-.027-.073-.174-.011-.027-.02-.047-.014-.035-.019-.044-.014-.034-.019-.046-.012-.029-.073-.175-.01-.025-.02-.047-.017-.027-.018-.044-.015-.037-.017-.04-.017-.041-.028-.068-.019-.046-.015-.036-.018-.044-.015-.037-.019-.046-.015-.037-.018-.042-.016-.038-.024-.057-.009-.021-.033-.081-.008-.019-.024-.06-.013-.031-.02-.049-.015-.035-.02-.049-.012-.029-.024-.059-.013-.031-.029-.07-.013-.033-.019-.047-.014-.035-.02-.049-.013-.031-.021-.052-.012-.029-.029-.07v-.011l-.033-.08-.011-.026-.022-.055-.012-.03-.022-.053-.012-.029-.026-.064-.006-.015-.033-.082-.034-.083-.007-.017-.026-.064-.01-.025-.024-.059-.01-.024-.025-.063-.007-.027-.067-.168v-.011l-.029-.072-.007-.016-.027-.067-.007-.018-.136-.34v-.007l-.173-.434-.034-.086q-1.3-3.267-2.5-6.572a6 6 0 0 1 5.642-8.042zM6.083 247.8a6 6 0 0 1 6 5.847 237.221 237.221 0 0 0 4.016 37.817 6 6 0 0 1-11.788 2.246q-1.965-10.4-3.048-21.1-.931-9.24-1.176-18.669a6 6 0 0 1 5.845-6.14zM175.168 11.016a6 6 0 0 1 1.793 11.727 234.635 234.635 0 0 0-35.221 14.28 6 6 0 0 1-5.411-10.711 245.935 245.935 0 0 1 28.2-12.064h.01l.081-.029.262-.093h.013l.073-.026.015-.005.071-.025.018-.006.079-.028h.005l.085-.03.02-.007.065-.023.024-.009.058-.02.029-.01.06-.021.023-.008.079-.028.084-.03.021-.007.062-.022.031-.011.053-.019.03-.011.053-.019.032-.011.065-.023.023-.008.073-.025.031-.011.053-.018.035-.012.045-.015.041-.014.043-.015.04-.014.043-.015.081-.028.031-.011.049-.017.031-.011.052-.018.027-.009.052-.018.026-.009.2-.069.062-.021.019-.007.06-.021.017-.006.063-.022h.007l.217-.074.066-.022h.014l.064-.022h.013l.361-.123q2.677-.907 5.381-1.755a6 6 0 0 1 1.818-.301zM247.5 0H257.798l.136.006h.193l.2.008H258.517l.207.009h.191l.2.009h.171l.227.011h.09l.307.015h.088l.306.015h.077l.313.016h.077l.307.016h.01l.308.017h.077a248.23 248.23 0 0 1 25.864 2.8 6 6 0 0 1-1.917 11.846A238.127 238.127 0 0 0 247.5 12a238.529 238.529 0 0 0-33.467 2.358 6 6 0 0 1-1.708-11.878Q223.583.879 235.159.3l.2-.01.989-.046.2-.009.2-.008.291-.012h.007l.191-.008h.008l.19-.007.2-.008h.095l.188-.007h.016l.186-.007h.01l.191-.007h.098l.194-.007h.006l.191-.007h.009l.19-.006H239.318l.185-.006h.017l.187-.006H240.015l.187-.005h7.298z" transform="rotate(6.02 -661.76 14534.325)" style="fill:#1ae5be"/>
    </g>
</svg>
