<svg xmlns="http://www.w3.org/2000/svg" width="478.77" height="470.493" viewBox="0 0 478.77 470.493"><g transform="translate(-2038 -1301)"><path d="M-21066,1243.333a117.93,117.93,0,0,0-6,22.667,86.391,86.391,0,0,0,0,21.333h-28v-34l8.666-10Z" transform="translate(23147.113 471.065)" fill="#d4e1f4"/><path d="M-21028,1194.667a98.925,98.925,0,0,0-6,21.333,87.287,87.287,0,0,0,0,21.333h-36.666l10.666-28Z" transform="translate(23150.779 471.731)" fill="#d4e1f4"/><path d="M-20948,844s-24,35.667-32,80-5.334,94.667-5.334,94.667v168h-37.332V952l18.666-58.667Z" transform="translate(23147.113 473)" fill="#d4e1f4"/><path d="M23205.641,590.662a48.679,48.679,0,0,1-12.68-5.794,34.068,34.068,0,0,1-3.5.089l-2.4-.105-1.822-1.577a30.293,30.293,0,0,1-2.85-2.92,40.123,40.123,0,0,1-9.033-17.769,35.622,35.622,0,0,1-.648-4.321l-.17-.076a44.028,44.028,0,0,1-10.709-7.147,34.485,34.485,0,0,1-7.07-8.73,26.381,26.381,0,0,1-3.381-12.473c-.123-7.317,2.844-16.49,8.811-27.269a131.9,131.9,0,0,1,8.631-13.576l6.359-8.543,19.816,35.323q.316-.284.639-.568a139.408,139.408,0,0,1,16.9-12.689,151.292,151.292,0,0,1,20.3-11.071l8.725-3.743.881,9.448a169.265,169.265,0,0,1,.164,24.671,134.377,134.377,0,0,1-1.994,16.155l26.555-.6-4.27,9.892a150.775,150.775,0,0,1-9.168,17.43,103.454,103.454,0,0,1-9.588,13.36,46.2,46.2,0,0,1-12.053,10.388,30.964,30.964,0,0,1-14.014,3.871q-.645.024-1.295.024A39.572,39.572,0,0,1,23205.641,590.662Zm19.736-14.306c3.621-2.009,7.615-5.991,11.877-11.842a119.954,119.954,0,0,0,8.035-12.817l-8.445.19a54.688,54.688,0,0,1-5.131,10.525,47.784,47.784,0,0,1-16.922,16A17.986,17.986,0,0,0,23225.377,576.355Zm-33.738-36.221c-9.746,14.33-3.7,25.424.963,30.907a39.977,39.977,0,0,0,8.6-1.728,34.14,34.14,0,0,0,18.879-14.353c8.133-12.695,9.137-34.6,9.033-46.189C23218.342,514.693,23201.541,525.571,23191.639,540.134Zm-26.447-10.522c.107,6.519,5.566,11.308,9.369,13.861a46.6,46.6,0,0,1,5.65-11.111q2.139-3.148,4.73-6.25l-11.049-19.688C23170.33,512.485,23165.074,522.64,23165.191,529.612Z" transform="translate(-20750.395 1127.379)" fill="#1ae5be"/><path d="M49.1,9.821A39.328,39.328,0,0,0,9.821,49.1H93.3A39.328,39.328,0,0,0,54.015,9.821H49.1M49.1,0h4.91a49.1,49.1,0,0,1,49.1,49.1v9.821H0V49.1A49.1,49.1,0,0,1,49.1,0Z" transform="translate(2206.956 1448.144)" fill="#0635c9"/><path d="M49.1-2h4.91a51.064,51.064,0,0,1,51.1,51.1V60.925H-2V49.1A51.064,51.064,0,0,1,49.1-2Zm52.015,58.925V49.1A47.158,47.158,0,0,0,54.015,2H49.1A47.158,47.158,0,0,0,2,49.1v7.821ZM49.1,7.821h4.91A41.33,41.33,0,0,1,95.3,49.1v2H7.821v-2A41.33,41.33,0,0,1,49.1,7.821ZM91.246,47.1A37.332,37.332,0,0,0,54.015,11.821H49.1A37.332,37.332,0,0,0,11.874,47.1Z" transform="translate(2206.956 1448.144)" fill="#0635c9"/><path d="M137.493,9.821A127.557,127.557,0,0,0,9.821,137.493v220.97H265.164V137.493A127.557,127.557,0,0,0,137.493,9.821m0-9.821A137.493,137.493,0,0,1,274.985,137.493V368.284H0V137.493A137.493,137.493,0,0,1,137.493,0Z" transform="translate(2118.568 1303)" fill="#0635c9"/><path d="M137.493-2A140.513,140.513,0,0,1,165.6.834a138.739,138.739,0,0,1,49.883,20.99A139.893,139.893,0,0,1,266.022,83.2a138.8,138.8,0,0,1,8.129,26.187,140.513,140.513,0,0,1,2.834,28.111V370.284H-2V137.493A140.516,140.516,0,0,1,.834,109.382,138.74,138.74,0,0,1,21.824,59.5,139.894,139.894,0,0,1,83.2,8.963,138.8,138.8,0,0,1,109.382.834,140.513,140.513,0,0,1,137.493-2ZM272.985,366.284V137.493C272.985,62.782,212.2,2,137.493,2S2,62.782,2,137.493V366.284ZM137.493,7.821A129.557,129.557,0,0,1,267.164,137.493v222.97H7.821V137.493A129.557,129.557,0,0,1,137.493,7.821ZM263.164,356.463V137.493A125.708,125.708,0,0,0,21.692,88.579a124.874,124.874,0,0,0-9.871,48.914v218.97Z" transform="translate(2118.568 1303)" fill="#0635c9"/><path d="M29.463,9.821A19.664,19.664,0,0,0,9.821,29.463V49.1h422.3V29.463A19.664,19.664,0,0,0,412.478,9.821H29.463m0-9.821H412.478a29.463,29.463,0,0,1,29.463,29.463V58.925H0V29.463A29.463,29.463,0,0,1,29.463,0Z" transform="translate(2040 1710.567)" fill="#0635c9"/><path d="M29.463-2H412.478a31.438,31.438,0,0,1,31.463,31.463V60.925H-2V29.463A31.438,31.438,0,0,1,29.463-2ZM439.941,56.925V29.463A27.494,27.494,0,0,0,412.478,2H29.463A27.494,27.494,0,0,0,2,29.463V56.925ZM29.463,7.821H412.478A21.666,21.666,0,0,1,434.12,29.463V51.1H7.821V29.463A21.666,21.666,0,0,1,29.463,7.821ZM430.12,47.1V29.463a17.662,17.662,0,0,0-17.642-17.642H29.463A17.662,17.662,0,0,0,11.821,29.463V47.1Z" transform="translate(2040 1710.567)" fill="#0635c9"/><path d="M49.1,9.821A39.328,39.328,0,0,0,9.821,49.1H353.552A39.328,39.328,0,0,0,314.269,9.821H49.1M49.1,0H314.269a49.1,49.1,0,0,1,49.1,49.1v9.821H0V49.1A49.1,49.1,0,0,1,49.1,0Z" transform="translate(2074.374 1661.463)" fill="#0635c9"/><path d="M49.1-2H314.269a51.064,51.064,0,0,1,51.1,51.1V60.925H-2V49.1A51.064,51.064,0,0,1,49.1-2ZM361.373,56.925V49.1A47.158,47.158,0,0,0,314.269,2H49.1A47.158,47.158,0,0,0,2,49.1v7.821ZM49.1,7.821H314.269A41.33,41.33,0,0,1,355.552,49.1v2H7.821v-2A41.33,41.33,0,0,1,49.1,7.821ZM351.5,47.1a37.332,37.332,0,0,0-37.231-35.284H49.1A37.332,37.332,0,0,0,11.874,47.1Z" transform="translate(2074.374 1661.463)" fill="#0635c9"/><path d="M34.373,9.821A24.552,24.552,0,1,0,58.925,34.373,24.58,24.58,0,0,0,34.373,9.821m0-9.821A34.373,34.373,0,1,1,0,34.373,34.373,34.373,0,0,1,34.373,0Z" transform="translate(2221.686 1389.219)" fill="#0635c9"/><path d="M34.373-2a36.363,36.363,0,0,1,25.72,62.093A36.373,36.373,0,1,1,20.214.859,36.147,36.147,0,0,1,34.373-2Zm0,68.746A32.373,32.373,0,1,0,2,34.373,32.41,32.41,0,0,0,34.373,66.746Zm0-58.925A26.552,26.552,0,1,1,7.821,34.373,26.582,26.582,0,0,1,34.373,7.821Zm0,49.1A22.552,22.552,0,1,0,11.821,34.373,22.578,22.578,0,0,0,34.373,56.925Z" transform="translate(2221.686 1389.219)" fill="#0635c9"/><path d="M134.527,8.821H3.91A4.91,4.91,0,1,1,3.91-1H134.527a4.91,4.91,0,1,1,0,9.821Z" transform="translate(2188.313 1544.897)" fill="#0635c9"/><path d="M134.527,10.821H3.91A6.91,6.91,0,0,1,3.91-3H134.527a6.91,6.91,0,1,1,0,13.821ZM3.91,1a2.91,2.91,0,0,0,0,5.821H134.527a2.91,2.91,0,1,0,0-5.821Z" transform="translate(2188.313 1544.897)" fill="#0635c9"/><path d="M134.527,8.821H3.91A4.91,4.91,0,1,1,3.91-1H134.527a4.91,4.91,0,1,1,0,9.821Z" transform="translate(2188.313 1574.361)" fill="#0635c9"/><path d="M134.527,10.821H3.91A6.91,6.91,0,0,1,3.91-3H134.527a6.91,6.91,0,1,1,0,13.821ZM3.91,1a2.91,2.91,0,0,0,0,5.821H134.527a2.91,2.91,0,1,0,0-5.821Z" transform="translate(2188.313 1574.361)" fill="#0635c9"/><path d="M134.527,8.821H3.91A4.91,4.91,0,1,1,3.91-1H134.527a4.91,4.91,0,1,1,0,9.821Z" transform="translate(2188.313 1603.823)" fill="#0635c9"/><path d="M134.527,10.821H3.91A6.91,6.91,0,0,1,3.91-3H134.527a6.91,6.91,0,1,1,0,13.821ZM3.91,1a2.91,2.91,0,0,0,0,5.821H134.527a2.91,2.91,0,1,0,0-5.821Z" transform="translate(2188.313 1603.823)" fill="#0635c9"/></g></svg>