<svg id="Layer_1" height="512" viewBox="0 0 512 512" width="512" xmlns="http://www.w3.org/2000/svg" data-name="Layer 1"><path d="m134.21 384.96.59-301.566-29.95-.134-.64 301.7a28.946 28.946 0 0 0 28.85 29.04h30a28.946 28.946 0 0 1 -28.85-29.04z" fill="#d4e1f4"/><g fill="#0635c9"><path d="m379.027 11.541-209.866-.541h-.015a6 6 0 0 0 -4.3 1.815l-64.291 66.056a6 6 0 0 0 -1.7 4.172l-.645 301.811a35.026 35.026 0 0 0 34.85 35.146h138.94v-12h-138.94a23.025 23.025 0 0 1 -22.851-23.075l.633-295.825 38.833-.1h.088a24.9 24.9 0 0 0 25.231-24.878l.121-41.158 203.885.551a22.91 22.91 0 0 1 22.794 22.957l-.77 338.591a22.992 22.992 0 0 1 -22.853 22.937h-36.171v12h36.171a35 35 0 0 0 34.85-34.9l.77-338.539a34.951 34.951 0 0 0 -34.764-35.02zm-219.941 61.814a12.942 12.942 0 0 1 -9.324 3.645h-.046l-30.9.1 44.268-45.38-.095 32.314a13.071 13.071 0 0 1 -3.903 9.321z"/><path d="m262.239 120a6 6 0 0 0 -6-6h-102.3a6 6 0 1 0 0 12h102.3a6 6 0 0 0 6-6z"/><path d="m358.066 126a6 6 0 0 0 0-12h-64.344a6 6 0 0 0 0 12z"/><path d="m153.934 165h38.607a6 6 0 0 0 0-12h-38.607a6 6 0 1 0 0 12z"/><path d="m224.023 159a6 6 0 0 0 6 6h128.043a6 6 0 1 0 0-12h-128.043a6 6 0 0 0 -6 6z"/><path d="m222.28 197a6 6 0 0 0 -6-6h-62.346a6 6 0 1 0 0 12h62.346a6 6 0 0 0 6-6z"/><path d="m358.066 191h-102.952a6 6 0 0 0 0 12h102.952a6 6 0 1 0 0-12z"/><path d="m153.934 230a6 6 0 1 0 0 12h38.607a6 6 0 0 0 0-12z"/><path d="m230.023 242h128.043a6 6 0 1 0 0-12h-128.043a6 6 0 0 0 0 12z"/><path d="m130 307.112a6 6 0 0 0 -6 6v66.616a6 6 0 0 0 12 0v-66.616a6 6 0 0 0 -6-6z"/><path d="m136 292.156a6 6 0 0 0 -12 0v3.2a6 6 0 0 0 12 0z"/></g><path d="m338.244 499.835a6.183 6.183 0 0 0 6.363.519 6.1 6.1 0 0 0 3.393-5.354v-96.879a14.856 14.856 0 0 0 4.31-5.548l3.776-7.589a5.555 5.555 0 0 1 2.435-2.463l7.563-3.833a17.585 17.585 0 0 0 9.612-16.661l-.474-8.561a5.628 5.628 0 0 1 .911-3.384l4.66-7.079a17.583 17.583 0 0 0 0-19.353l-4.66-7.078a5.633 5.633 0 0 1 -.913-3.385l.471-8.562a17.593 17.593 0 0 0 -9.618-16.659l-7.577-3.833a5.6 5.6 0 0 1 -2.46-2.465l-3.828-7.588a17.559 17.559 0 0 0 -16.649-9.632l-8.546.471a5.627 5.627 0 0 1 -3.368-.912l-7.068-4.667a17.53 17.53 0 0 0 -19.346 0l-7.069 4.667a5.529 5.529 0 0 1 -3.367.912l-8.549-.471a17.561 17.561 0 0 0 -16.648 9.633l-3.826 7.586a5.629 5.629 0 0 1 -2.461 2.466l-7.579 3.833a17.589 17.589 0 0 0 -9.616 16.66l.471 8.559a5.638 5.638 0 0 1 -.914 3.387l-4.66 7.078a17.585 17.585 0 0 0 0 19.353l4.661 7.08a5.634 5.634 0 0 1 .913 3.383l-.471 8.561a17.589 17.589 0 0 0 9.617 16.661l7.576 3.832a5.629 5.629 0 0 1 2.462 2.465l3.823 7.587a15.137 15.137 0 0 0 4.406 5.557v96.871a6 6 0 0 0 9.559 4.835l31.341-23.035zm-6.244-19.447v-78.376l3.638.194h.362v80.935zm-71.275-108.576-7.578-3.833a5.585 5.585 0 0 1 -3.05-5.293l.47-8.562a17.72 17.72 0 0 0 -2.873-10.641l-4.66-7.079a5.591 5.591 0 0 1 0-6.155l4.659-7.078a17.72 17.72 0 0 0 2.874-10.643l-.47-8.561a5.585 5.585 0 0 1 3.05-5.293l7.579-3.834a17.7 17.7 0 0 0 7.757-7.768l3.828-7.588a5.571 5.571 0 0 1 5.272-3.055l8.55.472a17.652 17.652 0 0 0 10.638-2.88l7.07-4.667a5.547 5.547 0 0 1 6.123 0l7.067 4.667a17.65 17.65 0 0 0 10.641 2.88l8.547-.472a5.609 5.609 0 0 1 5.274 3.056l3.827 7.586a17.7 17.7 0 0 0 7.758 7.77l7.576 3.832a5.587 5.587 0 0 1 3.053 5.294l-.471 8.56a17.722 17.722 0 0 0 2.872 10.643l4.661 7.079a5.591 5.591 0 0 1 0 6.155l-4.661 7.079a17.723 17.723 0 0 0 -2.872 10.642l.471 8.56a5.585 5.585 0 0 1 -3.053 5.294l-7.576 3.834a17.459 17.459 0 0 0 -7.758 7.768l-3.826 7.587a5.553 5.553 0 0 1 -5.275 3.056l-8.547-.471a17.657 17.657 0 0 0 -10.642 2.879l-7.066 4.667a5.552 5.552 0 0 1 -6.124 0l-7.069-4.667a17.679 17.679 0 0 0 -9.692-2.905c-.315 0-.632.008-.947.026l-8.548.471a5.561 5.561 0 0 1 -5.273-3.056l-3.829-7.588a17.472 17.472 0 0 0 -7.757-7.768zm17.275 30.398s.283 0 .362 0l3.638-.194v78.377l-4 2.756zm16 69.36v-66.548l3.349 2.291a17.343 17.343 0 0 0 19.235 0l3.416-2.291v66.548l-9.568-7.048a5.8 5.8 0 0 0 -6.974 0z" fill="#1ae5be"/><path d="m306.9 386.553a53.227 53.227 0 1 0 -53.157-53.226 53.253 53.253 0 0 0 53.157 53.226zm0-94.453a41.227 41.227 0 1 1 -41.157 41.227 41.24 41.24 0 0 1 41.157-41.227z" fill="#1ae5be"/><path d="m288.754 339.614-2.231 13.02a6 6 0 0 0 8.709 6.322l11.666-6.142 11.666 6.142a6 6 0 0 0 8.709-6.322l-2.23-13.02 9.445-9.219a6 6 0 0 0 -3.327-10.231l-13.045-1.9-5.836-11.841a6 6 0 0 0 -10.763 0l-5.836 11.841-13.044 1.9a6 6 0 0 0 -3.327 10.236zm11.778-9.928a6 6 0 0 0 4.518-3.286l1.848-3.751 1.849 3.751a6 6 0 0 0 4.518 3.286l4.151.6-3.01 2.938a6 6 0 0 0 -1.722 5.306l.709 4.137-3.7-1.947a6 6 0 0 0 -5.589 0l-3.7 1.947.709-4.137a6 6 0 0 0 -1.722-5.306l-3.01-2.938z" fill="#1ae5be"/><path d="m304 441h6a6 6 0 0 0 0-12h-6a6 6 0 0 0 0 12z" fill="#1ae5be"/><path d="m304 425h6a6 6 0 0 0 0-12h-6a6 6 0 0 0 0 12z" fill="#1ae5be"/><path d="m316 451a6 6 0 0 0 -6-6h-6a6 6 0 0 0 0 12h6a6 6 0 0 0 6-6z" fill="#1ae5be"/></svg>