<svg version="1.1" xmlns="http://www.w3.org/2000/svg" xmlns:xlink="http://www.w3.org/1999/xlink" viewBox="0 0 172 172"><g fill="none" fill-rule="nonzero" stroke="none" stroke-width="1" stroke-linecap="butt" stroke-linejoin="miter" stroke-miterlimit="10" stroke-dasharray="" stroke-dashoffset="0" font-family="none" font-weight="none" font-size="none" text-anchor="none" style="mix-blend-mode: normal"><path d="M0,172v-172h172v172z" fill="none"></path><g><path d="M45.08617,129.3225l0.1982,-101.30733l-10.06133,-0.04502l-0.215,101.35234c-0.01747,5.37019 4.3216,9.73784 9.6918,9.75563h10.07813c-5.37019,-0.01778 -9.70927,-4.38543 -9.6918,-9.75563z" fill="#d4e1f4"></path><path d="M127.32938,3.87705l-70.50186,-0.18174h-0.00504c-0.54407,-0.00004 -1.06504,0.21986 -1.44453,0.60973l-21.59776,22.19069c-0.36518,0.37526 -0.57,0.87791 -0.57109,1.40153l-0.21668,101.38963c-0.02232,6.49119 5.21628,11.77428 11.70742,11.80686h46.67516v-4.03125h-46.67516c-4.25561,-0.03215 -7.68587,-3.49603 -7.67651,-7.75176l0.21265,-99.37871l13.04546,-0.03359h0.02956c2.23642,0.02973 4.39159,-0.8374 5.98422,-2.40775c1.59263,-1.57035 2.49004,-3.71309 2.49182,-5.94971l0.04065,-13.82652l68.49262,0.1851c4.24151,0.02147 7.66612,3.47057 7.65736,7.71212l-0.25867,113.74541c-0.01007,4.2404 -3.43684,7.67977 -7.67718,7.7054h-12.1512v4.03125h12.1512c6.46089,-0.02766 11.68902,-5.2633 11.70742,-11.72422l0.25867,-113.72795c0.01286,-6.46916 -5.20946,-11.72993 -11.67853,-11.76453zM53.44295,24.6427c-0.83756,0.81181 -1.9662,1.25303 -3.13228,1.22449h-0.01545l-10.38047,0.03359l14.87128,-15.24484l-0.03191,10.85548c0.0004,1.17733 -0.472,2.3055 -1.31116,3.13127z" fill="#0635c9"></path><path d="M88.09591,40.3125c0,-1.1132 -0.90243,-2.01562 -2.01562,-2.01562h-34.36641c-1.1132,0 -2.01562,0.90243 -2.01562,2.01563c0,1.1132 0.90243,2.01563 2.01563,2.01563h34.36641c1.1132,0 2.01563,-0.90243 2.01563,-2.01562z" fill="#0635c9"></path><path d="M120.2878,42.32813c1.1132,0 2.01563,-0.90243 2.01563,-2.01562c0,-1.1132 -0.90243,-2.01562 -2.01562,-2.01562h-21.61556c-1.1132,0 -2.01562,0.90243 -2.01562,2.01563c0,1.1132 0.90243,2.01563 2.01563,2.01563z" fill="#0635c9"></path><path d="M51.7122,55.42969h12.96954c1.1132,0 2.01563,-0.90243 2.01563,-2.01562c0,-1.1132 -0.90243,-2.01562 -2.01562,-2.01562h-12.96954c-1.1132,0 -2.01562,0.90243 -2.01562,2.01563c0,1.1132 0.90243,2.01563 2.01563,2.01563z" fill="#0635c9"></path><path d="M75.25773,53.41406c0,1.1132 0.90243,2.01563 2.01563,2.01563h43.01445c1.1132,0 2.01563,-0.90243 2.01563,-2.01562c0,-1.1132 -0.90243,-2.01562 -2.01562,-2.01562h-43.01445c-1.1132,0 -2.01562,0.90243 -2.01562,2.01563z" fill="#0635c9"></path><path d="M74.67219,66.17969c0,-1.1132 -0.90243,-2.01562 -2.01562,-2.01562h-20.94436c-1.1132,0 -2.01562,0.90243 -2.01562,2.01563c0,1.1132 0.90243,2.01563 2.01563,2.01563h20.94436c1.1132,0 2.01563,-0.90243 2.01563,-2.01562z" fill="#0635c9"></path><path d="M120.2878,64.16406h-34.58544c-1.1132,0 -2.01562,0.90243 -2.01562,2.01563c0,1.1132 0.90243,2.01563 2.01563,2.01563h34.58544c1.1132,0 2.01563,-0.90243 2.01563,-2.01562c0,-1.1132 -0.90243,-2.01562 -2.01562,-2.01562z" fill="#0635c9"></path><path d="M51.7122,77.26563c-1.1132,0 -2.01562,0.90243 -2.01562,2.01563c0,1.1132 0.90243,2.01563 2.01563,2.01563h12.96954c1.1132,0 2.01563,-0.90243 2.01563,-2.01562c0,-1.1132 -0.90243,-2.01562 -2.01562,-2.01562z" fill="#0635c9"></path><path d="M77.27335,81.29688h43.01445c1.1132,0 2.01563,-0.90243 2.01563,-2.01562c0,-1.1132 -0.90243,-2.01562 -2.01562,-2.01562h-43.01445c-1.1132,0 -2.01562,0.90243 -2.01562,2.01563c0,1.1132 0.90243,2.01563 2.01563,2.01563z" fill="#0635c9"></path><path d="M43.67188,103.17044c-1.1132,0 -2.01562,0.90243 -2.01562,2.01563v22.37881c0,1.1132 0.90243,2.01563 2.01563,2.01563c1.1132,0 2.01563,-0.90243 2.01563,-2.01562v-22.37881c0,-1.1132 -0.90243,-2.01562 -2.01562,-2.01562z" fill="#0635c9"></path><path d="M45.6875,98.14616c0,-1.1132 -0.90243,-2.01562 -2.01562,-2.01562c-1.1132,0 -2.01562,0.90243 -2.01562,2.01563v1.075c0,1.1132 0.90243,2.01563 2.01563,2.01563c1.1132,0 2.01563,-0.90243 2.01563,-2.01562z" fill="#0635c9"></path><path d="M113.62884,167.91332c0.62509,0.44992 1.44783,0.51703 2.13757,0.17435c0.68607,-0.33958 1.12566,-1.03324 1.13984,-1.79861v-32.54529c0.6247,-0.49657 1.12121,-1.1357 1.44789,-1.86378l1.2685,-2.54943c0.17752,-0.35593 0.46413,-0.64583 0.81801,-0.82741l2.5407,-1.28765c2.09175,-1.05952 3.35886,-3.25587 3.22903,-5.59705l-0.15923,-2.87596c-0.02157,-0.40185 0.08564,-0.8001 0.30604,-1.13681l1.56547,-2.3781c1.29992,-1.9722 1.29992,-4.5292 0,-6.5014l-1.56547,-2.37777c-0.2206,-0.33677 -0.32804,-0.73512 -0.30671,-1.13715l0.15823,-2.8763c0.12848,-2.34123 -1.13925,-4.53702 -3.23105,-5.59638l-2.5454,-1.28765c-0.35648,-0.18118 -0.64595,-0.47124 -0.82641,-0.82809l-1.28597,-2.54909c-1.05526,-2.09459 -3.25119,-3.36501 -5.59302,-3.23575l-2.87092,0.15823c-0.40008,0.02034 -0.79628,-0.08694 -1.13144,-0.30637l-2.37441,-1.56782v0c-1.97024,-1.3036 -4.52881,-1.3036 -6.49905,0l-2.37474,1.56782c-0.3341,0.2215 -0.73089,0.32898 -1.1311,0.30637l-2.87193,-0.15823c-2.34175,-0.12888 -4.53744,1.14161 -5.59269,3.23609l-1.2853,2.54842c-0.18104,0.35662 -0.47049,0.64666 -0.82674,0.82842l-2.54607,1.28765c-2.0919,1.05935 -3.35946,3.25544 -3.23037,5.59672l0.15823,2.87529c0.02126,0.40228 -0.0863,0.80085 -0.30705,1.13782l-1.56547,2.37777c-1.29975,1.97225 -1.29975,4.52915 0,6.5014l1.5658,2.37844c0.22044,0.33659 0.32787,0.73468 0.30671,1.13648l-0.15823,2.87596c-0.12916,2.34148 1.13856,4.53775 3.23071,5.59705l2.54506,1.28731c0.35633,0.18162 0.64589,0.47154 0.82708,0.82809l1.28429,2.54876c0.33859,0.7307 0.8459,1.37052 1.48014,1.8668v32.5426c-0.00057,0.76065 0.42711,1.45683 1.10586,1.80015c0.67876,0.34332 1.49298,0.2753 2.10536,-0.17589l10.52862,-7.73832zM111.53125,161.38034v-26.32944l1.22214,0.06517c0.02687,0 0.12161,0 0.12161,0v27.1891zM87.5873,124.90559l-2.54573,-1.28765c-0.66415,-0.33685 -1.06621,-1.0346 -1.02461,-1.77812l0.15789,-2.8763c0.06647,-1.26387 -0.27161,-2.51604 -0.96515,-3.57471l-1.56547,-2.3781c-0.41352,-0.62721 -0.41352,-1.44049 0,-2.0677l1.56513,-2.37777c0.6938,-1.05882 1.032,-2.31125 0.96548,-3.57538l-0.15789,-2.87596c-0.0416,-0.74352 0.36046,-1.44127 1.02461,-1.77812l2.54607,-1.28798c1.12324,-0.5717 2.03576,-1.48552 2.60587,-2.60956l1.28597,-2.54909c0.33439,-0.66324 1.02936,-1.06595 1.77106,-1.02629l2.87227,0.15856c1.26396,0.06717 2.51625,-0.27186 3.5737,-0.9675l2.37508,-1.56782c0.62355,-0.4127 1.4334,-0.4127 2.05695,0l2.37407,1.56782c1.05771,0.69589 2.31041,1.03493 3.57471,0.9675l2.87126,-0.15856c0.74122,-0.03655 1.43485,0.36538 1.77173,1.02662l1.28563,2.54842c0.57008,1.12435 1.48274,2.03842 2.6062,2.61023l2.54506,1.28731c0.66453,0.33674 1.067,1.03463 1.02562,1.77845l-0.15823,2.87562c-0.06667,1.26406 0.27129,2.51646 0.96481,3.57538l1.5658,2.3781c0.41352,0.62721 0.41352,1.44049 0,2.0677l-1.5658,2.3781c-0.69343,1.05884 -1.03138,2.31111 -0.96481,3.57505l0.15823,2.87562c0.04156,0.74387 -0.36096,1.44185 -1.02562,1.77845l-2.54506,1.28798c-1.12674,0.56698 -2.04067,1.48209 -2.6062,2.60956l-1.2853,2.54876c-0.33325,0.66484 -1.02955,1.06824 -1.77207,1.02662l-2.87126,-0.15823c-1.26436,-0.06744 -2.51713,0.27148 -3.57505,0.96716l-2.37373,1.56782c-0.62376,0.4124 -1.43352,0.4124 -2.05728,0l-2.37474,-1.56782c-0.96705,-0.63555 -2.09871,-0.97475 -3.25591,-0.9759c-0.10582,0 -0.21231,0.00269 -0.31813,0.00873l-2.87159,0.15823c-0.74211,0.04063 -1.43772,-0.36252 -1.7714,-1.02662l-1.2863,-2.54909c-0.5657,-1.12723 -1.47944,-2.04227 -2.60587,-2.60956zM93.39063,135.11742c0,0 0.09507,0 0.12161,0l1.22214,-0.06517v26.32977l-1.34375,0.92584zM98.76563,158.41805v-22.35597l1.12505,0.76963c1.95659,1.30387 4.50516,1.30387 6.46176,0l1.14756,-0.76963v22.35597l-3.21425,-2.36769c-0.69373,-0.52194 -1.64909,-0.52194 -2.34283,0z" fill="#1ae5be"></path><path d="M103.09922,129.85765c7.23433,0.00951 13.76161,-4.34104 16.53663,-11.02197c2.77502,-6.68093 1.25095,-14.37573 -3.86118,-19.49449c-5.11213,-5.11877 -12.80494,-6.65282 -19.48947,-3.88646c-6.68453,2.76635 -11.04354,9.28798 -11.04341,16.52232c0.00499,9.86408 7.99337,17.86283 17.85743,17.88061zM103.09922,98.12734c5.60381,-0.00951 10.66112,3.35882 12.8122,8.53333c2.15108,5.17452 0.97197,11.13537 -2.98716,15.10123c-3.95913,3.96586 -9.91797,5.1551 -15.09613,3.01282c-5.17816,-2.14228 -8.55508,-7.19387 -8.55509,-12.79768c0.00239,-7.63881 6.18739,-13.83432 13.82618,-13.8497z" fill="#1ae5be"></path><path d="M97.0033,114.08908l-0.74948,4.37391c-0.12953,0.75634 0.18163,1.52062 0.80262,1.9714c0.62099,0.45078 1.44406,0.50986 2.12306,0.15239l3.91905,-2.06333l3.91905,2.06333c0.679,0.35747 1.50208,0.29839 2.12306,-0.15239c0.62099,-0.45078 0.93215,-1.21506 0.80262,-1.9714l-0.74914,-4.37391l3.17293,-3.09701c0.54878,-0.53569 0.74603,-1.33639 0.50887,-2.06569c-0.23716,-0.7293 -0.86764,-1.26084 -1.62653,-1.37128l-4.3823,-0.63828l-1.96053,-3.97784c-0.3394,-0.68841 -1.04032,-1.12432 -1.80785,-1.12432c-0.76753,0 -1.46845,0.43591 -1.80785,1.12432l-1.96053,3.97784l-4.38197,0.63828c-0.75963,0.10997 -1.39087,0.64182 -1.62812,1.37178c-0.23726,0.72995 -0.03935,1.53131 0.51046,2.06688zM100.95997,110.75389c0.65682,-0.09562 1.22446,-0.50847 1.51777,-1.10389l0.62081,-1.2601l0.62115,1.2601c0.29331,0.59542 0.86095,1.00827 1.51777,1.10389l1.39448,0.20156l-1.01117,0.98698c-0.4741,0.46295 -0.69038,1.12936 -0.57848,1.78248l0.23818,1.38977l-1.24297,-0.65407c-0.58764,-0.30929 -1.28991,-0.30929 -1.87755,0l-1.24297,0.65407l0.23818,-1.38977c0.11189,-0.65313 -0.10438,-1.31953 -0.57848,-1.78248l-1.01117,-0.98698z" fill="#1ae5be"></path><path d="M102.125,148.14844h2.01563c1.1132,0 2.01563,-0.90243 2.01563,-2.01562c0,-1.1132 -0.90243,-2.01562 -2.01562,-2.01562h-2.01562c-1.1132,0 -2.01562,0.90243 -2.01562,2.01563c0,1.1132 0.90243,2.01563 2.01563,2.01563z" fill="#1ae5be"></path><path d="M102.125,142.77344h2.01563c1.1132,0 2.01563,-0.90243 2.01563,-2.01562c0,-1.1132 -0.90243,-2.01562 -2.01562,-2.01562h-2.01562c-1.1132,0 -2.01562,0.90243 -2.01562,2.01563c0,1.1132 0.90243,2.01563 2.01563,2.01563z" fill="#1ae5be"></path><path d="M106.15625,151.50781c0,-1.1132 -0.90243,-2.01562 -2.01562,-2.01562h-2.01562c-1.1132,0 -2.01562,0.90243 -2.01562,2.01563c0,1.1132 0.90243,2.01563 2.01563,2.01563h2.01563c1.1132,0 2.01563,-0.90243 2.01563,-2.01562z" fill="#1ae5be"></path></g></g></svg>