<svg xmlns="http://www.w3.org/2000/svg" width="471.474" height="505.718" viewBox="0 0 471.474 505.718"><g transform="translate(-2539.713 -4985.312)"><g transform="translate(2765.332 4985.312)"><path d="M-11428.368-2997.469H-11519a5.768,5.768,0,0,1-5.767-5.765A5.767,5.767,0,0,1-11519-3009h84.871V-3403.3h-222.795v47.334a5.765,5.765,0,0,1-5.767,5.765,5.761,5.761,0,0,1-5.764-5.765v-53.1a5.762,5.762,0,0,1,5.764-5.765h234.323a5.766,5.766,0,0,1,5.769,5.765v405.835A5.766,5.766,0,0,1-11428.368-2997.469Z" transform="translate(11668.455 3451.03)" fill="#0635c9"/><path d="M11.529,11.529V46.118H46.118V11.529H11.529M4.612,0H53.035a4.612,4.612,0,0,1,4.612,4.612V53.035a4.612,4.612,0,0,1-4.612,4.612H4.612A4.612,4.612,0,0,1,0,53.035V4.612A4.612,4.612,0,0,1,4.612,0Z" transform="translate(130.128 154.941)" fill="#0635c9"/><g transform="translate(58.646 83.459)"><path d="M11.529,11.529V46.118H46.118V11.529H11.529M4.612,0H53.035a4.612,4.612,0,0,1,4.612,4.612V53.035a4.612,4.612,0,0,1-4.612,4.612H4.612A4.612,4.612,0,0,1,0,53.035V4.612A4.612,4.612,0,0,1,4.612,0Z" transform="translate(71.482)" fill="#0635c9"/><path d="M11.529,11.529V46.118H46.118V11.529H11.529M4.612,0H53.035a4.612,4.612,0,0,1,4.612,4.612V53.035a4.612,4.612,0,0,1-4.612,4.612H4.612A4.612,4.612,0,0,1,0,53.035V4.612A4.612,4.612,0,0,1,4.612,0Z" transform="translate(0)" fill="#0635c9"/></g><path d="M11.529,11.529V46.118H46.118V11.529H11.529M4.612,0H53.035a4.612,4.612,0,0,1,4.612,4.612V53.035a4.612,4.612,0,0,1-4.612,4.612H4.612A4.612,4.612,0,0,1,0,53.035V4.612A4.612,4.612,0,0,1,4.612,0Z" transform="translate(58.646 154.941)" fill="#0635c9"/><path d="M11.529,11.529V46.118H46.118V11.529H11.529M4.612,0H53.035a4.612,4.612,0,0,1,4.612,4.612V53.035a4.612,4.612,0,0,1-4.612,4.612H4.612A4.612,4.612,0,0,1,0,53.035V4.612A4.612,4.612,0,0,1,4.612,0Z" transform="translate(127.823 226.423)" fill="#0635c9"/><path d="M11.529,11.529V46.118H46.118V11.529H11.529M4.612,0H53.035a4.612,4.612,0,0,1,4.612,4.612V53.035a4.612,4.612,0,0,1-4.612,4.612H4.612A4.612,4.612,0,0,1,0,53.035V4.612A4.612,4.612,0,0,1,4.612,0Z" transform="translate(58.646 226.423)" fill="#0635c9"/><path d="M12,12V36H166V12H12M6,0H172a6,6,0,0,1,6,6V42a6,6,0,0,1-6,6H6a6,6,0,0,1-6-6V6A6,6,0,0,1,6,0Z" transform="translate(32.188)" fill="#0635c9"/><path d="M10.047,176.122h-12V85.5h12Z" transform="translate(0 159.379)" fill="#0635c9"/></g><g transform="translate(-140 8)"><g transform="translate(2.785 4687.509)"><g transform="translate(2520.999 411.65)"><g transform="translate(107.951 -90.148)"><path d="M138.719,127.984c5.927-.1,11.864-.027,17.791-.374-.276,9.047-.775,18.076-1.185,27.114a18.54,18.54,0,0,1-11.052,16.24,19.084,19.084,0,0,1-13.477.606,7.111,7.111,0,0,0-2.745-1.141,19.256,19.256,0,0,0,9.715-15.768C137.7,145.757,139.022,136.9,138.719,127.984Z" transform="translate(-8.702 -15.162)" fill="#d4e1f4"/><path d="M175,311.04a78.29,78.29,0,0,0,15.081,4.644c.891.2,1.792.419,2.692.633q.027,8.958,0,17.924c6.435,3.013,12.835,6.691,19.85,7.85-12.354,1.48-24.636-2.092-36.072-7.36l-.321-.143-1.2-.526C174.964,326.389,175.017,318.714,175,311.04Z" transform="translate(-13.804 -33.097)" fill="#d4e1f4"/><path d="M135.4,27.277A97.819,97.819,0,0,1,293.477,103.2c.027,14.19.08,28.389-.027,42.587,5.348,2.148,10.223,5.794,12.951,10.972,5.517,10.206,3.494,23.629-4.2,32.186a30.542,30.542,0,0,1-12.915,8.566c-1.5,5.473-3.369,10.856-4.51,16.418a91.314,91.314,0,0,1-42.053,57.49c-.205,9.528-.08,19.065-.062,28.594l.285.428c7.96,2.665,16.035,5.027,23.923,7.9a95.064,95.064,0,0,0-7.71,10.473c-4.127-1.284-8.191-2.745-12.354-3.9-3.289-.909-6.516-2.014-9.751-3.084-2.184,1.079-4.385,2.112-6.649,3.022-.045.018-.152.062-.205.08-6.177,2.692-20.09,6.284-27.159,6.159a94.778,94.778,0,0,1-41.589-6.159l-.116-.036a64.89,64.89,0,0,1-7.148-3.075c-21.935,7.309-43.978,14.27-65.94,21.481a42.739,42.739,0,0,0-9.4,4.7l-.214.143a40.2,40.2,0,0,0-18.014,31.7c-.357,13.717-.009,27.444-.169,41.17,66.3.321,145.62.018,211.934.152a111.423,111.423,0,0,0,9.314,12.3c-71.163.365-155.353.045-226.525.16a6.368,6.368,0,0,1-7.122-5.678c-.134-11.9-.009-23.8-.053-35.7.089-8.387-.588-16.962,1.934-25.091,4.635-16.784,18.21-30.483,34.637-35.983,21.356-6.97,42.739-13.851,64.1-20.8.027-9.582-.027-19.163.027-28.745a92.271,92.271,0,0,1-41.812-56.136,183.046,183.046,0,0,0-5.045-18.147c-13.165-4.02-22.016-18.326-19.77-31.9a23.739,23.739,0,0,1,15.741-19.511c.053-9.5.009-19,.027-28.513.053-9.519-.374-19.119,1.23-28.558A97.847,97.847,0,0,1,135.4,27.277m26.945-1.31a85.335,85.335,0,0,0-45.2,45.431c-.036.089-.107.25-.134.33a89.137,89.137,0,0,0-6.631,31.5c.036,14.591-.027,29.182.036,43.773,2.059-.668,4.439-1.506,5.232-3.752,1.48-7.318,1.943-29.948,1.89-33.826-.232-3.022,1.417-6.3,4.4-7.3,4.466-.348,8.94-.027,13.414-.08a277.952,277.952,0,0,0,69.6-9.234c16.908-4.688,33.442-11.578,47.525-22.2a6.216,6.216,0,0,1,7.362,10.018c-12.63,9.662-27.221,16.507-42.284,21.445,17.461,15.6,40.332,24.333,63.427,27.025.053-9.216.1-18.424-.036-27.64A85.273,85.273,0,0,0,253.3,41.386c-13.468-12.336-31.036-20.429-49.281-21.864-14.163-1.114-28.6.74-41.678,6.444m10.669,85.852c.036.169.1.526.125.7a150.823,150.823,0,0,0,14.395,8.886c28.683,15.233,61.207,22.4,93.527,23.442-.018-.811-.071-2.424-.1-3.227-28.683-2.906-57.143-14.564-77.385-35.475a248.892,248.892,0,0,1-30.563,5.678m-43,24.48c-.583,8.634-2.489,17.13-10.669,20.969-15.7,7.369-6.492,3.9-17.087.517a10.707,10.707,0,0,0-7.113,7.05c-2.932,8.271,2.531,18.2,10.91,20.554,1.863.651,4.047.749,5.464,2.291,1.337,1.185,1.658,3.013,2.184,4.644,1.4,5.054,2.968,10.063,4.35,15.126a78.679,78.679,0,0,0,58.48,62.107c9,2.389,18.379,2.567,27.631,1.943a76.657,76.657,0,0,0,33.558-11.552A79.175,79.175,0,0,0,272.4,212.075c1.578-7.451,4.02-14.68,6.079-22.007.829-2.665,3.583-3.886,6.132-4.287,8.271-1.97,13.922-10.963,12.167-19.279-.722-5.089-5.455-9.617-10.74-9.136a238.293,238.293,0,0,1-64.1-8.878c-24.217-6.747-47.4-17.88-66.8-33.986-2.442.294-18.025-.1-23.952,0m30,163.442c.018,7.674-.036,15.349.027,23.023l1.2.526.321.143c11.184,5.152,17.3,7.471,34.136,7.36s25.235-4.1,33.212-7.806c.134-7.6.009-15.224.089-22.827-.258-.089-.767-.258-1.025-.339l.294.223a80.669,80.669,0,0,1-28.184,6.1c-8.37.651-16.757-.312-24.993-1.756A78.288,78.288,0,0,1,161.2,277.943Z" transform="translate(0 0)" fill="#0635c9"/><path d="M169.954,27.517c13.076-5.7,27.515-7.558,41.678-6.444a85.484,85.484,0,0,0-75.843,82.26,25.191,25.191,0,0,0-6.239.339c-2.986,1-4.635,4.278-4.4,7.3a98.724,98.724,0,0,1-.517,11.6c-.686,7.4.107,14.912-1.373,22.23-.793,2.246-3.173,3.084-5.232,3.752-.062-14.591,0-29.182-.036-43.773a89.137,89.137,0,0,1,6.631-31.5c.027-.08.1-.241.134-.33A85.335,85.335,0,0,1,169.954,27.517Z" transform="translate(-7.609 -1.55)" fill="#d4e1f4"/><path d="M125.43,79.64c.027-.08.1-.241.134-.33C125.528,79.4,125.457,79.56,125.43,79.64Z" transform="translate(-8.417 -7.913)" fill="#1ae5be"/><path d="M100.8,183.28a10.707,10.707,0,0,1,7.113-7.05c4.653,2.193,10.108,2.068,14.956.651l-1.257,1.408c-6.658,6.319-4.261,18.138,2.825,23.174,2.5,2.059,5.7,2.692,8.7,3.628,2.326.909,3.334,3.369,3.842,5.624,1.7,6.311,3.842,12.505,5.223,18.9a78.667,78.667,0,0,0,20.884,37.543,79.546,79.546,0,0,0,46.732,22.791c-9.252.624-18.629.446-27.631-1.943a78.679,78.679,0,0,1-58.48-62.107c-1.382-5.063-2.95-10.072-4.35-15.126-.526-1.631-.847-3.458-2.184-4.644-1.417-1.542-3.6-1.64-5.464-2.291C103.334,201.481,97.87,191.552,100.8,183.28Z" transform="translate(-5.654 -18.446)" fill="#d4e1f4"/><path d="M228.86,317.165c6.756-1.747,13.762-2.986,20.251-5.785l.517.392c.018,1.462-.009,2.941-.036,4.421-2.316.4-8.232.8-13.541.992A62.822,62.822,0,0,1,228.86,317.165Z" transform="translate(-19.658 -33.134)" fill="#d4e1f4"/><path d="M176.38,337.46l.321.143Z" transform="translate(-13.954 -35.968)" fill="#1ae5be"/><path d="M89.77,370.521c21.962-7.211,44-14.172,65.94-21.481a64.893,64.893,0,0,0,7.148,3.075c-.588.267-1.765.784-2.362,1.043q-26.486,8.61-53,17.194C92.418,375.494,80.616,389.9,79.93,406.022c-.25,14.029-.036,28.068-.107,42.106-5.954.071-11.908-.089-17.853.1.16-13.726-.187-27.453.169-41.17a40.2,40.2,0,0,1,18.014-31.7l.214-.143A42.74,42.74,0,0,1,89.77,370.521Z" transform="translate(-1.521 -37.226)" fill="#d4e1f4"/><path d="M250.28,352.072c2.264-.909,4.466-1.943,6.649-3.022,3.236,1.07,6.462,2.175,9.751,3.084-6.988,3.476-31.392,6.328-35.84,5.82,6.382-1.916,13.058-3.111,19.235-5.8C250.128,352.134,250.235,352.089,250.28,352.072Z" transform="translate(-19.873 -37.227)" fill="#d4e1f4"/><path d="M252.42,352.52c.053-.018.16-.062.205-.08C252.58,352.458,252.473,352.5,252.42,352.52Z" transform="translate(-22.218 -37.596)" fill="#1ae5be"/><path d="M82.37,378.553l.214-.143Z" transform="translate(-3.738 -40.418)" fill="#1ae5be"/></g><g transform="translate(-42 -2)"><path d="M97.914,409.572C71.45,390.2,58.031,365.724,58.031,336.816V278.249a416.756,416.756,0,0,0,74.661-42.27q-8.45-5.616-16.624-11.631a416.708,416.708,0,0,1-80.427,46.438v58.568c0,28.907,13.419,53.386,39.883,72.755A149.226,149.226,0,0,0,114.617,422.4c.664-.212,1.587-.516,2.719-.911a144.978,144.978,0,0,1-19.422-11.915Z" transform="translate(383.026 -47.198)" fill="#d4e1f4"/><path d="M202.405,325.934V264.425a4.478,4.478,0,0,0-2.71-4.115l-.556-.239a407.677,407.677,0,0,1-83.432-48.306,4.478,4.478,0,0,0-5.374,0,407.653,407.653,0,0,1-83.424,48.309l-.558.24a4.478,4.478,0,0,0-2.71,4.114v61.509c0,31.472,15.059,59.13,43.55,79.983a153.9,153.9,0,0,0,43.1,22.05,4.477,4.477,0,0,0,2.473.011,161.51,161.51,0,0,0,44.556-22.017c29.493-20.856,45.082-48.528,45.082-80.031Zm-90.833,93.045A149.226,149.226,0,0,1,72.48,398.689C46.016,379.32,32.6,354.841,32.6,325.934V267.367a416.706,416.706,0,0,0,80.427-46.438,416.69,416.69,0,0,0,80.426,46.438v58.568c0,28.8-13.823,53.213-41.088,72.566a157.483,157.483,0,0,1-40.789,20.479Z" transform="translate(386.07 -43.779)" fill="#1ae5be"/><path d="M111.551,429.65h0a5.975,5.975,0,0,1-1.677-.24l-.044-.013a155.151,155.151,0,0,1-43.524-22.265c-14.36-10.51-25.425-22.791-32.891-36.5a92.407,92.407,0,0,1-11.274-44.691V264.429a5.972,5.972,0,0,1,3.618-5.493l.559-.24a406.617,406.617,0,0,0,83.116-48.131,5.978,5.978,0,0,1,7.173,0,406.645,406.645,0,0,0,83.125,48.129l.555.238a5.973,5.973,0,0,1,3.618,5.493v61.509a90.079,90.079,0,0,1-11.674,44.744c-7.728,13.719-19.181,26-34.042,36.511a162.8,162.8,0,0,1-44.972,22.223l-.042.013A5.976,5.976,0,0,1,111.551,429.65Zm-.816-3.114a2.99,2.99,0,0,0,1.606.007,159.8,159.8,0,0,0,44.119-21.8c29.075-20.561,44.445-47.811,44.445-78.8V264.425a2.975,2.975,0,0,0-1.8-2.737l-.555-.238a409.651,409.651,0,0,1-83.741-48.485,2.978,2.978,0,0,0-3.574,0A409.623,409.623,0,0,1,27.5,261.453l-.56.24a2.975,2.975,0,0,0-1.8,2.736v61.509c0,30.974,14.847,58.213,42.936,78.772A152.145,152.145,0,0,0,110.736,426.537Zm.837-6.058a1.5,1.5,0,0,1-.487-.081A150.6,150.6,0,0,1,71.6,399.9l-.006,0a118.286,118.286,0,0,1-17.62-15.675A91.951,91.951,0,0,1,41.3,366.609a82.1,82.1,0,0,1-7.647-19.471,87.222,87.222,0,0,1-2.555-21.2V267.367a1.5,1.5,0,0,1,.9-1.375,415.848,415.848,0,0,0,80.138-46.27,1.5,1.5,0,0,1,1.78,0,415.833,415.833,0,0,0,80.136,46.271,1.5,1.5,0,0,1,.9,1.374v58.568a84.3,84.3,0,0,1-2.634,21.143,80.41,80.41,0,0,1-7.881,19.421,92.012,92.012,0,0,1-13.058,17.575,120.967,120.967,0,0,1-18.147,15.649l-.008.006A158.883,158.883,0,0,1,112.044,420.4,1.5,1.5,0,0,1,111.572,420.479Zm-38.21-23a147.6,147.6,0,0,0,38.218,19.918A155.87,155.87,0,0,0,151.5,397.273c26.842-19.054,40.452-43.056,40.452-71.339V268.347a418.849,418.849,0,0,1-78.926-45.556A418.867,418.867,0,0,1,34.1,268.347v57.587C34.1,354.335,47.309,378.406,73.363,397.477Z" transform="translate(386.07 -43.779)" fill="#1ae5be"/><path d="M163.125,322.084,118.3,363.144,95.916,338.871a4.478,4.478,0,1,0-6.584,6.071l25.409,27.552a4.478,4.478,0,0,0,6.317.267l48.116-44.072a4.477,4.477,0,1,0-6.046-6.606Z" transform="translate(369.707 -71.693)" fill="#1ae5be"/><path d="M166.15,319.409h0a5.977,5.977,0,0,1,4.036,10.387l-48.115,44.071a5.978,5.978,0,0,1-8.433-.357L88.23,345.958a5.978,5.978,0,1,1,8.789-8.1l21.37,23.174L162.4,320.717l.032-.008A5.96,5.96,0,0,1,166.15,319.409Zm-48.115,53.028a2.969,2.969,0,0,0,2.01-.782l48.116-44.072a2.977,2.977,0,0,0-2.011-5.174h0a2.969,2.969,0,0,0-2.009.781l-.288.262L118.211,365.26l-23.4-25.372a2.978,2.978,0,1,0-4.378,4.037l25.409,27.552A2.948,2.948,0,0,0,118.035,372.437Z" transform="translate(369.707 -71.693)" fill="#1ae5be"/></g></g></g></g></g></svg>