<svg version="1.1" xmlns="http://www.w3.org/2000/svg" xmlns:xlink="http://www.w3.org/1999/xlink" viewBox="0 0 172 172"><g fill="none" fill-rule="nonzero" stroke="none" stroke-width="1" stroke-linecap="butt" stroke-linejoin="miter" stroke-miterlimit="10" stroke-dasharray="" stroke-dashoffset="0" font-family="none" font-weight="none" font-size="none" text-anchor="none" style="mix-blend-mode: normal"><path d="M0,172v-172h172v172z" fill="none"></path><g><path d="M20.15625,21.66461v128.67078c-0.00714,3.42626 1.34871,6.71467 3.7686,9.14024c2.4199,2.42557 5.70513,3.78911 9.1314,3.78999h3.225v-1.90342c-3.80273,-2.36763 -6.09489,-6.54751 -6.04687,-11.02681v-128.67078c-0.04802,-4.4793 2.24414,-8.65918 6.04688,-11.02681v-1.90342h-3.225c-3.42626,0.00088 -6.7115,1.36442 -9.1314,3.78999c-2.4199,2.42557 -3.77574,5.71399 -3.7686,9.14024z" fill="#d4e1f4"></path><path d="M147.04354,56.4375h-3.93416v-34.77155c0.02413,-3.94966 -1.52552,-7.74635 -4.30649,-10.55109c-2.78098,-2.80474 -6.56434,-4.38663 -10.51406,-4.39611h-95.23257c-8.24539,0.01112 -14.92194,6.70181 -14.91562,14.9472v128.66809c-0.00631,8.2454 6.67023,14.93608 14.91562,14.9472h95.23257c3.94972,-0.00948 7.73309,-1.59137 10.51406,-4.39611c2.78098,-2.80474 4.33062,-6.60143 4.30649,-10.55109v-4.20123h3.93047c3.78655,-0.03582 6.83337,-3.12287 6.81953,-6.90956v-14.48966c0.00322,-1.809 -0.71373,-3.54488 -1.99254,-4.82438c-1.27881,-1.2795 -3.0143,-1.99739 -4.8233,-1.99515h-3.93416v-2.35156h3.93047c3.77325,0 6.81953,-3.21459 6.81953,-6.9922v-14.49066c-0.00033,-1.80027 -0.72111,-3.52553 -2.00158,-4.79098c-1.28047,-1.26545 -3.01411,-1.96582 -4.81426,-1.94491h-3.93416v-2.6875h3.93047c1.80166,0.02292 3.53736,-0.67714 4.81895,-1.94365c1.28159,-1.2665 2.00216,-2.99379 2.00058,-4.79559v-14.49033c0,-3.77493 -3.04527,-6.98918 -6.81584,-6.98918zM22.17188,150.33405v-128.66809c-0.00419,-2.8909 1.1402,-5.66507 3.18142,-7.71221c2.04122,-2.04714 4.81205,-3.19956 7.70296,-3.20375h1.20938v150.5h-1.20938c-2.8909,-0.00418 -5.66174,-1.15661 -7.70296,-3.20375c-2.04122,-2.04714 -3.18561,-4.8213 -3.18142,-7.71221zM139.07813,150.33405c0.02532,2.88085 -1.09921,5.65286 -3.12443,7.70186c-2.02522,2.049 -4.78393,3.2058 -7.66487,3.21409h-89.99195v-150.5h89.99195c2.88095,0.0083 5.63965,1.1651 7.66487,3.21409c2.02522,2.049 3.14975,4.82101 3.12443,7.70186zM147.03615,121.94531h0.00437c0.74106,-0.00378 1.45283,0.28909 1.97662,0.81333c0.52379,0.52424 0.81607,1.23625 0.81166,1.97731v14.48428c0.01692,1.5633 -1.22825,2.84864 -2.7913,2.88134h-3.92812v-20.15625zM147.03615,91.375h0.00437c0.73222,-0.02247 1.44226,0.25297 1.96777,0.76336c0.52552,0.51038 0.82158,1.21207 0.82051,1.94464v14.48428c0,1.55405 -1.23423,2.96398 -2.79063,2.96398h-3.92879v-20.15625zM149.82813,77.91432c0.00154,0.73343 -0.29466,1.43607 -0.82078,1.94706c-0.52613,0.51099 -1.23712,0.78656 -1.97019,0.76362h-3.92778v-20.15625h3.93047c0.75107,0.0259 1.46126,0.34844 1.97498,0.89695c0.52905,0.55628 0.82075,1.29668 0.8133,2.06434z" fill="#0635c9"></path><path d="M45.6875,17.42373c-1.1132,0 -2.01562,0.90243 -2.01562,2.01563v1.54531c0,1.1132 0.90243,2.01562 2.01563,2.01563c1.1132,0 2.01563,-0.90243 2.01563,-2.01563v-1.54531c0,-1.1132 -0.90243,-2.01562 -2.01562,-2.01562z" fill="#0635c9"></path><path d="M45.6875,26.02306c-1.1132,0 -2.01562,0.90243 -2.01562,2.01563v24.62724c0,1.1132 0.90243,2.01563 2.01563,2.01563c1.1132,0 2.01563,-0.90243 2.01563,-2.01562v-24.62724c0,-1.1132 -0.90243,-2.01562 -2.01562,-2.01562z" fill="#0635c9"></path><path d="M127.32031,84.32031c0,-3.3396 -2.70728,-6.04687 -6.04687,-6.04687h-68.19531c-3.3396,0 -6.04687,2.70728 -6.04687,6.04688v38.63281c0,3.3396 2.70728,6.04688 6.04688,6.04688h68.19531c3.3396,0 6.04688,-2.70728 6.04688,-6.04687zM123.28906,122.95313c0,1.1132 -0.90243,2.01563 -2.01562,2.01563h-68.19531c-1.1132,0 -2.01562,-0.90243 -2.01562,-2.01562v-38.63281c0,-1.1132 0.90243,-2.01562 2.01563,-2.01562h68.19531c1.1132,0 2.01563,0.90243 2.01563,2.01563z" fill="#1ae5be"></path><path d="M59.52409,96.07813h55.5345c1.1132,0 2.01563,-0.90243 2.01563,-2.01562c0,-1.1132 -0.90243,-2.01562 -2.01562,-2.01562h-55.5345c-1.1132,0 -2.01562,0.90243 -2.01562,2.01563c0,1.1132 0.90243,2.01563 2.01563,2.01563z" fill="#1ae5be"></path><path d="M59.52409,105.82031h55.5345c1.1132,0 2.01563,-0.90243 2.01563,-2.01562c0,-1.1132 -0.90243,-2.01562 -2.01562,-2.01562h-55.5345c-1.1132,0 -2.01562,0.90243 -2.01562,2.01563c0,1.1132 0.90243,2.01563 2.01563,2.01563z" fill="#1ae5be"></path><path d="M59.52409,115.5625h55.5345c1.1132,0 2.01563,-0.90243 2.01563,-2.01562c0,-1.1132 -0.90243,-2.01562 -2.01562,-2.01562h-55.5345c-1.1132,0 -2.01562,0.90243 -2.01562,2.01563c0,1.1132 0.90243,2.01563 2.01563,2.01563z" fill="#1ae5be"></path></g></g></svg>