<svg id="Layer_1" height="512" viewBox="0 0 512 512" width="512" xmlns="http://www.w3.org/2000/svg" data-name="Layer 1"><path d="m270.042 23.078c-4.936-.4-9.911-.61-14.918-.61-.043 0-.084 0-.124 0h-.243c-89.4.059-163.931 64.811-179.246 149.863.118-.129.235-.256.354-.382.083-.088.169-.175.258-.258a54.337 54.337 0 0 1 32.935-15.029c19.876-72.647 83.689-127.328 160.984-133.584z" fill="#d4e1f4"/><g fill="#0635c9"><path d="m131.144 384.527a6 6 0 0 0 4.24 1.755l13.676-.01 6.093 110.06a6 6 0 0 0 5.99 5.668h57.467a6 6 0 0 0 5.992-5.691l3.068-59.513h3.57l5.8 59.786a6 6 0 0 0 5.975 5.418h29.934a6 6 0 0 0 5.976-5.458l5.288-58.312 3.616 58.143a6 6 0 0 0 5.989 5.627h57.467a6 6 0 0 0 5.99-5.664l5.677-101.277 13.689-.01a6 6 0 0 0 6-6l-.02-37.192a42.31 42.31 0 0 0 -42.294-42.2h-.031l-35.992.026a42.369 42.369 0 0 0 -23.6 7.252 26.132 26.132 0 0 0 -22.93-13.618h-.019a25.923 25.923 0 0 0 -16.233 5.672 42.3 42.3 0 0 0 -33.867-17.021h-.029l-35.993.026a42.367 42.367 0 0 0 -42.264 42.259l.02 46.036a6 6 0 0 0 1.755 4.238zm147.72 40.213a6 6 0 0 0 -5.972 5.458l-5.423 59.802h-19.008l-5.8-59.79a6 6 0 0 0 -5.972-5.42l-13.114.009-.015-19.59a29.911 29.911 0 0 1 29.829-29.794l8.717-.025h.022a29.84 29.84 0 0 1 29.836 29.753l.015 19.588zm-21.1-109.428h.01a14.1 14.1 0 0 1 14.106 14.061 14.089 14.089 0 0 1 -14.1 14.08h-.011a14.071 14.071 0 1 1 -.009-28.141zm-107.51-2.419a30.108 30.108 0 0 1 21.388-8.9l35.992-.026h.022a30.344 30.344 0 0 1 25.1 13.36c.373.549.726 1.114 1.063 1.688a26.084 26.084 0 0 0 23.957 36.442h.02a26.077 26.077 0 0 0 26.08-25.768c.5-.454 1-.9 1.52-1.317a29.934 29.934 0 0 1 18.921-6.69l35.992-.026h.022a30.3 30.3 0 0 1 30.294 30.208l.017 31.193-13.358.009a6 6 0 0 0 -5.986 5.665l-5.686 101.269h-46.156l-3.313-53.272h1.842a6 6 0 0 0 6-6l-.02-25.589a41.854 41.854 0 0 0 -41.849-41.743h-.031l-8.717.025a41.91 41.91 0 0 0 -41.807 41.8l.02 25.589a6 6 0 0 0 4.1 5.682l-2.765 53.508h-46.092l-6.092-110.064a6 6 0 0 0 -5.991-5.668l-13.356.009-.017-40.036a29.98 29.98 0 0 1 8.881-21.348z"/><path d="m189.441 280.728h.024a33.173 33.173 0 1 0 -.022-66.346h-.025a33.173 33.173 0 1 0 .023 66.346zm-.014-54.346h.015a21.173 21.173 0 1 1 .015 42.346h-.016a21.173 21.173 0 1 1 -.014-42.346z"/><path d="m322.111 298.417h.025a33.273 33.273 0 0 0 29.486-17.917h3.6a20.151 20.151 0 1 0 0-40.3h-11.36a33.1 33.1 0 0 0 -21.746-8.127h-.025a33.173 33.173 0 1 0 .023 66.345zm41.26-38.067a8.16 8.16 0 0 1 -8.152 8.151h-.043q.158-1.624.157-3.28a32.935 32.935 0 0 0 -2.68-13.022h2.566a8.16 8.16 0 0 1 8.152 8.151zm-56.279-10.062a21.1 21.1 0 0 1 15-6.216h.016a21.173 21.173 0 1 1 .014 42.345h-.015a21.162 21.162 0 0 1 -15.02-36.129z"/></g><path d="m256.123 10h-.373a196.633 196.633 0 0 0 -196.5 196.763 6 6 0 0 0 11.8 1.524c1.358-5.158 6.186-19.891 12.226-26.437a42.922 42.922 0 0 1 29.689-12.016h.205a41.8 41.8 0 0 1 29.389 11.976 42.912 42.912 0 0 1 12.066 29.713 6 6 0 0 0 12 0 41.068 41.068 0 0 1 41.922-41.689 41.8 41.8 0 0 1 29.389 11.976 42.912 42.912 0 0 1 12.064 29.713v54.549a6 6 0 0 0 12 0v-54.549a41.061 41.061 0 0 1 41.717-41.684h.2a41.8 41.8 0 0 1 29.391 11.976 42.918 42.918 0 0 1 12.065 29.714 6 6 0 0 0 12 0 41.063 41.063 0 0 1 41.717-41.689 41.748 41.748 0 0 1 29.592 11.972c6.039 6.5 10.9 21.3 12.266 26.475a6 6 0 0 0 11.8-1.527v-.251c-.062-108.385-88.255-196.509-196.625-196.509zm181.224 163.5c-.054-.057-.109-.112-.165-.168a53.631 53.631 0 0 0 -38.117-15.5 54.721 54.721 0 0 0 -38.023 15.408c-.088.083-.174.168-.257.256a58.306 58.306 0 0 0 -9.408 13.2 58.244 58.244 0 0 0 -9.408-13.2c-.053-.057-.108-.112-.164-.168a53.711 53.711 0 0 0 -37.855-15.5h-.262a54.718 54.718 0 0 0 -38.023 15.408c-.088.083-.174.168-.257.255a58.259 58.259 0 0 0 -9.408 13.209 58.3 58.3 0 0 0 -9.408-13.2c-.053-.057-.108-.113-.164-.168a53.624 53.624 0 0 0 -38.116-15.5 54.72 54.72 0 0 0 -38.024 15.408q-.133.124-.258.258a58.265 58.265 0 0 0 -9.407 13.2 58.3 58.3 0 0 0 -9.408-13.2c-.054-.057-.109-.113-.164-.168a53.651 53.651 0 0 0 -38.116-15.5 54.724 54.724 0 0 0 -38.025 15.412q-.132.126-.258.258c-.193.205-.383.414-.572.626a184.753 184.753 0 0 1 181.673-152.126h.247a.629.629 0 0 1 .123 0c90.689 0 166.342 65.744 181.76 152.089q-.265-.299-.536-.589z" fill="#1ae5be"/></svg>