<svg height="492pt" viewBox="-53 0 492 492" width="492pt" xmlns="http://www.w3.org/2000/svg"><path d="m70.570312 257.324219c-.019531-7.386719 2.835938-14.492188 7.960938-19.8125l56.292969-44.828125-.164063-33.757813-86.128906 68.585938c-5.125 5.320312-7.980469 12.425781-7.960938 19.8125v160.8125h30zm0 0" fill="#d4e1f4"/><path d="m43.664062 431.515625c-7.894531-.179687-15.109374 4.441406-18.253906 11.683594-3.144531 7.242187-1.59375 15.667969 3.925782 21.316406 5.523437 5.644531 13.910156 7.386719 21.222656 4.40625s12.09375-10.089844 12.09375-17.988281c.105468-10.601563-8.386719-19.289063-18.988282-19.417969zm0 26.839844c-3.042968.179687-5.886718-1.511719-7.175781-4.269531-1.292969-2.761719-.769531-6.03125 1.320313-8.246094 2.089844-2.21875 5.320312-2.9375 8.152344-1.816406 2.832031 1.125 4.691406 3.863281 4.691406 6.910156.109375 3.976562-3.011719 7.292968-6.988282 7.421875zm0 0" fill="#0635c9"/><path d="m198.15625 476v-51.863281c-.011719-8.832031-7.167969-15.992188-16-16h-6.511719v-13.570313c19.886719-2.996094 34.605469-20.074218 34.632813-40.1875v-26.609375l136.1875-.65625c21.894531-.128906 39.554687-17.960937 39.472656-39.859375l-.945312-196.636718c-.003907-1.59375-.648438-3.121094-1.78125-4.238282l-85.460938-84.46875c-.019531-.019531-.046875-.035156-.066406-.054687-1.128906-1.183594-2.691406-1.855469-4.328125-1.855469h-.03125c-.257813.00390625-.511719.0234375-.765625.0585938l-.238282-.0234376c-.199218-.0195312-.390624-.0234374-.597656-.0273437l-118.152344.5664065c-21.910156.105469-39.582031 17.953125-39.476562 39.859375l.5 103.210937-93.828125 74.71875c-.191406.152344-.375.316407-.542969.488281-7.488281 7.582032-11.675781 17.816407-11.652344 28.472657v160.8125h-12.570312c-8.832031.007812-15.9882812 7.167969-16 16v51.863281c.0117188 8.832031 7.167969 15.988281 16 16h166.15625c8.832031-.011719 15.988281-7.167969 16-16zm166.480469-391.109375-37.234375.179687h-.132813c-15.21875-.019531-27.574219-12.3125-27.664062-27.535156l-.179688-37.097656zm-210.53125-64.117187c5.152343-5.230469 12.179687-8.183594 19.523437-8.199219l113.753906-.546875.21875 45.566406c.128907 21.824219 17.84375 39.453125 39.667969 39.476562h.195313l45.5625-.21875.917968 190.460938c.074219 15.28125-12.253906 27.726562-27.535156 27.800781l-171.316406.824219h-.136719c-15.21875.003906-27.582031-12.289062-27.664062-27.507812v-6l29.160156-29.160157c12.46875-12.496093 12.46875-32.722656 0-45.21875l-6.121094-6.121093c-2.152343-2.15625-5.578125-2.351563-7.964843-.460938l-15.433594 12.214844-.832032-173.304688c-.058593-7.34375 2.824219-14.402344 8.003907-19.605468zm-113.535157 226.550781c-.019531-7.386719 2.835938-14.492188 7.960938-19.8125l86.140625-68.585938.296875 64.222657-55.789062 44.175781c-1.691407 1.328125-2.539063 3.457031-2.230469 5.585937.308593 2.125 1.734375 3.921875 3.730469 4.710938 2 .792968 4.269531.453125 5.949218-.886719l78.988282-62.546875 2.351562 2.34375c7.789062 7.808594 7.789062 20.445312 0 28.25l-36.734375 36.734375c-1.039063 1.042969-1.664063 2.429687-1.746094 3.898437l-.464843 8.011719c-.007813.117188-.007813.230469-.007813.347657.035156 5.988281 1.402344 11.890624 4 17.285156 6.027344 12.945312 4.898437 28.09375-2.992187 40-.65625.984375-1.007813 2.144531-1.007813 3.328125v17.316406c0 3.3125 2.6875 6 6 6s6-2.6875 6-6v-15.570313c7.160156-11.703124 9.515625-25.71875 6.582031-39.121093 7.363282 7.042969 17.171875 10.960937 27.359375 10.925781h.195313l23.128906-.113281v26.554687c-.015625 15.804688-12.824219 28.613282-28.632812 28.632813-3.3125 0-6 2.6875-6 6v19.125h-123.078126zm-28.570312 228.675781v-51.863281c0-2.210938 1.789062-4 4-4h166.15625c2.207031 0 4 1.789062 4 4v51.863281c0 2.210938-1.792969 4-4 4h-166.15625c-2.210938 0-4-1.789062-4-4zm0 0" fill="#0635c9"/><g fill="#1ae5be"><path d="m330.015625 232.925781h-14.984375c-3.3125 0-6 2.683594-6 6 0 3.3125 2.6875 6 6 6h14.984375c3.316406 0 6-2.6875 6-6 0-3.316406-2.683594-6-6-6zm0 0"/><path d="m200.015625 244.925781h93.695313c3.3125 0 6-2.6875 6-6 0-3.316406-2.6875-6-6-6h-93.695313c-3.3125 0-6 2.683594-6 6 0 3.3125 2.6875 6 6 6zm0 0"/><path d="m330.015625 192.632812h-92.15625c-3.3125 0-6 2.683594-6 6 0 3.3125 2.6875 6 6 6h92.15625c3.316406 0 6-2.6875 6-6 0-3.316406-2.683594-6-6-6zm0 0"/><path d="m200.015625 204.632812h16.917969c3.3125 0 6-2.6875 6-6 0-3.316406-2.6875-6-6-6h-16.917969c-3.3125 0-6 2.683594-6 6 0 3.3125 2.6875 6 6 6zm0 0"/><path d="m330.015625 273.21875h-84.984375c-3.3125 0-6 2.6875-6 6s2.6875 6 6 6h84.984375c3.316406 0 6-2.6875 6-6s-2.683594-6-6-6zm0 0"/><path d="m223.710938 273.21875h-23.695313c-3.3125 0-6 2.6875-6 6s2.6875 6 6 6h23.695313c3.3125 0 6-2.6875 6-6s-2.6875-6-6-6zm0 0"/><path d="m330.015625 112.042969h-82.15625c-3.3125 0-6 2.6875-6 6s2.6875 6 6 6h82.15625c3.316406 0 6-2.6875 6-6s-2.683594-6-6-6zm0 0"/><path d="m200.015625 124.042969h26.917969c3.3125 0 6-2.6875 6-6s-2.6875-6-6-6h-26.917969c-3.3125 0-6 2.6875-6 6s2.6875 6 6 6zm0 0"/><path d="m330.015625 152.335938h-22.15625c-3.3125 0-6 2.6875-6 6 0 3.316406 2.6875 6 6 6h22.15625c3.316406 0 6-2.683594 6-6 0-3.3125-2.683594-6-6-6zm0 0"/><path d="m200.015625 164.335938h86.917969c3.3125 0 6-2.683594 6-6 0-3.3125-2.6875-6-6-6h-86.917969c-3.3125 0-6 2.6875-6 6 0 3.316406 2.6875 6 6 6zm0 0"/></g></svg>