<svg id="Layer_1" height="512" viewBox="0 0 512 512" width="512" xmlns="http://www.w3.org/2000/svg" data-name="Layer 1"><path d="m57.94 414.01v-250.98a40 40 0 0 1 40-40h-30a40 40 0 0 0 -40 40v250.98a40 40 0 0 0 40 40h30a40 40 0 0 1 -40-40z" fill="#d4e1f4"/><path d="m52 173a6 6 0 0 0 -6 6v7a6 6 0 0 0 12 0v-7a6 6 0 0 0 -6-6z" fill="#0635c9"/><path d="m52 198a6 6 0 0 0 -6 6v139a6 6 0 0 0 12 0v-139a6 6 0 0 0 -6-6z" fill="#0635c9"/><g fill="#1ae5be"><path d="m316.4 74h-120.8a14.672 14.672 0 0 0 -14.6 14.99v34.07l12-.03v-34.04c0-1.654.946-2.99 2.6-2.99h120.8c1.654 0 2.6 1.336 2.6 2.99v34.07l12-.03v-34.04a14.672 14.672 0 0 0 -14.6-14.99z"/><path d="m316.4 52h-120.8a36.693 36.693 0 0 0 -36.6 36.99v34.07l12-.03v-34.04a24.681 24.681 0 0 1 24.6-24.99h120.8a24.681 24.681 0 0 1 24.6 24.99v34.07l12-.03v-34.04a36.693 36.693 0 0 0 -36.6-36.99z"/><path d="m321 269h-45v-45a6 6 0 0 0 -6-6h-30a6 6 0 0 0 -6 6v45h-45a6 6 0 0 0 -6 6v30a6 6 0 0 0 6 6h45v45a6 6 0 0 0 6 6h30a6 6 0 0 0 6-6v-45h45a6 6 0 0 0 6-6v-30a6 6 0 0 0 -6-6zm-6 30h-45a6 6 0 0 0 -6 6v45h-18v-45a6 6 0 0 0 -6-6h-45v-18h45a6 6 0 0 0 6-6v-45h18v45a6 6 0 0 0 6 6h45z"/></g><path d="m490 163a46 46 0 0 0 -46-46h-376a46 46 0 0 0 -46 46v251a46 46 0 0 0 46 46h376a46 46 0 0 0 46-46zm-12 .03v250.98a33.979 33.979 0 0 1 -33.94 33.99h-27.06v-319h27.06a34.012 34.012 0 0 1 33.94 34.03zm-444 250.98v-250.98a34.012 34.012 0 0 1 33.94-34.03h27.06v63a6 6 0 0 0 12 0v-63h298v319h-298v-228.5a6 6 0 0 0 -12 0v228.5h-27.06a33.979 33.979 0 0 1 -33.94-33.99z" fill="#0635c9"/></svg>