<svg id="Layer_1" height="512" viewBox="0 0 512 512" width="512" xmlns="http://www.w3.org/2000/svg" data-name="Layer 1"><path d="m113.32 154h-30a37.458 37.458 0 0 0 -37.32 37.23v266.74a37.287 37.287 0 0 0 37.32 37.03h30a37.287 37.287 0 0 1 -37.32-37.03v-266.74a37.458 37.458 0 0 1 37.32-37.23z" fill="#d4e1f4"/><path d="m209 375h24v23c0 3.313 3.687 7 7 7h26c3.313 0 5-3.687 5-7v-23h27c3.313 0 5-3.687 5-7v-24c0-3.313-1.687-5-5-5h-27v-27c0-3.313-1.687-5-5-5h-26c-3.313 0-7 1.687-7 5v27h-24c-3.313 0-7 1.687-7 5v24c0 3.313 3.687 7 7 7zm5-24h26c3.313 0 5-3.687 5-7v-25h14v25c0 3.313 3.687 7 7 7h25v12h-25c-3.313 0-7 1.687-7 5v25h-14v-25c0-3.313-1.687-5-5-5h-26z" fill="#0635c9"/><path d="m83 193.032a6 6 0 0 0 -12 0v3.44a6 6 0 0 0 12 0z" fill="#0635c9"/><path d="m77 209.64a6 6 0 0 0 -6 6v64.048a6 6 0 0 0 12 0v-64.048a6 6 0 0 0 -6-6z" fill="#0635c9"/><g fill="#1ae5be"><path d="m366.4 12.792a6 6 0 0 0 -4.278-1.792h-267.562c-3.314 0-5.56 2.687-5.56 6v137h12v-131h255v50.358c0 3.313 2.809 5.642 6.122 5.642h48.878v131h12v-136.789a5.81 5.81 0 0 0 -1.5-4.211zm1.6 18.859 35.263 35.349h-35.263z"/><path d="m361.811 128h-7.9a6 6 0 0 0 0 12h7.9a6 6 0 0 0 0-12z"/><path d="m320.5 128h-31.537a6 6 0 0 0 0 12h31.537a6 6 0 0 0 0-12z"/><path d="m258.3 128h-108.111a6 6 0 1 0 0 12h108.111a6 6 0 0 0 0-12z"/><path d="m361.811 93h-37.787a6 6 0 0 0 0 12h37.787a6 6 0 0 0 0-12z"/><path d="m290.618 105a6 6 0 0 0 0-12h-91.3a6 6 0 0 0 0 12z"/><path d="m150.189 105h18.457a6 6 0 0 0 0-12h-18.457a6 6 0 0 0 0 12z"/></g><path d="m429.036 204h-57.036a6 6 0 0 0 0 12h56.675a31.417 31.417 0 0 1 31.325 31.325v59.675h-131.139a85.229 85.229 0 0 0 -145.722 0h-131.139v-115.769a31.323 31.323 0 0 1 31.23-31.231h86.656a30.982 30.982 0 0 1 21.444 8.706l36.793 35.277a42.919 42.919 0 0 0 29.739 12.017h74.138a6 6 0 0 0 0-12h-74.138a30.917 30.917 0 0 1 -21.444-8.639l-36.793-35.311a42.951 42.951 0 0 0 -29.739-12.05h-86.561a43.452 43.452 0 0 0 -43.325 43.325v266.644a43.031 43.031 0 0 0 43.031 43.031h345.644a43.325 43.325 0 0 0 43.325-43.325v-210.711a42.964 42.964 0 0 0 -42.964-42.964zm30.964 115v71h-128.217c6.055-11 9.5-24.816 9.5-38.88a84.15 84.15 0 0 0 -6.364-32.12zm-204-40.983a73.29 73.29 0 1 1 -73.28 73.29 73.368 73.368 0 0 1 73.28-73.29zm-78.919 40.983a84.15 84.15 0 0 0 -6.361 32.12c0 14.064 3.442 27.88 9.5 38.88h-128.22v-71zm251.888 170h-345.644a31.417 31.417 0 0 1 -31.325-31.325v-55.675h135.717a85.192 85.192 0 0 0 136.566 0h135.717v55.969a31.122 31.122 0 0 1 -31.031 31.031z" fill="#0635c9"/></svg>