<svg xmlns="http://www.w3.org/2000/svg" width="372.018" height="492.033" viewBox="0 0 372.018 492.033">
    <g data-name="#0635c9ff">
        <path data-name="Path 11972" d="M94.14 10.26a44.735 44.735 0 0 1 4.91-.26h258.03a29.353 29.353 0 0 1 16.4 4.56c3.62 2.27 6.4 5.59 9.31 8.68q26.055 27.87 52.14 55.73a26.751 26.751 0 0 1 7.07 19q-.015 188.535-.01 377.08c.13 10.01-6.1 19.56-15.05 23.91a30.945 30.945 0 0 1-14.94 3.05q-154.005-.03-308.01-.01c-5.66.07-11.54.19-16.85-2.1-9.99-3.87-17.31-14.03-17.13-24.84q-.03-219.03 0-438.05c-.34-13.42 10.98-25.34 24.13-26.75m-4.53 14.18c-.04.02-.12.07-.16.09A15.564 15.564 0 0 0 82 37.96v435.98a15.524 15.524 0 0 0 4.25 10.91c3.46 3.78 8.78 5.19 13.76 5.17 8.71-.08 17.42.08 26.13-.1q143.925.255 287.87.07c8.12.22 16.17-6.53 15.98-14.94q.045-188.325.01-376.64c-.01-.64-.03-1.92-.05-2.56-10.35.66-20.67 1.84-30.98 3-7.33-.23-14.66 1.65-22.03 1.53a28.208 28.208 0 0 1-22.22-12.11 26.082 26.082 0 0 1-3.88-20.41c3.27-15.16 6.31-30.38 9.68-45.52-3.5-.6-7.06-.26-10.59-.34-74.76-.05-149.51.1-224.27-.07l-.08.28c-7.46-.5-15.06-.06-22.58-.22-4.55-.17-9.34.14-13.39 2.45m281.74 4.28c-2.96 14.38-6.13 28.71-9.02 43.1-1.55 9.29 7.72 17.48 16.69 16.55 14.55-1.35 29.09-2.81 43.63-4.26.06-.12.19-.35.25-.47-17.21-18.28-34.21-36.76-51.55-54.92z" style="fill:#0635c9" transform="translate(-69.995 -9.995)"/>
        <path data-name="Path 11973" d="M123.44 409.41c5.95-4.83 14.3-6.11 21.64-4.37 5.06 1.16 9.92 4.76 11.16 10.01 1.67 6.91-1.95 13.8-6.37 18.89-4.43 5.25-10.91 8.28-17.56 9.58 6.23 6.84 18.18 5.51 23.99-1.21 3.09-3.47 5.46-8.13 10.19-9.6 3.86-1.33 8.08.13 10.91 2.9 7.21 6.29 18.32 6.82 26.64 2.44 2.1-1.09 4.61-2.17 6.91-.91 3.88 1.6 4.67 7.49 1.27 10.01-12.72 8.4-30.91 7.57-42.61-2.31-3.36 4.54-7.07 9.09-12.21 11.69-8.19 4.13-18.4 4.87-26.71.67-5.83-3-9.87-8.52-12.44-14.42-2.1-.61-4.2-1.21-6.26-1.93-2.26-.82-4.57-2.34-4.98-4.91-.84-3.38 1.77-6.56 4.98-7.3 1.2.16 2.4.32 3.6.5.04-7.2 2.14-14.94 7.85-19.73m7.42 9.45c-3.28 3.39-3.38 8.53-3.12 12.96 7.99.03 16.01-5.8 17.09-13.96a12.8 12.8 0 0 0-13.97 1z" style="fill:#0635c9" transform="translate(-69.995 -9.995)"/>
    </g>
    <g data-name="#d4e1f4ff">
        <path data-name="Path 11974" d="M89.61 24.44c4.05-2.31 8.84-2.62 13.39-2.45 7.52.16 15.12-.28 22.58.22l-.32 1.17-.46-1.24c-6.46 1.46-12.43 6.83-12.73 13.74-.18 11.85-.01 23.71-.08 35.56-3.61-.28-7.03 2.91-6.52 6.61.23 3.29 3.36 5.52 6.52 5.44q.015 18.18 0 36.36c-3.42-.2-6.74 2.57-6.54 6.12-.08 3.47 3.21 6.09 6.54 5.92q.03 18.18 0 36.36c-3.27-.16-6.49 2.34-6.54 5.74-.3 3.6 3.05 6.53 6.54 6.3q.03 18.21 0 36.42a6.082 6.082 0 0 0-6.54 6.35c.09 3.38 3.3 5.82 6.54 5.69q.03 18.18 0 36.36c-3.34-.19-6.62 2.45-6.54 5.93-.19 3.54 3.12 6.3 6.54 6.11q.03 18.18 0 36.36c-3.19-.11-6.35 2.19-6.52 5.52-.46 3.67 2.95 6.78 6.52 6.53q.015 17.97 0 35.95c-3.55-.22-6.93 2.82-6.53 6.48a6.134 6.134 0 0 0 6.53 5.57q.015 27.54 0 55.08c-3.21.74-5.82 3.92-4.98 7.3.41 2.57 2.72 4.09 4.98 4.91.03 11.4-.02 22.79.02 34.18-.2 7.75 6.68 14.16 14.13 14.89-8.71.18-17.42.02-26.13.1-4.98.02-10.3-1.39-13.76-5.17A15.524 15.524 0 0 1 82 473.94V37.96a15.564 15.564 0 0 1 7.45-13.43c.04-.02.12-.07.16-.09z" style="fill:#d4e1f4" transform="translate(-69.995 -9.995)"/>
    </g>
    <g data-name="#1ae5beff">
        <path data-name="Path 11976" d="M89.45 24.53c.04-.02.12-.07.16-.09-.04.02-.12.07-.16.09z" style="fill:#1ae5be" transform="translate(-69.995 -9.995)"/>
        <path data-name="Path 11977" d="M105.47 78.05c-.51-3.7 2.91-6.89 6.52-6.61 61.97.08 123.94-.02 185.91.05a5.92 5.92 0 0 1 5.82 4.64c1.05 4.01-2.78 7.88-6.78 7.33q-92.475.045-184.95.03c-3.16.08-6.29-2.15-6.52-5.44z" style="fill:#1ae5be" transform="translate(-69.995 -9.995)"/>
        <path data-name="Path 11978" d="M105.45 125.97c-.2-3.55 3.12-6.32 6.54-6.12q90.51.045 181.02 0c3.29.09 7.52-.7 9.7 2.47 2.94 3.63-.06 9.73-4.76 9.5-61.99.12-123.97-.02-185.96.07-3.33.17-6.62-2.45-6.54-5.92z" style="fill:#1ae5be" transform="translate(-69.995 -9.995)"/>
        <path data-name="Path 11979" d="M105.45 173.99c.05-3.4 3.27-5.9 6.54-5.74q143.025.045 286.04 0c2.99.14 6.58-.61 8.92 1.76a6.046 6.046 0 0 1-.17 8.71c-2.39 2.22-5.9 1.4-8.85 1.56q-142.965-.015-285.94.01c-3.49.23-6.84-2.7-6.54-6.3z" style="fill:#1ae5be" transform="translate(-69.995 -9.995)"/>
        <path data-name="Path 11980" d="M105.45 223.06a6.082 6.082 0 0 1 6.54-6.35q144.99.09 289.98.02a6.034 6.034 0 1 1 .11 11.99q-145.05.06-290.09.03c-3.24.13-6.45-2.31-6.54-5.69z" style="fill:#1ae5be" transform="translate(-69.995 -9.995)"/>
        <path data-name="Path 11981" d="M105.45 271.04c-.08-3.48 3.2-6.12 6.54-5.93q142.965.075 285.94.01c3.06.14 6.78-.68 9.13 1.85a6.038 6.038 0 0 1-2.23 9.78c-2.87.69-5.87.3-8.79.39q-142.02 0-284.05.01c-3.42.19-6.73-2.57-6.54-6.11z" style="fill:#1ae5be" transform="translate(-69.995 -9.995)"/>
        <path data-name="Path 11982" d="M105.47 319.03c.17-3.33 3.33-5.63 6.52-5.52q143.025.06 286.04.01c3.35.04 7.7-.61 9.74 2.77 2.64 3.63-.35 9.36-4.86 9.21q-145.455.135-290.92.06c-3.57.25-6.98-2.86-6.52-6.53z" style="fill:#1ae5be" transform="translate(-69.995 -9.995)"/>
        <path data-name="Path 11983" d="M105.46 367.99c-.4-3.66 2.98-6.7 6.53-6.48q144.99.09 289.98.03a6.175 6.175 0 0 1 6.59 4.55 5.978 5.978 0 0 1-5.75 7.41q-145.41.135-290.82.06a6.134 6.134 0 0 1-6.53-5.57z" style="fill:#1ae5be" transform="translate(-69.995 -9.995)"/>
    </g>
</svg>
