<svg height="485pt" viewBox="0 -3 485.72827 485" width="485pt" xmlns="http://www.w3.org/2000/svg"><g fill="#0635c9"><path d="m436.695312 205.636719 39.871094-5.628907c2.578125-.363281 4.625-2.34375 5.074219-4.90625s-.804687-5.121093-3.101563-6.339843l-112.152343-59.40625-5.617188 10.601562 95.804688 50.75-30.015625 4.238281-112.601563-56.867187-5.410156 10.710937 105.117187 53.085938-167.9375 72.9375-167.929687-72.9375 105.117187-53.085938-5.410156-10.710937-114.730468 57.941406-37.621094-5.308593 98.46875-52.160157-5.617188-10.601562-114.8125 60.8125c-2.296875 1.21875-3.550781 3.777343-3.1015622 6.339843.4492182 2.558594 2.4960942 4.539063 5.0703122 4.902344l48.765625 6.886719-47.1875 70.585937c-.992187 1.484376-1.269531 3.335938-.757812 5.046876.507812 1.710937 1.753906 3.105468 3.398437 3.808593l48.839844 20.78125v63.808594c0 2.160156 1.164062 4.152344 3.042969 5.21875l181.503906 102.984375c1.835937 1.039062 4.085937 1.039062 5.921875 0l181.511719-102.984375c1.878906-1.066406 3.039062-3.058594 3.039062-5.21875v-63.808594l48.839844-20.78125c1.644531-.703125 2.890625-2.097656 3.398437-3.808593.511719-1.710938.234376-3.5625-.757812-5.046876zm-370.394531 4.332031 169.402344 73.570312-44.695313 67.039063-170.265624-72.453125zm3.917969 102.253906 120.667969 51.347656c2.65625 1.128907 5.742187.207032 7.34375-2.195312l41.5-62.246094v164.472656l-169.511719-96.175781zm351.019531 55.203125-169.511719 96.175781v-164.476562l41.5 62.25c1.601563 2.402344 4.6875 3.324219 7.34375 2.195312l120.667969-51.351562zm-120.785156-16.847656-44.695313-67.039063 169.398438-73.574218 45.5625 68.160156zm0 0"/><path d="m273.503906 200.261719v18.925781c0 3.316406 2.6875 6 6 6 3.316406 0 6-2.683594 6-6v-18.925781c0-3.3125-2.683594-6-6-6-3.3125 0-6 2.6875-6 6zm0 0"/><path d="m242.5625 221.730469c-3.3125 0-6 2.6875-6 6v21.011719c0 3.3125 2.6875 6 6 6 3.316406 0 6-2.6875 6-6v-21.011719c0-3.3125-2.683594-6-6-6zm0 0"/><path d="m199.980469 207.472656v16.757813c0 3.316406 2.683593 6 6 6 3.3125 0 6-2.683594 6-6v-16.757813c0-3.316406-2.6875-6-6-6-3.316407 0-6 2.683594-6 6zm0 0"/></g><path d="m452.863281 46.089844h-96.210937c-3.195313-.007813-6.390625.277344-9.539063.851562-3.027343-10.457031-8.644531-19.984375-16.324219-27.699218-24.046874-23.808594-62.378906-25.066407-87.9375-2.890626-25.53125-22.382812-64.050781-21.121093-88.0625 2.890626-7.269531 7.285156-12.675781 16.222656-15.757812 26.042968-.15625.507813-.308594 1.019532-.453125 1.53125-2.367187-.429687-4.761719-.671875-7.167969-.726562h-98.546875c-3.3125 0-6 2.6875-6 6 .023438 20.121094 16.328125 36.425781 36.449219 36.449218h6.214844c2.949218 17.558594 18.140625 30.425782 35.945312 30.449219h2.113282c2.953124 17.558594 18.140624 30.425781 35.945312 30.449219h50.722656l44.308594 43.984375c2.339844 2.320313 6.117188 2.320313 8.457031 0l44.308594-43.988281h50.871094c17.804687-.023438 32.992187-12.886719 35.945312-30.445313h2.117188c17.804687-.023437 32.992187-12.890625 35.945312-30.449219h6.214844c20.117187-.027343 36.417969-16.332031 36.441406-36.449218 0-3.3125-2.683593-6-6-6zm-309.332031 91.34375c-11.183594-.011719-20.9375-7.605469-23.699219-18.445313h28.269531c3.3125 0 6-2.6875 6-6 0-3.316406-2.6875-6-6-6h-42.628906c-11.1875-.015625-20.941406-7.609375-23.703125-18.449219h24.171875c3.3125 0 6-2.6875 6-6 0-3.316406-2.6875-6-6-6h-42.628906c-11.1875-.015624-20.941406-7.609374-23.699219-18.449218h91.800781c1.65625.054687 3.308594.226562 4.941407.515625-1.820313 19.109375 4.9375 38.035156 18.449219 51.667969l27.359374 27.160156zm99.257812 43.273437-41.785156-41.476562c-.027344-.027344-.050781-.050781-.078125-.078125l-37.652343-37.378906c-11.71875-11.855469-17.132813-28.5625-14.601563-45.039063.089844-.578125.1875-1.160156.292969-1.738281.386718-2.070313.894531-4.117188 1.523437-6.128906 6.878907-21.851563 27.210938-36.660157 50.117188-36.5 14.085937 0 27.429687 5.554687 36.609375 15.246093.035156.039063.074218.074219.113281.113281l1.222656 1.222657c2.34375 2.34375 6.140625 2.34375 8.484375 0l1.222656-1.222657c20.519532-20.277343 53.53125-20.277343 74.050782 0 6.671875 6.714844 11.421875 15.09375 13.753906 24.269532.40625 1.582031.742188 3.199218.992188 4.792968.40625 2.53125.609374 5.09375.613281 7.660157-.007813 13.972656-5.523438 27.378906-15.347657 37.3125zm179.628907-104.167969h-42.628907c-3.316406 0-6 2.683594-6 6 0 3.3125 2.683594 6 6 6h24.167969c-2.757812 10.839844-12.511719 18.433594-23.699219 18.449219h-42.628906c-3.3125 0-6 2.683594-6 6 0 3.3125 2.6875 6 6 6h28.269532c-2.761719 10.839844-12.515626 18.433594-23.703126 18.445313h-38.78125l27.375-27.171875c12.078126-12.191407 18.859376-28.65625 18.875-45.816407 0-1.894531-.101562-3.808593-.285156-5.726562 2.398438-.433594 4.835938-.644531 7.273438-.628906h89.46875c-2.761719 10.839844-12.519532 18.433594-23.703125 18.449218zm0 0" fill="#1ae5be"/><path d="m25.152344 190.710938 94.613281-50.121094c6.597656 5.714844 15.035156 8.851562 23.765625 8.84375h11.484375l-92.242187 46.585937zm0 0" fill="#d4e1f4"/><path d="m94.683594 222.292969-28.382813-12.324219-45.558593 68.15625 28.511718 12.132812zm0 0" fill="#d4e1f4"/><path d="m89.527344 319.429688-22.890625-7.691407.554687 56.09375 24.089844 10.710938zm0 0" fill="#d4e1f4"/></svg>