<svg xmlns="http://www.w3.org/2000/svg" xmlns:xlink="http://www.w3.org/1999/xlink" width="48" height="48" viewBox="0 0 48 48">
  <defs>
    <style>
      .cls-1 {
        fill: #fff;
        stroke: #707070;
      }

      .cls-2 {
        fill: #414457;
      }

      .cls-3 {
        clip-path: url(#clip-path);
      }

      .cls-4 {
        clip-path: url(#clip-path-2);
      }

      .cls-5 {
        fill: #dad8ff;
      }
    </style>
    <clipPath id="clip-path">
      <rect id="Rectangle_3240" data-name="Rectangle 3240" class="cls-1" width="48" height="48" transform="translate(2493 2605)"/>
    </clipPath>
    <clipPath id="clip-path-2">
      <rect id="Rectangle_2726" data-name="Rectangle 2726" class="cls-2" width="50.64" height="50.64" transform="translate(0 0)"/>
    </clipPath>
  </defs>
  <g id="نحوه_محاسبه_مبلغ_مستمری_بازنشستگی" data-name="نحوه محاسبه مبلغ مستمری بازنشستگی" class="cls-3" transform="translate(-2493 -2605)">
    <g id="salary-gray" class="cls-4" transform="translate(2492.28 2603.8)">
      <g id="salary" transform="translate(3.777 4.823)">
        <circle id="Ellipse_831" data-name="Ellipse 831" class="cls-5" cx="6.634" cy="6.634" r="6.634" transform="translate(22.657 12.663)"/>
        <path id="Union_95" data-name="Union 95" class="cls-2" d="M2.146,10.05V8.016l-.022,0c-.091.008-.179.012-.263.012A1.694,1.694,0,0,1,.607,7.572a1.914,1.914,0,0,1-.47-1.408.3.3,0,0,1,.6.057,1.312,1.312,0,0,0,.3.931,1.251,1.251,0,0,0,1.035.27,1.916,1.916,0,0,0,1.394-.56.773.773,0,0,0,.134-.6.647.647,0,0,0-.061-.2A1.465,1.465,0,0,0,3.3,5.9c-.046-.029-.1-.059-.156-.1A4.039,4.039,0,0,0,1.933,5.43L1.9,5.424A5.94,5.94,0,0,1,.547,4.9,1.391,1.391,0,0,1,0,3.658a1.505,1.505,0,0,1,.476-.983,2.366,2.366,0,0,1,1.667-.56V.3a.3.3,0,1,1,.6,0V2.149a1.515,1.515,0,0,1,1.188.622,1.128,1.128,0,0,1,.011,1.04.3.3,0,0,1-.535-.27.555.555,0,0,0,.006-.467c-.13-.216-.525-.343-1.113-.357a1.921,1.921,0,0,0-1.411.392A.939.939,0,0,0,.6,3.68L.6,3.7s-.037.5.26.681A5.366,5.366,0,0,0,2.04,4.84,4.542,4.542,0,0,1,3.461,5.3l.149.09c.372.224.483.308.575.745a1.377,1.377,0,0,1-.237,1.086,2.013,2.013,0,0,1-1.216.708.292.292,0,0,1,.014.089V10.05a.3.3,0,1,1-.6,0Z" transform="translate(25.229 17.451)"/>
        <path id="Path_14020" data-name="Path 14020" class="cls-2" d="M91.727,419.75H90.388a.3.3,0,1,1,0-.6h1.339a.3.3,0,0,1,0,.6Z" transform="translate(-68.695 -388.359)"/>
        <path id="Path_14021" data-name="Path 14021" class="cls-2" d="M92.423,419.75H90.388a.3.3,0,1,1,0-.6h2.036a.3.3,0,1,1,0,.6Z" transform="translate(-59.588 -385.787)"/>
        <path id="Path_14022" data-name="Path 14022" class="cls-2" d="M98.638,419.75h-8.25a.3.3,0,1,1,0-.6h8.25a.3.3,0,0,1,0,.6Z" transform="translate(-65.802 -388.359)"/>
        <path id="Path_14023" data-name="Path 14023" class="cls-2" d="M98.048,419.75H90.388a.3.3,0,1,1,0-.6h7.661a.3.3,0,0,1,0,.6Z" transform="translate(-68.695 -385.787)"/>
        <path id="Path_14024" data-name="Path 14024" class="cls-2" d="M89.486,400.477c.108,0,.181,0,.21.006h17.431a3.708,3.708,0,0,1,2.681,1.344,7.043,7.043,0,0,1,.749,3.539.3.3,0,0,1-.3.288h-5.843v15.968a5.331,5.331,0,0,1-.837,3.6,6.594,6.594,0,0,1-3.561,1.712.3.3,0,0,1-.045,0H86.4a.3.3,0,0,1-.045,0,6.772,6.772,0,0,1-3.593-1.708,5.488,5.488,0,0,1-.946-3.616.3.3,0,0,1,.3-.273H86.1V405.366c-.018-.223-.189-2.573.663-3.759A3.4,3.4,0,0,1,89.486,400.477Zm17.621.606H89.663s-.067,0-.177,0a2.821,2.821,0,0,0-2.235.881C86.5,403,86.7,405.3,86.7,405.327s0,.018,0,.026v16.286a.3.3,0,0,1-.3.3h-4a4.633,4.633,0,0,0,.815,2.9,6.189,6.189,0,0,0,3.207,1.5H99.947a6.026,6.026,0,0,0,3.168-1.5,4.835,4.835,0,0,0,.7-3.164.3.3,0,0,1,0-.037V405.354a.3.3,0,0,1,.3-.3h5.845a5.939,5.939,0,0,0-.646-2.887A3.12,3.12,0,0,0,107.106,401.083Z" transform="translate(-67.886 -385.691)"/>
        <path id="Path_14025" data-name="Path 14025" class="cls-2" d="M101.859,429.939a3.724,3.724,0,0,1-3.061-1.2,4.364,4.364,0,0,1-.663-3.367H87.2a.3.3,0,0,1,0-.6H98.5a.3.3,0,0,1,.29.377,4.131,4.131,0,0,0,.473,3.214,3.4,3.4,0,0,0,2.971.963.3.3,0,0,1,.032.6Q102.06,429.939,101.859,429.939Z" transform="translate(-68.614 -389.162)"/>
        <path id="Path_14026" data-name="Path 14026" class="cls-2" d="M107.824,405.725a.3.3,0,0,1-.3-.293,5.311,5.311,0,0,1,1.268-4.075,3.083,3.083,0,0,1,2.155-.88.3.3,0,0,1-.032.6,2.523,2.523,0,0,0-1.715.72,4.773,4.773,0,0,0-1.077,3.622.3.3,0,0,1-.293.307Z" transform="translate(-71.56 -385.691)"/>
        <path id="Path_14027" data-name="Path 14027" class="cls-2" d="M68.457,417.137a3.194,3.194,0,0,1-1.961-.552,3.545,3.545,0,0,1-.929-2.251V386.089a3.564,3.564,0,0,1,.926-2.239,3.8,3.8,0,0,1,2.383-.617H91.432a4.09,4.09,0,0,1,2.485.649,2.932,2.932,0,0,1,.661,2.237v12.193h-.6l0-12.24a2.417,2.417,0,0,0-.466-1.745,3.47,3.47,0,0,0-2.062-.494H68.846a3.294,3.294,0,0,0-1.963.473,2.988,2.988,0,0,0-.717,1.808v28.2a2.972,2.972,0,0,0,.713,1.814,3.152,3.152,0,0,0,1.953.4l.033,0H84.081v.6h-15.2C68.829,417.123,68.672,417.137,68.457,417.137Z" transform="translate(-65.567 -383.227)"/>
        <path id="Rectangle_3291" data-name="Rectangle 3291" class="cls-2" d="M.6.6V4.543H20.829V.6H.6M0,0H21.429V5.143H0Z" transform="translate(3.8 4.091)"/>
        <path id="Rectangle_3292" data-name="Rectangle 3292" class="cls-2" d="M.6.6V4.543H4.543V.6H.6M0,0H5.143V5.143H0Z" transform="translate(3.8 11.806)"/>
        <path id="Rectangle_3293" data-name="Rectangle 3293" class="cls-2" d="M.6.6V4.543H4.543V.6H.6M0,0H5.143V5.143H0Z" transform="translate(3.8 18.663)"/>
        <path id="Rectangle_3294" data-name="Rectangle 3294" class="cls-2" d="M.6.6V4.543H4.543V.6H.6M0,0H5.143V5.143H0Z" transform="translate(3.8 25.52)"/>
        <path id="Rectangle_3295" data-name="Rectangle 3295" class="cls-2" d="M.6.6V4.543H4.543V.6H.6M0,0H5.143V5.143H0Z" transform="translate(12.371 11.806)"/>
        <path id="Rectangle_3296" data-name="Rectangle 3296" class="cls-2" d="M.6.6V4.543H4.543V.6H.6M0,0H5.143V5.143H0Z" transform="translate(12.371 18.663)"/>
        <path id="Rectangle_3297" data-name="Rectangle 3297" class="cls-2" d="M.6.6V4.543H4.543V.6H.6M0,0H5.143V5.143H0Z" transform="translate(12.371 25.52)"/>
        <path id="Path_14028" data-name="Path 14028" class="cls-2" d="M93.819,400.422a.3.3,0,0,1-.3-.3V397.5H89.333v2.622a.3.3,0,1,1-.6,0V397.2a.3.3,0,0,1,.3-.3h4.786a.3.3,0,0,1,.3.3v2.922A.3.3,0,0,1,93.819,400.422Z" transform="translate(-68.876 -385.038)"/>
      </g>
    </g>
  </g>
</svg>
