<svg xmlns="http://www.w3.org/2000/svg" xmlns:xlink="http://www.w3.org/1999/xlink" width="48" height="48" viewBox="0 0 48 48">
  <defs>
    <style>
      .cls-1 {
        fill: #fff;
        stroke: #707070;
      }

      .cls-2 {
        clip-path: url(#clip-path);
      }

      .cls-3 {
        fill: #dad8ff;
      }

      .cls-4 {
        fill: #414457;
      }
    </style>
    <clipPath id="clip-path">
      <rect id="Rectangle_3236" data-name="Rectangle 3236" class="cls-1" width="48" height="48" transform="translate(2494 1843)"/>
    </clipPath>
  </defs>
  <g id="بازرسی_ها" data-name="بازرسی ها" class="cls-2" transform="translate(-2494 -1843)">
    <g id="send-doc" transform="translate(2495.409 1844.307)">
      <circle id="Ellipse_827" data-name="Ellipse 827" class="cls-3" cx="6.634" cy="6.634" r="6.634" transform="translate(14.877 14.122)"/>
      <path id="Union_88" data-name="Union 88" class="cls-4" d="M20.394,45.708a.3.3,0,0,1-.3-.3V32.847A12.287,12.287,0,0,1,7.6,34.038L6.5,35.856a1.063,1.063,0,0,1,.181,1.317l-4.707,7.89A1.065,1.065,0,0,1,0,44.517a1.042,1.042,0,0,1,.151-.543l4.7-7.89a1.067,1.067,0,0,1,1.114-.5l1.1-1.813A12.271,12.271,0,1,1,20.095,13.041V3.621a.3.3,0,0,1,.3-.3h3.291V.3a.3.3,0,0,1,.3-.3H40.751a.3.3,0,0,1,.3.3V3.322h3.932a.3.3,0,0,1,.3.3l-.161,41.786a.3.3,0,0,1-.3.3Zm24.131-.6.158-41.185H40.922a.3.3,0,0,1-.341,0H24.154a.3.3,0,0,1-.341,0H20.695v9.586a12.277,12.277,0,0,1,0,18.87V45.106h9.05a.3.3,0,0,1-.061-.181V36.407a.3.3,0,0,1,.3-.3h5.089a.3.3,0,0,1,.3.3v8.519a.3.3,0,0,1-.061.181Zm-9.691,0a.3.3,0,0,1-.061-.181V36.708h-4.49v8.218a.3.3,0,0,1-.06.181ZM9.825,11.669A11.671,11.671,0,1,0,22.953,28.778,11.679,11.679,0,0,0,12.866,11.266,11.743,11.743,0,0,0,9.825,11.669ZM40.452,3.322V.6H24.284V3.322ZM32.877,30.408v-6h6v6Zm.6-.6h4.8v-4.8h-4.8Zm-7.458.6v-6h6v6Zm.6-.6h4.8v-4.8h-4.8ZM7.354,24.243a10.226,10.226,0,0,1-2.087-1.865.3.3,0,0,1,.043-.415,16.4,16.4,0,0,1,2.4-1.6,12.09,12.09,0,0,1,5.424-1.642,11.791,11.791,0,0,1,5.52,1.6,17.375,17.375,0,0,1,2.488,1.637.305.305,0,0,1,.1.155.25.25,0,0,1,.01.05.3.3,0,0,1-.07.219A11.006,11.006,0,0,1,19,24.246,10.673,10.673,0,0,1,13.137,26.1,10.247,10.247,0,0,1,7.354,24.243Zm5.786-4.919c-3.205.043-6.33,2.244-7.206,2.91a10.653,10.653,0,0,0,1.777,1.527,9.641,9.641,0,0,0,5.426,1.74,10.713,10.713,0,0,0,7.37-3.272c-.9-.68-4.1-2.905-7.273-2.905Zm-1.994,3.726a2.141,2.141,0,1,1,2.069,1.588A2.145,2.145,0,0,1,11.146,23.049ZM12.818,21a1.544,1.544,0,1,0,.4-.052A1.546,1.546,0,0,0,12.818,21Zm20.06,1.69v-6h6v6Zm.6-.6h4.8v-4.8h-4.8Zm-7.458.6v-6h6v6Zm.6-.6h4.8v-4.8h-4.8Zm6.258-7.113v-6h6v6Zm.6-.6h4.8v-4.8h-4.8Zm-7.458.6v-6h6v6Zm.6-.6h4.8v-4.8h-4.8Z" transform="translate(0)"/>
    </g>
  </g>
</svg>
