<svg xmlns="http://www.w3.org/2000/svg" xmlns:xlink="http://www.w3.org/1999/xlink" width="48" height="48" viewBox="0 0 48 48">
  <defs>
    <style>
      .cls-1 {
        fill: #fff;
        stroke: #707070;
      }

      .cls-2 {
        clip-path: url(#clip-path);
      }

      .cls-3 {
        clip-path: url(#clip-path-2);
      }

      .cls-4 {
        fill: #dad8ff;
      }

      .cls-5 {
        fill: #414457;
      }
    </style>
    <clipPath id="clip-path">
      <rect id="Rectangle_3164" data-name="Rectangle 3164" class="cls-1" width="48" height="48" transform="translate(2280 617)"/>
    </clipPath>
    <clipPath id="clip-path-2">
      <rect id="Rectangle_3164-2" data-name="Rectangle 3164" class="cls-1" width="48" height="48"/>
    </clipPath>
  </defs>
  <g id="قراردادها" class="cls-2" transform="translate(-2280 -617)">
    <g id="قراردادها-2" data-name="قراردادها" class="cls-3" transform="translate(2280 617)">
      <g id="agreement" transform="translate(6.857 2.571)">
        <g id="_0635c9ff" data-name="#0635c9ff" transform="translate(0 0)">
          <circle id="Ellipse_829" data-name="Ellipse 829" class="cls-4" cx="6.634" cy="6.634" r="6.634" transform="translate(2.571 1.715)"/>
          <path id="Path_13997" data-name="Path 13997" class="cls-5" d="M12.493,6.486H29.4a.35.35,0,0,1,.245.1l6.429,6.286a.35.35,0,0,1,.105.25v26.4c.018.227.166,2.38-.769,3.411a3.99,3.99,0,0,1-2.83.913c-.21,0-.359-.01-.407-.013h-20.4c-.026,0-.073,0-.138,0a3.18,3.18,0,0,1-2.35-1.067,5.053,5.053,0,0,1-.947-3.243V11.051a5.9,5.9,0,0,1,.742-2.865,3.615,3.615,0,0,1,3.408-1.7Zm16.768.7H12.494A2.931,2.931,0,0,0,9.666,8.572l-.005.008a5.258,5.258,0,0,0-.621,2.471V39.533q0,.01,0,.019A4.45,4.45,0,0,0,9.807,42.3a2.476,2.476,0,0,0,1.83.835c.058,0,.091,0,.091,0l.033,0H32.219s.143.012.363.012a3.45,3.45,0,0,0,2.312-.684,4.614,4.614,0,0,0,.589-2.894q0-.016,0-.031V13.27Z" transform="translate(-0.761 0.021)"/>
          <path id="Path_13998" data-name="Path 13998" class="cls-5" d="M33.955,14.137a3.339,3.339,0,0,1-1.939-.5,2.142,2.142,0,0,1-.56-2.291L32.149,7.3l.69.118-.7,4.1-.008.025c0,.009-.335,1.056.307,1.538a3.586,3.586,0,0,0,2.252.309H34.7l4.339-.589.094.694-4.335.589A5.8,5.8,0,0,1,33.955,14.137Z" transform="translate(-4.047 -0.054)"/>
          <path id="Path_13999" data-name="Path 13999" class="cls-5" d="M28.249,18.457H14.355a.35.35,0,0,1,0-.7H28.249a.35.35,0,0,1,0,.7Z" transform="translate(-1.571 -1.589)"/>
          <path id="Path_14000" data-name="Path 14000" class="cls-5" d="M28.249,18.457H14.355a.35.35,0,0,1,0-.7H28.249a.35.35,0,0,1,0,.7Z" transform="translate(-1.571 2.696)"/>
          <path id="Path_14001" data-name="Path 14001" class="cls-5" d="M31.3,18.457H14.355a.35.35,0,0,1,0-.7H31.3a.35.35,0,0,1,0,.7Z" transform="translate(-1.571 6.982)"/>
          <path id="Path_14002" data-name="Path 14002" class="cls-5" d="M31.3,18.457H14.355a.35.35,0,0,1,0-.7H31.3a.35.35,0,0,1,0,.7Z" transform="translate(-1.571 11.268)"/>
          <path id="Path_14003" data-name="Path 14003" class="cls-5" d="M17.808,44.855a3.175,3.175,0,0,1-.548-.05,2.311,2.311,0,0,1-1.721-1.186,3.189,3.189,0,0,1-1.416-.664.35.35,0,0,1,.463-.525h0a2.491,2.491,0,0,0,.667.381,3.932,3.932,0,0,1-.048-1.23,2.758,2.758,0,0,1,.848-1.771,1.631,1.631,0,0,1,1.325-.3,1.581,1.581,0,0,1,1.337,1.056,2.236,2.236,0,0,1-.163,1.765h0a3.446,3.446,0,0,1-2.13,1.311,1.719,1.719,0,0,0,.958.476,1.77,1.77,0,0,0,2.113-1.483.35.35,0,0,1,.584-.195,3.4,3.4,0,0,0,1.8.923,3.792,3.792,0,0,0,1.827-.735.35.35,0,0,1,.417.562,4.542,4.542,0,0,1-2.244.872,3.444,3.444,0,0,1-1.857-.769,2.958,2.958,0,0,1-.353.634A2.221,2.221,0,0,1,17.808,44.855Zm-1.791-1.889c.059,0,.12,0,.182-.005a2.691,2.691,0,0,0,1.808-1.071,1.687,1.687,0,0,0,.006-1.2.925.925,0,0,0-.75-.5.948.948,0,0,0-.777.161,2.1,2.1,0,0,0-.584,1.29c0,.008,0,.017,0,.024A3.03,3.03,0,0,0,16.017,42.966Z" transform="translate(-1.571 -4.692)"/>
          <path id="Path_14004" data-name="Path 14004" class="cls-5" d="M8.79,34.658h-.7V11.837A6.675,6.675,0,0,1,9.444,7.874a5.5,5.5,0,0,1,3.713-1.387h4.23v.7H13.149A4.885,4.885,0,0,0,9.954,8.353,6.053,6.053,0,0,0,8.79,11.84Z" transform="translate(-8.44 -6.836)"/>
          <path id="Path_14005" data-name="Path 14005" class="cls-5" d="M16.183,13.819h-.7V11.837a6.073,6.073,0,0,0-1.164-3.484,4.861,4.861,0,0,0-3.195-1.167H-2.435v-.7H11.116a5.5,5.5,0,0,1,3.713,1.387,6.673,6.673,0,0,1,1.354,3.959Z" transform="translate(11.114 -6.836)"/>
          <path id="Path_14006" data-name="Path 14006" class="cls-5" d="M13.131,18.722a5.47,5.47,0,0,1-3.687-1.388A6.672,6.672,0,0,1,8.09,13.376V6.836h.7v6.536a6.073,6.073,0,0,0,1.164,3.484,4.861,4.861,0,0,0,3.195,1.167h3.381v.7h-3.4Z" transform="translate(-8.44 20.592)"/>
        </g>
      </g>
    </g>
  </g>
</svg>
