<svg xmlns="http://www.w3.org/2000/svg" xmlns:xlink="http://www.w3.org/1999/xlink" width="48" height="48" viewBox="0 0 48 48">
  <defs>
    <style>
      .cls-1 {
        fill: #fff;
        stroke: #707070;
      }

      .cls-2 {
        fill: #fb9d9d;
        opacity: 0;
      }

      .cls-3 {
        clip-path: url(#clip-path);
      }

      .cls-4 {
        clip-path: url(#clip-path-2);
      }

      .cls-5 {
        fill: #dad8ff;
      }

      .cls-6 {
        fill: #414457;
      }
    </style>
    <clipPath id="clip-path">
      <rect id="Rectangle_3231" data-name="Rectangle 3231" class="cls-1" width="48" height="48" transform="translate(2493 1440)"/>
    </clipPath>
    <clipPath id="clip-path-2">
      <rect id="Rectangle_2938" data-name="Rectangle 2938" class="cls-2" width="50.04" height="50.04" transform="translate(0 0)"/>
    </clipPath>
  </defs>
  <g id="کمک_هزینه_اروتز_و_پروتز" data-name="کمک هزینه اروتز و پروتز" class="cls-3" transform="translate(-2493 -1440)">
    <g id="Prosthesis" class="cls-4" transform="translate(2491.68 1438.68)">
      <circle id="Ellipse_803" data-name="Ellipse 803" class="cls-5" cx="6.634" cy="6.634" r="6.634" transform="translate(31.32 3.891)"/>
      <path id="Path_13888" data-name="Path 13888" class="cls-6" d="M22.058,51.264a2.457,2.457,0,0,1-1.209-.328,6.794,6.794,0,0,1-2.133-2.174A7.34,7.34,0,0,0,17.17,47.02a6.219,6.219,0,0,0-1.323-.679c-1.084-.45-2.206-.915-2.033-2.814a3.392,3.392,0,0,1,1.862-2.638,6.139,6.139,0,0,1,1.553-.62,6.7,6.7,0,0,0,1.858-2.839,13.909,13.909,0,0,0,.714-2.485,9.033,9.033,0,0,1,.91-2.7,5.21,5.21,0,0,1,2.2-2.267L20.7,25.064a.35.35,0,0,1,.638-.287L23.7,30.022a.35.35,0,0,1-.22.479,4.207,4.207,0,0,0-2.147,2.08,8.345,8.345,0,0,0-.842,2.509,14.692,14.692,0,0,1-.748,2.6,6.833,6.833,0,0,1-2.17,3.2.35.35,0,0,1-.121.05c-.027.006-2.747.587-2.935,2.653-.126,1.386.562,1.671,1.6,2.1a6.861,6.861,0,0,1,1.468.761,7.978,7.978,0,0,1,1.7,1.9,6.17,6.17,0,0,0,1.905,1.971,1.712,1.712,0,0,0,1.725.016,2.628,2.628,0,0,0,.512-.36c-.711-.77-2.814-3.121-3.275-4.489a8.01,8.01,0,0,1-.337-3.265.35.35,0,0,1,.077-.177l7.179-8.679a.35.35,0,1,1,.539.446l-7.111,8.6a7.436,7.436,0,0,0,.316,2.854c.5,1.472,3.322,4.448,3.35,4.477a.35.35,0,0,1,.019.462A2.9,2.9,0,0,1,22.058,51.264Z" transform="translate(-2.021 -3.56)"/>
      <path id="Path_13889" data-name="Path 13889" class="cls-6" d="M27.29,24.571h7.929a.35.35,0,0,1,.313.193c.071.141,1.719,3.476.98,5.521A3.92,3.92,0,0,1,33.8,32.793a6.033,6.033,0,0,1-1.3.138,3.739,3.739,0,0,1-3.246-1.5c-1.307-1.96-2.261-6.254-2.3-6.436a.35.35,0,0,1,.342-.425Zm7.707.7H27.732a22.494,22.494,0,0,0,2.1,5.772,3.076,3.076,0,0,0,2.664,1.187,5.38,5.38,0,0,0,1.14-.119l.014,0a3.215,3.215,0,0,0,2.2-2.061C36.4,28.537,35.325,25.989,35,25.271Z" transform="translate(-3.899 -3.56)"/>
      <path id="Path_13890" data-name="Path 13890" class="cls-6" d="M35.53,39.259H31.357V33.752h.7v4.807H34.83V33.124h.7Z" transform="translate(-4.53 -4.732)"/>
      <path id="Path_13891" data-name="Path 13891" class="cls-6" d="M39.711,53.37A8,8,0,0,1,37.4,52.9a3.957,3.957,0,0,0-2.273-.3l-.03.01c-3.545.976-4.733.4-4.949.268a2.135,2.135,0,0,1-.955-2.273,4.715,4.715,0,0,1,.52-1.442,6.192,6.192,0,0,0,.283-.631,3.34,3.34,0,0,0,.209-1.021,2.66,2.66,0,0,1,.306-1.158A5.689,5.689,0,0,1,31.789,44.7V39.79h.7v5.239l-.13.105a5.137,5.137,0,0,0-1.222,1.522,2,2,0,0,0-.239.9,4.039,4.039,0,0,1-.246,1.205,6.648,6.648,0,0,1-.315.709,4.151,4.151,0,0,0-.454,1.219,1.457,1.457,0,0,0,.594,1.573l.04.019.007.008c.1.052,1.144.535,4.368-.351a4.4,4.4,0,0,1,2.71.291,6.376,6.376,0,0,0,2.4.426,3.174,3.174,0,0,0,2.428-1.251.525.525,0,0,0-.04-.562c-.2-.295-.752-.328-1.451-.371a6.509,6.509,0,0,1-3.828-1.189A12.13,12.13,0,0,1,33.645,45l-.03-.068V39.79h.7v4.993a11.67,11.67,0,0,0,3.218,3.942,5.833,5.833,0,0,0,3.448,1.049c.855.052,1.594.1,1.987.677a1.228,1.228,0,0,1,.095,1.251,3.754,3.754,0,0,1-2.992,1.651A3.588,3.588,0,0,1,39.711,53.37Z" transform="translate(-4.216 -5.684)"/>
      <path id="Path_13892" data-name="Path 13892" class="cls-6" d="M35.361,48.087H31.29v-.7h4.071Z" transform="translate(-4.711 -6.82)"/>
      <path id="Ellipse_814" data-name="Ellipse 814" class="cls-6" d="M6.857.7a6.157,6.157,0,1,0,6.157,6.157A6.164,6.164,0,0,0,6.857.7m0-.7A6.857,6.857,0,1,1,0,6.857,6.857,6.857,0,0,1,6.857,0Z" transform="translate(33.891 7.32)"/>
      <path id="Path_13893" data-name="Path 13893" class="cls-6" d="M46.971,18.61a1.738,1.738,0,0,1-1.287-.474A1.961,1.961,0,0,1,45.2,16.69a.35.35,0,1,1,.7.066,1.26,1.26,0,0,0,.287.89,1.209,1.209,0,0,0,.995.255,1.866,1.866,0,0,0,1.358-.54.717.717,0,0,0,.125-.565.6.6,0,0,0-.05-.175,1.517,1.517,0,0,0-.225-.149l-.156-.095a3.975,3.975,0,0,0-1.193-.368L47,16a6.07,6.07,0,0,1-1.37-.536,1.435,1.435,0,0,1-.568-1.282,1.558,1.558,0,0,1,.491-1.017,2.529,2.529,0,0,1,1.877-.573,1.852,1.852,0,0,1,1.655.679,1.184,1.184,0,0,1,.013,1.089.35.35,0,0,1-.625-.316.5.5,0,0,0,.008-.419c-.12-.2-.51-.318-1.07-.333a1.9,1.9,0,0,0-1.375.38.877.877,0,0,0-.274.537v.024s-.029.471.237.635a5.336,5.336,0,0,0,1.161.45,4.545,4.545,0,0,1,1.437.461l.15.091a.956.956,0,0,1,.6.776,1.409,1.409,0,0,1-.247,1.127,2.468,2.468,0,0,1-1.86.821Q47.1,18.61,46.971,18.61Z" transform="translate(-6.487 -1.849)"/>
      <path id="Path_13894" data-name="Path 13894" class="cls-6" d="M47.915,12.863a.35.35,0,0,1-.35-.35V10.478a.35.35,0,1,1,.7,0v2.036A.35.35,0,0,1,47.915,12.863Z" transform="translate(-6.845 -1.497)"/>
      <path id="Path_13895" data-name="Path 13895" class="cls-6" d="M47.915,12.863a.35.35,0,0,1-.35-.35V10.478a.35.35,0,1,1,.7,0v2.036A.35.35,0,0,1,47.915,12.863Z" transform="translate(-6.845 6.217)"/>
      <path id="Ellipse_815" data-name="Ellipse 815" class="cls-6" d="M1.714.7A1.014,1.014,0,1,0,2.729,1.714,1.015,1.015,0,0,0,1.714.7m0-.7A1.714,1.714,0,1,1,0,1.714,1.714,1.714,0,0,1,1.714,0Z" transform="translate(3.034 11.606)"/>
      <path id="Path_13896" data-name="Path 13896" class="cls-6" d="M4.83,12.757A6.764,6.764,0,0,1,5.935,7.172,5.175,5.175,0,0,1,9.358,5.249a6.4,6.4,0,0,1,1.927,0l-.128.688A5.148,5.148,0,0,0,6.489,7.6,6.133,6.133,0,0,0,5.5,12.57Z" transform="translate(-0.713 -0.79)"/>
      <path id="Path_13897" data-name="Path 13897" class="cls-6" d="M8.126,22.437c-.131,0-.271-.006-.421-.017a2.085,2.085,0,0,1-1.5-.74A3.9,3.9,0,0,1,5.549,19.1a.35.35,0,1,1,.7.071,3.24,3.24,0,0,0,.5,2.059,1.392,1.392,0,0,0,1.017.49c1.344.1,1.524-.227,2.19-1.45.236-.434.53-.973.946-1.607a13.845,13.845,0,0,1,1.984-2.418,7.632,7.632,0,0,0,1.484-1.9,4.02,4.02,0,0,0,.589-2.861.318.318,0,0,1-.012-.052,5.017,5.017,0,0,0-.677-1.693,4.05,4.05,0,0,0-3.114-1.922A3.42,3.42,0,0,0,7.855,9.308a5.986,5.986,0,0,0-.909,1.841.35.35,0,0,1-.678-.173A6.6,6.6,0,0,1,7.28,8.909a4.132,4.132,0,0,1,3.947-1.784,4.778,4.778,0,0,1,3.643,2.268,5.694,5.694,0,0,1,.758,1.912,4.678,4.678,0,0,1-.651,3.38,8.314,8.314,0,0,1-1.6,2.054,13.238,13.238,0,0,0-1.9,2.309c-.4.61-.687,1.136-.917,1.559C9.936,21.759,9.566,22.437,8.126,22.437Z" transform="translate(-0.841 -1.063)"/>
      <path id="Path_13898" data-name="Path 13898" class="cls-6" d="M14.817,18.493a.35.35,0,0,1-.228-.085L13.062,17.1a.35.35,0,1,1,.456-.531l1.312,1.127a9.662,9.662,0,0,0,1.761-1.871A6.563,6.563,0,0,0,17.823,10.5a6.127,6.127,0,0,0-3.074-4.192,7.912,7.912,0,0,0-2.122-.832l-.5,1.726a.35.35,0,1,1-.673-.194l.587-2.034a.35.35,0,0,1,.385-.25,8.164,8.164,0,0,1,2.646.963,6.906,6.906,0,0,1,3.434,4.668,7.335,7.335,0,0,1-1.36,5.891,9.853,9.853,0,0,1-2.13,2.183A.349.349,0,0,1,14.817,18.493Z" transform="translate(-1.685 -0.724)"/>
      <path id="Path_13899" data-name="Path 13899" class="cls-6" d="M8.026,19.79a2.9,2.9,0,0,1-.338-.022,1.093,1.093,0,0,1-.845-.523c-.5-.834.065-2.352.131-2.523a.35.35,0,0,1,.652.253h0a2.888,2.888,0,0,0-.184,1.909.391.391,0,0,0,.327.188c.561.066.771-.045.978-.516l.009-.018a2.256,2.256,0,0,0,.053-.251,2.149,2.149,0,0,1,.532-1.241,2.177,2.177,0,0,1,.926-.448,5.386,5.386,0,0,0,.72-.256l.007,0a2.168,2.168,0,0,0,.861-.97c.881-2.018-.186-2.837-.232-2.871a.309.309,0,0,1-.043-.036,1.744,1.744,0,0,0-2.289-.245,2.282,2.282,0,0,0-.54,2.52.35.35,0,0,1-.613.329,4.621,4.621,0,0,1-.758-3.194A3.019,3.019,0,0,1,8.888,9.906a3.3,3.3,0,0,1,2.561-.458,4.306,4.306,0,0,1,2.366,1.839.35.35,0,0,1-.6.357A4.06,4.06,0,0,0,12.1,10.5a2.5,2.5,0,0,0-2.855.005,2.348,2.348,0,0,0-1.184,1.514,2.557,2.557,0,0,0-.033.84,2.552,2.552,0,0,1,.815-1.183,2.118,2.118,0,0,1,2.244-.343,3.239,3.239,0,0,1,.965.614c.21.163,1.494,1.29.441,3.7a2.818,2.818,0,0,1-1.224,1.332,6.064,6.064,0,0,1-.806.288,1.569,1.569,0,0,0-.652.292,1.614,1.614,0,0,0-.316.849,1.723,1.723,0,0,1-.112.435A1.376,1.376,0,0,1,8.026,19.79Z" transform="translate(-0.998 -1.387)"/>
      <path id="Ellipse_816" data-name="Ellipse 816" class="cls-6" d="M21.442,0h.553l.069,0h.352a21.461,21.461,0,0,1,3.285.4.3.3,0,0,1-.12.588A20.99,20.99,0,0,0,21.442.6a.3.3,0,1,1,0-.6Zm8.229,1.662a.3.3,0,0,1,.117.024A21.384,21.384,0,0,1,33.541,3.74a.3.3,0,1,1-.339.495,20.83,20.83,0,0,0-3.648-2,.3.3,0,0,1,.117-.576ZM41.893,15.988a.3.3,0,0,1,.28.191c.244.627-.3-1.252-.11-.6h0l0,.016h0l0,.008h0l0,.008h0l0,.016h0l0,.008h0l0,.007h0l0,.008h0l0,.007h0l0,.007h0l0,.007h0l0,.008h0l0,.008h0l0,.008h0l0,.007h0l0,.007h0l0,.008h0l0,.008h0l0,.007h0l.009.032h0q.029.1.056.21h0l0,.016h0l0,.015h0l0,.007h0l0,.007v0l0,.007h0l0,.007v0l0,.006v.01l0,.006v0l0,.006v.37l0,.006v.018l0,.006h0l0,.007v0l0,.007h0l0,.007h0c.022.092.042.182.063.275h0l0,.016h0l0,.016h0l0,.008h0l0,.008h0l0,.008h0l0,.008h0l.005.024h0l0,.008h0l0,.008h0l0,.008h0l0,.008h0l0,.008h0l0,.016h0l0,.008h0l0,.008h0c.059.276.112.556.16.836a.3.3,0,0,1-.592.1,9.71,9.71,0,0,1-.292-1.249l-.064-.237a.3.3,0,0,1,.279-.409Zm.668,5.754h.009a.3.3,0,0,1,.291.308q0,.1-.006.2h0v.008h0v.008h0V22.5h0v.016h0v.007h0v.007h0v.008h0v.008h0v.008h0a21.434,21.434,0,0,1-.443,3.361h0l0,.007h0l0,.007v.16l0,.007h0l0,.008h0q-.02.088-.04.177a.3.3,0,1,1-.584-.136,20.913,20.913,0,0,0,.531-4.125A.3.3,0,0,1,42.561,21.742Zm-1.9,8.176a.3.3,0,0,1,.273.424,21.367,21.367,0,0,1-1.44,2.636h0l-.083.128h0l0,.005v0l0,.005v0l0,.005v0l0,0v0l0,0,0,0,0,0,0,0,0,0,0,0,0,0,0,0,0,0,0,0,0,0,0,0,0,0,0,0,0,0,0,0v0l0,.005v0l0,0v0l0,0v0l0,.006h0l0,.006h0l0,.007h0q-.269.407-.557.8a.3.3,0,1,1-.485-.353,20.855,20.855,0,0,0,2.1-3.589A.3.3,0,0,1,40.661,29.918ZM35.717,36.7a.3.3,0,0,1,.2.521,21.524,21.524,0,0,1-2.52,1.986h0l-.006,0h0l-.006,0h0l-.006,0h0l-.006,0h0l-.006,0h0l-.006,0h0l-.006,0h0l-.006,0h0l-.006,0h0l-.006,0h0l-.007,0h0l-.007,0h0l-.042.028h0l-.006,0h0l-.006,0h0l0,0,0,0,0,0,0,0,0,0,0,0,0,0-.007,0,0,0,0,0-.007,0,0,0,0,0-.007,0-.007,0-.007,0-.007,0,0,0-.007,0,0,0,0,0,0,0,0,0,0,0,0,0h0l-.005,0h0l-.093.061h0l-.027.017h0q-.26.167-.524.327a.3.3,0,0,1-.309-.514,20.948,20.948,0,0,0,3.33-2.493A.3.3,0,0,1,35.717,36.7ZM20.233,42.223a.3.3,0,0,1-.033.6q-.862-.049-1.7-.166h-.034l-.017,0h-.116l-.017,0h-.15l-.017,0h-.016l-.016,0h0l-.066-.01h0c-.412-.066-1.03-.466-.126-.59C18.1,41.969,19.658,42.19,20.233,42.223ZM3.028,31.5a.3.3,0,0,1,.262.153,20.928,20.928,0,0,0,2.4,3.4.3.3,0,0,1-.453.393l-.1-.119h0l0-.005h0l0-.005h0l0,0,0,0,0,0,0,0,0,0v0l0,0,0,0,0,0,0,0,0,0,0,0,0,0,0,0,0,0,0,0,0,0,0,0,0,0,0,0,0,0,0,0,0,0,0,0,0,0,0,0,0,0,0,0h0l0-.005h0l-.064-.077h0a21.509,21.509,0,0,1-1.323-1.765h0l-.07-.1h0l0-.006v0l0,0v0l0-.005v0l0,0,0,0,0,0,0,0,0,0,0,0,0,0,0,0,0,0,0,0,0,0,0,0,0,0,0,0,0,0,0,0,0,0,0,0,0,0,0,0,0,0,0,0,0,0,0,0,0,0,0,0v0l0,0h0l0-.005v0l-.043-.066h0l-.008-.013h0l0-.006h0l0-.006h0l-.008-.013h0l0-.007h0l0-.007h0q-.34-.527-.649-1.076a.3.3,0,0,1,.262-.446ZM.446,23.511a.3.3,0,0,1,.3.267,20.769,20.769,0,0,0,.875,4.065.3.3,0,0,1-.571.185q-.08-.248-.154-.5h0l0-.008h0l0-.008h0l0-.008h0l0-.008h0l0-.008h0l0-.008h0l0-.007h0l0-.007h0l0-.007h0l0-.007h0l0-.007h0l0-.007h0l0-.007h0l0-.007h0l0-.006v0l0-.006v0l0-.006v0l0-.006v0l0-.006v0l0-.006v0l0-.006v0l0-.006v0l0-.006v0l0-.006v0l0-.005v0l0-.006v0l0-.006v0l0-.005v0l0-.005v0l0-.006V27.15l0-.006v0l0-.006v0l0-.006v0l0-.006v0l0-.006h0l0-.007h0l0-.007h0l0-.007h0l0-.007h0l0-.007h0l0-.007h0l0-.008h0l0-.007h0l0-.008h0l0-.007h0a21.336,21.336,0,0,1-.606-3.189.3.3,0,0,1,.265-.33Zm.726-8.366a.3.3,0,0,1,.288.385,20.8,20.8,0,0,0-.769,4.086.3.3,0,0,1-.6-.051,21.4,21.4,0,0,1,.392-2.63h0L.492,16.9h0l0-.008h0l0-.008h0l0-.016h0l.007-.032h0l0-.008h0l0-.008h0l0-.016h0l.007-.032h0l0-.008h0l.005-.024h0l.022-.1h0l.015-.064h0l.015-.065h0q.137-.583.3-1.153A.3.3,0,0,1,1.172,15.145ZM19.67.073a.3.3,0,0,1,.024.6,20.806,20.806,0,0,0-4.089.756.3.3,0,0,1-.17-.576A21.309,21.309,0,0,1,18.428.21l.016,0h.391q.4-.049.81-.083Z" transform="translate(3.021 3.034)"/>
      <path id="Path_13900" data-name="Path 13900" class="cls-6" d="M34.581,46.015h-2v-.7h2Z" transform="translate(-4.654 -6.524)"/>
    </g>
  </g>
</svg>
