<svg xmlns="http://www.w3.org/2000/svg" width="55.325" height="55.325" viewBox="0 0 55.325 55.325">
    <defs>
        <clipPath id="9s5gsbpjda">
            <path data-name="Rectangle 3355" style="fill:#414457" d="M0 0h55.325v55.325H0z"/>
        </clipPath>
    </defs>
    <g style="clip-path:url(#9s5gsbpjda)">
        <circle data-name="Ellipse 843" cx="6.554" cy="6.554" r="6.554" transform="translate(33.319 12.461)" style="fill:#dad8ff"/>
        <path data-name="Union 129" d="M18.428 42H4.538a1.373 1.373 0 0 1-.138 0 4.572 4.572 0 0 1-3.2-1.312 5.072 5.072 0 0 1-1.186-3.712v-1.928A.35.35 0 0 1 0 34.955a.358.358 0 0 1 .013-.094V5.025a5.075 5.075 0 0 1 1.18-3.715A4.6 4.6 0 0 1 4.538 0h13.89a4.6 4.6 0 0 1 3.345 1.31 5.077 5.077 0 0 1 1.179 3.716v5.657H32.1a2.292 2.292 0 0 1 1.734.6 2.5 2.5 0 0 1 .6 1.7v15.602a2.242 2.242 0 0 1-.724 1.723 2.459 2.459 0 0 1-1.563.609h-9.2v3.944a.363.363 0 0 1 .013.094.35.35 0 0 1-.013.093v1.928a5.075 5.075 0 0 1-1.179 3.716 4.577 4.577 0 0 1-3.2 1.308 1.367 1.367 0 0 1-.14 0zM.7 36.991v.035a4.462 4.462 0 0 0 .982 3.182 3.911 3.911 0 0 0 2.816 1.1h13.963a3.947 3.947 0 0 0 2.818-1.1 4.462 4.462 0 0 0 .982-3.182V35.3H.7zm21.561-2.381v-3.693h-4.588v1.629a.346.346 0 0 1-.348.346h-2.253a.344.344 0 0 1-.345-.346V8.928a.344.344 0 0 1 .345-.345h2.253a.346.346 0 0 1 .348.345v1.755h4.588V5.414H.7v29.2zm-6.844-2.41h1.563v-1.283h-1.563zm16.7-1.978h.023a1.719 1.719 0 0 0 1.125-.439 1.563 1.563 0 0 0 .483-1.167V15.941a.358.358 0 0 1-.148.032h-1.733a.346.346 0 0 1 0-.692H33.6a.344.344 0 0 1 .148.033v-2.342a.044.044 0 0 1 0-.018 1.832 1.832 0 0 0-.417-1.194 1.6 1.6 0 0 0-1.179-.384H15.417V15h6.015a.345.345 0 1 1 0 .69h-6.015v14.534zM16.98 10.683v-1.41h-1.563v1.409zm5.292-5.958a4.273 4.273 0 0 0-.993-2.932 3.939 3.939 0 0 0-2.818-1.1H4.5a3.965 3.965 0 0 0-2.816 1.1 4.274 4.274 0 0 0-.99 2.932zM8.543 38.758a.345.345 0 1 1 0-.69h5.314a.345.345 0 1 1 0 .69zm17.9-1.529-1.729-1.687a.337.337 0 0 1-.1-.243v-.041a.344.344 0 0 1 .211-.318l1.617-1.646a.345.345 0 0 1 .493.483l-1.116 1.136h10.002a.346.346 0 0 1 0 .692H25.768l1.156 1.128a.35.35 0 0 1 .005.491.346.346 0 0 1-.248.105.341.341 0 0 1-.241-.1zm.179-9.332a3.459 3.459 0 1 1 0-6.631 3.459 3.459 0 1 1 0 6.631zm-3.757-3.317a2.769 2.769 0 0 0 2.664 2.765 3.458 3.458 0 0 1 0-5.527 2.768 2.768 0 0 0-2.664 2.762zm6.225 0a3.456 3.456 0 0 1-1.379 2.765 2.766 2.766 0 0 0 0-5.527 3.454 3.454 0 0 1 1.379 2.762zm-4.248 0a2.772 2.772 0 0 0 1.778 2.585 2.766 2.766 0 0 0 0-5.168 2.77 2.77 0 0 0-1.778 2.583zm12.526 3.294-1.729-1.688a.343.343 0 0 1-.1-.242V25.902a.347.347 0 0 1 .207-.316l1.619-1.647a.35.35 0 0 1 .491 0 .344.344 0 0 1 0 .488l-1.116 1.13h5.193a.347.347 0 0 1 0 .693H36.7l1.156 1.128a.347.347 0 0 1 .008.491.353.353 0 0 1-.248.1.349.349 0 0 1-.248-.095zm-12.416-11.9a.346.346 0 0 1 0-.692h5.557a.346.346 0 1 1 0 .692zm-1.974 0a.346.346 0 1 1 0-.692h.678a.346.346 0 0 1 0 .692zM27.489 9.1 25.76 7.414a.357.357 0 0 1-.1-.243V7.13a.346.346 0 0 1 .21-.316l1.619-1.648a.351.351 0 0 1 .491 0 .344.344 0 0 1 0 .488l-1.119 1.131H33.2a.346.346 0 0 1 0 .692h-6.384l1.156 1.131a.344.344 0 0 1 .008.488.351.351 0 0 1-.248.105.356.356 0 0 1-.243-.101z" transform="translate(6.912 6.539)" style="fill:#414457"/>
    </g>
</svg>
