<svg xmlns="http://www.w3.org/2000/svg" width="48" height="48" viewBox="0 0 48 48">
    <defs>
        <clipPath id="npo12kxlfa">
            <path data-name="Path 13978" d="M0 0h48v48H0z" transform="translate(2478 2986)" style="fill:#414457"/>
        </clipPath>
    </defs>
    <g data-name="نسخ الکترونیک من" transform="translate(-2478 -2986)" style="clip-path:url(#npo12kxlfa)">
        <circle data-name="Ellipse 827" cx="6.634" cy="6.634" r="6.634" transform="translate(2482.286 2986.613)" style="fill:#dad8ff"/>
        <path data-name="Union 110" d="M37.934 41.319H6.042c-.1.008-.715.052-1.512.052a7.494 7.494 0 0 1-3.51-.571c-.627-.374-.969-1.34-1.015-2.865a14.3 14.3 0 0 1 .1-2.068V25.618H.2l3.12-7.633a14.781 14.781 0 0 1 2.5-4.537 3.435 3.435 0 0 1 2.838-1V.3a.3.3 0 0 1 .3-.3h19.727a.287.287 0 0 1 .059 0 .291.291 0 0 1 .056.006h.139a.3.3 0 0 1 .218.094L35.1 6.312a.294.294 0 0 1 .083.208v5.96a3.435 3.435 0 0 1 3.063.968 14.781 14.781 0 0 1 2.5 4.537l3.124 7.633h.008v.02l.08.2-.08.034v10a14.606 14.606 0 0 1 .1 1.931 4.443 4.443 0 0 1-.8 2.95 4.087 4.087 0 0 1-2.9.756 16.442 16.442 0 0 1-2.344-.19zm.048-.6.026.006a16.535 16.535 0 0 0 2.278.178 3.753 3.753 0 0 0 2.468-.572c.8-.833.655-3.462.529-4.4V26.219h-10.86a5.409 5.409 0 0 0-2.517.555 2.676 2.676 0 0 0-1.025 1.646 2.725 2.725 0 0 1-1.046 2.066 4.249 4.249 0 0 1-2.149.459c-.316 0-.549-.017-.609-.022h-6.093a5.831 5.831 0 0 1-.566.026 4.048 4.048 0 0 1-2.049-.46A2.762 2.762 0 0 1 15.3 28.4v-.023a1.964 1.964 0 0 0-.787-1.6 7.039 7.039 0 0 0-3-.555H.7V35.931c-.187 1.428-.187 3.872.626 4.355a7.284 7.284 0 0 0 3.2.487c.825 0 1.471-.048 1.477-.048h.023zM25.12 30.321a5.01 5.01 0 0 0 .566.025 3.611 3.611 0 0 0 1.824-.367 2.193 2.193 0 0 0 .773-1.6v-.038a3.275 3.275 0 0 1 1.3-2.071 6.189 6.189 0 0 1 2.841-.649h2.164V6.823h-5.844a.3.3 0 0 1-.3-.3V.6H9.259v25.018h2.255a7.7 7.7 0 0 1 3.318.646 2.526 2.526 0 0 1 1.069 2.12 2.166 2.166 0 0 0 .79 1.595 3.4 3.4 0 0 0 1.727.367c.3 0 .517-.022.517-.022h.035zm18.1-4.7-3.037-7.426a14.516 14.516 0 0 0-2.358-4.315 2.829 2.829 0 0 0-2.632-.784l-.009-.029v12.551zm-34.564 0V13.05a2.831 2.831 0 0 0-2.416.827 14.516 14.516 0 0 0-2.358 4.315v.011L.847 25.618zm20.39-19.4h5.134L29.048.85zm-13.414 32.1-.037-.012a2.354 2.354 0 0 1-1.661-2.332 2.328 2.328 0 0 1 1.666-2.321l.037-.008h12.5a2.46 2.46 0 0 1 .977.377 2.425 2.425 0 0 1 0 3.9 2.527 2.527 0 0 1-.977.388h-.018zm-1.1-2.344a1.768 1.768 0 0 0 1.181 1.743H28.08a1.687 1.687 0 0 0 1.42-1.744 1.615 1.615 0 0 0-.713-1.445 1.9 1.9 0 0 0-.707-.282H15.717a1.72 1.72 0 0 0-1.18 1.727zm-.217-18.457a7.715 7.715 0 1 1 7.714 7.714 7.714 7.714 0 0 1-7.714-7.714zm.6 0a7.115 7.115 0 1 0 7.113-7.114 7.122 7.122 0 0 0-7.112 7.114zm5.91 3.514a.3.3 0 0 1-.3-.3v-1.979h-2a.3.3 0 0 1-.3-.3v-1.872a.3.3 0 0 1 .3-.3h2v-2.194a.3.3 0 0 1 .3-.3h2.169a.3.3 0 0 1 .3.3v2.192h1.9a.3.3 0 0 1 .3.3v1.873a.3.3 0 0 1-.3.3h-1.9v1.979a.3.3 0 0 1-.3.3zm-2-2.876h2a.3.3 0 0 1 .3.3v1.977H22.7v-1.979a.3.3 0 0 1 .3-.3h1.9v-1.274H23a.3.3 0 0 1-.3-.3v-2.191h-1.576v2.192a.3.3 0 0 1-.3.3h-2z" transform="translate(2479.97 2989.052)" style="fill:#414457"/>
    </g>
</svg>
