<svg xmlns="http://www.w3.org/2000/svg" width="48" height="48" viewBox="0 0 48 48">
    <defs>
        <clipPath id="nvwfy1az4a">
            <path data-name="Rectangle 3228" transform="translate(2060 1037)" style="fill:#fff;stroke:#707070" d="M0 0h48v48H0z"/>
        </clipPath>
    </defs>
    <g data-name="کلیه سوابق" transform="translate(-2060 -1037)" style="clip-path:url(#nvwfy1az4a)">
        <circle data-name="Ellipse 824" cx="6.634" cy="6.634" r="6.634" transform="translate(2086.572 1055.857)" style="fill:#dad8ff"/>
        <path data-name="Path 14052" d="M-3115.635-7924.213h-31.001a3.734 3.734 0 0 1-1.755-.8 4.379 4.379 0 0 1-1.028-1.728l-.015-.05v-13.42l.037-.074a58.475 58.475 0 0 1 3.314-5.832c1.373-1.918 2.164-1.717 2.373-1.608l-.32.623a.2.2 0 0 0 .044.018h-.007c-.064 0-.571.047-1.521 1.375a57.379 57.379 0 0 0-3.22 5.665v13.147a3.623 3.623 0 0 0 .815 1.369 3.019 3.019 0 0 0 1.365.622h30.877a4 4 0 0 0 1.729-.634 2.483 2.483 0 0 0 .729-1.333v-13.153l-3.589-5.7.592-.373 3.7 5.871v13.443a3.2 3.2 0 0 1-.981 1.786 4.711 4.711 0 0 1-2.11.791z" transform="translate(5215.012 9002.92)" style="fill:#414457"/>
        <path data-name="Path 14053" d="M-3127.437-7934.639h-7.2a3.792 3.792 0 0 1-1.555-.4 2.858 2.858 0 0 1-1.066-1.156l-.041-.087.009-.1a2.659 2.659 0 0 0-.345-1.666 2.325 2.325 0 0 0-1.521-.521h-9.928v-.7h9.929a3.046 3.046 0 0 1 2.051.765 3.169 3.169 0 0 1 .52 2.082 2.1 2.1 0 0 0 .734.77 3.06 3.06 0 0 0 1.227.313h7.178a3.5 3.5 0 0 0 1.338-.314 2.485 2.485 0 0 0 .805-.776 3.1 3.1 0 0 1 .47-2.061 2.391 2.391 0 0 1 1.9-.777h10.133v.7h-10.166a1.729 1.729 0 0 0-1.317.51 2.585 2.585 0 0 0-.313 1.662l.017.118-.059.1a3.261 3.261 0 0 1-1.137 1.135 4.19 4.19 0 0 1-1.659.4z" transform="translate(5215.012 9001.703)" style="fill:#414457"/>
        <path data-name="Path 14054" d="M-3118.83-7941.5h-.7v-7.373a3.658 3.658 0 0 0-.555-2.181 2.905 2.905 0 0 0-1.927-.668h-7.578a2.7 2.7 0 0 1-2.208-.974 4.31 4.31 0 0 1-.859-1.621 4.291 4.291 0 0 0-.79-1.529l-.01-.012c-.678-.879-3.125-.8-4.3-.766l-.559.016a10.065 10.065 0 0 0-3.262.345 2.381 2.381 0 0 0-.824 2.012V-7941.5h-.7v-12.7a3.058 3.058 0 0 1 1.106-2.628c.513-.378 1.666-.427 3.658-.481l.557-.016c2.062-.064 4.08.015 4.872 1.032a4.993 4.993 0 0 1 .912 1.747 3.648 3.648 0 0 0 .719 1.383 1.979 1.979 0 0 0 1.623.743h7.631a3.632 3.632 0 0 1 2.462.9 4.366 4.366 0 0 1 .731 2.668z" transform="translate(5214.108 9004.284)" style="fill:#414457"/>
        <path data-name="Path 14055" d="M-3114.668-7942.131h-.7v-10.584a5.13 5.13 0 0 0-.537-2.495 2.2 2.2 0 0 0-.963-.751l-.019-.006a5.37 5.37 0 0 0-.8-.242h-7.462a5.039 5.039 0 0 1-1.468-.149 2.56 2.56 0 0 1-1.055-.648 4.638 4.638 0 0 1-.811-1.527 6.044 6.044 0 0 0-.981-1.846c-.369-.369-.686-.686-2.273-.686h-3.985a3.135 3.135 0 0 0-2.068.66 3.566 3.566 0 0 0-.454 2.12c0 .251-.008.488-.029.692l-.7-.072c.018-.173.021-.4.025-.632a4.047 4.047 0 0 1 .616-2.556 3.835 3.835 0 0 1 2.614-.912h3.977c1.743 0 2.246.368 2.766.888a6.435 6.435 0 0 1 1.138 2.081 4.653 4.653 0 0 0 .643 1.281l.015.013.013.016a1.858 1.858 0 0 0 .752.46 4.369 4.369 0 0 0 1.236.119H-3117.613a5.135 5.135 0 0 1 .959.278 2.877 2.877 0 0 1 1.327 1.022 5.71 5.71 0 0 1 .66 2.908z" transform="translate(5213.518 9004.917)" style="fill:#414457"/>
        <path data-name="Path 14056" d="M-3127.881-7945.733h-8.286a.35.35 0 0 1-.35-.35.35.35 0 0 1 .35-.35h8.286a.35.35 0 0 1 .35.35.35.35 0 0 1-.35.35z" transform="translate(5213.167 9002.727)" style="fill:#414457"/>
        <path data-name="Path 14057" d="M-3122.2-7945.733h-2.214a.35.35 0 0 1-.35-.35.35.35 0 0 1 .35-.35h2.214a.35.35 0 0 1 .35.35.35.35 0 0 1-.35.35z" transform="translate(5211.488 9002.727)" style="fill:#414457"/>
        <path data-name="Path 14058" d="M-3123.333-7942.65h-9a.35.35 0 0 1-.35-.35.35.35 0 0 1 .35-.35h9a.35.35 0 0 1 .35.35.35.35 0 0 1-.35.35z" transform="translate(5212.619 9002.286)" style="fill:#414457"/>
        <path data-name="Path 14059" d="M-3134.19-7942.65h-2.143a.35.35 0 0 1-.35-.35.35.35 0 0 1 .35-.35h2.143a.35.35 0 0 1 .35.35.35.35 0 0 1-.35.35z" transform="translate(5213.19 9002.286)" style="fill:#414457"/>
        <path data-name="Rectangle 3307" d="M.7.7v2.029h12.314V.7H.7M0 0h13.714v3.429H0z" transform="translate(2077.143 1068.714)" style="fill:#414457"/>
    </g>
</svg>
