<svg xmlns="http://www.w3.org/2000/svg" xmlns:xlink="http://www.w3.org/1999/xlink" width="48" height="48" viewBox="0 0 48 48">
  <defs>
    <style>
      .cls-1, .cls-3 {
        fill: #fff;
      }

      .cls-1 {
        stroke: #707070;
      }

      .cls-2 {
        fill: #414457;
      }

      .cls-3 {
        stroke: #414457;
      }

      .cls-4 {
        clip-path: url(#clip-path);
      }

      .cls-5 {
        clip-path: url(#clip-path-2);
      }

      .cls-6 {
        fill: #dad8ff;
      }

      .cls-7 {
        clip-path: url(#clip-path-3);
      }
    </style>
    <clipPath id="clip-path">
      <rect id="Rectangle_3229" data-name="Rectangle 3229" class="cls-1" width="48" height="48" transform="translate(1839 1037)"/>
    </clipPath>
    <clipPath id="clip-path-2">
      <rect id="Rectangle_2682" data-name="Rectangle 2682" class="cls-2" width="59.52" height="59.52" transform="translate(0 0)"/>
    </clipPath>
    <clipPath id="clip-path-3">
      <rect id="Rectangle_3229-2" data-name="Rectangle 3229" class="cls-3" width="48" height="48"/>
    </clipPath>
  </defs>
  <g id="مشاهده_عناوین_شغلی" data-name="مشاهده عناوین شغلی" class="cls-4" transform="translate(-1839 -1037)">
    <g id="jobs-white" class="cls-5" transform="translate(1833.72 1034.84)">
      <g id="jobs-white-2" data-name="jobs-white" transform="translate(5.28 2.16)">
        <circle id="Ellipse_826" data-name="Ellipse 826" class="cls-6" cx="6.634" cy="6.634" r="6.634" transform="translate(26.571 7.715)"/>
        <g id="مشاهده_عناوین_شغلی-2" data-name="مشاهده عناوین شغلی" class="cls-7" transform="translate(0 0)">
          <g id="jobs-white-3" data-name="jobs-white" class="cls-5" transform="translate(-5.28 -2.16)">
            <g id="jobs-white-4" data-name="jobs-white" transform="translate(11.381 6.446)">
              <path id="Union_87" data-name="Union 87" class="cls-2" d="M12.111,39.729H7.163A3.491,3.491,0,0,1,5.377,39.3a1.972,1.972,0,0,1-.707-1.431l-.389-13.98a2.227,2.227,0,0,1-1.926.84,2.187,2.187,0,0,1-2.04-1.182,2.67,2.67,0,0,1-.289-1.118V17.8a10.766,10.766,0,0,1,.507-4.228A3.665,3.665,0,0,1,2.574,11.48a6.4,6.4,0,0,1,2.408-.531h.186a7.725,7.725,0,0,1,2.107.265.318.318,0,0,1,.171.138L9.7,15.271l2.154-3.916a.3.3,0,0,1,.23-.154c.052,0,1.314-.144,2.337-.144a6.683,6.683,0,0,1,1.972.311,4.309,4.309,0,0,1,2.345,2.22,10.787,10.787,0,0,1,.607,4.2v4.635a.129.129,0,0,1,0,.026,3.289,3.289,0,0,1-.332,1.113,1.984,1.984,0,0,1-1.846,1.163c-.024,0-.051,0-.076,0a2.5,2.5,0,0,1-2-1.1l-.528,14.246a2.008,2.008,0,0,1-.685,1.427,3.309,3.309,0,0,1-1.737.433Zm-7.562-17.6a.3.3,0,0,1,.292.291l.429,15.429a1.38,1.38,0,0,0,.453.96,2.961,2.961,0,0,0,1.439.32h4.972a2.765,2.765,0,0,0,1.382-.318,1.42,1.42,0,0,0,.44-.964l.572-15.431a.3.3,0,0,1,.59-.062c.019.069.47,1.729,1.987,1.775h.058a1.4,1.4,0,0,0,1.312-.837,2.737,2.737,0,0,0,.267-.879V17.77a10.419,10.419,0,0,0-.553-3.932,3.755,3.755,0,0,0-1.992-1.9,6.218,6.218,0,0,0-1.779-.277c-.787,0-1.749.088-2.117.123L9.965,16.027a.3.3,0,0,1-.522.005L6.986,11.756a7.738,7.738,0,0,0-1.992-.206,5.883,5.883,0,0,0-2.178.479.256.256,0,0,1-.046.019,3.037,3.037,0,0,0-1.684,1.759,10.386,10.386,0,0,0-.458,3.957v4.665a2.127,2.127,0,0,0,.23.861,1.623,1.623,0,0,0,1.514.838c.023,0,.047,0,.069,0a1.622,1.622,0,0,0,1.525-.847,2.4,2.4,0,0,0,.277-.875.3.3,0,0,1,.3-.279ZM26.578,39.621a.3.3,0,0,1-.3-.3V31.553a.3.3,0,0,1,.3-.3h7.767a.3.3,0,0,1,.3.3v1.821a.3.3,0,1,1-.6,0v-1.52H26.877v7.167h7.168v-1.9a.3.3,0,0,1,.6,0v2.2a.3.3,0,0,1-.3.3Zm4.6-1.774a.294.294,0,0,1-.2-.146l-1.5-2.679A.3.3,0,0,1,30,34.729l1.331,2.377,4.814-3.649a.3.3,0,1,1,.363.479l-5.09,3.857a.305.305,0,0,1-.181.061A.237.237,0,0,1,31.177,37.847Zm-4.6-13.653a.3.3,0,0,1-.3-.3V16.126a.3.3,0,0,1,.3-.3h7.767a.3.3,0,0,1,.3.3v1.821a.3.3,0,0,1-.6,0V16.425H26.877v7.168h7.168V21.7a.3.3,0,0,1,.6,0v2.2a.3.3,0,0,1-.3.3Zm4.6-1.776a.294.294,0,0,1-.2-.147l-1.5-2.679A.3.3,0,1,1,30,19.3l1.331,2.377,4.814-3.649a.3.3,0,0,1,.363.479l-5.09,3.857a.3.3,0,0,1-.181.061A.26.26,0,0,1,31.177,22.418ZM5.043,6V4.285a4.285,4.285,0,1,1,8.57,0V6a4.285,4.285,0,0,1-8.57,0Zm.6-1.715V6a3.687,3.687,0,1,0,7.373,0V4.285a3.687,3.687,0,0,0-7.373,0ZM26.578,8.765a.3.3,0,0,1-.3-.3V.7a.3.3,0,0,1,.3-.3h7.767a.3.3,0,0,1,.3.3V2.518a.3.3,0,0,1-.6,0V1H26.877V8.164h7.168v-1.9a.3.3,0,0,1,.6,0v2.2a.3.3,0,0,1-.3.3Zm4.6-1.774a.3.3,0,0,1-.2-.147l-1.5-2.679A.3.3,0,1,1,30,3.871l1.331,2.377L36.146,2.6a.3.3,0,1,1,.363.477l-5.09,3.857A.3.3,0,0,1,31.239,7,.367.367,0,0,1,31.177,6.991Z" transform="translate(0 0)"/>
            </g>
          </g>
        </g>
      </g>
    </g>
  </g>
</svg>
