<svg xmlns="http://www.w3.org/2000/svg" xmlns:xlink="http://www.w3.org/1999/xlink" width="48" height="48" viewBox="0 0 48 48">
  <defs>
    <style>
      .cls-1 {
        fill: #fff;
        stroke: #707070;
      }

      .cls-2 {
        stroke: rgba(0,0,0,0);
        fill: url(#linear-gradient);
      }

      .cls-3 {
        clip-path: url(#clip-path);
      }

      .cls-4 {
        fill: #dad8ff;
      }

      .cls-5 {
        clip-path: url(#clip-path-2);
      }

      .cls-6 {
        fill: #414457;
      }
    </style>
    <linearGradient id="linear-gradient" x1="0.094" y1="0.098" x2="1.219" y2="1.061" gradientUnits="objectBoundingBox">
      <stop offset="0" stop-color="#6c63ff"/>
      <stop offset="1" stop-color="#9ffafc"/>
    </linearGradient>
    <clipPath id="clip-path">
      <rect id="Rectangle_3233" data-name="Rectangle 3233" class="cls-1" width="48" height="48" transform="translate(2273 1440)"/>
    </clipPath>
    <clipPath id="clip-path-2">
      <rect id="Rectangle_3233-2" data-name="Rectangle 3233" class="cls-2" width="48" height="48"/>
    </clipPath>
  </defs>
  <g id="هدیه_ازدواج" data-name="هدیه ازدواج" class="cls-3" transform="translate(-2273 -1440)">
    <g id="present" transform="translate(2273 1440)">
      <circle id="Ellipse_825" data-name="Ellipse 825" class="cls-4" cx="6.634" cy="6.634" r="6.634" transform="translate(19.714 23.143)"/>
      <g id="هدیه_ازدواج-2" data-name="هدیه ازدواج" class="cls-5" transform="translate(0 0)">
        <g id="present-2" data-name="present" transform="translate(4.408 3.645)">
          <path id="Union_86" data-name="Union 86" class="cls-6" d="M3.73,38.917c-1.074-1.149-1.015-3.4-1.01-3.567V17.371H.006V12.331A4.225,4.225,0,0,1,1.414,8.864,4.934,4.934,0,0,1,4.326,7.9c.144,0,.242.008.281.012H9.221a5.228,5.228,0,0,1-.657-1.247,3.707,3.707,0,0,1,.7-3.778,3.454,3.454,0,0,1,2.365-1.36,3.935,3.935,0,0,1,2.639.866l.022.021,5.145,5.3L26.184.964A.077.077,0,0,0,26.2.953,4.311,4.311,0,0,1,27.813.117a3.442,3.442,0,0,1,3.514,1.122A3.54,3.54,0,0,1,32.259,4.9a4.768,4.768,0,0,1-.929,1.675L30.115,7.913h5.111l.058,0a4.221,4.221,0,0,1,2.433.955c1.375,1.03,1.332,3.3,1.326,3.46v5.063H36.677V35.353c0,.149.031,2.5-1.169,3.583-1.166,1.054-3.386.822-3.648.792L7.1,40.014H6.965A4.751,4.751,0,0,1,3.73,38.917Zm-.409-3.55c0,.021-.071,2.156.848,3.141a4.425,4.425,0,0,0,2.912.905h.009L31.9,39.127l.02,0c.022,0,2.181.272,3.189-.64s.973-3.1.973-3.126V17.386L3.321,17.371ZM38.443,16.787V12.309c0-.021.057-2.1-1.084-2.962a3.657,3.657,0,0,0-2.074-.834h-.03l-.019,0H23.643v8.269Zm-15.4-.007V8.512H15.927v8.266ZM1.771,9.346A3.7,3.7,0,0,0,.605,12.3l0,.021v4.45l14.72.007V8.511H4.557S4.471,8.5,4.326,8.5A4.4,4.4,0,0,0,1.771,9.346ZM29.3,7.913l1.583-1.741a4.241,4.241,0,0,0,.805-1.466,2.946,2.946,0,0,0-.8-3.053A2.86,2.86,0,0,0,27.965.7a3.739,3.739,0,0,0-1.365.7L20.083,7.913Zm-10.512,0L13.87,2.846a3.356,3.356,0,0,0-2.194-.719A2.875,2.875,0,0,0,9.725,3.27a3.091,3.091,0,0,0-.6,3.174,4.676,4.676,0,0,0,.861,1.469ZM14.738,36.882,8.747,30.989l-.015-.017-.8-.92a.207.207,0,0,1-.027-.036,4.956,4.956,0,0,1-.616-1.761A4.5,4.5,0,0,1,8.439,24.5a4.07,4.07,0,0,1,3.13-1.518,4.317,4.317,0,0,1,2.044.521.278.278,0,0,1,.031.021l1.308,1.027,1.027-.785a3.567,3.567,0,0,1,2.115-.69,3.7,3.7,0,0,1,1.328.25,2.891,2.891,0,0,1,1.625-.268,3.549,3.549,0,0,1,2.042.722l1.1.868,1.225-.817a4.2,4.2,0,0,1,2.913-.613A4.043,4.043,0,0,1,30.9,25.089a4.267,4.267,0,0,1,.425,4.34,5.552,5.552,0,0,1-1.276,1.756L24.38,36.616a.3.3,0,0,1-.419,0l-4.256-4.229-4.546,4.5a.3.3,0,0,1-.21.086A.3.3,0,0,1,14.738,36.882ZM8.889,24.893a3.882,3.882,0,0,0-1.007,3.249,4.522,4.522,0,0,0,.524,1.538l.77.89,5.771,5.678,5.744-5.683a6.684,6.684,0,0,0,.607-.734,4.248,4.248,0,0,0,.413-.736l0-.015a3.859,3.859,0,0,0-1.247-4.423,3.674,3.674,0,0,0-2.377-.983,2.957,2.957,0,0,0-1.739.559l-.009,0-1.215.929a.3.3,0,0,1-.367,0L13.29,24.006a3.812,3.812,0,0,0-1.721-.428A3.5,3.5,0,0,0,8.889,24.893ZM24.175,35.982l5.469-5.236.012-.01a5.006,5.006,0,0,0,1.135-1.573,3.656,3.656,0,0,0-.386-3.738,3.468,3.468,0,0,0-2.193-1.619,3.64,3.64,0,0,0-2.465.521l-1.409.939a.3.3,0,0,1-.352-.014l-1.272-1-.007,0a2.985,2.985,0,0,0-1.677-.585,4.734,4.734,0,0,0-.851.045,5.783,5.783,0,0,1,.678.5,4.478,4.478,0,0,1,1.433,5.054,4.158,4.158,0,0,1-.5.916,7.021,7.021,0,0,1-.677.819s0,0,0,0l-.983.973Z"/>
        </g>
      </g>
    </g>
  </g>
</svg>
