<svg xmlns="http://www.w3.org/2000/svg" xmlns:xlink="http://www.w3.org/1999/xlink" width="48" height="48" viewBox="0 0 48 48">
  <defs>
    <style>
      .cls-1 {
        fill: #fff;
        stroke: #707070;
      }

      .cls-2 {
        clip-path: url(#clip-path);
      }

      .cls-3 {
        fill: #dad8ff;
      }

      .cls-4 {
        fill: #414457;
      }
    </style>
    <clipPath id="clip-path">
      <rect id="Rectangle_3232" data-name="Rectangle 3232" class="cls-1" width="48" height="48" transform="translate(2053 1440)"/>
    </clipPath>
  </defs>
  <g id="غرامت_دستمزد_ایام_بیماری" data-name="غرامت دستمزد ایام بیماری" class="cls-2" transform="translate(-2053 -1440)">
    <g id="bed" transform="translate(2055.572 1441.398)">
      <circle id="Ellipse_828" data-name="Ellipse 828" class="cls-3" cx="6.634" cy="6.634" r="6.634" transform="translate(13.714 8.03)"/>
      <path id="Union_90" data-name="Union 90" class="cls-4" d="M34.285,43.173A2.571,2.571,0,0,1,36.856,40.6h-30A.858.858,0,0,1,6,39.745v-.857A2.572,2.572,0,0,1,8.57,36.316h4.914V33.746H2.571A2.571,2.571,0,0,1,0,31.173V29.459A.857.857,0,0,1,.856,28.6H.985l0-26.276A2.9,2.9,0,0,1,1.911.449,3.639,3.639,0,0,1,4.085.017H9.993l.027,0A2.012,2.012,0,0,1,11.234.8,3.026,3.026,0,0,1,11.55,2.36V3.745h1.306a.858.858,0,0,1,.858.858V8.889a.858.858,0,0,1-.843.855v1.514a.3.3,0,0,1-.3.3H11.5c.208,1.824.987,7.662,2.71,10.317h.071c4.743-.078,18.992,0,19.494,0a5.325,5.325,0,0,1,2.76.714A7.726,7.726,0,0,1,38.9,24.64,13.062,13.062,0,0,1,40.936,28.6h1.921a.857.857,0,0,1,.856.857v1.713a2.571,2.571,0,0,1-2.571,2.573H29.514v2.571h5.629a2.572,2.572,0,0,1,2.571,2.571v.857a.858.858,0,0,1-.858.858,2.571,2.571,0,1,1-2.571,2.571Zm.6,0A1.972,1.972,0,1,0,36.856,41.2,1.973,1.973,0,0,0,34.885,43.173ZM6.6,38.887v.857A.258.258,0,0,0,6.857,40h30a.258.258,0,0,0,.258-.258v-.857a1.973,1.973,0,0,0-1.971-1.971H8.57A1.973,1.973,0,0,0,6.6,38.887Zm22.314-2.571V33.746H14.085v2.571ZM.6,29.459v1.713a1.973,1.973,0,0,0,1.971,1.971H41.142a1.973,1.973,0,0,0,1.971-1.971V29.459a.257.257,0,0,0-.256-.258h-42A.257.257,0,0,0,.6,29.459ZM40.3,28.6a9.525,9.525,0,0,0-4.018-5.466,4.807,4.807,0,0,0-2.473-.663h-.028c-.146,0-14.695-.08-19.493,0a3.041,3.041,0,0,0-2.466,1.081,4.961,4.961,0,0,0-.878,2.852,2.548,2.548,0,0,1,.469-1.057,2.7,2.7,0,0,1,2.013-.976h8.429a2.441,2.441,0,0,1,1.585.633,2.066,2.066,0,0,1,.572,1.524A2.59,2.59,0,0,1,23.03,28.6Zm-18.5,0a2.22,2.22,0,0,0,1.614-2.071,1.394,1.394,0,0,0-.744-1.351,2.013,2.013,0,0,0-.813-.207H13.428a2.121,2.121,0,0,0-1.541.746,3.311,3.311,0,0,0-.2,2.882Zm-11.318,0c-.146-.863-.49-3.708.873-5.419a3.4,3.4,0,0,1,2.189-1.244c-1.721-2.928-2.459-8.646-2.648-10.379H9.749a.3.3,0,0,1-.3-.3V9.744H9.428a.857.857,0,0,1-.858-.855V4.6a.858.858,0,0,1,.858-.858h1.521V2.334a2.476,2.476,0,0,0-.223-1.213,1.378,1.378,0,0,0-.8-.5l-5.89,0A3.051,3.051,0,0,0,2.265.935a2.3,2.3,0,0,0-.68,1.434V28.6H6.428a3.857,3.857,0,1,1,3.857-3.858A3.857,3.857,0,0,1,6.428,28.6ZM3.171,24.744a3.257,3.257,0,1,0,3.258-3.257A3.261,3.261,0,0,0,3.171,24.744Zm6.879-13.785h2.22V9.744h-2.22ZM9.17,8.889a.257.257,0,0,0,.258.255h3.428a.257.257,0,0,0,.258-.255V7.045H9.17Zm3.944-2.443V4.6a.258.258,0,0,0-.258-.258H9.428A.258.258,0,0,0,9.17,4.6V6.445ZM4.284,43.173a2.572,2.572,0,1,1,2.573,2.571A2.571,2.571,0,0,1,4.284,43.173Zm.6,0A1.972,1.972,0,1,0,6.857,41.2,1.975,1.975,0,0,0,4.884,43.173ZM18.856,11.459a6.857,6.857,0,1,1,6.857,6.857A6.857,6.857,0,0,1,18.856,11.459Zm.6,0A6.257,6.257,0,1,0,25.713,5.2,6.264,6.264,0,0,0,19.456,11.459Zm6.281,4.552V13.978l-.023,0c-.09.008-.178.012-.262.012a1.691,1.691,0,0,1-1.253-.459,1.9,1.9,0,0,1-.469-1.407.3.3,0,1,1,.6.058,1.309,1.309,0,0,0,.3.929,1.251,1.251,0,0,0,1.036.27,1.9,1.9,0,0,0,1.393-.56.769.769,0,0,0,.135-.605.568.568,0,0,0-.062-.2,1.321,1.321,0,0,0-.238-.16c-.045-.026-.1-.058-.154-.095a4.023,4.023,0,0,0-1.212-.374l-.031-.007a5.9,5.9,0,0,1-1.354-.53,1.388,1.388,0,0,1-.545-1.236,1.512,1.512,0,0,1,.475-.982,2.382,2.382,0,0,1,1.669-.561V6.263a.3.3,0,1,1,.6,0V8.11a1.515,1.515,0,0,1,1.187.622,1.127,1.127,0,0,1,.012,1.041A.3.3,0,0,1,27,9.5a.552.552,0,0,0,.007-.467c-.131-.216-.525-.342-1.112-.359a1.924,1.924,0,0,0-1.411.394.931.931,0,0,0-.291.572l0,.022s-.037.5.261.681a5.349,5.349,0,0,0,1.178.456,4.612,4.612,0,0,1,1.421.455c.055.035.1.065.15.091.371.223.482.308.575.745a1.378,1.378,0,0,1-.238,1.087,2.019,2.019,0,0,1-1.215.707.3.3,0,0,1,.014.089v2.036a.3.3,0,1,1-.6,0Z" transform="translate(0 0)"/>
    </g>
  </g>
</svg>
