<svg xmlns="http://www.w3.org/2000/svg" width="53.76" height="53.76" viewBox="0 0 53.76 53.76">
    <defs>
        <clipPath id="ia6k2mps6a">
            <path data-name="Rectangle 3357" style="fill:#414457" d="M0 0h53.76v53.76H0z"/>
        </clipPath>
    </defs>
    <g style="clip-path:url(#ia6k2mps6a)">
        <circle data-name="Ellipse 844" cx="6.369" cy="6.369" r="6.369" transform="translate(23.736 10.189)" style="fill:#dad8ff"/>
        <path data-name="Union 130" d="M3.839 42.241A3.84 3.84 0 0 1 0 38.4V3.842A3.841 3.841 0 0 1 3.839 0H20.16a3.823 3.823 0 0 1 2.761 1.174h12.492a4.2 4.2 0 0 1 3.223 1.443 6.4 6.4 0 0 1 .979 3.794v29.9A5.219 5.219 0 0 1 38.37 39.9a4.952 4.952 0 0 1-2.992 1.481h-12.75v-.034a3.818 3.818 0 0 1-2.468.9zM.671 38.4a3.173 3.173 0 0 0 3.168 3.169H20.16a3.172 3.172 0 0 0 3.168-3.169v-3.025H.671zm34.675 2.307a4.353 4.353 0 0 0 2.542-1.28 4.618 4.618 0 0 0 1.056-3.089v-1.953a.336.336 0 0 1-.144.031H24V38.4a3.829 3.829 0 0 1-.769 2.307zm-12.017-6V6.575H21.51a.335.335 0 1 1 0-.671h1.819V3.842A3.172 3.172 0 0 0 20.16.674H3.839A3.172 3.172 0 0 0 .671 3.842V5.9H16.92a.335.335 0 1 1 0 .671H.671v28.13zm15.471-.961a.336.336 0 0 1 .144.031V7.537h-1.986a.335.335 0 0 1 0-.671h1.985v-.487a5.846 5.846 0 0 0-.843-3.355 3.586 3.586 0 0 0-2.7-1.181H23.44a3.826 3.826 0 0 1 .56 2v3.023h8.879a.335.335 0 1 1 0 .671H24v26.209zM10.558 38.4a1.921 1.921 0 1 1 1.921 1.921 1.92 1.92 0 0 1-1.921-1.921zm.674 0a1.247 1.247 0 1 0 1.247-1.247 1.249 1.249 0 0 0-1.247 1.247zm14.688-.96a1.92 1.92 0 1 1 1.918 1.921 1.92 1.92 0 0 1-1.918-1.921zm.671 0a1.249 1.249 0 1 0 1.247-1.248 1.248 1.248 0 0 0-1.247 1.248zm7.487-29.9a.335.335 0 1 1 0-.671h1.68a.335.335 0 1 1 0 .671zM18.3 6.575a.335.335 0 1 1 0-.671h1.86a.335.335 0 1 1 0 .671z" transform="translate(7.143 5.759)" style="fill:#414457"/>
    </g>
</svg>
