<svg xmlns="http://www.w3.org/2000/svg" width="48" height="48" viewBox="0 0 48 48">
    <defs>
        <clipPath id="tstab1gy0a">
            <path data-name="Rectangle 3314" transform="translate(62 232)" style="stroke:#707070;fill:#fff" d="M0 0h48v48H0z"/>
        </clipPath>
    </defs>
    <g data-name="اعلام سابقه به موسسات" transform="translate(-62 -232)" style="clip-path:url(#tstab1gy0a)">
        <g data-name="Group 2313" transform="translate(65.551 234.449)">
            <circle data-name="Ellipse 823" cx="6.634" cy="6.634" r="6.634" transform="translate(3.449 3.694)" style="fill:#dad8ff"/>
            <path data-name="Path 14061" d="M112.023 275.126h-14.8v-.7h14.1v-34.933H92.064v9.323h-.7v-10.023h20.659z" transform="translate(-69.796 -235.469)" style="fill:#414457"/>
            <path data-name="Path 14062" d="M110.166 238.531h-.7v-3.324H94.493v3.324h-.7v-4.024h16.373z" transform="translate(-70.143 -234.857)" style="fill:#414457"/>
            <path data-name="Rectangle 3308" transform="translate(26.449 7.837)" style="fill:#fff" d="M0 0h4.286v4.286H0z"/>
            <path data-name="Rectangle 3308 - Outline" d="M.7.7v2.886h2.886V.7H.7M0 0h4.286v4.286H0z" transform="translate(26.449 7.837)" style="fill:#414457"/>
            <path data-name="Rectangle 3309" d="M.7.7v2.886h2.886V.7H.7M0 0h4.286v4.286H0z" transform="translate(33.306 7.837)" style="fill:#414457"/>
            <path data-name="Rectangle 3310" d="M.7.7v2.886h2.886V.7H.7M0 0h4.286v4.286H0z" transform="translate(33.306 14.694)" style="fill:#414457"/>
            <path data-name="Rectangle 3311" d="M.7.7v2.886h2.886V.7H.7M0 0h4.286v4.286H0z" transform="translate(26.449 14.694)" style="fill:#414457"/>
            <path data-name="Rectangle 3312" d="M.7.7v2.886h2.886V.7H.7M0 0h4.286v4.286H0z" transform="translate(26.449 21.551)" style="fill:#414457"/>
            <path data-name="Rectangle 3313" d="M.7.7v2.886h2.886V.7H.7M0 0h4.286v4.286H0z" transform="translate(33.306 21.551)" style="fill:#414457"/>
            <path data-name="Path 14063" d="M105.809 279.408h-.7v-7.487h-4.259v7.487h-.7v-8.187h5.659z" transform="translate(-71.051 -240.102)" style="fill:#414457"/>
            <path data-name="Path 14064" d="M72.02 274.921h-5.877a.35.35 0 0 1 0-.7h5.877a.35.35 0 0 1 0 .7z" transform="translate(-66.143 -240.53)" style="fill:#414457"/>
            <path data-name="Path 14065" d="M74.653 278.493h-6.367a.35.35 0 0 1 0-.7h6.367a.35.35 0 0 1 0 .7z" transform="translate(-66.449 -241.041)" style="fill:#414457"/>
            <path data-name="Path 14066" d="M77.367 282.636H71a.35.35 0 0 1 0-.7h6.367a.35.35 0 0 1 0 .7z" transform="translate(-66.837 -241.632)" style="fill:#414457"/>
            <path data-name="Path 14067" d="M83.161 276.184a4.075 4.075 0 0 1-2.344-1.037l-9.467-7.273v2.718a.35.35 0 1 1-.7 0v-3.429a.35.35 0 0 1 .563-.278l10.041 7.715.023.019a3.454 3.454 0 0 0 1.884.865 3.669 3.669 0 0 0 1.936-.871l8.469-7.5-3.58-2.069a.35.35 0 0 1 .35-.606l4 2.313a.35.35 0 0 1 .057.565l-8.834 7.826a4.316 4.316 0 0 1-2.398 1.042z" transform="translate(-66.837 -239.122)" style="fill:#414457"/>
            <path data-name="Path 14068" d="M71.015 267.268a.35.35 0 0 1-.206-.633l4.005-2.918a.35.35 0 0 1 .412.566l-4.005 2.917a.349.349 0 0 1-.206.068z" transform="translate(-66.816 -239.02)" style="fill:#414457"/>
            <path data-name="Path 14069" d="M91.56 282.963H78.428a.35.35 0 0 1 0-.7h13.108a4.36 4.36 0 0 0 2.564-.763 3.817 3.817 0 0 0 .751-2.431V267.429a.35.35 0 1 1 .7 0v11.627a4.428 4.428 0 0 1-.964 2.951 4.893 4.893 0 0 1-3.027.956z" transform="translate(-67.898 -239.51)" style="fill:#414457"/>
            <path data-name="Path 14070" d="m95.509 283.4-7.53-6.857.471-.518 7.53 6.857z" transform="translate(-69.296 -240.775)" style="fill:#414457"/>
            <path data-name="Path 14071" d="M89.84 268.512h-.7v-15.841a3.181 3.181 0 0 0-.339-1.715 2 2 0 0 0-1.286-.606H72.331a1.949 1.949 0 0 0-1.252.532 1.865 1.865 0 0 0-.586 1.312v6.506c0 .052-.052 1.269-1.9 1.4a1.991 1.991 0 0 1-2.215-1.318l-.011-.043v-4.19h3.429v-2.34a2.548 2.548 0 0 1 .819-1.848 2.662 2.662 0 0 1 1.74-.71h15.2a2.692 2.692 0 0 1 1.812.893 3.876 3.876 0 0 1 .472 2.16zm-22.775-9.87c.062.175.369.837 1.478.759 1.149-.079 1.244-.656 1.251-.719v-3.433h-2.73z" transform="translate(-66.224 -237.02)" style="fill:#414457"/>
            <path data-name="Path 14072" d="M75.7 268.107H75v-16.041a2.224 2.224 0 0 0-.556-1.114 3.221 3.221 0 0 0-1.328-.608l.135-.687a3.888 3.888 0 0 1 1.673.785 2.945 2.945 0 0 1 .772 1.542v.026z" transform="translate(-67.149 -237.02)" style="fill:#414457"/>
            <g data-name="Group 2312">
                <path data-name="Path 13865" d="M546.339 255.913h-6.214a.35.35 0 0 1 0-.7h6.214a.35.35 0 0 1 0 .7z" transform="translate(-528.998 -236.958)" style="fill:#414457"/>
                <path data-name="Path 13866" d="M550.545 255.913h-1.607a.35.35 0 0 1 0-.7h1.607a.35.35 0 0 1 0 .7z" transform="translate(-530.257 -236.958)" style="fill:#414457"/>
                <path data-name="Path 13867" d="M549.759 258.163h-6.7a.35.35 0 0 1 0-.7h6.7a.35.35 0 0 1 0 .7z" transform="translate(-529.417 -237.279)" style="fill:#414457"/>
                <path data-name="Path 13868" d="M541.536 258.163h-1.661a.35.35 0 0 1 0-.7h1.661a.35.35 0 0 1 0 .7z" transform="translate(-528.962 -237.279)" style="fill:#414457"/>
                <path data-name="Path 13869" d="M546.446 260.538h-6.321a.35.35 0 0 1 0-.7h6.321a.35.35 0 0 1 0 .7z" transform="translate(-528.998 -237.618)" style="fill:#414457"/>
                <path data-name="Path 13870" d="M550.438 260.538h-1.5a.35.35 0 0 1 0-.7h1.5a.35.35 0 0 1 0 .7z" transform="translate(-530.257 -237.618)" style="fill:#414457"/>
                <path data-name="Path 13871" d="M541.732 262.85h-1.607a.35.35 0 0 1 0-.7h1.607a.35.35 0 0 1 0 .7z" transform="translate(-528.998 -237.949)" style="fill:#414457"/>
                <path data-name="Path 13872" d="M549.759 262.85h-6.7a.35.35 0 0 1 0-.7h6.7a.35.35 0 0 1 0 .7z" transform="translate(-529.417 -237.949)" style="fill:#414457"/>
                <path data-name="Path 13873" d="M546.446 265.538h-6.321a.35.35 0 0 1 0-.7h6.321a.35.35 0 0 1 0 .7z" transform="translate(-528.998 -238.333)" style="fill:#414457"/>
                <path data-name="Path 13874" d="M550.545 265.538h-1.607a.35.35 0 0 1 0-.7h1.607a.35.35 0 0 1 0 .7z" transform="translate(-530.257 -238.333)" style="fill:#414457"/>
                <path data-name="Path 13875" d="M541.625 267.725h-1.5a.35.35 0 0 1 0-.7h1.5a.35.35 0 0 1 0 .7z" transform="translate(-528.998 -238.645)" style="fill:#414457"/>
                <path data-name="Path 13876" d="M549.813 267.725h-6.75a.35.35 0 0 1 0-.7h6.75a.35.35 0 0 1 0 .7z" transform="translate(-529.417 -238.645)" style="fill:#414457"/>
            </g>
            <path data-name="Path 14073" d="M74.777 261.725h-5.933v-.7h5.933z" transform="translate(-66.529 -238.645)" style="fill:#414457"/>
        </g>
    </g>
</svg>
