<svg xmlns="http://www.w3.org/2000/svg" xmlns:xlink="http://www.w3.org/1999/xlink" width="48" height="48" viewBox="0 0 48 48">
  <defs>
    <style>
      .cls-1 {
        fill: #fff;
        stroke: #707070;
      }

      .cls-2 {
        fill: #fb9d9d;
      }

      .cls-3 {
        clip-path: url(#clip-path);
      }

      .cls-4 {
        clip-path: url(#clip-path-2);
      }

      .cls-5 {
        fill: #dad8ff;
      }

      .cls-6 {
        fill: #414457;
      }
    </style>
    <clipPath id="clip-path">
      <rect id="Rectangle_3234" data-name="Rectangle 3234" class="cls-1" width="48" height="48" transform="translate(1833 1440)"/>
    </clipPath>
    <clipPath id="clip-path-2">
      <rect id="Rectangle_2936" data-name="Rectangle 2936" class="cls-2" width="49.92" height="49.92" transform="translate(0 0)"/>
    </clipPath>
  </defs>
  <g id="کمک_هزینه_ایام_بارداری" data-name="کمک هزینه ایام بارداری" class="cls-3" transform="translate(-1833 -1440)">
    <g id="pregnancy1" class="cls-4" transform="translate(1832.4 1438.56)">
      <circle id="Ellipse_807" data-name="Ellipse 807" class="cls-5" cx="6.394" cy="6.394" r="6.394" transform="translate(21.172 30.583)"/>
      <path id="Path_13992" data-name="Path 13992" class="cls-6" d="M27.5,28.86c-.2,0-.4-.009-.6-.027a5.787,5.787,0,0,1-4.715-3.246,9.142,9.142,0,0,1-.855-2.369l-1.3.694c-.185.224-.725.814-1.261.814h0a.722.722,0,0,1-.212-.031.976.976,0,0,1-.62-.617,1.767,1.767,0,0,0-.457-.635,1.831,1.831,0,0,0-.656-.357,1.591,1.591,0,0,1-.449-2.913.35.35,0,0,1,.455.025L18.6,21.882,19.725,20.1a.35.35,0,0,1,.036-.048c.1-.11,1-1.079,1.831-1.079a2.121,2.121,0,0,1,1.474.758l2.264,2.314a9.026,9.026,0,0,1,1.8-.191c.141,0,.281,0,.415.012a9.094,9.094,0,0,1,2.159.419l.621-.506c-.213-.615-.678-2.167-.279-3.033a2.028,2.028,0,0,1,2-.939c.093,0,.176,0,.245.007a14.867,14.867,0,0,1,1.589-1.755,2.6,2.6,0,0,1,1.66-.731h.052c.328,0,1.5.142,2.821,1.968a5.063,5.063,0,0,1,.578,4.114,3.753,3.753,0,0,1-1.616,2.511,5.113,5.113,0,0,1-2.276.443,9.279,9.279,0,0,1-1.224-.083,9.783,9.783,0,0,1-1.413,2.15A6.5,6.5,0,0,1,27.5,28.86Zm-5.905-6.53a.35.35,0,0,1,.348.31,8.346,8.346,0,0,0,.873,2.636,5.049,5.049,0,0,0,4.15,2.86c.179.016.359.025.534.025,4.027,0,5.824-4.352,5.842-4.4a.35.35,0,0,1,.39-.213,8.287,8.287,0,0,0,1.369.114,4.5,4.5,0,0,0,1.963-.369,3.186,3.186,0,0,0,1.249-2.052,4.489,4.489,0,0,0-.466-3.537c-1.177-1.63-2.147-1.677-2.253-1.677h-.006a.218.218,0,0,1-.046,0,1.94,1.94,0,0,0-1.2.556,15.362,15.362,0,0,0-1.614,1.806.35.35,0,0,1-.324.136,3.235,3.235,0,0,0-.361-.018c-.337,0-1.144.052-1.366.532a4.867,4.867,0,0,0,.384,2.727.35.35,0,0,1-.105.4l-.964.786a.35.35,0,0,1-.343.057,8.474,8.474,0,0,0-2.149-.443c-.121-.007-.246-.011-.373-.011a8.274,8.274,0,0,0-1.822.215.35.35,0,0,1-.337-.094L22.557,20.21l-.022-.025a1.446,1.446,0,0,0-.942-.512A2.513,2.513,0,0,0,20.3,20.5l-1.34,2.116a.35.35,0,0,1-.538.066l-1.83-1.751a.85.85,0,0,0-.224.937,1.011,1.011,0,0,0,.7.558,2.5,2.5,0,0,1,.881.493,2.431,2.431,0,0,1,.622.856c.1.208.117.225.194.249h.007c.162,0,.534-.319.758-.6a.35.35,0,0,1,.11-.093l1.786-.956A.35.35,0,0,1,21.593,22.33Z" transform="translate(-2.278 -2.24)"/>
      <path id="Ellipse_821" data-name="Ellipse 821" class="cls-6" d="M6.616.579a6.037,6.037,0,1,0,6.037,6.037A6.044,6.044,0,0,0,6.616.579m0-.579A6.616,6.616,0,1,1,0,6.616,6.616,6.616,0,0,1,6.616,0Z" transform="translate(18.491 33.797)"/>
      <path id="Path_13990" data-name="Path 13990" class="cls-6" d="M-1.125,9.641H-12.133a.35.35,0,0,1-.35-.341c0-.093-.043-2.283,1.447-2.9a11.586,11.586,0,0,1,4-.4h5.908a.35.35,0,0,1,.35.35.35.35,0,0,1-.35.35h-5.94a11.258,11.258,0,0,0-3.7.349c-.763.318-.954,1.354-1,1.9H-1.125a.35.35,0,0,1,.35.35A.35.35,0,0,1-1.125,9.641Z" transform="translate(19.965 32.435)"/>
      <path id="Path_13991" data-name="Path 13991" class="cls-6" d="M-.357,9.641h-9.776a.35.35,0,0,1-.35-.35.35.35,0,0,1,.35-.35H-.724c-.05-.543-.252-1.577-1.059-1.9A12.469,12.469,0,0,0-5.69,6.694h-4.3a.35.35,0,0,1-.35-.35.35.35,0,0,1,.35-.35h4.271a12.766,12.766,0,0,1,4.2.4C.038,7.013,0,9.208-.008,9.3A.35.35,0,0,1-.357,9.641Z" transform="translate(41.483 32.435)"/>
      <path id="Union_91" data-name="Union 91" class="cls-6" d="M2.145,10.05V8.017l-.021,0c-.091.008-.178.013-.264.013A1.692,1.692,0,0,1,.608,7.573a1.911,1.911,0,0,1-.47-1.408.3.3,0,1,1,.6.057,1.311,1.311,0,0,0,.3.929,1.254,1.254,0,0,0,1.034.271,1.914,1.914,0,0,0,1.394-.561.759.759,0,0,0,.133-.6.57.57,0,0,0-.06-.2A1.349,1.349,0,0,0,3.3,5.9c-.047-.028-.1-.061-.156-.1a4.041,4.041,0,0,0-1.213-.375L1.9,5.425a5.957,5.957,0,0,1-1.355-.53A1.382,1.382,0,0,1,0,3.659a1.494,1.494,0,0,1,.475-.982,2.365,2.365,0,0,1,1.667-.561V.3a.3.3,0,1,1,.6,0V2.149a1.519,1.519,0,0,1,1.188.622,1.132,1.132,0,0,1,.011,1.041.3.3,0,0,1-.535-.271.551.551,0,0,0,.006-.465c-.131-.215-.525-.344-1.112-.358A1.932,1.932,0,0,0,.892,3.11.933.933,0,0,0,.6,3.682V3.7s-.037.5.261.683a5.417,5.417,0,0,0,1.177.456A4.586,4.586,0,0,1,3.46,5.3c.057.034.105.064.151.092a.9.9,0,0,1,.574.744,1.371,1.371,0,0,1-.237,1.086,2.018,2.018,0,0,1-1.217.708.306.306,0,0,1,.013.09V10.05a.3.3,0,0,1-.6,0Z" transform="translate(22.886 35.371)"/>
      <path id="Path_13980" data-name="Path 13980" class="cls-6" d="M26.156,30.207a112.678,112.678,0,0,1-14.909-1.218A3.982,3.982,0,0,1,8.4,26.274a5.679,5.679,0,0,1,.362-4.708l3.482-9.877a2.926,2.926,0,0,1,.69-1.251,4.634,4.634,0,0,1,3.343-1.36c.153-.008.307-.012.458-.012a11.818,11.818,0,0,1,3.739.738,17.048,17.048,0,0,0,5.679.988,15.265,15.265,0,0,0,5.429-.966,11.245,11.245,0,0,1,3.814-.76c.16,0,.324,0,.489.012,3.634.181,4.19,2.317,4.251,2.62l3.2,9.9c.091.23,1.112,2.889.274,4.695-.861,1.856-3.605,2.656-3.722,2.689l-.032.007A85.323,85.323,0,0,1,26.156,30.207ZM16.738,9.766c-.138,0-.28,0-.42.011-2.981.16-3.374,1.994-3.389,2.072l0,.028-.009.024L9.4,21.864l-.018.03a5.069,5.069,0,0,0-.333,4.117c.832,2.049,2.236,2.276,2.3,2.285h.006a111.964,111.964,0,0,0,14.8,1.21A84.627,84.627,0,0,0,39.717,28.3c.208-.063,2.567-.8,3.264-2.306.731-1.576-.283-4.124-.293-4.15l-.008-.023-3.223-9.955,0-.027c-.013-.075-.368-1.9-3.6-2.061-.153-.008-.305-.011-.454-.011a10.536,10.536,0,0,0-3.593.725,16.062,16.062,0,0,1-5.65,1,17.649,17.649,0,0,1-5.89-1.02A11.112,11.112,0,0,0,16.738,9.766Z" transform="translate(-1.199 -1.345)"/>
      <path id="Path_13981" data-name="Path 13981" class="cls-6" d="M29.87,21.735a9.235,9.235,0,0,1-.743-7.381,10.649,10.649,0,0,1,1.6-3.2l.55.434a10.147,10.147,0,0,0-1.484,3,8.413,8.413,0,0,0,.693,6.809Z" transform="translate(-4.147 -1.624)"/>
      <path id="Path_13985" data-name="Path 13985" class="cls-6" d="M23.537,27.771a5.707,5.707,0,0,1-2.735-2.99l.67-.2-.335.1.335-.1a5.129,5.129,0,0,0,2.409,2.583Z" transform="translate(-3.02 -3.526)"/>
      <path id="Path_13993" data-name="Path 13993" class="cls-6" d="M1.5.7a.8.8,0,1,0,.8.8A.8.8,0,0,0,1.5.7m0-.7A1.5,1.5,0,1,1,0,1.5,1.5,1.5,0,0,1,1.5,0Z" transform="translate(40.457 29.297)"/>
      <path id="Rectangle_3287" data-name="Rectangle 3287" class="cls-6" d="M1.286.7a.586.586,0,1,0,0,1.171h.857A.586.586,0,1,0,2.143.7H1.286m0-.7h.857a1.286,1.286,0,1,1,0,2.571H1.286A1.286,1.286,0,1,1,1.286,0Z" transform="translate(16.029 29.726)"/>
      <path id="Rectangle_3288" data-name="Rectangle 3288" class="cls-6" d="M1.286.7a.586.586,0,1,0,0,1.171h.857A.586.586,0,1,0,2.143.7H1.286m0-.7h.857a1.286,1.286,0,1,1,0,2.571H1.286A1.286,1.286,0,1,1,1.286,0Z" transform="translate(11.743 29.726)"/>
      <path id="Rectangle_3289" data-name="Rectangle 3289" class="cls-6" d="M1.286.7a.586.586,0,1,0,0,1.171h.857A.586.586,0,1,0,2.143.7H1.286m0-.7h.857a1.286,1.286,0,1,1,0,2.571H1.286A1.286,1.286,0,1,1,1.286,0Z" transform="translate(7.457 29.726)"/>
      <path id="Path_13986" data-name="Path 13986" class="cls-6" d="M13.05,44.68h-.7v-5.5h.7Z" transform="translate(-1.814 -5.597)"/>
      <path id="Path_13987" data-name="Path 13987" class="cls-6" d="M13.05,44.68h-.7v-5.5h.7Z" transform="translate(-0.1 -5.597)"/>
      <path id="Path_13988" data-name="Path 13988" class="cls-6" d="M13.05,44.68h-.7v-5.5h.7Z" transform="translate(23.043 -5.597)"/>
      <path id="Path_13989" data-name="Path 13989" class="cls-6" d="M13.05,44.68h-.7v-5.5h.7Z" transform="translate(24.757 -5.597)"/>
      <path id="Rectangle_3290" data-name="Rectangle 3290" class="cls-6" d="M4,.7A3.3,3.3,0,0,0,.7,4V26A3.3,3.3,0,0,0,4,29.3H38A3.3,3.3,0,0,0,41.3,26V4A3.3,3.3,0,0,0,38,.7H4M4,0H38a4,4,0,0,1,4,4V26a4,4,0,0,1-4,4H4a4,4,0,0,1-4-4V4A4,4,0,0,1,4,0Z" transform="translate(4.029 4.012)"/>
      <path id="Path_13994" data-name="Path 13994" class="cls-6" d="M80.972,399.75l-.694-.089c.038-.3.412-2.954,1.7-3.444a1.948,1.948,0,0,1,2.261.744l-.575.4a1.272,1.272,0,0,0-1.437-.49C81.546,397.13,81.1,398.774,80.972,399.75Z" transform="translate(-64.918 -380.052)"/>
      <path id="Path_13995" data-name="Path 13995" class="cls-6" d="M78.418,403.394a1.576,1.576,0,0,1-.182-.01c-.947-.11-1.124-1.133-1.085-1.659a.35.35,0,0,1,.222-.3l1.446-.562a.35.35,0,0,1,.254.652l-1.221.475c.02.257.108.658.465.7a2.484,2.484,0,0,0,1.549-.664.35.35,0,1,1,.465.523A3.419,3.419,0,0,1,78.418,403.394Z" transform="translate(-64.471 -380.729)"/>
    </g>
  </g>
</svg>
