<svg xmlns="http://www.w3.org/2000/svg" width="48" height="48" viewBox="0 0 48 48">
    <defs>
        <clipPath id="zjt4ulcgia">
            <path data-name="Rectangle 3322" transform="translate(1143 152)" style="fill:#fff;stroke:#707070" d="M0 0h48v48H0z"/>
        </clipPath>
    </defs>
    <g data-name="اعتراض به سوابق ناموجود" transform="translate(-1143 -152)" style="clip-path:url(#zjt4ulcgia)">
        <g data-name="Group 2286" transform="translate(1143.962 153.341)">
            <circle data-name="Ellipse 822" cx="6.634" cy="6.634" r="6.634" transform="translate(7.609 18.373)" style="fill:#dad8ff"/>
            <path data-name="Path 13842" d="m-3141.608-8095.4.295.505 9.231 15.807-.58.025a97.123 97.123 0 0 0-11.822 1.228 11.463 11.463 0 0 0-3.5 1.511 7.661 7.661 0 0 1-2.365 1.062.713.713 0 0 1-.122.01c-.253 0-.7-.111-1.629-1.073a14.316 14.316 0 0 1-.872-.994l-.022-.031a12.229 12.229 0 0 1-1.181-2.585c-.323-1.066.794-1.942 2.484-3.269.875-.687 1.867-1.465 2.9-2.443 2.862-2.723 6.842-9.191 6.882-9.256zm8.338 15.667-8.355-14.308c-1 1.589-4.2 6.533-6.688 8.9-1.052 1-2.058 1.791-2.946 2.487-1.358 1.065-2.43 1.907-2.246 2.515a11.7 11.7 0 0 0 1.1 2.4c.751.952 1.654 1.784 1.938 1.784a7.22 7.22 0 0 0 2.135-.978 12.038 12.038 0 0 1 3.712-1.591 92.231 92.231 0 0 1 11.35-1.205z" transform="translate(3153.877 8115.046)" style="fill:#414457"/>
            <path data-name="Path 13843" d="m-3147.368-8074.529-3.928-6.286.594-.371 3.928 6.286z" transform="translate(3153.466 8113.087)" style="fill:#414457"/>
            <path data-name="Path 13844" d="m-3145.379-8066.669-.167-.285-3.464-5.918.6-.354 3.289 5.618a4.248 4.248 0 0 0 1.872-2.064 1.72 1.72 0 0 0-.227-1.42 32.722 32.722 0 0 0-2.47-3.6l.538-.448a32.787 32.787 0 0 1 2.531 3.685 2.417 2.417 0 0 1 .3 1.977 5.33 5.33 0 0 1-2.513 2.659z" transform="translate(3153.139 8112.218)" style="fill:#414457"/>
            <path data-name="Path 13845" d="m-3132.765-8083.24-.447-.539a4.608 4.608 0 0 0 .987-1.252 2.658 2.658 0 0 0-.061-2.794 2.816 2.816 0 0 0-2.486-1.388h-.077a4.415 4.415 0 0 0-1.441.245l-.254-.652a5.111 5.111 0 0 1 1.7-.292h.09a3.522 3.522 0 0 1 3.068 1.719 3.362 3.362 0 0 1 .073 3.509 5.247 5.247 0 0 1-1.152 1.444z" transform="translate(3151.383 8114.311)" style="fill:#414457"/>
            <path data-name="Path 13846" d="m-3129.6-8083.385-.571-.4a6.473 6.473 0 0 0 .8-1.757 4.991 4.991 0 0 0-.319-3.807 4.264 4.264 0 0 0-2.737-2.229 4.8 4.8 0 0 0-1.693-.159l-.092-.694a5.4 5.4 0 0 1 1.94.17 5 5 0 0 1 3.2 2.586 5.75 5.75 0 0 1 .365 4.35 7.04 7.04 0 0 1-.893 1.94z" transform="translate(3151.062 8114.674)" style="fill:#414457"/>
            <path data-name="Path 13847" d="m-3128.281-8082.438-.509-.48a7.561 7.561 0 0 0 1.373-2.37 7.015 7.015 0 0 0-.43-5.8 6.583 6.583 0 0 0-4.319-3.606 6.385 6.385 0 0 0-2.517-.139l-.135-.687a7.041 7.041 0 0 1 2.823.146 7.308 7.308 0 0 1 4.771 3.965 7.776 7.776 0 0 1 .455 6.388 8.111 8.111 0 0 1-1.512 2.583z" transform="translate(3151.145 8115.124)" style="fill:#414457"/>
            <path data-name="Ellipse 812" d="M41.688 17.371v.157q.041.246.076.494a.3.3 0 1 1-.594.084c-.17-1.376.518-.735.518-.735zm-.027 4.605h.018a.3.3 0 0 1 .281.316q-.024.4-.063.787v.396l-.012.1V23.907l-.029.2V24.438l-.022.132V24.9q-.154.819-.37 1.615a.3.3 0 1 1-.579-.157 20.41 20.41 0 0 0 .673-4.1.3.3 0 0 1 .104-.282zm-2.2 8.1a.3.3 0 0 1 .268.435 20.969 20.969 0 0 1-1.129 1.953V32.511l-.025.038v.011l-.011.017v.012l-.009.014v.01l-.019.027v.012l-.009.013V32.693l-.014.02V32.771l-.015.02v.011l-.006.009-.692.789-.047.061V33.691q-.126.164-.255.326a.3.3 0 0 1-.468-.375 20.461 20.461 0 0 0 2.252-3.493.3.3 0 0 1 .181-.077zm-5.24 6.555a.3.3 0 0 1 .193.53 21.075 21.075 0 0 1-2.471 1.769h-.047l-.014.008H31.824q-.439.262-.892.5a.3.3 0 1 1-.282-.529 20.479 20.479 0 0 0 3.45-2.318.3.3 0 0 1 .123.036zm-7.4 3.944a.3.3 0 0 1 .086.588q-.682.2-1.383.354h-.04l-.046.01H25.279a20.989 20.989 0 0 1-2.583.368.3.3 0 1 1-.048-.6 20.378 20.378 0 0 0 4.087-.751.3.3 0 0 1 .083.027zm-12.476-.266a.3.3 0 0 1 .1.016 20.327 20.327 0 0 0 4.051.925.3.3 0 1 1-.073.6l-.084-.011h-.171a20.866 20.866 0 0 1-3.917-.92.3.3 0 0 1 .1-.584zm-7.23-4.257a.3.3 0 0 1 .2.078 20.51 20.51 0 0 0 3.348 2.463.3.3 0 0 1-.3.517 10.647 10.647 0 0 1-2.91-2.6c.053-.066-.423-.461-.341-.461zM.3 21.095a.3.3 0 0 1 .3.294 20.5 20.5 0 0 0 .5 4.126.3.3 0 1 1-.585.132A21.043 21.043 0 0 1 0 21.4a.3.3 0 0 1 .3-.305zm1.538-8.249a.3.3 0 0 1 .277.414 20.293 20.293 0 0 0-1.17 3.986.3.3 0 0 1-.59-.108q.181-.975.451-1.917V15.121l.027-.092V14.551l.01-.031v-.322l.007-.02V14.073L1.2 14v-.021q.17-.478.361-.944a.3.3 0 0 1 .281-.189zm4.699-6.954a.3.3 0 0 1 .21.515A20.545 20.545 0 0 0 4.083 9.6a.3.3 0 1 1-.5-.336A21.09 21.09 0 0 1 5.4 6.942l.005-.006.067-.074.005-.006V6.826l.011-.012.011-.012v-.005l.005-.006.038-.04.005-.006.005-.005.011-.011.005-.006.005-.006q.27-.284.55-.558a.3.3 0 0 1 .414-.267zm7.063-4.53a.3.3 0 0 1 .107.58A20.369 20.369 0 0 0 10 3.818a.3.3 0 0 1-.324-.5 20.977 20.977 0 0 1 1.837-1.058H11.581l.037-.019H11.737l.017-.008H11.842l.024-.011H11.941l.058-.027h.065l.086-.04.029-.013h.014l.1-.046.014-.006h.021l.109-.048h.061l.065-.028H12.662l.024-.01H12.798l.054-.022h.07q.226-.093.454-.18a.3.3 0 0 1 .224-.44zM21 0h.912s.481.6-.912.6a20.625 20.625 0 0 0-3.28.262.3.3 0 0 1-.1-.592H18.081L18.1.2H18.876L18.9.1H21z" transform="translate(.751 2.087)" style="fill:#414457"/>
            <path data-name="Path 13848" d="M-3110.026-8101.141h-14.168a3.54 3.54 0 0 1-2.411-.911 4.047 4.047 0 0 1-.582-2.6v-11.478a2.5 2.5 0 0 1 .6-1.677c.1-.1.167-.186.227-.259.336-.409.5-.474 1.618-.631a9.842 9.842 0 0 1 1.384-.09c.435 0 .865.022 1.282.043s.861.044 1.311.044a1.954 1.954 0 0 1 2.08 1.208c.082.134.176.286.284.449a9.385 9.385 0 0 1 .6 1.052 3.137 3.137 0 0 0 .774 1.1 1.589 1.589 0 0 0 1.081.431 1.084 1.084 0 0 0 .185-.014l.037-.008h6.281l.032.006a3.588 3.588 0 0 1 1.606.734 2.292 2.292 0 0 1 .607 1.458v8.418a2.347 2.347 0 0 1-.61 1.845 4.81 4.81 0 0 1-2.191.877zm-13.332-16.945a9.037 9.037 0 0 0-1.287.084c-.974.137-.993.16-1.175.382-.065.079-.146.178-.265.3a1.823 1.823 0 0 0-.4 1.171V-8104.599a3.364 3.364 0 0 0 .42 2.1 2.819 2.819 0 0 0 1.875.661h14.116a4.023 4.023 0 0 0 1.786-.69 1.683 1.683 0 0 0 .393-1.272v-8.467a1.589 1.589 0 0 0-.393-.968 2.882 2.882 0 0 0-1.22-.544h-6.149a1.83 1.83 0 0 1-.287.021 2.311 2.311 0 0 1-1.551-.612 3.823 3.823 0 0 1-.93-1.3 8.855 8.855 0 0 0-.556-.981c-.115-.173-.211-.33-.3-.469-.423-.689-.537-.874-1.483-.874-.468 0-.915-.023-1.347-.045s-.83-.046-1.247-.046z" transform="translate(3150.017 8118.436)" style="fill:#414457"/>
            <path data-name="Path 13849" d="M-3116.357-8113.233h-10.143v-.7h10.143z" transform="translate(3149.966 8117.742)" style="fill:#414457"/>
            <path data-name="Path 13850" d="M-3108.873-8097.948c-.328 0-.563-.018-.63-.023h-11.571a4.727 4.727 0 0 1-2.191-.638 2.838 2.838 0 0 1-1-1.733l.693-.1a2.153 2.153 0 0 0 .716 1.267 3.968 3.968 0 0 0 1.8.5h11.6a5.885 5.885 0 0 0 3.059-.513 3.318 3.318 0 0 0 1.131-2.226v-8.143a2.132 2.132 0 0 0-.4-1.379 2.487 2.487 0 0 0-1.462-.468l.011-.7a3.141 3.141 0 0 1 1.947.674 2.837 2.837 0 0 1 .6 1.9v8.165a4.023 4.023 0 0 1-1.44 2.762 5.522 5.522 0 0 1-2.863.655z" transform="translate(3149.597 8117.48)" style="fill:#414457"/>
            <path data-name="Ellipse 813" d="M3.429.7a2.729 2.729 0 1 0 2.728 2.729A2.732 2.732 0 0 0 3.429.7m0-.7A3.429 3.429 0 1 1 0 3.429 3.429 3.429 0 0 1 3.429 0z" transform="translate(29.895 7.23)" style="fill:#414457"/>
            <path data-name="Path 14060" d="M-3119.083-8102.817a.348.348 0 0 1-.249-.1.35.35 0 0 1 0-.5l6.571-6.5a.35.35 0 0 1 .495 0 .35.35 0 0 1 0 .5l-6.571 6.5a.349.349 0 0 1-.246.1z" transform="translate(3148.907 8117.183)" style="fill:#414457"/>
        </g>
    </g>
</svg>
