<svg xmlns="http://www.w3.org/2000/svg" width="48" height="47" viewBox="0 0 48 47">
    <defs>
        <clipPath id="622prc28da">
            <path data-name="Rectangle 3354" transform="translate(-.289 .024)" style="stroke:#707070;fill:#414457" d="M0 0h48v47H0z"/>
        </clipPath>
        <clipPath id="9ygpvpc5qb">
            <path data-name="Rectangle 3353" style="fill:#414457" d="M0 0h49.081v47.185H0z"/>
        </clipPath>
    </defs>
    <g style="clip-path:url(#622prc28da)">
        <g transform="translate(.289 -.024)" style="clip-path:url(#9ygpvpc5qb)" data-name="ارتباط فعال با سازمان تامین اجتماعی">
            <circle data-name="Ellipse 842" cx="6.554" cy="6.554" r="6.554" transform="translate(9.174 10.485)" style="fill:#dad8ff"/>
            <path data-name="Union 128" d="M22.865 40.647a4.236 4.236 0 0 1 2.561-3.891l-1.575-6.186a10.6 10.6 0 0 1-13.261-4.783l-2.857 1.162a.3.3 0 0 1-.111.021h-.04a3.805 3.805 0 1 1-.12-.543.3.3 0 0 1 .048-.027l2.811-1.143a10.591 10.591 0 0 1 8.351-15.024l-.759-5.961a.3.3 0 0 1 0-.058 2.117 2.117 0 1 1 .591 0l.76 5.968q.316-.019.637-.019a10.578 10.578 0 0 1 8.986 4.988l5.874-2.84a2.539 2.539 0 1 1 .176.574l-5.75 2.779a10.621 10.621 0 0 1 .924 7.886l2.726 1.593a2.113 2.113 0 1 1-.371.47l-2.532-1.48a10.617 10.617 0 0 1-5.531 6.2l1.586 6.23a4.235 4.235 0 1 1-3.123 4.087zm.592 0a3.642 3.642 0 1 0 3.643-3.641 3.645 3.645 0 0 0-3.643 3.641zM12.835 27.813a9.929 9.929 0 1 0-1.894-2.63.3.3 0 0 1 .1.193 10.025 10.025 0 0 0 1.794 2.437zM.593 27.521A3.218 3.218 0 1 0 3.811 24.3a3.221 3.221 0 0 0-3.218 3.221zm32.179-.846a1.526 1.526 0 1 0 .407-1.035.3.3 0 0 1-.111.133 1.515 1.515 0 0 0-.296.902zM37.26 13.8a1.947 1.947 0 1 0-1.925-1.653.3.3 0 0 1 .121.44A1.95 1.95 0 0 0 37.26 13.8zM16.682 2.117A1.524 1.524 0 1 0 18.206.593a1.526 1.526 0 0 0-1.524 1.524zm.714 21.89a.3.3 0 0 1-.293-.247 3.573 3.573 0 0 1 .614-2.635 2.755 2.755 0 0 1 2.218-.886 2.753 2.753 0 0 1 2.218.886 3.575 3.575 0 0 1 .615 2.635.3.3 0 0 1-.293.247zm.777-2.5a2.8 2.8 0 0 0-.509 1.909h4.544a2.792 2.792 0 0 0-.509-1.909 2.195 2.195 0 0 0-1.763-.673 2.192 2.192 0 0 0-1.763.671zm-.005-3.51a1.905 1.905 0 1 1 1.9 1.905 1.905 1.905 0 0 1-1.9-1.907zm.592 0a1.313 1.313 0 1 0 1.312-1.312 1.314 1.314 0 0 0-1.312 1.31z" transform="translate(4.233 1.695)" style="fill:#414457"/>
        </g>
    </g>
</svg>
