<svg xmlns="http://www.w3.org/2000/svg" width="48" height="48" viewBox="0 0 48 48">
    <defs>
        <clipPath id="ybfrp198ga">
            <path data-name="Path 14029" d="M0 0h48v48H0z" transform="translate(2478 2986)" style="stroke:transparent;fill:#414457"/>
        </clipPath>
    </defs>
    <g data-name="گواهی بازپرداخت خدمات درمانی" transform="translate(-2478 -2986)" style="clip-path:url(#ybfrp198ga)">
        <circle data-name="Ellipse 827" cx="6.634" cy="6.634" r="6.634" transform="translate(2509.286 3006.613)" style="fill:#dad8ff"/>
        <path data-name="Union 111" d="M11.728 38.872a.319.319 0 0 1-.079.08l-2.171 1.572a.437.437 0 0 1-.463.018 7.8 7.8 0 0 0-3.4-1 7.069 7.069 0 0 0-3.285.991.419.419 0 0 1-.23.067.438.438 0 0 1-.211-.053 8.351 8.351 0 0 0-3.454-1 7.466 7.466 0 0 0-3.312.994.44.44 0 0 1-.386.027.3.3 0 0 1-.2-.267V.3a.3.3 0 0 1 .2-.265.442.442 0 0 1 .38.016A8.277 8.277 0 0 0-1.5.991a8.283 8.283 0 0 0 3.4-.94.437.437 0 0 1 .429.01 7 7 0 0 0 3.222.93A8.145 8.145 0 0 0 8.959.052a.439.439 0 0 1 .422 0 7.547 7.547 0 0 0 3.209.939 9.839 9.839 0 0 0 3.54-.948.438.438 0 0 1 .393.006 8.606 8.606 0 0 0 3.44.941 7.927 7.927 0 0 0 3.344-.937.44.44 0 0 1 .382-.019.3.3 0 0 1 .2.267l-.131 21.749a.277.277 0 0 1-.108.21 10.716 10.716 0 1 1-11.922 16.612zm1.42-13.581a10.113 10.113 0 1 0 7.152-2.963 10.047 10.047 0 0 0-7.152 2.963zM2.092 39.937a7.722 7.722 0 0 1 3.521-.991 8.342 8.342 0 0 1 3.589.976L11.16 38.5a.421.421 0 0 1 .253-.076 10.72 10.72 0 0 1 11.605-16.348.247.247 0 0 1 0-.027L23.145.833a8.206 8.206 0 0 1-3.182.758 9.115 9.115 0 0 1-3.65-.941 10.185 10.185 0 0 1-3.722.941A8.1 8.1 0 0 1 9.163.658a8.754 8.754 0 0 1-3.616.932A7.686 7.686 0 0 1 2.091.66a8.8 8.8 0 0 1-3.591.93A8.457 8.457 0 0 1-4.727.826v38.923a7.7 7.7 0 0 1 3.163-.8 8.835 8.835 0 0 1 3.656.988zm16.87-2.105a.3.3 0 0 1-.3-.3v-2.861H15.8a.3.3 0 0 1-.3-.3v-2.893a.3.3 0 0 1 .3-.3h2.646v-3.129a.3.3 0 0 1 .3-.3h3.214a.3.3 0 0 1 .3.3v3.128h2.861a.3.3 0 0 1 .3.3v2.893a.3.3 0 0 1-.3.3h-2.86v2.861a.3.3 0 0 1-.3.3zM16.1 34.071h2.861a.3.3 0 0 1 .3.3v2.861h2.4v-2.861a.3.3 0 0 1 .3-.3h2.861v-2.293h-2.861a.3.3 0 0 1-.3-.3V28.35h-2.614v3.128a.3.3 0 0 1-.3.3H16.1zM1.16 37.424V35.39h-.022c-.09.007-.179.012-.263.012a1.7 1.7 0 0 1-1.253-.458 1.918 1.918 0 0 1-.471-1.409.3.3 0 0 1 .328-.27.3.3 0 0 1 .27.327 1.312 1.312 0 0 0 .3.931 1.251 1.251 0 0 0 1.035.27 1.915 1.915 0 0 0 1.394-.561.769.769 0 0 0 .133-.6.628.628 0 0 0-.06-.2 1.528 1.528 0 0 0-.238-.158c-.047-.029-.1-.058-.156-.1A4.031 4.031 0 0 0 .948 32.8H.917a5.949 5.949 0 0 1-1.355-.53 1.387 1.387 0 0 1-.544-1.237 1.5 1.5 0 0 1 .476-.983 2.364 2.364 0 0 1 1.667-.56v-1.816a.3.3 0 1 1 .6 0v1.849a1.517 1.517 0 0 1 1.188.622 1.132 1.132 0 0 1 .011 1.04.3.3 0 0 1-.536-.27.551.551 0 0 0 .006-.467c-.13-.216-.525-.343-1.112-.357a1.922 1.922 0 0 0-1.412.392.943.943 0 0 0-.289.571v.023s-.037.5.26.68a5.352 5.352 0 0 0 1.178.456 4.558 4.558 0 0 1 1.421.455l.149.09c.372.224.482.309.574.745a1.372 1.372 0 0 1-.237 1.085 2.009 2.009 0 0 1-1.215.708.3.3 0 0 1 .013.089v2.037a.3.3 0 1 1-.6 0zm2.3-12.837c-.678-.018-1.446-.025-1.594-.01a.311.311 0 0 1-.076.01.3.3 0 0 1-.127-.572c.07-.033.15-.071 1.812-.029a.3.3 0 0 1-.009.6zm9.208 0c-2.519-.016-6.374-.03-6.67 0h-.051a.349.349 0 0 1-.36-.257.316.316 0 0 1 .311-.339c.356-.042 5.706-.01 6.775 0a.306.306 0 1 1 0 .6zM0 24.586c-.266-.014-.593-.023-.694-.014A.3.3 0 0 1-1 24.5a.3.3 0 0 1 0-.428c.09-.088.136-.132 1.029-.085a.3.3 0 0 1 .284.315.3.3 0 0 1-.3.284zm18.316-5.142c-3.9-.014-11.394-.032-11.872 0h-.02a.3.3 0 0 1-.02-.6c.618-.041 11.452 0 11.914 0a.3.3 0 0 1 0 .6zm-16.8-.173a.3.3 0 0 1 .145-.4 6.3 6.3 0 0 1 1.812-.028.3.3 0 0 1-.015.6c-.678-.017-1.446-.025-1.594-.009a.311.311 0 0 1-.076.01.3.3 0 0 1-.274-.172zM0 19.444c-.266-.014-.593-.022-.694-.014A.3.3 0 0 1-1 19.354a.3.3 0 0 1 0-.424c.09-.088.136-.133 1.029-.086a.3.3 0 0 1 .284.316.3.3 0 0 1-.3.284zm-.883-6h-.012a.312.312 0 0 1-.319-.287.309.309 0 0 1 .305-.313c.989-.041 18.465 0 19.21 0a.3.3 0 1 1 0 .6c-.184-.001-18.207-.044-19.182-.001zm0-5.143h-.012a.312.312 0 0 1-.319-.287.309.309 0 0 1 .305-.314c.989-.041 18.465 0 19.21 0a.3.3 0 1 1 0 .6c-.184 0-18.207-.039-19.182 0z" transform="translate(2486.714 2988.571)" style="fill:#414457"/>
    </g>
</svg>
