<svg xmlns="http://www.w3.org/2000/svg" width="48" height="48" viewBox="0 0 48 48">
    <defs>
        <clipPath id="wfvy8m3ova">
            <path data-name="Rectangle 3153" transform="translate(1400 614)" style="fill:#fff;stroke:#707070" d="M0 0h48v48H0z"/>
        </clipPath>
    </defs>
    <g data-name="اعلام کد مجوز استعلام اشتغال به تحصیل" transform="translate(-1400 -614)" style="clip-path:url(#wfvy8m3ova)">
        <g data-name="insurance (1)" transform="translate(1404.757 619.62)">
            <circle data-name="Ellipse 830" cx="6.634" cy="6.634" r="6.634" transform="translate(26.1 8.095)" style="fill:#dad8ff"/>
            <path data-name="Union 94" d="M20.649 36.823H2.856a3.34 3.34 0 0 1-2.294-1.281 5.863 5.863 0 0 1-.548-3.031V7.033a7.167 7.167 0 0 1 .543-3.38A2.538 2.538 0 0 1 2.42 2.54 4.885 4.885 0 0 1 3.542.729 3.386 3.386 0 0 1 5.9.008h13.7a.3.3 0 0 1 .217.092l6.715 7.071a.3.3 0 0 1 .082.207v2.536a23.1 23.1 0 0 1 4.022 1.521q.816.352 1.687.724c2.586 1.089 6.134 2.7 6.169 2.72a.3.3 0 0 1 0 .543l-1.341.63a.3.3 0 0 1 .02.107V22.7a2.145 2.145 0 1 1-.6-.016v-6.36l-1.99.935-.016.008-.455.181V23.2a.3.3 0 0 1-.365.292 5.562 5.562 0 0 0-3.9.976 12.892 12.892 0 0 0-3.24 3.06v4a3.215 3.215 0 0 1-.727 1.913 3.363 3.363 0 0 1-1.548.791 3.784 3.784 0 0 1-1.127 2.1 3.239 3.239 0 0 1-1.927.531 4.733 4.733 0 0 1-.627-.04zM1.071 3.965A6.784 6.784 0 0 0 .613 7V32.542a5.423 5.423 0 0 0 .453 2.671 2.741 2.741 0 0 0 1.834 1.01h17.818a3.342 3.342 0 0 0 2.127-.37 2.954 2.954 0 0 0 .854-1.534H5.9a5.711 5.711 0 0 1-.607.03 3.723 3.723 0 0 1-2.087-.517 3.339 3.339 0 0 1-1.051-2.3.043.043 0 0 1 0-.015V3.38a.294.294 0 0 1 .01-.075c0-.009.012-.047.03-.106a1.806 1.806 0 0 0-1.124.766zm1.687-.545v28.1a2.767 2.767 0 0 0 .805 1.836 4.033 4.033 0 0 0 2.288.374.211.211 0 0 1 .035 0h17.978a3.224 3.224 0 0 0 1.593-.695 2.591 2.591 0 0 0 .558-1.51v-3.96a20.574 20.574 0 0 0-3.915-3.082 8.1 8.1 0 0 0-3.6-.981.3.3 0 0 1-.306-.3v-5.77c-2.436-1.061-4.513-2-4.538-2.009a.3.3 0 0 1-.177-.273.3.3 0 0 1 .177-.272c.027-.013 2.747-1.247 5.633-2.47 4.781-2.026 6.214-2.422 6.727-2.5V7.645h-4.3a3.239 3.239 0 0 1-1.837-.76 2.886 2.886 0 0 1-.58-1.838V.609H5.857a2.824 2.824 0 0 0-1.915.567 4.764 4.764 0 0 0-1.064 1.86v.074h-.024c-.054.146-.082.256-.096.31zm16.035 19.49a8.814 8.814 0 0 1 3.592 1.046 20.278 20.278 0 0 1 3.89 3.019 13.575 13.575 0 0 1 3.249-3.005 6.329 6.329 0 0 1 3.989-1.111v-5.172l-7.143 2.847-.021.008a.5.5 0 0 1-.143.021c-.206 0-.749 0-6.746-2.58l-.668-.289zm16.478 1.9a1.543 1.543 0 1 0 1.543-1.543 1.544 1.544 0 0 0-1.543 1.542zm-9-14.325c-1.217.035-8.4 3.157-11.76 4.665.993.445 3.066 1.368 5.189 2.282 5.159 2.219 6.259 2.516 6.489 2.53l8.15-3.249 3.313-1.556a269.307 269.307 0 0 0-5.561-2.446q-.877-.371-1.691-.725a17.921 17.921 0 0 0-4.109-1.5.069.069 0 0 0-.021-.002zM19.9 5.059a2.332 2.332 0 0 0 .419 1.414 2.578 2.578 0 0 0 1.436.57h3.826L19.9 1.061zm-3.844 21.689a.3.3 0 1 1 0-.6h2.812a.3.3 0 0 1 0 .6zm-9.827 0a.3.3 0 0 1 0-.6H14.9a.3.3 0 0 1 0 .6zm3.635-5.394a.3.3 0 1 1 0-.6h6.486a.3.3 0 1 1 0 .6zm-3.635 0a.3.3 0 1 1 0-.6H8.85a.3.3 0 1 1 0 .6zm0-5.4a.3.3 0 0 1 0-.6h5.942a.3.3 0 1 1 0 .6zm3.826-5.394a.3.3 0 1 1 0-.6h8.759a.3.3 0 0 1 0 .6zm-3.826 0a.3.3 0 0 1 0-.6h2.836a.3.3 0 0 1 0 .6z" style="fill:#414457"/>
        </g>
    </g>
</svg>
