<svg xmlns="http://www.w3.org/2000/svg" width="47" height="47" viewBox="0 0 47 47">
    <defs>
        <clipPath id="tyx9uiz28a">
            <path data-name="Rectangle 3153" transform="translate(.108 .012)" style="stroke:#707070;fill:#414457" d="M0 0h47v47H0z"/>
        </clipPath>
        <clipPath id="d79tlmlj9b">
            <path data-name="Rectangle 2658" style="fill:#414457" d="M0 0h46.947v46.947H0z"/>
        </clipPath>
    </defs>
    <g style="clip-path:url(#tyx9uiz28a)" data-name="Group 2304">
        <g transform="translate(.129 .225)" style="clip-path:url(#d79tlmlj9b)" data-name="استعلام اطلاعات هویتی و شماره تامین اجتماعی">
            <circle data-name="Ellipse 827" cx="6.554" cy="6.554" r="6.554" transform="translate(23.756 1.357)" style="fill:#dad8ff"/>
            <path data-name="Union 112" d="M.213 39.406A.3.3 0 0 1 0 39.123v-6.77c0-.228-.106-3.953 1.534-6.073a9.57 9.57 0 0 1 4.678-2.927h.007a8.18 8.18 0 0 0 3.87-2.126 9.794 9.794 0 0 0 1.663-3.888.3.3 0 0 1 .027-.082 7.614 7.614 0 0 1-3.254-6.247V7.62a7.621 7.621 0 0 1 15.241 0v3.386a7.62 7.62 0 0 1-3.49 6.407 9.6 9.6 0 0 0 1.665 3.81 8.159 8.159 0 0 0 3.87 2.126h.007a9.591 9.591 0 0 1 4.678 2.927c1.64 2.116 1.536 5.845 1.529 6.072v6.77a.3.3 0 0 1-.2.282c-.018 0-1.945.634-4.792 1.254a52.073 52.073 0 0 1-10.646 1.256.312.312 0 0 1-.052 0 .292.292 0 0 1-.12.025A63.812 63.812 0 0 1 .213 39.406zM10.547 21.6a8.592 8.592 0 0 1-4.191 2.327A9.12 9.12 0 0 0 2 26.643C.477 28.611.594 32.3.6 32.336V38.9a62.618 62.618 0 0 0 15.618 2.437.316.316 0 0 1 .053 0 .309.309 0 0 1 .12-.025 56.217 56.217 0 0 0 15.04-2.412v-6.564c0-.037.117-3.727-1.405-5.693a9.106 9.106 0 0 0-4.354-2.716A8.592 8.592 0 0 1 21.48 21.6a9.92 9.92 0 0 1-1.747-3.867 7.627 7.627 0 0 1-7.427-.141 10.059 10.059 0 0 1-1.759 4.008zM9.116 7.62v3.386a7.028 7.028 0 1 0 14.057 0V7.62a7.028 7.028 0 0 0-14.057 0z" transform="translate(7.329 2.304)" style="fill:#414457"/>
        </g>
    </g>
</svg>
