<svg xmlns="http://www.w3.org/2000/svg" data-name="Layer 1" viewBox="0 0 512 512"><path fill="#d4e1f4" d="M38.77,214.93V431.68a48.263,48.263,0,0,0,48.27,48.28h30a47.956,47.956,0,0,1-22.42-5.52,48.317,48.317,0,0,1-25.85-42.76V214.93A32.589,32.589,0,0,1,81.8,188.86l63.572-47.681.078-22.559L51.8,188.86A32.589,32.589,0,0,0,38.77,214.93Z"></path><path fill="#0635c9" d="M463.8,184.06l-57.836-43.379-.31-.23-7.148,9.638L456.6,193.66a26.713,26.713,0,0,1,10.63,21.27v17.875L256,361.9l-69.929-42.741a6,6,0,0,0-6.259,10.239l21.168,12.938L63.866,467.016a42.149,42.149,0,0,1-19.1-35.336V246.868l109.615,66.986a6,6,0,0,0,6.259-10.239L44.77,232.805V214.93A26.713,26.713,0,0,1,55.4,193.66l93.65-70.24-3.379-4.5-3.568-5.274c-.086.057-.17.117-.253.179L48.2,184.06a38.769,38.769,0,0,0-15.43,30.87V431.68a54.264,54.264,0,0,0,54.27,54.28H424.96a54.249,54.249,0,0,0,54.27-54.28V214.93A38.769,38.769,0,0,0,463.8,184.06ZM87.04,473.96a42.374,42.374,0,0,1-11.271-1.548l135.88-123.557,41.222,25.195a6,6,0,0,0,6.258,0l41.226-25.195,135.9,123.571a42.209,42.209,0,0,1-11.3,1.534Zm361.1-6.947L311.02,342.337l156.21-95.468V431.68A42.176,42.176,0,0,1,448.142,467.013Z"></path><path fill="#0635c9" d="M77.61,290.8a6,6,0,0,0-12,0v6.84a6,6,0,0,0,12,0Z"></path><path fill="#0635c9" d="M71.61,312.27a6,6,0,0,0-6,6v71.69a6,6,0,0,0,12,0V318.27A6,6,0,0,0,71.61,312.27Z"></path><path fill="#1ae5be" d="M395.83,26.74h-.141l-214.811-.69A41.06,41.06,0,0,0,139.63,66.939l-.81,223.81,12,7.042.81-230.806a29.06,29.06,0,0,1,29.062-28.936h.139l185.922.6A41.1,41.1,0,0,0,354.45,67.8l-.79,234.67,12-6.96.51-144.01h64.45a6,6,0,0,0,6-5.978l.29-77.4v-.15A41.329,41.329,0,0,0,395.83,26.74ZM424.643,139.5H366.21l.24-71.656a29.292,29.292,0,0,1,29.22-29.1h.132A29.3,29.3,0,0,1,424.91,67.97Z"></path><path fill="#1ae5be" d="M314.96,98.04h-.371a152.738,152.738,0,0,0-8.8-33.415,6,6,0,0,0-7.578-3.487l-77.4,27.152H200.96a31.938,31.938,0,0,0-10.87,61.97V191.2a6,6,0,0,0,8.257,5.56l23.87-9.691a6,6,0,0,0,3.743-5.559V153.976l72.254,25.336a6,6,0,0,0,7.578-3.487,152.673,152.673,0,0,0,8.8-33.4h.371a22.19,22.19,0,1,0,0-44.38ZM181.02,120.23a19.948,19.948,0,0,1,19.94-19.94h14.87v39.88H200.96a19.957,19.957,0,0,1-19.94-19.94Zm21.07,62.059V152.17h11.87v25.3Zm25.74-83.745L277.9,80.981a142.6,142.6,0,0,1,0,78.49L227.83,141.916Zm75.517,37.211,0,.015a140.486,140.486,0,0,1-6.746,30.258l-7.36-2.58a154.67,154.67,0,0,0,0-86.445l7.359-2.582a141.252,141.252,0,0,1,6.749,61.334Zm18.821-8.318a10.107,10.107,0,0,1-6.312,2.939c.226-3.381.354-6.774.354-10.146s-.128-6.766-.354-10.144a10.188,10.188,0,0,1,6.312,17.351Z"></path><path fill="#1ae5be" d="M313.86,253.76H293.34a6,6,0,1,0,0,12h20.52a6,6,0,0,0,0-12Z"></path><path fill="#1ae5be" d="M182.5,265.76h91.09a6,6,0,0,0,0-12H182.5a6,6,0,0,0,0,12Z"></path><path fill="#1ae5be" d="M312.77,233.35a6,6,0,0,0,0-12H214.82a6,6,0,0,0,0,12Z"></path><path fill="#1ae5be" d="M182.5,233.35h12.57a6,6,0,0,0,0-12H182.5a6,6,0,0,0,0,12Z"></path><path fill="#1ae5be" d="M312.77,286.52H214.82a6,6,0,0,0,0,12h97.95a6,6,0,0,0,0-12Z"></path><path fill="#1ae5be" d="M195.07,286.52H182.5a6,6,0,0,0,0,12h12.57a6,6,0,0,0,0-12Z"></path></svg>