<svg id="Layer_1" height="512" viewBox="0 0 512 512" width="512" xmlns="http://www.w3.org/2000/svg" data-name="Layer 1"><path d="m119.08 472.53c-35.459-25.953-53.439-58.752-53.439-97.485v-78.475a558.41 558.41 0 0 0 100.038-56.638q-11.322-7.525-22.274-15.584a558.341 558.341 0 0 1 -107.764 62.222v78.475c0 38.733 17.98 71.532 53.439 97.485a199.946 199.946 0 0 0 52.38 27.186c.89-.284 2.127-.692 3.643-1.221a194.252 194.252 0 0 1 -26.023-15.965z" fill="#d4e1f4"/><g fill="#0635c9"><path d="m463.5 32.634h-126.213a39.945 39.945 0 0 0 -72 0h-126.209a24.888 24.888 0 0 0 -24.861 24.866v177.536h12v-177.536a12.875 12.875 0 0 1 12.861-12.861h122.622a40.031 40.031 0 0 0 -.364 5.317v10.97h-56.242a6 6 0 0 0 -6 6v17.653h-25.7a15.45 15.45 0 0 0 -15.431 15.432v132.905h12v-132.9a3.435 3.435 0 0 1 3.431-3.432h25.7v15.615a6 6 0 0 0 6 6h192.387a6 6 0 0 0 6-6v-15.62h25.7a3.435 3.435 0 0 1 3.431 3.432v256.527h-30.132a24.889 24.889 0 0 0 -24.862 24.862v29.333h-134.332v12h136.681a17.485 17.485 0 0 0 2.273-.165 5.952 5.952 0 0 0 5.86-1.855 17.372 17.372 0 0 0 4.112-3.053l47.331-47.33a17.208 17.208 0 0 0 5.072-12.245v-258.074a15.45 15.45 0 0 0 -15.431-15.432h-25.7v-17.653a6 6 0 0 0 -6-6h-56.245v-10.975a40.031 40.031 0 0 0 -.365-5.317h122.626a12.875 12.875 0 0 1 12.858 12.866v392.316a12.876 12.876 0 0 1 -12.858 12.862h-266.7v12h266.7a24.889 24.889 0 0 0 24.861-24.862v-392.316a24.888 24.888 0 0 0 -24.861-24.866zm-73.882 370.649v-21.883a12.877 12.877 0 0 1 12.862-12.861h21.884zm1.863-330.357v33.268h-180.387v-33.268h56.243a6 6 0 0 0 6-6v-16.975a27.951 27.951 0 1 1 55.9 0v16.975a6 6 0 0 0 6 6z"/><path d="m397.481 177.777a6 6 0 0 0 0-12h-7.089a6 6 0 0 0 0 12z"/><path d="m368.309 165.777h-93.942a6 6 0 0 0 0 12h93.942a6 6 0 0 0 0-12z"/><path d="m205.094 177.777h36.747a6 6 0 0 0 0-12h-36.747a6 6 0 0 0 0 12z"/><path d="m371.613 222.628a6 6 0 0 0 6 6h19.868a6 6 0 0 0 0-12h-19.868a6 6 0 0 0 -6 6z"/><path d="m356.1 228.628a6 6 0 0 0 0-12h-27.078a6 6 0 0 0 0 12z"/><path d="m205.094 228.628h100.022a6 6 0 0 0 0-12h-100.022a6 6 0 0 0 0 12z"/><path d="m397.481 270.647h-42.224a6 6 0 0 0 0 12h42.224a6 6 0 0 0 0-12z"/><path d="m273.743 276.647a6 6 0 0 0 6 6h54a6 6 0 0 0 0-12h-54a6 6 0 0 0 -6 6z"/><path d="m278.361 332.575h119.12a6 6 0 0 0 0-12h-119.12a6 6 0 0 0 0 12z"/></g><path d="m263.167 365.045v-82.416a6 6 0 0 0 -3.63-5.513l-.746-.32a546.24 546.24 0 0 1 -111.791-64.726 6 6 0 0 0 -7.2 0 546.214 546.214 0 0 1 -111.78 64.73l-.748.321a6 6 0 0 0 -3.631 5.513v82.416c0 42.17 20.178 79.228 58.352 107.169a206.206 206.206 0 0 0 57.755 29.545 6 6 0 0 0 3.314.015 216.408 216.408 0 0 0 59.7-29.5c39.518-27.945 60.405-65.023 60.405-107.234zm-121.707 124.671a199.946 199.946 0 0 1 -52.38-27.186c-35.459-25.953-53.439-58.752-53.439-97.485v-78.475a558.341 558.341 0 0 0 107.764-62.222 558.318 558.318 0 0 0 107.762 62.222v78.475c0 38.589-18.522 71.3-55.054 97.231a211.009 211.009 0 0 1 -54.653 27.44z" fill="#1ae5be"/><path d="m188.61 322.484-60.061 55.016-29.992-32.524a6 6 0 1 0 -8.821 8.134l34.045 36.918a6 6 0 0 0 8.464.358l64.47-59.052a6 6 0 0 0 -8.1-8.85z" fill="#1ae5be"/></svg>