<svg height="406pt" viewBox="-32 0 406 406" width="406pt" xmlns="http://www.w3.org/2000/svg"><path d="m32 380v-354c.007812-7.730469 6.269531-13.992188 14-14h-20c-7.730469.007812-13.992188 6.269531-14 14v354c.007812 7.730469 6.269531 13.992188 14 14h20c-7.730469-.007812-13.992188-6.269531-14-14zm0 0" fill="#d4e1f4"/><g fill="#0635c9"><path d="m105.320312 256.636719c1.679688-1.695313 3.972657-2.644531 6.359376-2.636719h114.320312c3.3125 0 6-2.6875 6-6v-222c-.015625-14.351562-11.648438-25.984375-26-26h-180c-14.351562.015625-25.984375 11.648438-26 26v354c.015625 14.351562 11.648438 25.984375 26 26h180c14.351562-.015625 25.984375-11.648438 26-26v-102c0-3.3125-2.6875-6-6-6h-114.320312c-3.636719 0-6.917969-2.191406-8.308594-5.554688-1.394532-3.359374-.628906-7.226562 1.941406-9.800781zm6.359376 27.363281h108.320312v96c-.007812 7.730469-6.269531 13.992188-14 14h-180c-7.730469-.007812-13.992188-6.269531-14-14v-354c.007812-7.730469 6.269531-13.992188 14-14h180c7.730469.007812 13.992188 6.269531 14 14v216h-108.320312c-11.597657 0-21 9.402344-21 21s9.402343 21 21 21zm0 0"/><path d="m46 73.90625h138.390625c3.3125 0 6-2.683594 6-6 0-3.3125-2.6875-6-6-6h-138.390625c-3.3125 0-6 2.6875-6 6 0 3.316406 2.6875 6 6 6zm0 0"/><path d="m46 113.90625h138.390625c3.3125 0 6-2.683594 6-6 0-3.3125-2.6875-6-6-6h-138.390625c-3.3125 0-6 2.6875-6 6 0 3.316406 2.6875 6 6 6zm0 0"/><path d="m190.390625 147.90625c0-3.3125-2.6875-6-6-6h-138.390625c-3.3125 0-6 2.6875-6 6 0 3.316406 2.6875 6 6 6h138.390625c3.3125 0 6-2.683594 6-6zm0 0"/></g><path d="m321.679688 284c11.597656 0 21-9.402344 21-21s-9.402344-21-21-21h-132.640626c-10.464843-36.402344-46.136718-59.542969-83.644531-54.257812-37.503906 5.285156-65.394531 37.382812-65.394531 75.257812s27.890625 69.972656 65.394531 75.257812c37.507813 5.285157 73.179688-17.855468 83.644531-54.257812zm9-21c-.003907 4.96875-4.03125 8.996094-9 9h-210c-3.640626 0-6.921876-2.195312-8.3125-5.558594-1.390626-3.363281-.621094-7.234375 1.953124-9.804687 1.25-1.257813 2.847657-2.117188 4.585938-2.464844.585938-.113281 1.179688-.171875 1.773438-.171875h210c4.96875.003906 8.996093 4.03125 9 9zm-219 21h43.011718c-9.605468 17.6875-29.988281 26.601562-49.5 21.644531-19.507812-4.953125-33.164062-22.515625-33.164062-42.644531s13.65625-37.691406 33.164062-42.644531c19.511719-4.957031 39.894532 3.957031 49.5 21.644531h-43.011718c-11.597657 0-21 9.402344-21 21s9.402343 21 21 21zm4.320312 43c-32.589844-.007812-59.96875-24.503906-63.589844-56.894531-3.617187-32.386719 17.679688-62.324219 49.464844-69.523438 31.785156-7.203125 63.902344 10.632813 74.597656 41.417969h-8.550781c-10.050781-24.847656-36.300781-39.089844-62.609375-33.96875-26.3125 5.121094-45.304688 28.164062-45.304688 54.96875s18.992188 49.847656 45.304688 54.96875c26.308594 5.121094 52.558594-9.121094 62.609375-33.96875h8.550781c-9.050781 25.667969-33.257812 42.878906-60.472656 43zm0 0" fill="#1ae5be"/></svg>