<svg xmlns="http://www.w3.org/2000/svg" width="556.55" height="488.385" viewBox="0 0 556.55 488.385">
    <g data-name="تکمیل اطلاعات کارفرمایی">
        <path data-name="Path 14579" d="m-18884.123 15 72.6 163.065-16.814 16.326 20.672 13.237 20.555-9.152-3.89 18.024-44.334-27.833-72-163.333z" transform="rotate(24 -9849.308 44825.642)" style="fill:#d4e1f4"/>
        <path data-name="Path 14572" d="M435.385 316.687s-14.521 8.838-19.332 29.333c-2.339 9.962 0 29.5 0 40v53.333h-23.334l-3.334-72 3.334-24.667 12-20z" transform="translate(-57.473 41.98)" style="fill:#d4e1f4"/>
        <path data-name="Path 14571" d="M486.053 174.687s-15.167 25.833-14 53.333 18.666 56.667 18.666 56.667l-30-21.333s-4-48.667-4-50.667 7.334-25.333 7.334-25.333z" transform="translate(-57.473 41.98)" style="fill:#d4e1f4"/>
        <g data-name="Group 2106">
            <path data-name="Path 8104" d="M390.392 177.777a6 6 0 0 1 0-12h7.089a6 6 0 0 1 0 12z" transform="translate(-192.424 -8.02)" style="fill:#1541cb"/>
            <path data-name="Path 8105" d="M274.367 165.777h93.942a6 6 0 0 1 0 12h-93.942a6 6 0 0 1 0-12z" transform="translate(-47.227 -8.02)" style="fill:#1541cb"/>
            <path data-name="Path 8106" d="M241.841 177.777h-36.747a6 6 0 0 1 0-12h36.747a6 6 0 0 1 0 12z" transform="translate(141.513 -8.02)" style="fill:#1541cb"/>
            <path data-name="Path 14580" d="M241.841 177.777h-36.747a6 6 0 0 1 0-12h36.747a6 6 0 0 1 0 12z" transform="translate(-7.127 196.706)" style="fill:#1541cb"/>
            <path data-name="Path 8107" d="M403.481 222.628a6 6 0 0 1-6 6h-19.868a6 6 0 0 1 0-12h19.868a6 6 0 0 1 6 6z" transform="translate(-179.645 -8.02)" style="fill:#1541cb"/>
            <path data-name="Path 8108" d="M329.022 228.628a6 6 0 0 1 0-12H356.1a6 6 0 0 1 0 12z" transform="translate(-89.674 -8.02)" style="fill:#1541cb"/>
            <path data-name="Path 8110" d="M355.257 270.647h42.224a6 6 0 1 1 0 12h-42.224a6 6 0 0 1 0-12z" transform="translate(-157.289 -8.02)" style="fill:#1541cb"/>
            <path data-name="Path 8111" d="M339.743 276.647a6 6 0 0 1-6 6h-54a6 6 0 0 1 0-12h54a6 6 0 0 1 6 6z" transform="translate(-18.037 -8.02)" style="fill:#1541cb"/>
            <path data-name="Path 8112" d="M397.481 332.575h-119.12a6 6 0 0 1 0-12h119.12a6 6 0 0 1 0 12z" transform="translate(-80.393 -8.02)" style="fill:#1541cb"/>
            <path data-name="Path 14568" d="m60.773 38.437-36.334-5.69L3.105 62.621l-4.644 173.211h31.5s-.52-120.574.812-155.428 30-41.967 30-41.967z" transform="translate(140.784 -6.746)" style="fill:#d4e1f4"/>
            <path data-name="Path 14569" d="M209.482-4.863a41.527 41.527 0 0 0-77.641 0c-22.05.12-44.1-.018-66.15.065a40.021 40.021 0 0 0-39.677 40.055C25.977 65.747 26 157.229 26 187.719c4.5 1.806 8.839-.511 12.9 2.143.055-33.006-.086-122.456.034-155.453.072-13.527 11.719-25.68 25.246-26.243 12.135-.24 24.28.028 36.415-.129.4 8.357-.7 16.991 2.285 25.017 5.132 15.692 20.806 27.109 37.337 27.072q30.435.111 60.861.009c16.282-.037 31.808-11.011 37.143-26.409 3.151-8.155 2.313-17.019 2.359-25.561 6.791-.249 13.582.313 20.382-.1 6.192.221 12.439-.424 18.595.461a27.624 27.624 0 0 1 19.028 13.149c2.774 4.616 3.75 10.071 3.852 15.4-.028 92.78.009 56.56-.018 149.34.175 10.652 12.974 10.458 12.9.94.018-93.379 0-57.767.009-151.146a40.072 40.072 0 0 0-39.714-41c-22.05-.083-44.091.055-66.132-.065M197.42.38c.737 1.953.875 4.257 2.46 5.777a7.444 7.444 0 0 0 5.777 2.211q10.974.014 21.967-.009c.138 9.62.829 20.373-5.741 28.279-.028.037-.083.1-.111.138a27.8 27.8 0 0 1-14.2 9.472 56.289 56.289 0 0 1-12.928 1.032c-6.653-.166-42.313-.184-53.462-.018a27.347 27.347 0 0 1-25.257-16.19c-3.336-7.224-2.138-15.342-2.258-23.036q11.43.1 22.861.018a6.335 6.335 0 0 0 6.343-4.954c1.972-8.293 7.786-15.923 15.858-19.019 5.114-2.543 10.993-2.884 16.577-2.239C185.3-16.63 194.333-9.323 197.42.38z" transform="translate(108.327 31.638)" style="fill:#1541cb"/>
            <path data-name="Path 14574" d="M329.022 228.628a6 6 0 0 1 0-12H356.1a6 6 0 0 1 0 12z" transform="translate(-41.673 -8.02)" style="fill:#1541cb"/>
            <path data-name="Path 14575" d="M390.392 177.777a6 6 0 0 1 0-12h7.089a6 6 0 0 1 0 12z" transform="translate(-54.423 41.98)" style="fill:#1541cb"/>
            <path data-name="Path 14576" d="M390.392 177.777a6 6 0 0 1 0-12h7.089a6 6 0 0 1 0 12z" transform="translate(-53.423 96.98)" style="fill:#1541cb"/>
        </g>
        <path data-name="Path 14563" d="M145.284 191.534c1.412 1.363 2.776 3.114 4.866 3.381a5.9 5.9 0 0 0 5.382-1.977q18.747-18.736 37.479-37.495a5.755 5.755 0 0 0 .137-8.512c-29.3-29.345-93.99-93.989-123.294-123.319-1.783-1.726-3.405-3.889-5.939-4.51C45.05 12.865 26.242 6.482 7.362.318A5.622 5.622 0 0 0 .051 6.192c.815 3.76 2.364 7.318 3.478 10.989Q5.393 22.736 7.2 28.308c4.091 12 8.02 24.061 12.062 36.075.718 2.3 2.719 3.784 4.325 5.446 9.077 9.045 53.477 53.477 62.547 62.53q4.115 4.127 8.23 8.238 25.44 25.488 50.92 50.937m-6.9-23.237c2.041-2.146 21.737-22.189 29.684-29.9l.468-.04c4.373 4.163 8.545 8.528 12.837 12.765-7.972 7.915-15.838 15.943-23.867 23.8a78.541 78.541 0 0 0-6.189 6.2c-4.462-4.123-8.666-8.512-12.934-12.821M33.1 62.873a70.512 70.512 0 0 0 6.108-6.213c7.867-8.036 15.879-15.935 23.834-23.891 20.639 20.656 76.65 76.65 97.29 97.306-7.988 7.979-28.143 27.982-30.249 29.991-20.494-20.655-76.65-76.384-96.983-97.193m-9.626-22.14c-2.735-8.633-5.994-17.121-8.391-25.859 2.889 1.009 5.769 2.058 8.746 2.783 9.577 3.2 19.171 6.334 28.732 9.586q-9.489 9.513-19.009 18.993a79.712 79.712 0 0 0-6.132 5.89c-1.582-3.695-2.59-7.608-3.946-11.393z" transform="rotate(-135 165.011 203.411)" style="fill:#1541cb"/>
        <path data-name="Path 14570" d="M347.387 425.02H192.719" transform="translate(-15.807 28.98)" style="fill:none;stroke:#1541cb;stroke-linecap:round;stroke-width:13px"/>
        <g data-name="Group 2517">
            <path d="M425.1 354.2h-18.3a7.019 7.019 0 0 1-7.048-7.049l-.294-16.739a48.885 48.885 0 0 0 17.131-37.1v-29.465a48.964 48.964 0 0 0-48.951-48.947h-.49a48.964 48.964 0 0 0-48.948 48.947v29.466a48.7 48.7 0 0 0 17.229 37.2l-.2 16.642a7.019 7.019 0 0 1-7.048 7.049h-18.5a56.568 56.568 0 0 0-56.481 56.483v79.392a5.891 5.891 0 0 0 5.874 5.874H475.81a5.891 5.891 0 0 0 5.874-5.874v-79.49A56.632 56.632 0 0 0 425.1 354.2zm-95.25-60.988v-29.463a37.183 37.183 0 0 1 37.2-37.2h.49a37.183 37.183 0 0 1 37.2 37.2v29.466a37.183 37.183 0 0 1-37.2 37.2h-.49a37.246 37.246 0 0 1-37.199-37.2zm25.75 80.569h23.788L367.5 487.559h.516zm-8.517-29.075v-6.755a48.4 48.4 0 0 0 19.97 4.307h.49a48.852 48.852 0 0 0 20.068-4.307v8.419l-8.223 15.761h-25.55zM469.838 484.2H264.85v-73.611a44.787 44.787 0 0 1 44.737-44.737h18.5c6.265 0 9.758-11.619 15.271-7.832v7.832l14.3 128.169 19.512.1 14.744-128.267v-7.344c3.178-2.214 8.517 7.244 14.391 7.44h18.8a44.787 44.787 0 0 1 44.737 44.737z" transform="translate(74.866 -7.566)" style="fill:#1ae5be"/>
            <path data-name="Path 7752" d="M391.062 446.9a6.187 6.187 0 0 1-5.481-3.307l-41-77.875a6.189 6.189 0 0 1 1.506-7.63l7.325-6.126L343.4 346.3a6.189 6.189 0 0 1-2.262-8.572L360.48 305.5a6.189 6.189 0 0 1 10.614 6.368l-16.072 26.787 12.263 6.931a6.189 6.189 0 0 1 .925 10.135l-10.348 8.655 38.672 73.452a6.191 6.191 0 0 1-5.471 9.073z" transform="translate(43.058 35.665)" style="fill:#1ae5be"/>
            <path data-name="Path 7753" d="M346.441 446.9a6.191 6.191 0 0 1-5.471-9.073l38.672-73.452-10.348-8.655a6.189 6.189 0 0 1 .925-10.135l12.263-6.931-16.072-26.789a6.189 6.189 0 0 1 10.614-6.368l19.34 32.233a6.189 6.189 0 0 1-2.264 8.57l-10.009 5.658 7.325 6.126a6.189 6.189 0 0 1 1.506 7.63l-41 77.875a6.188 6.188 0 0 1-5.481 3.311z" transform="translate(102.882 35.665)" style="fill:#1ae5be"/>
        </g>
    </g>
</svg>
