<svg id="Layer_1" viewBox="0 0 512 512" xmlns="http://www.w3.org/2000/svg" data-name="Layer 1"><g fill="#d4e1f4"><path d="m149.911 72.143v-16.043a34.162 34.162 0 0 1 24.1-32.6 34.1 34.1 0 0 0 -44.1 32.6v16.043a34.1 34.1 0 0 0 44.1 32.6 34.16 34.16 0 0 1 -24.1-32.6z"/><path d="m92.024 275.668c0-1.012-.212-101.176-.212-102.556a35.668 35.668 0 0 1 35.667-35.663h-20a35.668 35.668 0 0 0 -35.667 35.663c0 1.38.21 101.544.212 102.556a16.144 16.144 0 0 0 16.122 16.132h.25a15.512 15.512 0 0 0 9.657-3.57 16.1 16.1 0 0 1 -6.029-12.562z"/><path d="m142.326 484.35-5.932-200.75-.131-8.633a6 6 0 0 0 -6-5.909h-.047a6 6 0 0 0 -5.954 6 16.933 16.933 0 0 1 -7.7 14.247l5.764 195.045a6.428 6.428 0 0 0 6.4 5.65h20a6.428 6.428 0 0 1 -6.4-5.65z"/></g><path d="m164.013 10a46.154 46.154 0 0 0 -46.1 46.1v16.043a46.1 46.1 0 0 0 92.2 0v-16.043a46.153 46.153 0 0 0 -46.1-46.1zm34.1 62.143a34.1 34.1 0 0 1 -68.2 0v-16.043a34.1 34.1 0 1 1 68.2 0z" fill="#0635c9"/><path d="m228.157 125.692c-1.12-.113-13.47-.194-36.707-.242h-.012a6 6 0 0 0 -5.2 3.015l-20.688 36.056-19.588-35.943a6 6 0 0 0 -5.269-3.129h-33.215a47.666 47.666 0 0 0 -47.666 47.662c0 1.394.2 98.451.212 102.572a28.153 28.153 0 0 0 28.121 28.117h.32a27.522 27.522 0 0 0 16.354-5.639l5.52 186.786c0 .137.013.274.025.409a18.387 18.387 0 0 0 18.364 16.644h73.987a18.377 18.377 0 0 0 18.366-16.688c.013-.135.022-.271.025-.408l5.141-186.395a28.129 28.129 0 0 0 44.559-22.845v-98.056a47.665 47.665 0 0 0 -42.649-51.916zm30.679 51.017a5.822 5.822 0 0 0 -.03.6v98.35a16.142 16.142 0 0 1 -32.274.578l-.011-.676a6 6 0 0 0 -6-5.9h-.049a6 6 0 0 0 -5.952 6c0 .294 0 .588.014.879l.116 7.114-5.535 200.68a6.424 6.424 0 0 1 -6.4 5.663h-73.987a6.428 6.428 0 0 1 -6.4-5.65l-5.934-200.747-.131-8.633a6 6 0 0 0 -6-5.909h-.047a6 6 0 0 0 -5.954 6c0 9.128-7.149 16.636-15.868 16.736h-.25a16.144 16.144 0 0 1 -16.122-16.127c0-1.012-.212-101.176-.212-102.556a35.668 35.668 0 0 1 35.667-35.663h29.653l23.016 42.236a6 6 0 0 0 10.473.114l24.289-42.341c12.7.031 30.169.1 32.154.185a35.7 35.7 0 0 1 31.774 39.067z" fill="#0635c9"/><path d="m430.377 205.573a6 6 0 0 0 -6 6v13.341h-70.371v-70.371h70.371v4.419a6 6 0 0 0 12 0v-10.419a6 6 0 0 0 -6-6h-82.371a6 6 0 0 0 -6 6v82.371a6 6 0 0 0 6 6h82.371a6 6 0 0 0 6-6v-19.341a6 6 0 0 0 -6-6z" fill="#1ae5be"/><path d="m442.579 166.059-45.4 34.176-8.524-15.72a6 6 0 0 0 -10.549 5.72l11.843 21.842a6 6 0 0 0 8.883 1.934l50.968-38.365a6 6 0 1 0 -7.217-9.587z" fill="#0635c9"/><path d="m430.377 32.419a6 6 0 0 0 6-6v-10.419a6 6 0 0 0 -6-6h-82.371a6 6 0 0 0 -6 6v82.371a6 6 0 0 0 6 6h82.371a6 6 0 0 0 6-6v-19.341a6 6 0 0 0 -12 0v13.341h-70.371v-70.371h70.371v4.419a6 6 0 0 0 6 6z" fill="#1ae5be"/><path d="m442.579 33.516-45.4 34.176-8.524-15.72a6 6 0 0 0 -10.549 5.72l11.843 21.842a6 6 0 0 0 8.883 1.934l50.968-38.368a6 6 0 0 0 -7.217-9.588z" fill="#0635c9"/><path d="m430.377 275.086h-82.371a6 6 0 0 0 -6 6v82.371a6 6 0 0 0 6 6h82.371a6 6 0 0 0 6-6v-82.371a6 6 0 0 0 -6-6zm-6 82.371h-70.371v-70.371h70.371z" fill="#1ae5be"/><path d="m430.377 407.629h-82.371a6 6 0 0 0 -6 6v82.371a6 6 0 0 0 6 6h82.371a6 6 0 0 0 6-6v-82.371a6 6 0 0 0 -6-6zm-6 82.371h-70.371v-70.371h70.371z" fill="#1ae5be"/></svg>