<svg height="462pt" viewBox="-25 0 462 462.35" width="462pt" xmlns="http://www.w3.org/2000/svg"><path d="m41.675781 237.691406-30-25.402344v224.1875c0 6.351563 1.757813 14.53125 4.800781 19.625h25.199219zm0 0" fill="#d4e1f4"/><g fill="#0635c9"><path d="m356.898438 115.253906v-89.253906c-.015626-14.351562-11.648438-25.984375-26-26h-249.445313c-14.355469.015625-25.984375 11.648438-26 26v89.253906h12v-89.253906c.007813-7.730469 6.269531-13.992188 14-14h249.445313c7.726562.007812 13.992187 6.269531 14 14v89.253906zm0 0"/><path d="m385.5 196.542969h-28.601562v-33.023438h-12v84.355469l-138.722657 122.335938-138.722656-122.335938v-84.355469h-12v32.984375l-28.625.023438c-14.714844.03125-26.632813 11.957031-26.652344 26.671875v212.476562c.011719 14.726563 11.949219 26.660157 26.675781 26.675781h358.648438c14.726562-.015624 26.660156-11.949218 26.675781-26.675781v-212.457031c-.015625-14.726562-11.949219-26.660156-26.675781-26.675781zm-95.105469 115.398437 108.164063-95.386718c1.058594 2.058593 1.613281 4.34375 1.617187 6.664062v198.5zm66.5-103.398437h28.597657c1.183593.003906 2.355468.152343 3.5.4375l-32.097657 28.308593zm-343.113281 8 121.300781 106.972656-122.90625 99.988281v-200.300781c0-2.316406.554688-4.597656 1.609375-6.65625zm13.054688-8.019531 28.613281-.023438v28.785156l-32.113281-28.316406c1.144531-.289062 2.320312-.4375 3.503906-.441406zm358.664062 241.828124h-358.648438c-6.933593-.011718-12.914062-4.863281-14.359374-11.640624l131.71875-107.144532 57.996093 51.144532c2.265625 2 5.667969 2 7.9375 0l71.230469-62.816407 118.53125 118.53125c-1.324219 6.914063-7.367188 11.914063-14.40625 11.925781zm0 0"/><path d="m264.175781 260.175781c0-3.316406-2.6875-6-6-6h-114c-3.316406 0-6 2.683594-6 6 0 3.3125 2.683594 6 6 6h114c3.3125 0 6-2.6875 6-6zm0 0"/><path d="m144.175781 284.175781c-3.316406 0-6 2.683594-6 6 0 3.3125 2.683594 6 6 6h64c3.3125 0 6-2.6875 6-6 0-3.316406-2.6875-6-6-6zm0 0"/></g><path d="m396.175781 109.253906h-87.046875c-18.125-.046875-35.125 8.78125-45.511718 23.628906-9.722657-16.367187-25.949219-27.824218-44.625-31.507812l18.300781-17.65625c.007812-.007812.011719-.015625.019531-.023438.214844-.210937.410156-.433593.589844-.671874.03125-.042969.0625-.085938.097656-.128907.171875-.234375.320312-.480469.453125-.738281.023437-.039062.039063-.078125.058594-.117188.261719-.535156.441406-1.101562.535156-1.691406.007813-.050781.019531-.105468.023437-.160156.039063-.261719.054688-.523438.058594-.785156 0-.023438 0-.046875 0-.070313 0-.046875-.007812-.09375-.007812-.140625-.007813-.265625-.035156-.527344-.078125-.785156-.007813-.042969-.011719-.085938-.019531-.128906-.054688-.289063-.132813-.570313-.230469-.847656l-.050781-.140626c-.105469-.28125-.230469-.554687-.378907-.816406 0-.011718-.007812-.023437-.011719-.03125l-9.355468-16.480468c-1.066406-1.878907-3.058594-3.039063-5.21875-3.039063h-35.195313c-2.160156 0-4.152343 1.160156-5.21875 3.039063l-9.355469 16.480468c-.003906.007813-.007812.019532-.011718.03125-.148438.261719-.273438.535156-.378906.816406l-.050782.140626c-.097656.277343-.175781.558593-.230468.847656-.007813.042968-.011719.085937-.019532.128906-.042968.257812-.070312.519531-.078125.785156 0 .046875-.007812.09375-.007812.140625v.070313c.003906.261718.023437.523437.058593.785156.007813.054688.015626.109375.023438.160156.09375.589844.273438 1.15625.535156 1.691406.019532.039063.039063.078126.058594.117188.132812.257812.285156.503906.453125.738281.03125.042969.0625.085938.101563.128907.175781.238281.375.460937.585937.671874.007813.007813.011719.015626.019531.023438l18.300782 17.65625c-18.675782 3.683594-34.902344 15.140625-44.625 31.507812-10.386719-14.851562-27.386719-23.679687-45.511719-23.632812h-87.054688c-3.316406 0-6 2.683594-6 6 .019531 18.519531 15.027344 33.527344 33.546875 33.546875h5.144532c2.917968 15.941406 16.796874 27.523437 33 27.550781h1.433593c2.917969 15.9375 16.796875 27.523438 33 27.546875h34.238281c12.371094 18.632813 33.253907 29.832031 55.621094 29.832031 22.363282 0 43.246094-11.199218 55.617188-29.832031h34.269531c16.203125-.023437 30.082031-11.609375 33-27.546875h1.433594c16.203125-.027344 30.082031-11.609375 33-27.550781h5.144531c18.519531-.019531 33.527344-15.027344 33.550781-33.542969 0-3.316406-2.6875-6-6-6zm-190-12.179687-12.089843-11.667969h24.179687zm14.097657-28.148438 2.542968 4.480469h-33.285156l2.542969-4.480469zm-124.652344 107.421875h24.8125c3.316406 0 6-2.683594 6-6 0-3.3125-2.683594-6-6-6h-38.566406c-9.582032-.015625-18.003907-6.347656-20.679688-15.546875h21.105469c3.3125 0 6-2.6875 6-6s-2.6875-6-6-6h-38.570313c-9.585937-.011719-18.019531-6.34375-20.699218-15.546875h80.199218c16.894532-.042968 32.277344 9.71875 39.4375 25.019532-4.863281 14.917968-4.3125 31.074218 1.554688 45.625h-27.910156c-9.582032-.015626-18.007813-6.347657-20.683594-15.550782zm110.554687 45.382813c-30.265625 0-54.800781-24.535157-54.800781-54.800781 0-30.265626 24.535156-54.796876 54.800781-54.796876s54.800781 24.53125 54.800781 54.796876c-.164062 30.199218-24.601562 54.640624-54.800781 54.800781zm162.453125-84.929688h-38.570312c-3.3125 0-6 2.6875-6 6s2.6875 6 6 6h21.105468c-2.675781 9.199219-11.101562 15.53125-20.679687 15.546875h-38.570313c-3.3125 0-6 2.6875-6 6 0 3.316406 2.6875 6 6 6h24.8125c-2.675781 9.203125-11.097656 15.535156-20.679687 15.550782h-27.929687c5.882812-14.546876 6.441406-30.707032 1.574218-45.625 7.15625-15.304688 22.542969-25.0625 39.4375-25.019532h80.199219c-2.683594 9.203125-11.113281 15.535156-20.699219 15.546875zm0 0" fill="#1ae5be"/><path d="m200.175781 28.617188v10.476562c0 3.316406 2.683594 6 6 6 3.3125 0 6-2.683594 6-6v-10.476562c0-3.3125-2.6875-6-6-6-3.316406 0-6 2.6875-6 6zm0 0" fill="#1ae5be"/><path d="m245.199219 36.398438-8.6875 6.910156c-1.703125 1.324218-2.566407 3.464844-2.253907 5.605468.3125 2.136719 1.75 3.941407 3.761719 4.722657 2.011719.785156 4.292969.425781 5.964844-.941407l8.691406-6.910156c1.703125-1.324218 2.566407-3.464844 2.253907-5.605468-.3125-2.136719-1.746094-3.941407-3.761719-4.722657-2.011719-.785156-4.292969-.425781-5.964844.941407zm0 0" fill="#1ae5be"/><path d="m167.152344 36.398438c-2.59375-2.066407-6.367188-1.636719-8.433594.953124-2.0625 2.59375-1.636719 6.367188.957031 8.433594l8.683594 6.910156c1.675781 1.367188 3.953125 1.726563 5.96875.941407 2.011719-.78125 3.449219-2.585938 3.761719-4.722657.3125-2.140624-.550782-4.28125-2.253906-5.605468zm0 0" fill="#1ae5be"/></svg>