<svg xmlns="http://www.w3.org/2000/svg" data-name="Layer 1" viewBox="0 0 512 512"><path fill="#d4e1f4" d="M77,372.59V95.4A32.626,32.626,0,0,1,109.71,63h-30A32.626,32.626,0,0,0,47,95.4V372.59A32.628,32.628,0,0,0,79.71,405h30A32.628,32.628,0,0,1,77,372.59Z"></path><path fill="#0635c9" d="M432.291,57H415V44.626A33.891,33.891,0,0,0,381.071,11h-.811A33.36,33.36,0,0,0,347,44.626V57H165V44.627C165,26.085,149.531,11,131,11S97,26.085,97,44.627V57H79.709A38.665,38.665,0,0,0,41,95.4V372.591A38.669,38.669,0,0,0,79.709,411H432.291A38.669,38.669,0,0,0,471,372.591V95.4A38.665,38.665,0,0,0,432.291,57ZM359,44.626A21.348,21.348,0,0,1,380.26,23h.811A21.892,21.892,0,0,1,403,44.626V79H359Zm-250,0C109,32.7,119.086,23,131,23s22,9.7,22,21.627V79H109ZM432.291,399H79.709A26.657,26.657,0,0,1,53,372.591V131H95a6,6,0,0,0,0-12H53V95.4A26.652,26.652,0,0,1,79.709,69H97V84.611A6.625,6.625,0,0,0,103.322,91h55.215A6.753,6.753,0,0,0,165,84.611V69H347V84.611c0,3.314,2.34,6.389,5.653,6.389H408.68A6.624,6.624,0,0,0,415,84.611V69h17.291A26.652,26.652,0,0,1,459,95.4V119H135a6,6,0,0,0,0,12H459V372.591A26.657,26.657,0,0,1,432.291,399Z"></path><path fill="#0635c9" d="M72,144a6,6,0,0,0-6,6v5a6,6,0,0,0,12,0v-5A6,6,0,0,0,72,144Z"></path><path fill="#0635c9" d="M72,170a6,6,0,0,0-6,6V288a6,6,0,0,0,12,0V176A6,6,0,0,0,72,170Z"></path><path fill="#1ae5be" d="M368.9,326.171a31.807,31.807,0,0,0-5.9,63.075v51.663a48,48,0,1,1-96,0V353.2a98.731,98.731,0,0,0,91.189-88.509,14.479,14.479,0,0,0-3.718-11.106,11.511,11.511,0,0,0-4.471-3.3V189.632a25,25,0,0,0-19.892-24.425,19.007,19.007,0,1,0-.308,12.4,12.959,12.959,0,0,1,8.2,12.025v60.24a14.217,14.217,0,0,0-8.934,11.989,69.883,69.883,0,0,1-138.953,0A14.4,14.4,0,0,0,181,249.872v-60.24a13.122,13.122,0,0,1,8.39-12.029,18.941,18.941,0,1,0-.318-12.4A25.148,25.148,0,0,0,169,189.632v60.654a31.984,31.984,0,0,0-4.24,3.3,14.369,14.369,0,0,0-3.576,11.106A99.419,99.419,0,0,0,255,353.329v87.58a60,60,0,1,0,120,0v-51.7a31.808,31.808,0,0,0-6.1-63.037Zm-56.894-148.2a6.982,6.982,0,1,1,7.01-6.982A7,7,0,0,1,312.009,177.968ZM207.36,164.005a6.982,6.982,0,1,1-7.009,6.981A7,7,0,0,1,207.36,164.005Zm-34.148,99.489a2.4,2.4,0,0,1,.624-1.856,2.611,2.611,0,0,1,1.956-.867,2.565,2.565,0,0,1,2.561,2.306,81.77,81.77,0,0,0,162.653,0,2.562,2.562,0,0,1,2.56-2.305,2.611,2.611,0,0,1,1.956.867,2.4,2.4,0,0,1,.624,1.856,86.931,86.931,0,0,1-172.934,0ZM368.9,377.8a19.815,19.815,0,1,1,19.872-19.814A19.865,19.865,0,0,1,368.9,377.8Z"></path><path fill="#1ae5be" d="M368.9,341.71a16.276,16.276,0,1,0,16.256,16.276A16.284,16.284,0,0,0,368.9,341.71Zm0,20.551a4.276,4.276,0,1,1,4.256-4.275A4.271,4.271,0,0,1,368.9,362.261Z"></path><path fill="#1ae5be" d="M209,231v20c0,3.313,3.687,7,7,7h21v21c0,3.313,3.687,7,7,7h24c3.313,0,5-3.687,5-7V258h23c3.313,0,5-3.687,5-7V231c0-3.313-1.687-5-5-5H273V201c0-3.313-1.687-5-5-5H244c-3.313,0-7,1.687-7,5v25H216C212.687,226,209,227.687,209,231Zm12,7h23c3.313,0,5-3.687,5-7V208h12v23c0,3.313,3.687,7,7,7h21v8H268c-3.313,0-7,1.687-7,5v23H249V251c0-3.313-1.687-5-5-5H221Z"></path></svg>