<svg id="Layer_1" height="512" viewBox="0 0 512 512" width="512" xmlns="http://www.w3.org/2000/svg" data-name="Layer 1"><path d="m73 93.58v35.83c-27 10.78-45.285 37.13-46.585 66.56l.585.03-.785-.03c-.05 1.1-.215 2.21-.215 3.32v217.31c0 20.7 17.12 37.4 37.82 37.4h30c-20.7 0-37.82-16.7-37.82-37.4v-217.31c0-1.1.31-2.2.359-3.29h.641l-.585-.03c1.3-29.43 19.585-55.78 46.585-66.56v-36.41h-30z" fill="#d4e1f4"/><path d="m266 125.451v-26.451h3.421a5.26 5.26 0 0 0 5.579-5.52v-56.251a25.906 25.906 0 0 0 -25.814-26.229h-165.386a25.9 25.9 0 0 0 -25.8 26.229v56.251a5.251 5.251 0 0 0 5.568 5.52h3.432v26.473a82.226 82.226 0 0 0 -47 73.814v217.331c0 23.917 19.884 43.382 43.824 43.382h207.176v-12h-207.159c-17.341 0-31.841-14.078-31.841-31.4v-12.6h239v-12h-239v-189h239v-12h-238.2c2.992-24.86 19.3-46.758 42.381-56.019a6.05 6.05 0 0 0 3.819-5.568v-30.413h175v30.417a6.046 6.046 0 0 0 3.847 5.583 66.641 66.641 0 0 1 31.146 25.335l9.964-6.632a80.813 80.813 0 0 0 -32.957-28.252zm-196-88.222a13.885 13.885 0 0 1 13.8-14.229h165.386a13.894 13.894 0 0 1 13.814 14.229v49.771h-193z" fill="#0635c9"/><path d="m147 260v23h-20c-3.314 0-7 1.687-7 5v21c0 3.313 3.686 7 7 7h20v19c0 3.313 3.686 7 7 7h22c3.314 0 5-3.687 5-7v-19h21c3.314 0 5-3.687 5-7v-21c0-3.313-1.686-5-5-5h-21v-23c0-3.313-1.686-5-5-5h-22c-3.314 0-7 1.687-7 5zm12 28v-21h10v21c0 3.313 3.686 7 7 7h19v9h-19c-3.314 0-7 1.687-7 5v21h-10v-21c0-3.313-1.686-5-5-5h-22v-9h22c3.314 0 5-3.687 5-7z" fill="#0635c9"/><path d="m90.836 295.236a75.659 75.659 0 1 0 75.658-75.636 75.734 75.734 0 0 0 -75.658 75.636zm139.317 0a63.659 63.659 0 1 1 -63.659-63.636 63.72 63.72 0 0 1 63.659 63.636z" fill="#0635c9"/><path d="m56 245.2a6 6 0 0 0 -6 6v89.665a6 6 0 0 0 12 0v-89.665a6 6 0 0 0 -6-6z" fill="#0635c9"/><path d="m62 225.356a6 6 0 0 0 -12 0v5.357a6 6 0 0 0 12 0z" fill="#0635c9"/><g fill="#1ae5be"><path d="m305.926 201.428a26.126 26.126 0 1 0 36.94 0 26.181 26.181 0 0 0 -36.94 0zm8.478 8.492a14.108 14.108 0 0 1 14.767-3.284l-18.054 18.025a14.021 14.021 0 0 1 3.283-14.741zm19.984 19.924a14.152 14.152 0 0 1 -14.767 3.284l18.054-18.028a14.021 14.021 0 0 1 -3.287 14.741z"/><path d="m451.517 201.428a26.181 26.181 0 0 0 -36.941 0 26.127 26.127 0 1 0 36.941 0zm-28.463 8.492a14.105 14.105 0 0 1 14.768-3.283l-18.055 18.024a14.021 14.021 0 0 1 3.287-14.741zm19.985 19.924a14.154 14.154 0 0 1 -14.768 3.284l18.054-18.028a14.016 14.016 0 0 1 -3.286 14.741z"/><path d="m305.926 309.139a26.11 26.11 0 1 0 36.94-36.909 26.181 26.181 0 0 0 -36.941 0 26.07 26.07 0 0 0 0 36.909zm28.462-8.493a14.151 14.151 0 0 1 -14.767 3.284l18.054-18.024a14.019 14.019 0 0 1 -3.287 14.74zm-19.988-19.923a14.1 14.1 0 0 1 14.767-3.284l-18.054 18.025a14.021 14.021 0 0 1 3.287-14.741z"/><path d="m451.517 272.23a26.181 26.181 0 0 0 -36.941 0 26.127 26.127 0 1 0 36.941 0zm-28.463 8.493a14.1 14.1 0 0 1 14.768-3.284l-18.055 18.025a14.021 14.021 0 0 1 3.287-14.741zm19.985 19.923a14.153 14.153 0 0 1 -14.768 3.284l18.055-18.024a14.019 14.019 0 0 1 -3.287 14.74z"/><path d="m305.926 379.941a26.109 26.109 0 1 0 36.94-36.908 26.18 26.18 0 0 0 -36.941 0 26.069 26.069 0 0 0 0 36.908zm28.462-8.492a14.153 14.153 0 0 1 -14.767 3.283l18.054-18.024a14.021 14.021 0 0 1 -3.287 14.741zm-19.988-19.924a14.108 14.108 0 0 1 14.767-3.284l-18.054 18.025a14.021 14.021 0 0 1 3.287-14.741z"/><path d="m414.576 343.033a26.127 26.127 0 1 0 36.941 0 26.181 26.181 0 0 0 -36.941 0zm8.478 8.492a14.11 14.11 0 0 1 14.768-3.284l-18.055 18.025a14.021 14.021 0 0 1 3.287-14.741zm19.985 19.924a14.155 14.155 0 0 1 -14.768 3.284l18.054-18.025a14.016 14.016 0 0 1 -3.286 14.741z"/><path d="m305.926 450.743a26.109 26.109 0 1 0 36.94-36.908 26.181 26.181 0 0 0 -36.941 0 26.069 26.069 0 0 0 0 36.908zm28.462-8.492a14.152 14.152 0 0 1 -14.767 3.284l18.054-18.025a14.021 14.021 0 0 1 -3.287 14.741zm-19.988-19.923a14.1 14.1 0 0 1 14.767-3.284l-18.054 18.024a14.019 14.019 0 0 1 3.287-14.74z"/><path d="m451.517 413.835a26.181 26.181 0 0 0 -36.941 0 26.127 26.127 0 1 0 36.941 0zm-28.463 8.493a14.1 14.1 0 0 1 14.768-3.284l-18.055 18.024a14.019 14.019 0 0 1 3.287-14.74zm19.985 19.923a14.154 14.154 0 0 1 -14.768 3.284l18.054-18.025a14.016 14.016 0 0 1 -3.286 14.741z"/><path d="m473.232 151h-71.087a18.662 18.662 0 0 0 -14.739 7.412l-8.538 11.327-8.424-11.289a18.631 18.631 0 0 0 -14.783-7.45h-71.2a18.468 18.468 0 0 0 -18.473 18.431l-.043 55.569a6 6 0 0 0 6 6 6 6 0 0 0 6-6l.045-55.569a6.456 6.456 0 0 1 6.473-6.431h71.2a6.593 6.593 0 0 1 5.185 2.674l12 16.142-.248 288.384-12.13 16.125a6.62 6.62 0 0 1 -5.17 2.675h-71.09a6.556 6.556 0 0 1 -6.474-6.548l.176-217.447a6 6 0 0 0 -6-6 6 6 0 0 0 -6 6l-.176 217.452a18.571 18.571 0 0 0 18.474 18.543h71.1a18.473 18.473 0 0 0 14.73-7.326l8.539-11.285 8.419 11.22a18.488 18.488 0 0 0 14.783 7.391h71.2a18.484 18.484 0 0 0 18.474-18.447l.254-313.016a18.558 18.558 0 0 0 -18.477-18.537zm5.768 331.543c0 3.558-2.451 6.452-6.021 6.452h-71.2a6.511 6.511 0 0 1 -5.185-2.588l-12-16.182.249-288.35 12.13-16.165a6.662 6.662 0 0 1 5.172-2.71h71.087a6.353 6.353 0 0 1 6.248 6.532z"/></g></svg>