<svg height="442pt" viewBox="-16 0 442 442" width="442pt" xmlns="http://www.w3.org/2000/svg"><path d="m39 46c.019531-18.769531 15.230469-33.980469 34-34h-30c-18.769531.019531-33.980469 15.230469-34 34v14h30zm0 0" fill="#d4e1f4"/><path d="m9 72h30v286h-30zm0 0" fill="#d4e1f4"/><path d="m39 396v-26h-30v26c.019531 18.769531 15.230469 33.980469 34 34h30c-18.769531-.019531-33.980469-15.230469-34-34zm0 0" fill="#d4e1f4"/><path d="m194.820312 72h11.113282c3.316406 0 6-2.6875 6-6s-2.683594-6-6-6h-11.113282c-3.316406 0-6 2.6875-6 6s2.683594 6 6 6zm0 0" fill="#0635c9"/><path d="m126.125 421c11.597656 0 21-9.402344 21-21s-9.402344-21-21-21-21 9.402344-21 21c.011719 11.59375 9.40625 20.988281 21 21zm0-30c4.96875 0 9 4.03125 9 9s-4.03125 9-9 9-9-4.03125-9-9c.007812-4.96875 4.03125-8.992188 9-9zm0 0" fill="#0635c9"/><g fill="#1ae5be"><path d="m366.101562 12h-132.101562v12h132.101562c17.554688-.015625 31.816407 14.167969 31.898438 31.722656v13.277344h-13.015625c-3.3125 0-6 2.6875-6 6s2.6875 6 6 6h13.015625v269h-151v12h151v24.277344c-.082031 17.554687-14.34375 31.738281-31.898438 31.722656h-132.101562v12h132.101562c24.175782.007812 43.808594-19.542969 43.898438-43.722656v-330.554688c-.089844-24.179687-19.722656-43.730468-43.898438-43.722656zm0 0"/><path d="m365.917969 81c3.3125 0 6-2.6875 6-6s-2.6875-6-6-6h-10.5c-3.3125 0-6 2.6875-6 6s2.6875 6 6 6zm0 0"/><path d="m336.820312 81c3.3125 0 6-2.6875 6-6s-2.6875-6-6-6h-90.625c-3.316406 0-6 2.6875-6 6s2.683594 6 6 6zm0 0"/><path d="m310.707031 390.054688c0-11.136719-9.027343-20.167969-20.164062-20.167969-11.140625 0-20.167969 9.03125-20.167969 20.167969 0 11.140624 9.027344 20.167968 20.167969 20.167968 11.132812-.011718 20.152343-9.035156 20.164062-20.167968zm-28.332031 0c0-4.507813 3.65625-8.167969 8.167969-8.167969 4.507812 0 8.164062 3.65625 8.167969 8.167969 0 4.511718-3.660157 8.167968-8.167969 8.167968-4.507813-.003906-8.164063-3.660156-8.167969-8.167968zm0 0"/></g><path d="m252 46c0-25.40625-20.59375-46-46-46h-160c-25.40625 0-46 20.59375-46 46v350c0 25.40625 20.59375 46 46 46h160c25.40625 0 46-20.59375 46-46zm-205.875-34h160c18.746094.03125 33.914062 15.253906 33.875 34v14h-13.875c-3.3125 0-6 2.6875-6 6s2.6875 6 6 6h13.875v286h-228v-286h163.125c3.3125 0 6-2.6875 6-6s-2.6875-6-6-6h-163.125v-14c.078125-18.792969 15.332031-33.988281 34.125-34zm-34.125 358h228v26c.039062 18.746094-15.128906 33.96875-33.875 34h-160c-18.792969-.011719-34.046875-15.207031-34.125-34zm0 0" fill="#0635c9"/></svg>