<svg id="Layer_1" height="512" viewBox="0 0 512 512" width="512" xmlns="http://www.w3.org/2000/svg" data-name="Layer 1"><path d="m71.08 32h-30a18.115 18.115 0 0 0 -18.11 18.12v332.06a18.112 18.112 0 0 0 18.11 18.11h30a18.112 18.112 0 0 1 -18.11-18.11v-332.06a18.115 18.115 0 0 1 18.11-18.12z" fill="#d4e1f4"/><g fill="#0635c9"><path d="m318.21 26h-277.13a24.142 24.142 0 0 0 -24.11 24.12v332.06a24.136 24.136 0 0 0 24.11 24.11h184.03v-12h-184.03a12.124 12.124 0 0 1 -12.11-12.11v-332.06a12.128 12.128 0 0 1 12.11-12.12h277.13a12.128 12.128 0 0 1 12.11 12.12v144.08h12v-144.08a24.142 24.142 0 0 0 -24.11-24.12z"/><path d="m291.9 74.11h-224.51a6 6 0 0 0 -6 6v46.53a6 6 0 0 0 6 6h224.51a6 6 0 0 0 6-6v-46.53a6 6 0 0 0 -6-6zm-6 46.53h-212.51v-34.53h212.51z"/><path d="m123.13 163.99a6 6 0 0 0 -6-6h-47.74a6 6 0 0 0 -6 6v43.74a6 6 0 0 0 6 6h47.74a6 6 0 0 0 6-6zm-12 37.74h-35.74v-31.74h35.74z"/><path d="m209.52 163.99a6 6 0 0 0 -6-6h-47.75a6 6 0 0 0 -6 6v43.74a6 6 0 0 0 6 6h47.75a6 6 0 0 0 6-6zm-12 37.74h-35.75v-31.74h35.75z"/><path d="m291.9 157.99h-49.74a6 6 0 0 0 -6 6v35.25h12v-29.25h37.74v24.94h12v-30.94a6 6 0 0 0 -6-6z"/><path d="m123.13 242.38a6 6 0 0 0 -6-6h-47.74a6 6 0 0 0 -6 6v43.74a6 6 0 0 0 6 6h47.74a6 6 0 0 0 6-6zm-12 37.74h-35.74v-31.74h35.74z"/><path d="m209.52 242.38a6 6 0 0 0 -6-6h-47.75a6 6 0 0 0 -6 6v43.74a6 6 0 0 0 6 6h47.75a6 6 0 0 0 6-6zm-12 37.74h-35.75v-31.74h35.75z"/><path d="m117.13 314.76h-47.74a6 6 0 0 0 -6 6v43.75a6 6 0 0 0 6 6h47.74a6 6 0 0 0 6-6v-43.75a6 6 0 0 0 -6-6zm-6 43.75h-35.74v-31.75h35.74z"/><path d="m203.52 314.76h-47.75a6 6 0 0 0 -6 6v43.75a6 6 0 0 0 6 6h47.75a6 6 0 0 0 6-6v-43.75a6 6 0 0 0 -6-6zm-6 43.75h-35.75v-31.75h35.75z"/><path d="m48 102.48a6 6 0 0 0 -6 6v102.96a6 6 0 0 0 12 0v-102.96a6 6 0 0 0 -6-6z"/><path d="m54 78.52a6 6 0 0 0 -12 0v6.96a6 6 0 1 0 12 0z"/></g><path d="m456.74 189.16h-.131l-197.77-.64h-.188a38.277 38.277 0 0 0 -38.261 38.118l-.144 39.532a6 6 0 0 0 5.979 6.022h.021a6 6 0 0 0 6-5.978l.144-39.528a26.276 26.276 0 0 1 26.4-26.166l170.049.55a38.3 38.3 0 0 0 -10.679 26.361l-.73 214.822a31.85 31.85 0 0 1 -63.7-.1v-9.09a6 6 0 0 0 -6-6h-116.073l.468-127.448a6 6 0 0 0 -5.979-6.022h-.022a6 6 0 0 0 -6 5.978l-.468 127.492h-39.646a6 6 0 0 0 -6 6v11.61a41.377 41.377 0 0 0 41.33 41.327h170.24a43.847 43.847 0 0 0 43.85-43.709l.639-187.321h58.7a6 6 0 0 0 6-5.926l.26-21.314v-.15a38.5 38.5 0 0 0 -38.289-38.42zm-241.4 284.84a29.363 29.363 0 0 1 -29.33-29.33v-5.61h155.72v3.09a43.737 43.737 0 0 0 13.741 31.85zm267.5-231.03h-52.731l.051-15.493a26.488 26.488 0 0 1 26.43-26.317h.127a26.469 26.469 0 0 1 26.313 26.42z" fill="#1ae5be"/><path d="m403.19 275.7a20.926 20.926 0 0 0 -20.836-20.9 141.35 141.35 0 0 0 -8.072-30.459 6 6 0 0 0 -7.578-3.486l-71.185 24.965h-18.2a29.889 29.889 0 0 0 -10.479 57.88v37.34a6 6 0 0 0 8.256 5.56l21.98-8.92a6 6 0 0 0 3.744-5.56v-24.671l65.884 23.1a5.994 5.994 0 0 0 7.578-3.486 141.386 141.386 0 0 0 8.072-30.46 20.912 20.912 0 0 0 20.836-20.903zm-143.75 0a17.865 17.865 0 0 1 17.88-17.88h13.22v35.77h-13.22a17.427 17.427 0 0 1 -3.345-.316 17.884 17.884 0 0 1 -14.535-17.574zm19.4 56.43v-26.54h9.98v22.49zm23.7-76.056 45.286-15.874a130.789 130.789 0 0 1 0 71.02l-45.287-15.88zm68.588 33.861v.02a129.414 129.414 0 0 1 -6.046 27.31l-5.9-2.069a142.866 142.866 0 0 0 0-78.982l5.9-2.068a129.493 129.493 0 0 1 6.048 27.329 128.232 128.232 0 0 1 0 28.46zm17.45-7.935a8.841 8.841 0 0 1 -4.942 2.5c.182-2.913.284-5.851.284-8.8s-.1-5.878-.283-8.786a8.89 8.89 0 0 1 4.941 15.086z" fill="#1ae5be"/><path d="m362.37 406.17h18.9a6 6 0 0 0 0-12h-18.9a6 6 0 0 0 0 12z" fill="#1ae5be"/><path d="m260.33 406.17h83.86a6 6 0 0 0 0-12h-83.86a6 6 0 1 0 0 12z" fill="#1ae5be"/><path d="m386.27 374.33a6 6 0 0 0 -6-6h-90.18a6 6 0 0 0 0 12h90.18a6 6 0 0 0 6-6z" fill="#1ae5be"/><path d="m260.33 380.33h11.58a6 6 0 0 0 0-12h-11.58a6 6 0 1 0 0 12z" fill="#1ae5be"/></svg>