<svg version="1.1" xmlns="http://www.w3.org/2000/svg" xmlns:xlink="http://www.w3.org/1999/xlink" viewBox="0 0 172 172"><g fill="none" fill-rule="nonzero" stroke="none" stroke-width="1" stroke-linecap="butt" stroke-linejoin="miter" stroke-miterlimit="10" stroke-dasharray="" stroke-dashoffset="0" font-family="none" font-weight="none" font-size="none" text-anchor="none" style="mix-blend-mode: normal"><path d="M0,172v-172h172v172z" fill="none"></path><g><path d="M163.49138,57.44531l-10.03983,-0.9675c-1.09272,-4.23665 -2.79932,-8.29066 -5.0656,-12.03328l6.38819,-7.71413c0.77015,-0.93012 0.71062,-2.29238 -0.13773,-3.15177l-11.008,-11.14943c-0.85653,-0.86768 -2.23417,-0.93681 -3.17327,-0.15923l-7.72925,6.40095c-3.74372,-2.25697 -7.79112,-3.96664 -12.01917,-5.07702l-0.96784,-10.04453c-0.11653,-1.20587 -1.12932,-2.12637 -2.34081,-2.12749h-15.80653c-1.21184,0.00118 -2.22477,0.92223 -2.34081,2.1285l-0.9675,10.04117c-4.23705,1.0928 -8.29141,2.79963 -12.03429,5.06627l-7.71413,-6.38785c-0.93457,-0.77413 -2.30473,-0.70995 -3.16285,0.14815l-11.14909,11.14977c-0.858,0.85799 -0.92232,2.22791 -0.14848,3.16252l6.40095,7.72925c-0.40749,0.68128 -0.79651,1.36827 -1.16369,2.05527c-0.40526,0.74175 -0.38127,1.64393 0.06285,2.36309c0.44412,0.71916 1.24003,1.14464 2.08473,1.11447c0.8447,-0.03017 1.60823,-0.51136 1.9999,-1.26037c0.57311,-1.07198 1.20669,-2.14698 1.88125,-3.19443c0.55619,-0.86186 0.48957,-1.98479 -0.16461,-2.77484l-6.11406,-7.38323l8.1223,-8.12162l7.38323,6.11406c0.80006,0.66259 1.94009,0.72172 2.80441,0.14546c4.1346,-2.73579 8.74246,-4.67779 13.588,-5.72673c1.00048,-0.21749 1.74575,-1.05659 1.84363,-2.07576l0.92416,-9.59001h11.53509l0.92416,9.59034c0.0975,1.01905 0.84307,1.85795 1.84362,2.07441c4.84865,1.07861 9.46215,3.0256 13.61756,5.74688c0.86178,0.55602 1.98452,0.48941 2.77451,-0.16461l7.37282,-6.10566l7.99934,8.10248l-6.12313,7.39398c-0.66259,0.80006 -0.72172,1.94009 -0.14546,2.80441c2.73573,4.13463 4.67773,8.74248 5.72673,13.588c0.21627,1.00001 1.05432,1.74543 2.07273,1.84362l9.58866,0.92416v11.53744l-9.44959,0.92215c-1.01728,0.09926 -1.85395,0.84428 -2.07005,1.84329c-1.07872,4.84873 -3.02594,9.46225 -5.74755,13.61756c-0.55609,0.86193 -0.48934,1.98486 0.16495,2.77484l6.11406,7.38323l-8.11995,8.12163l-7.38357,-6.11406c-0.80006,-0.66259 -1.94009,-0.72172 -2.80441,-0.14546c-4.13451,2.73581 -8.74224,4.67793 -13.58766,5.72706c-1.00054,0.21763 -1.74578,1.05685 -1.84363,2.07609l-0.92416,9.59102h-5.57656c-1.29873,0 -2.35156,1.05283 -2.35156,2.35156c0,1.29873 1.05283,2.35156 2.35156,2.35156h7.71111c1.21201,-0.0017 2.2248,-0.92306 2.34081,-2.12951l0.96784,-10.04117c4.23704,-1.09298 8.2914,-2.79992 12.03429,-5.06661l7.71548,6.38651c0.9346,0.77383 2.30453,0.70951 3.16252,-0.14848l11.14842,-11.14809c0.8582,-0.85803 0.92252,-2.22819 0.14848,-3.16285l-6.40028,-7.72925c2.25734,-3.74433 3.96724,-7.79242 5.0777,-12.02119l9.90176,-0.96616c1.20454,-0.11757 2.12314,-1.13021 2.12312,-2.34048v-15.80653c0.00058,-1.21172 -0.91969,-2.2255 -2.12581,-2.34182z" fill="#1ae5be"></path><path d="M109.51563,96.11373v4.70313c18.14063,0 33.11605,-14.8602 33.11605,-33.12612c-0.00415,-15.51493 -10.77305,-28.94979 -25.91512,-32.3307c-15.14208,-3.38091 -30.60279,4.19744 -37.20585,18.23711l4.25364,2.0032c5.99205,-12.76153 20.43138,-19.20415 33.93101,-15.13952c13.49963,4.06463 21.98138,17.4086 19.93128,31.35702c-2.0501,13.94842 -14.01273,24.28753 -28.111,24.29589z" fill="#1ae5be"></path><path d="M59.21066,160.57275c0.41281,0.00016 0.81837,-0.10853 1.17578,-0.31511l50.55859,-29.14258c0.74759,-0.41109 1.22504,-1.18393 1.25809,-2.03645v-58.28516c-0.03311,-0.85251 -0.51054,-1.62531 -1.25809,-2.03645l-50.51761,-29.14191c-0.73485,-0.42022 -1.6372,-0.42022 -2.37205,0l-50.48637,29.14224c-0.7301,0.41888 -1.18202,1.19473 -1.1862,2.03645v58.28516c0.00002,0.84011 0.44822,1.6164 1.17578,2.03645l50.47629,29.14258c0.35743,0.20649 0.76299,0.31506 1.17578,0.31477zM59.21066,97.21695l-21.02969,-12.14179l45.7698,-26.42484l21.02969,12.14179zM61.47656,154.14828v-52.85842l46.02344,-26.42686v52.85809zM59.21066,44.36693l20.03699,11.56666l-45.77014,26.42652l-20.03666,-11.56801zM11.08594,74.863l45.6875,26.42686v52.85842l-45.6875,-26.4272z" fill="#0635c9"></path></g></g></svg>