<?xml version="1.0" encoding="utf-8"?>
<!-- Generator: Adobe Illustrator 23.1.0, SVG Export Plug-In . SVG Version: 6.00 Build 0)  -->
<svg version="1.1" id="ad6b5295-7ebf-4dc3-a7a8-a4a4b8d35fca"
	 xmlns="http://www.w3.org/2000/svg" xmlns:xlink="http://www.w3.org/1999/xlink" x="0px" y="0px" viewBox="0 0 790 512.2"
	 style="enable-background:new 0 0 790 512.2;" xml:space="preserve">
<style type="text/css">
	.st0{fill:#E6E6E6;}
	.st1{fill:#3F3D56;}
	.st2{fill:#0635C9;}
	.st3{fill:#CCCCCC;}
	.st4{fill:#FFFFFF;}
</style>
<path class="st0" d="M720.6,510.7L698,442.6c0,0,24.8,24.8,24.8,45.2l-4.5-47.1c0,0,12.7,17.2,11.5,43.3S720.6,510.7,720.6,510.7z"
	/>
<path class="st0" d="M236,448.7l-22-66.5c0,0,24.2,24.2,24.2,44.1l-4.3-46c0,0,12.4,16.8,11.2,42.2S236,448.7,236,448.7z"/>
<path class="st0" d="M579.7,479.4c0,43.7-86.7,30.3-192.8,30.4s-191.5,13.7-191.6-30s86.6-53.3,192.8-53.4S579.7,435.6,579.7,479.4z
	"/>
<rect y="509.7" class="st1" width="790" height="2"/>
<circle class="st2" cx="361.7" cy="403.5" r="63"/>
<path class="st2" d="M319.7,336c-17.8,0-34-10.5-41.3-26.8l-100-225.1c-13.4-30.2,0.2-65.6,30.4-79c30.2-13.4,65.6,0.2,79,30.4
	c1,2.2,1.8,4.4,2.5,6.7l72.4,235.4c7.3,23.8-6,49-29.8,56.3C328.6,335.4,324.1,336,319.7,336L319.7,336z"/>
<rect x="410.3" y="28" class="st0" width="357.3" height="70.5"/>
<rect x="410.3" y="110.4" class="st0" width="357.3" height="70.5"/>
<circle class="st2" cx="447.8" cy="62.8" r="21.1"/>
<rect x="498.2" y="54.5" class="st2" width="208" height="4.6"/>
<rect x="498.2" y="66.5" class="st2" width="208" height="4.6"/>
<circle class="st3" cx="447.8" cy="146.2" r="21.1"/>
<rect x="498.2" y="137.9" class="st3" width="208" height="4.6"/>
<rect x="498.2" y="149.8" class="st3" width="208" height="4.6"/>
<rect x="410.3" y="191.4" class="st0" width="357.3" height="70.5"/>
<circle class="st3" cx="447.8" cy="227.2" r="21.1"/>
<rect x="498.2" y="218.9" class="st3" width="208" height="4.6"/>
<rect x="498.2" y="230.8" class="st3" width="208" height="4.6"/>
<g>
	<path class="st4" d="M447.8,60.5l7.8-9.1h5l-10.3,11.8l10.5,12h-5.1l-8-9.3l-8,9.3h-5.1l10.5-12L435,51.3h5L447.8,60.5z"/>
</g>
</svg>
