<svg xmlns="http://www.w3.org/2000/svg" width="485.668" height="498.204" viewBox="0 0 485.668 498.204">
    <g data-name="Group 2009">
        <path data-name="Path 7699" d="M1492.333 672.423z" style="fill:#d4e1f4" transform="translate(-1443 -436)"/>
        <path data-name="Path 7698" d="M1533 639.728s-12.667-23.394-27.333-6.728c-6.2 12.4-5 30.52-3.334 40a30.592 30.592 0 0 1-7.333 25.333h-8.667l3.334-25.333v-43.333l8.666-36 21.334-5.333 10.666 11.333 7.334 20z" style="fill:#d4e1f4" transform="translate(-1443 -436)"/>
        <path data-name="Path 7426" d="M-11428.368-2997.469H-11599a5.768 5.768 0 0 1-5.767-5.765A5.767 5.767 0 0 1-11599-3009h164.871v-394.3h-222.795v102.334a5.765 5.765 0 0 1-5.767 5.765 5.761 5.761 0 0 1-5.764-5.765v-108.1a5.762 5.762 0 0 1 5.764-5.765h234.323a5.766 5.766 0 0 1 5.769 5.765v405.835a5.766 5.766 0 0 1-5.769 5.762z" transform="translate(11908.268 3451.03)" style="fill:#0635c9"/>
        <path data-name="Path 7410" d="M-11546.2-3120.284h-146.341a5.764 5.764 0 0 1-5.764-5.764 5.764 5.764 0 0 1 5.764-5.765h146.341c11.7 0 20.076-4.315 24.91-12.826a33.814 33.814 0 0 0 4.109-13.8v-136.989h11.529l-.006 137.235a45.058 45.058 0 0 1-5.346 18.785 35.446 35.446 0 0 1-12.363 13.208c-6.294 3.926-13.978 5.916-22.833 5.916z" transform="translate(11818.669 3618.488)" style="fill:#1ae5be"/>
        <path data-name="Path 7412" d="M-11548.229-3179.538a6.319 6.319 0 0 1-4.655-2.038l-83.936-73.955a6.336 6.336 0 0 1 .358-8.955 6.332 6.332 0 0 1 8.95.357l83.938 73.956a6.334 6.334 0 0 1-.358 8.955 6.318 6.318 0 0 1-4.297 1.68z" transform="translate(11842.572 3665.923)" style="fill:#1ae5be"/>
        <path data-name="Line 574" d="M66.045 9.029H2.467C-.276 9.029-2.5 6.448-2.5 3.265S-.276-2.5 2.467-2.5h63.578c2.743 0 4.967 2.581 4.967 5.765s-2.224 5.764-4.967 5.764z" transform="translate(2.5 388.553)" style="fill:#1ae5be"/>
        <path data-name="Line 575" d="M66.045 9.029H2.467C-.276 9.029-2.5 6.448-2.5 3.265S-.276-2.5 2.467-2.5h63.578c2.743 0 4.967 2.581 4.967 5.765s-2.224 5.764-4.967 5.764z" transform="translate(22.958 425.447)" style="fill:#1ae5be"/>
        <path data-name="Line 576" d="M66.045 9.029H2.467C-.276 9.029-2.5 6.448-2.5 3.265S-.276-2.5 2.467-2.5h63.578c2.743 0 4.967 2.581 4.967 5.765s-2.224 5.764-4.967 5.764z" transform="translate(48.895 462.342)" style="fill:#1ae5be"/>
        <path data-name="Path 7413" d="M-11732.75-3357.5h53.032v34.969a36.28 36.28 0 0 1-.884 7.64 29.071 29.071 0 0 1-7.293 14.277 22.394 22.394 0 0 1-7.488 5.033 26.873 26.873 0 0 1-10.273 1.906 25.5 25.5 0 0 1-15.4-4.711 26.319 26.319 0 0 1-8.171-10.09 37.7 37.7 0 0 1-3.527-13.825v-35.2zm41.5 11.53h-29.978v23.325a26.9 26.9 0 0 0 2.524 9.448c2.677 5.378 6.942 7.993 13.043 7.993 4.105 0 7.229-1.144 9.545-3.5 4.865-4.944 4.867-13.619 4.865-13.705z" transform="translate(11733.326 3561.228)" style="fill:#1ae5be"/>
        <path data-name="Path 7414" d="M-11648.12-3312.965h-66v-11.53h66z" transform="translate(11742.082 3580.531)" style="fill:#1ae5be"/>
        <path data-name="Path 7411" d="M-11569.381-3175.962a34.408 34.408 0 0 1-9.236-1.277 36.7 36.7 0 0 1-13.336-6.851l-114.307-88.3a5.767 5.767 0 0 1-2.238-4.758 5.773 5.773 0 0 1 2.555-4.6l40.787-27.286a5.758 5.758 0 0 1 7.99 1.587 5.76 5.76 0 0 1-1.582 8l-34.119 22.831 108.087 83.494c.121.091.18.14.288.236a25.741 25.741 0 0 0 9.375 4.647 22.64 22.64 0 0 0 5.718.746c5.252 0 10.428-1.9 15.472-5.678 17.009-12.765 79.152-66.6 98.293-83.22l-33.949-23.081a5.762 5.762 0 0 1-1.527-8.008 5.767 5.767 0 0 1 8.01-1.526l40.137 27.286a5.755 5.755 0 0 1 2.512 4.422 5.771 5.771 0 0 1-1.965 4.691c-3.428 2.987-84.172 73.335-104.594 88.658-8.118 6.092-15.868 7.987-22.371 7.987z" transform="translate(11753.466 3599.458)" style="fill:#1ae5be"/>
        <path data-name="Path 7415" d="M-11654.76-3176.85h-11.529v-176.044a39.608 39.608 0 0 0-3.826-11.413c-3.367-6.3-7.83-9.376-13.619-9.376-.264 0-.531.007-.8.019-14.684.7-17.4 18.437-17.686 20.659v30.818h-11.529v-31.422l.029-.276a46.307 46.307 0 0 1 4.387-14.7 31.768 31.768 0 0 1 8.568-10.862 26.757 26.757 0 0 1 15.682-5.734c.465-.022.93-.033 1.391-.033a24.473 24.473 0 0 1 14.859 4.813 31.683 31.683 0 0 1 9.059 10.979 50.992 50.992 0 0 1 4.969 15.342l.049.372z" transform="translate(11755.836 3533.755)" style="fill:#1ae5be"/>
        <path data-name="Path 7417" d="M254.424 145.609h-9.817a4.607 4.607 0 0 0 0 9.214h9.817a4.607 4.607 0 1 0 0-9.214zm0 0" transform="translate(-28.044 101.558)" style="fill:#1ae5be"/>
        <path data-name="Path 7418" d="M131.822 154.823h64.014a4.607 4.607 0 1 0 0-9.214h-64.014a4.607 4.607 0 0 0 0 9.214zm0 0" transform="translate(-1.861 101.558)" style="fill:#1ae5be"/>
        <path data-name="Path 7419" d="M237.253 175.609h-66.611a4.607 4.607 0 0 0 0 9.214h66.611a4.607 4.607 0 0 0 0-9.214zm0 0" transform="translate(-10.875 94.593)" style="fill:#1ae5be"/>
        <path data-name="Path 7420" d="M131.822 184.823h10.264a4.607 4.607 0 0 0 0-9.214h-10.264a4.607 4.607 0 0 0 0 9.214zm0 0" transform="translate(-1.861 94.593)" style="fill:#1ae5be"/>
        <path data-name="Path 7421" d="M254.424 145.609h-9.817a4.607 4.607 0 0 0 0 9.214h9.817a4.607 4.607 0 1 0 0-9.214zm0 0" transform="translate(-28.044 147.676)" style="fill:#1ae5be"/>
        <path data-name="Path 7422" d="M131.822 154.823h64.014a4.607 4.607 0 1 0 0-9.214h-64.014a4.607 4.607 0 0 0 0 9.214zm0 0" transform="translate(-1.861 147.676)" style="fill:#1ae5be"/>
        <path data-name="Path 7423" d="M237.253 175.609h-66.611a4.607 4.607 0 0 0 0 9.214h66.611a4.607 4.607 0 0 0 0-9.214zm0 0" transform="translate(-10.875 140.711)" style="fill:#1ae5be"/>
        <path data-name="Path 7424" d="M131.822 184.823h10.264a4.607 4.607 0 0 0 0-9.214h-10.264a4.607 4.607 0 0 0 0 9.214zm0 0" transform="translate(-1.861 140.711)" style="fill:#1ae5be"/>
        <path data-name="Rectangle 2818" d="M11.529 11.529v34.589h34.589V11.529H11.529M4.612 0h48.423a4.612 4.612 0 0 1 4.612 4.612v48.423a4.612 4.612 0 0 1-4.612 4.612H4.612A4.612 4.612 0 0 1 0 53.035V4.612A4.612 4.612 0 0 1 4.612 0z" transform="translate(368.94 164.941)" style="fill:#0635c9"/>
        <g data-name="Group 1953">
            <path data-name="Rectangle 2816" d="M11.529 11.529v34.589h34.589V11.529H11.529M4.612 0h48.423a4.612 4.612 0 0 1 4.612 4.612v48.423a4.612 4.612 0 0 1-4.612 4.612H4.612A4.612 4.612 0 0 1 0 53.035V4.612A4.612 4.612 0 0 1 4.612 0z" transform="translate(368.941 93.459)" style="fill:#0635c9"/>
            <path data-name="Rectangle 2817" d="M11.529 11.529v34.589h34.589V11.529H11.529M4.612 0h48.423a4.612 4.612 0 0 1 4.612 4.612v48.423a4.612 4.612 0 0 1-4.612 4.612H4.612A4.612 4.612 0 0 1 0 53.035V4.612A4.612 4.612 0 0 1 4.612 0z" style="fill:#0635c9" transform="translate(297.459 93.459)"/>
        </g>
        <path data-name="Rectangle 2819" d="M11.529 11.529v34.589h34.589V11.529H11.529M4.612 0h48.423a4.612 4.612 0 0 1 4.612 4.612v48.423a4.612 4.612 0 0 1-4.612 4.612H4.612A4.612 4.612 0 0 1 0 53.035V4.612A4.612 4.612 0 0 1 4.612 0z" transform="translate(297.459 164.941)" style="fill:#0635c9"/>
        <path data-name="Rectangle 2820" d="M11.529 11.529v34.589h34.589V11.529H11.529M4.612 0h48.423a4.612 4.612 0 0 1 4.612 4.612v48.423a4.612 4.612 0 0 1-4.612 4.612H4.612A4.612 4.612 0 0 1 0 53.035V4.612A4.612 4.612 0 0 1 4.612 0z" transform="translate(366.636 236.423)" style="fill:#0635c9"/>
        <path data-name="Rectangle 2821" d="M11.529 11.529v34.589h34.589V11.529H11.529M4.612 0h48.423a4.612 4.612 0 0 1 4.612 4.612v48.423a4.612 4.612 0 0 1-4.612 4.612H4.612A4.612 4.612 0 0 1 0 53.035V4.612A4.612 4.612 0 0 1 4.612 0z" transform="translate(297.459 236.423)" style="fill:#0635c9"/>
        <path data-name="Rectangle 2822" d="M11.529 11.529v69.177h34.589V11.529H11.529M4.612 0h48.423a4.612 4.612 0 0 1 4.612 4.612v83.011a4.612 4.612 0 0 1-4.612 4.612H4.612A4.612 4.612 0 0 1 0 87.623V4.612A4.612 4.612 0 0 1 4.612 0z" transform="translate(334.353 360.941)" style="fill:#1541cb"/>
        <path data-name="Path 7431" d="M-11755.985-3246.489a5.765 5.765 0 0 1-5.765-5.765v-36.163a5.765 5.765 0 0 1 5.765-5.765 5.765 5.765 0 0 1 5.765 5.765v36.163a5.765 5.765 0 0 1-5.765 5.765z" transform="translate(11803.834 3613.194)" style="fill:#1ae5be"/>
        <path data-name="Path 7416" d="M-11512.371-3175.086c-.023-7.281-.583-160.125 0-183.686.128-5.019-1.1-8.64-3.764-11.071-2.682-2.451-6.5-3.381-9.225-3.729a26.469 26.469 0 0 0-5.485-.146l-.327.037h-169.79v-11.53h169.177a38.021 38.021 0 0 1 7.882.2c6.283.8 11.662 3.1 15.547 6.657a21.962 21.962 0 0 1 5.633 8.211 29.4 29.4 0 0 1 1.878 11.657c-.582 23.4 0 181.578 0 183.36z" transform="translate(11772.539 3533.741)" style="fill:#1ae5be"/>
        <path data-name="Path 7426" d="M254.424 145.609h-9.817a4.607 4.607 0 0 0 0 9.214h9.817a4.607 4.607 0 1 0 0-9.214zm0 0" transform="translate(-28.043 55.301)" style="fill:#1ae5be"/>
        <path data-name="Path 7427" d="M131.822 154.823h64.014a4.607 4.607 0 1 0 0-9.214h-64.014a4.607 4.607 0 0 0 0 9.214zm0 0" transform="translate(-1.862 55.301)" style="fill:#1ae5be"/>
        <path data-name="Path 7428" d="M237.253 175.609h-66.611a4.607 4.607 0 0 0 0 9.214h66.611a4.607 4.607 0 0 0 0-9.214zm0 0" transform="translate(-10.873 48.335)" style="fill:#1ae5be"/>
        <path data-name="Path 7429" d="M131.822 184.823h10.264a4.607 4.607 0 0 0 0-9.214h-10.264a4.607 4.607 0 0 0 0 9.214zm0 0" transform="translate(-1.862 48.335)" style="fill:#1ae5be"/>
        <path data-name="Rectangle 2907" d="M12 12v24h154V12H12M6 0h166a6 6 0 0 1 6 6v36a6 6 0 0 1-6 6H6a6 6 0 0 1-6-6V6a6 6 0 0 1 6-6z" transform="translate(272)" style="fill:#0635c9"/>
    </g>
</svg>
