<svg version="1.1" xmlns="http://www.w3.org/2000/svg" xmlns:xlink="http://www.w3.org/1999/xlink" viewBox="0 0 172 172"><g fill="none" fill-rule="nonzero" stroke="none" stroke-width="1" stroke-linecap="butt" stroke-linejoin="miter" stroke-miterlimit="10" stroke-dasharray="" stroke-dashoffset="0" font-family="none" font-weight="none" font-size="none" text-anchor="none" style="mix-blend-mode: normal"><path d="M0,172v-172h172v172z" fill="none"></path><g><path d="M35.84252,148.32111c-2.65205,-0.05968 -5.07631,1.49202 -6.13267,3.92534c-1.05636,2.43332 -0.53457,5.26396 1.31997,7.1607c1.85454,1.89674 4.67273,2.48206 7.12919,1.4807c2.45646,-1.00136 4.06229,-3.3901 4.06228,-6.04283c0.03565,-3.5612 -2.81768,-6.47945 -6.37878,-6.52391zM35.84252,157.33767c-1.02173,0.06128 -1.97739,-0.5072 -2.41118,-1.4343c-0.43379,-0.9271 -0.25785,-2.02506 0.44391,-2.77019c0.70176,-0.74514 1.7872,-0.98654 2.73862,-0.60908c0.95143,0.37747 1.57614,1.29735 1.57619,2.32092c0.03731,1.33553 -1.01216,2.44989 -2.34753,2.49266z" fill="#0635c9"></path><path d="M87.74184,163.26563v-17.42306c-0.00333,-2.96715 -2.40785,-5.37167 -5.375,-5.375h-2.18762v-4.558c6.68171,-1.00727 11.62551,-6.74447 11.63452,-13.50166v-8.93896l45.75032,-0.22004c7.35601,-0.04385 13.28846,-6.03371 13.26147,-13.3898l-0.31746,-66.05841c-0.00238,-0.53527 -0.21779,-1.04757 -0.59864,-1.4237l-28.71023,-28.3763c-0.00672,-0.00672 -0.01512,-0.01142 -0.02184,-0.01814c-0.37919,-0.39799 -0.9049,-0.62321 -1.45461,-0.62316h-0.01008c-0.08599,0.00103 -0.17183,0.00754 -0.25699,0.01948l-0.07962,-0.00773c-0.06719,-0.00638 -0.13202,-0.00806 -0.20156,-0.00907l-39.69169,0.19048c-3.53425,0.01698 -6.91699,1.43728 -9.40402,3.94843c-2.48703,2.51116 -3.8746,5.90745 -3.85745,9.4417l0.16797,34.67211l-31.52102,25.10058c-0.0641,0.05111 -0.12501,0.10608 -0.18241,0.16461c-2.51518,2.5475 -3.92197,5.98557 -3.91401,9.56548v54.02211h-4.22273c-2.96715,0.00333 -5.37167,2.40785 -5.375,5.375v17.42306c0.00352,2.96707 2.40793,5.37148 5.375,5.375h55.8177c2.96707,-0.00352 5.37148,-2.40793 5.375,-5.375zM143.66972,31.87778l-12.5093,0.06013h-0.04401c-5.11311,-0.00637 -9.26326,-4.13701 -9.29371,-9.25004l-0.06013,-12.46328zM72.94379,10.3378c1.7306,-1.7574 4.09239,-2.74934 6.55884,-2.75469l38.2139,-0.18342l0.07357,15.30699c0.04301,7.33168 5.99451,13.25466 13.3263,13.26248h0.06484l15.30733,-0.07357l0.30738,63.98299c0.01188,2.46503 -0.95597,4.83382 -2.69064,6.58524c-1.73466,1.75142 -4.09403,2.742 -6.55907,2.75382l-57.5518,0.27681h-0.04569c-5.11259,0.00156 -9.2658,-4.12778 -9.29371,-9.2403v-2.01562l9.79695,-9.79627c4.18794,-4.19779 4.18794,-10.99331 0,-15.19109l-2.05695,-2.05661c-0.72348,-0.72323 -1.874,-0.78981 -2.67608,-0.15487l-5.18385,4.10448l-0.27984,-58.22066c-0.01938,-2.46621 0.94872,-4.83766 2.68851,-6.58572zM34.80313,86.44545c-0.00593,-2.48194 0.95333,-4.86896 2.67507,-6.6566l28.93665,-23.04095l0.10078,21.57559l-18.74229,14.84038c-0.56759,0.44603 -0.85332,1.16154 -0.7491,1.87585c0.10422,0.71431 0.58248,1.31835 1.25385,1.5836c0.67137,0.26526 1.43334,0.15123 1.99764,-0.29895l26.53503,-21.01087l0.7908,0.78744c2.61595,2.62247 2.61595,6.86742 0,9.4899l-12.34033,12.34033c-0.34991,0.34984 -0.55892,0.81617 -0.58722,1.31016l-0.15587,2.6912c-0.00235,0.03863 -0.00336,0.0776 -0.00336,0.11657c0.01289,2.01102 0.47184,3.99412 1.34375,5.80634c2.02594,4.34885 1.64551,9.43818 -1.00445,13.4375c-0.22076,0.33107 -0.33858,0.72008 -0.33863,1.118v5.81743c0,1.1132 0.90243,2.01563 2.01563,2.01563c1.1132,0 2.01563,-0.90243 2.01563,-2.01562v-5.23055c2.40465,-3.9314 3.19689,-8.64003 2.21114,-13.14187c2.47372,2.36611 5.76815,3.68147 9.19125,3.66978h0.06551l7.77023,-0.03763v8.91981c-0.00592,5.30997 -4.30893,9.61312 -9.6189,9.61923c-1.1132,0 -2.01562,0.90243 -2.01562,2.01563v6.4248h-41.34719zM25.20539,163.26563v-17.42306c0,-0.74213 0.60162,-1.34375 1.34375,-1.34375h55.8177c0.74213,0 1.34375,0.60162 1.34375,1.34375v17.42306c0,0.74213 -0.60162,1.34375 -1.34375,1.34375h-55.8177c-0.74213,0 -1.34375,-0.60162 -1.34375,-1.34375z" fill="#0635c9"></path><path d="M132.03923,81.60762h-5.03402c-1.1132,0 -2.01562,0.90243 -2.01562,2.01563c0,1.1132 0.90243,2.01563 2.01563,2.01563h5.03402c1.1132,0 2.01563,-0.90243 2.01563,-2.01562c0,-1.1132 -0.90243,-2.01562 -2.01562,-2.01562z" fill="#1ae5be"></path><path d="M88.36735,85.63887h31.47466c1.1132,0 2.01563,-0.90243 2.01563,-2.01562c0,-1.1132 -0.90243,-2.01562 -2.01562,-2.01562h-31.47466c-1.1132,0 -2.01562,0.90243 -2.01562,2.01563c0,1.1132 0.90243,2.01563 2.01563,2.01563z" fill="#1ae5be"></path><path d="M132.03923,68.07135h-30.95866c-1.1132,0 -2.01562,0.90243 -2.01562,2.01563c0,1.1132 0.90243,2.01563 2.01563,2.01563h30.95866c1.1132,0 2.01563,-0.90243 2.01563,-2.01562c0,-1.1132 -0.90243,-2.01562 -2.01562,-2.01562z" fill="#1ae5be"></path><path d="M88.36735,72.1026h5.68305c1.1132,0 2.01563,-0.90243 2.01563,-2.01562c0,-1.1132 -0.90243,-2.01562 -2.01562,-2.01562h-5.68305c-1.1132,0 -2.01562,0.90243 -2.01562,2.01563c0,1.1132 0.90243,2.01563 2.01563,2.01563z" fill="#1ae5be"></path><path d="M132.03923,95.14388h-28.54965c-1.1132,0 -2.01562,0.90243 -2.01562,2.01563c0,1.1132 0.90243,2.01563 2.01563,2.01563h28.54965c1.1132,0 2.01563,-0.90243 2.01563,-2.01562c0,-1.1132 -0.90243,-2.01562 -2.01562,-2.01562z" fill="#1ae5be"></path><path d="M96.32638,95.14388h-7.95903c-1.1132,0 -2.01562,0.90243 -2.01562,2.01563c0,1.1132 0.90243,2.01563 2.01563,2.01563h7.95903c1.1132,0 2.01563,-0.90243 2.01563,-2.01562c0,-1.1132 -0.90243,-2.01562 -2.01563,-2.01562z" fill="#1ae5be"></path><path d="M132.03923,40.99882h-27.59928c-1.1132,0 -2.01562,0.90243 -2.01562,2.01563c0,1.1132 0.90243,2.01563 2.01563,2.01563h27.59928c1.1132,0 2.01563,-0.90243 2.01563,-2.01562c0,-1.1132 -0.90243,-2.01562 -2.01562,-2.01562z" fill="#1ae5be"></path><path d="M88.36735,45.03007h9.04243c1.1132,0 2.01563,-0.90243 2.01563,-2.01562c0,-1.1132 -0.90243,-2.01562 -2.01562,-2.01562h-9.04243c-1.1132,0 -2.01562,0.90243 -2.01562,2.01563c0,1.1132 0.90243,2.01563 2.01563,2.01563z" fill="#1ae5be"></path><path d="M132.03923,54.53509h-7.44303c-1.1132,0 -2.01562,0.90243 -2.01562,2.01563c0,1.1132 0.90243,2.01563 2.01563,2.01563h7.44303c1.1132,0 2.01563,-0.90243 2.01563,-2.01562c0,-1.1132 -0.90243,-2.01562 -2.01562,-2.01562z" fill="#1ae5be"></path><path d="M88.36735,58.56634h29.19868c1.1132,0 2.01563,-0.90243 2.01563,-2.01562c0,-1.1132 -0.90243,-2.01562 -2.01562,-2.01562h-29.19868c-1.1132,0 -2.01562,0.90243 -2.01562,2.01563c0,1.1132 0.90243,2.01563 2.01563,2.01563z" fill="#1ae5be"></path></g></g></svg>