<svg version="1.1" xmlns="http://www.w3.org/2000/svg" xmlns:xlink="http://www.w3.org/1999/xlink" viewBox="0 0 172 172"><g fill="none" fill-rule="nonzero" stroke="none" stroke-width="1" stroke-linecap="butt" stroke-linejoin="miter" stroke-miterlimit="10" stroke-dasharray="" stroke-dashoffset="0" font-family="none" font-weight="none" font-size="none" text-anchor="none" style="mix-blend-mode: normal"><path d="M0,172v-172h172v172z" fill="none"></path><g><path d="M135.19435,43.81263h0.54355c6.01636,-0.00666 10.89197,-4.88213 10.89882,-10.89848v-5.12103c-0.00685,-6.01641 -4.88241,-10.89197 -10.89882,-10.89882h-0.54355c-6.01589,0.00759 -10.89063,4.88293 -10.89748,10.89882v5.12103c0.00703,6.01576 4.88172,10.89089 10.89748,10.89848zM128.32813,27.79312c0.00444,-3.79049 3.07574,-6.86239 6.86623,-6.86757h0.54355c3.79109,0.00426 6.86331,3.07648 6.86757,6.86757v5.12103c-0.00426,3.7909 -3.07633,6.86298 -6.86723,6.86723h-0.54355c-3.79056,-0.00481 -6.86212,-3.07667 -6.86656,-6.86723z" fill="#0635c9"></path><path d="M168.64063,38.91567c0.00477,-18.0828 -14.47361,-32.8382 -32.55325,-33.17612c-18.07964,-0.33791 -33.09928,13.86617 -33.77022,31.93651l-45.60687,23.6117l1.85337,3.57975l43.88587,-22.72046c1.60872,16.2143 14.73845,28.86925 31.00098,29.87996v27.94597c-16.30944,1.01415 -29.46004,13.73752 -31.01207,30.00459l-42.52263,-24.55031l-2.01562,3.4914l44.42639,25.64916c0.79853,17.8495 15.5905,31.85996 33.45704,31.68939c17.86654,-0.17057 32.38832,-14.46089 32.84592,-32.32238c0.4576,-17.86149 -13.3134,-32.87665 -31.14777,-33.96185v-27.94597c17.49666,-1.08525 31.13771,-15.58107 31.15887,-33.11134zM150.44625,63.90505c-9.21887,5.53847 -20.74138,5.53847 -29.96025,0v-8.37459c0.02606,-4.12326 3.05932,-7.60953 7.13934,-8.20561c2.05416,2.23426 4.94772,3.50963 7.98275,3.5185c3.03503,0.00887 5.93599,-1.24958 8.00317,-3.4718c3.95225,0.70776 6.83072,4.14379 6.83498,8.15891zM106.32422,38.91567c-0.00798,-13.46298 9.20693,-25.17925 22.29268,-28.34393c13.08575,-3.16468 26.63614,3.04598 32.78105,15.0248c6.14491,11.97882 3.28482,26.60774 -6.9191,35.39022v-5.4563c-0.00398,-6.49911 -5.05388,-11.8783 -11.53979,-12.29229c-1.06425,-0.07727 -1.62191,0.60838 -1.99177,1.05988c-1.33865,1.63645 -3.3577,2.56342 -5.4713,2.51194c-2.1136,-0.05148 -4.08513,-1.07564 -5.34253,-2.77532c-0.39186,-0.52698 -1.01474,-0.83147 -1.67129,-0.817c-6.6624,0.20731 -11.96745,5.64727 -12.00741,12.31278v5.45562c-6.43329,-5.52783 -10.13318,-13.58843 -10.13053,-22.07042zM120.48734,158.0727v-8.37459c0.02594,-4.12324 3.0593,-7.60948 7.13934,-8.20527c2.05426,2.23412 4.94783,3.50937 7.98283,3.51817c3.035,0.0088 5.93591,-1.24964 8.0031,-3.47181c3.95225,0.70776 6.83072,4.14379 6.83498,8.15891v8.37593c-9.21887,5.53847 -20.74138,5.53847 -29.96025,0zM164.60938,133.08433c0.00247,8.48243 -3.69794,16.54333 -10.13188,22.07109v-5.4573c-0.00415,-6.49904 -5.05395,-11.87814 -11.53979,-12.29229c-1.06425,-0.07895 -1.62191,0.60838 -1.99177,1.06022c-1.33865,1.63645 -3.3577,2.56342 -5.4713,2.51194c-2.1136,-0.05148 -4.08513,-1.07564 -5.34253,-2.77532c-0.39183,-0.52706 -1.01469,-0.83167 -1.67129,-0.81734c-6.6618,0.20818 -11.96596,5.64785 -12.00607,12.31278v5.45697c-10.19633,-8.78308 -13.05123,-23.40642 -6.90712,-35.37963c6.14411,-11.97321 19.68865,-18.18109 32.76959,-15.01932c13.08094,3.16177 22.29488,14.87056 22.29215,28.32819z" fill="#0635c9"></path><path d="M124.29688,121.96245v5.1207c0.00685,6.01636 4.88246,10.89182 10.89882,10.89848h0.54355c6.01583,-0.0074 10.89063,-4.88265 10.89748,-10.89848v-5.1207c-0.00666,-6.01641 -4.88207,-10.89212 -10.89848,-10.89916h-0.54355c-6.01615,0.00741 -10.89115,4.88301 -10.89781,10.89916zM142.60547,121.96245v5.1207c-0.00426,3.7909 -3.07633,6.86298 -6.86723,6.86723h-0.54355c-3.79056,-0.00481 -6.86212,-3.07667 -6.86656,-6.86723v-5.1207c0.00426,-3.79114 3.07643,-6.86346 6.86757,-6.86791h0.54355c3.7907,0.005 6.86216,3.07721 6.86623,6.86791z" fill="#0635c9"></path><path d="M36.80565,63.97896h-0.54355c-6.01641,0.00685 -10.89197,4.88241 -10.89882,10.89882v5.1207c0.00685,6.01641 4.88241,10.89197 10.89882,10.89882h0.54355c6.01596,-0.00741 10.89081,-4.88285 10.89748,-10.89882v-5.1207c-0.00666,-6.01597 -4.88151,-10.89141 -10.89748,-10.89882zM43.67188,79.99848c-0.00426,3.79096 -3.07628,6.86313 -6.86723,6.86757h-0.54355c-3.79062,-0.005 -6.86212,-3.07695 -6.86656,-6.86757v-5.1207c0.00426,-3.79109 3.07648,-6.86331 6.86757,-6.86757h0.54355c3.79064,0.00481 6.86215,3.07693 6.86623,6.86757z" fill="#1ae5be"></path><path d="M36.53388,52.8255c-13.41796,-0.00054 -25.51499,8.08182 -30.6502,20.47824c-5.13521,12.39642 -2.29727,26.66558 7.19047,36.1537c9.48773,9.48812 23.75678,12.32663 36.15341,7.19193c12.39663,-5.1347 20.47948,-17.23142 20.47948,-30.64937c-0.02073,-18.31265 -14.86051,-33.15302 -33.17316,-33.1745zM21.55375,110.98938v-8.37559c0.02609,-4.12337 3.05952,-7.60968 7.13968,-8.20561c2.05427,2.23407 4.94779,3.50931 7.98275,3.51818c3.03496,0.00887 5.93589,-1.24945 8.00317,-3.47148c3.95212,0.70791 6.83041,4.1439 6.83465,8.15891v8.37526c-9.2188,5.53869 -20.74145,5.53869 -29.96025,0zM55.54525,108.07109v-5.4573c-0.00403,-6.49978 -5.05484,-11.87931 -11.54147,-12.29262c-1.06123,-0.07088 -1.61989,0.60872 -1.99043,1.06055c-1.33871,1.63628 -3.3577,2.5631 -5.47121,2.51156c-2.11351,-0.05154 -4.08492,-1.07568 -5.34228,-2.77527c-0.39031,-0.52879 -1.01392,-0.83407 -1.67095,-0.81801c-6.66239,0.20785 -11.96701,5.64827 -12.00641,12.31379v5.4573c-9.2352,-7.94869 -12.55046,-20.8038 -8.31129,-32.22746c4.23917,-11.42366 15.13782,-19.00417 27.32267,-19.00417c12.18485,0 23.0835,7.58051 27.32267,19.00417c4.23917,11.42366 0.9239,24.27877 -8.31129,32.22746z" fill="#1ae5be"></path></g></g></svg>