<svg xmlns="http://www.w3.org/2000/svg" width="581.995" height="481.656" viewBox="0 0 581.995 481.656">
    <path data-name="Path 14885" d="M190.89 56.11a13.982 13.982 0 0 1 12.14-8.49c5.18-.21 10.37-.12 15.55-.06l1.283.06c-5.66 2.36-10.023 9.24-9.623 15.34.15 18.51-.23 37.07.19 55.56a95.566 95.566 0 0 1 14.74 22.37c1.34 2.98 2.94 5.96 3.21 9.28.06 7.96-.08 15.92.05 23.88-.01 3.06 2.59 5.49 5.49 5.96.14 9.19-.23 18.39.19 27.57 6.86 1.54 12.45 6.73 15.27 13.07-3 .14-6.62-.62-8.95 1.79-3.2 2.84-2.12 8.66 1.87 10.2 2.83.92 5.89.35 8.83.49a28.51 28.51 0 0 1-17.85 23.64c.27 11.16-.75 22.45-4.22 33.11a91.344 91.344 0 0 1-37.77 49.35c.02 10.14-.01 20.27.01 30.4q20.385 8.625 40.71 17.35c4.6 2.01 9.38 3.73 13.58 6.55a53.306 53.306 0 0 1 21.45 27.8c-2.747.115 2.212 13.572 0 25.827-1.686 9.339 3.783 29.625 0 37-3.213 6.267-15.67.058-17.66 0-4.31-14.68-18.97-89.657-33.14-95.277-8.92-3.71-17.73-7.7-26.71-11.27-.21-18.1-.04-36.2-.09-54.29a89.868 89.868 0 0 0 22.86-53.45 91.231 91.231 0 0 0 .52-12.91c8.3-3.58 15.09-10.94 17.01-19.89 2.09-8.49-.02-18.31-6.57-24.36-2.69-2.68-6.21-4.17-9.7-5.48-.72-11.69.1-23.56-.58-35.31a91.642 91.642 0 0 0-23.15-53.33c-.2-17.88-.01-35.76-.09-53.64.06-2.96-.24-6.11 1.15-8.84z" style="fill:#d4e1f4" transform="translate(0 -15.576)"/>
    <path data-name="Path 14883" d="M249.3 20.9a6.279 6.279 0 0 1 6.77-5.29q90.945-.03 181.89-.01a66.168 66.168 0 0 1 7.04.14 6.164 6.164 0 0 1 5.14 6.23c.11 4.28-.02 8.55.04 12.83 12.26.06 24.53-.12 36.79.09 13.17.67 24.35 12.25 25.03 25.34v410.58a27.274 27.274 0 0 1-15.41 23.72c-4.5 2.26-9.6 2.83-14.57 2.68q-116.775-.045-233.54-.02a54.625 54.625 0 0 0-2.13-12.48q117.81.105 235.62.03c3.85.12 7.96-.26 11.17-2.61a14.95 14.95 0 0 0 6.37-13.05c0-113.05-.01-289.1.01-402.15.01-4.16.29-8.66-2-12.35a14.522 14.522 0 0 0-12.54-7.28c-11.6-.08-23.2-.01-34.8-.03-.12 3.92.22 7.86-.19 11.77a6.428 6.428 0 0 1-6.98 4.83q-93.525-.015-187.07-.01a6.235 6.235 0 0 1-6.69-5.75c-.18-3.61.01-7.23-.08-10.84h-24.2c-2-.04-16.76.14-21.94.35a13.982 13.982 0 0 0-12.14 8.49c-1.39 2.73-1.09 5.88-1.15 8.84.08 17.88-.11 35.76.09 53.64a116.116 116.116 0 0 0-12.87-11.82c.05-15.61-.13-31.24.09-46.85.62-13.36 12.56-24.89 25.92-25.09 15.4-.08 30.8 0 46.2-.03.11-4.64-.15-9.28.13-13.9m12.39 30.47q87.99.1 175.97.04c.07-7.76-.04-15.53.06-23.29q-77.64-.15-155.27 0c-6.88.1-13.76.12-20.63-.01-.32 7.74-.05 15.51-.13 23.26z" style="fill:#0635c9" transform="translate(0 -15.576)"/>
    <path data-name="Path 14884" d="M261.82 28.11c6.87.13 13.75.11 20.63.01.04 7.68.1 15.37-.02 23.06-6.84-.05-13.68 0-20.52-.04-.07-7.68.1-15.36-.09-23.03z" style="fill:#d4e1f4" transform="translate(0 -15.576)"/>
    <path data-name="Path 14886" d="M65.12 106.2a92.511 92.511 0 0 1 111.84.57 116.116 116.116 0 0 1 12.87 11.82 91.642 91.642 0 0 1 23.15 53.33c.68 11.75-.14 23.62.58 35.31 3.49 1.31 7.01 2.8 9.7 5.48 6.55 6.05 8.66 15.87 6.57 24.36-1.92 8.95-8.71 16.31-17.01 19.89a91.231 91.231 0 0 1-.52 12.91 89.868 89.868 0 0 1-22.86 53.45 168.084 168.084 0 0 1-12.54 11.47 61.5 61.5 0 0 1-5.98 4.42c-.09 10.16-.23 20.33.07 30.49a45.781 45.781 0 0 1 5.94 2.55c4.1 2 8.35 3.7 12.6 5.36 8.98 3.57 17.79 7.56 26.71 11.27a51.334 51.334 0 0 1 30.03 32.55l.08.28a54.625 54.625 0 0 1 2.13 12.48c-.04 18.93.06 37.86-.05 56.79a6.189 6.189 0 0 1-6.43 6.14q-117.48.045-234.96.02A6.549 6.549 0 0 1 0 491.82v-59.51c1.71-18.08 13.44-34.95 30.15-42.25 15.93-6.76 31.81-13.65 47.78-20.33.14-9.18.03-18.36.05-27.54a91.441 91.441 0 0 1-34.87-34.24 92.8 92.8 0 0 1-12.08-51.04c-11.02-4.42-18.87-15.9-17.93-27.89a23.135 23.135 0 0 1 15.08-20.96c.48-16.68-1.5-33.69 2.68-50.04a92.516 92.516 0 0 1 34.26-51.82m7.89 9.68a79.98 79.98 0 0 0-31.1 50.2c-1.69 8.88-1.15 17.95-1.24 26.93.04 6.31-.08 12.61.07 18.92a39.7 39.7 0 0 0 4.41 2.12c.73-10.39 1.2-20.8 1.97-31.18a6.128 6.128 0 0 1 5.81-5.32c25.57.48 51.32-1.93 76.08-8.57 15.81-4.34 31.31-10.72 44.49-20.63a6.275 6.275 0 1 1 7.08 10.3c-23.34 17.22-52.16 25.04-80.53 28.85 8.71 5.98 18.44 10.32 28.38 13.81 23.16 7.68 47.99 9.6 72.2 7.23-.01-9.85.03-19.71-.02-29.56a79.575 79.575 0 0 0-19-50.59 24.863 24.863 0 0 1-5.35-5.72 79.929 79.929 0 0 0-103.25-6.79m-13.88 74.27c-.68 10.63-1.23 21.27-1.98 31.9-.27 5.45-6.87 9.08-11.62 6.35-4.68-2.59-9.91-4.39-13.93-8.03-2.14.52-3.82 2.55-4.85 4.47-3.57 7.71.99 17.75 9.06 20.3 2.87.71 6.35 1.55 7.29 4.82.77 4.29.13 8.71.36 13.06a78.248 78.248 0 0 0 155.96 9.09c.91-7.03.35-14.13.67-21.18.4-2.97 3.13-4.93 5.95-5.31 8.51-1.73 14.04-11.56 11.08-19.73-1.32-3.77-5.58-7.51-9.71-5.67a185.173 185.173 0 0 1-42.35 1.21c-29.98-2.33-60.11-12.22-83.22-31.94-7.57.39-15.13.68-22.71.66m31.31 157.87c.11 6.77-.02 13.54.07 20.3a88.988 88.988 0 0 0 67.52-.1c-.08-7.44-.02-14.87-.03-22.3a92.524 92.524 0 0 1-67.56 2.1m-54.42 53.1C21.62 407 11.65 422.42 12.48 438q.015 23.325 0 46.66 111.735.06 223.45.04c.13-16.58.02-33.16.07-49.74a39.02 39.02 0 0 0-21.92-33.15c-17.04-7.35-34.19-14.45-51.18-21.92-24.42 9.85-52.62 10.14-76.99-.02-16.66 7.02-33.24 14.2-49.89 21.25z" style="fill:#1ae5be" transform="translate(0 -15.576)"/>
    <path data-name="Path 14887" d="M228.4 121.99a6.254 6.254 0 0 1 6.52-6.5q47.04-.06 94.08-.01a6.315 6.315 0 0 1 6.69 6.48c.05 17 .01 34.01.02 51.02a6.417 6.417 0 0 1-4.74 6.81 60.472 60.472 0 0 1-7.96.21q-44.55.015-89.09.01c-2.9-.47-5.5-2.9-5.49-5.96-.13-7.96.01-15.92-.05-23.88.02-9.39-.03-18.79.02-28.18m12.47 5.95c-.05 13.11.08 26.23-.06 39.34a9.658 9.658 0 0 0 3.22.27c26.41-.18 52.86.27 79.26-.22-.14-13.13-.01-26.26-.07-39.39q-41.175-.015-82.35 0z" style="fill:#0635c9" transform="translate(0 -15.576)"/>
    <path data-name="Path 14888" d="M408.45 115.62c15.18-.35 30.39-.07 45.57-.14a6.232 6.232 0 1 1 .02 12.45q-22.08 0-44.16-.01a6.216 6.216 0 0 1-1.43-12.3z" style="fill:#0635c9" transform="translate(0 -15.576)"/>
    <path data-name="Path 14889" d="M376.22 116.21c4.03-1.38 10.35-1.61 12.34 3.07 1.8 3.76-1.28 8.66-5.44 8.62-2.82.05-6.17.53-8.33-1.72a6.282 6.282 0 0 1 1.43-9.97z" style="fill:#0635c9" transform="translate(0 -15.576)"/>
    <path data-name="Path 14890" d="M376.2 168.25c1.44-.85 3.16-.7 4.77-.73 14.31.06 28.63-.05 42.94.05a6.184 6.184 0 0 1 5.59 7.4 6.3 6.3 0 0 1-6.52 5.02c-14.71-.01-29.43.07-44.15-.04-6.09.09-8.13-9.14-2.63-11.7z" style="fill:#0635c9" transform="translate(0 -15.576)"/>
    <path data-name="Path 14892" d="M240.43 222.44c2.33-2.41 5.95-1.65 8.95-1.79q46.335.06 92.68.02a6.393 6.393 0 0 1 6.94 5.31 6.205 6.205 0 0 1-5.94 7.12c-30.64.08-61.29.01-91.93.03-2.94-.14-6 .43-8.83-.49-3.99-1.54-5.07-7.36-1.87-10.2z" style="fill:#0635c9" transform="translate(0 -15.576)"/>
    <path data-name="Path 14893" d="M363.33 221.52c3.65-1.64 7.82-.54 11.7-.85 3.93.28 9.07-1.2 11.78 2.57 3.01 3.69.04 9.94-4.74 9.86-5.67-.02-11.37.21-17.03-.12-5.34-.96-6.52-8.99-1.71-11.46z" style="fill:#0635c9" transform="translate(0 -15.576)"/>
    <path data-name="Path 14895" d="M243.24 288.41c12.25-.47 24.56-.1 36.83-.19a6.221 6.221 0 1 1-.04 12.44q-17.55.03-35.11 0a6.219 6.219 0 0 1-1.68-12.25z" style="fill:#0635c9" transform="translate(0 -15.576)"/>
    <path data-name="Path 14896" d="M305.39 288.45c4.16-.21 9.88-1.51 12.55 2.7 2.57 3.71-.35 9.44-4.87 9.48-3.54-.15-7.93 1.03-10.61-1.99-3.15-3.15-1.42-9.19 2.93-10.19z" style="fill:#0635c9" transform="translate(0 -15.576)"/>
    <path data-name="Path 14897" d="M333.29 288.35c27.57-.35 55.17-.04 82.75-.15 3.53-.49 7.25 2.1 7.41 5.78a6.24 6.24 0 0 1-6.41 6.68q-41.055.03-82.09.01a6.231 6.231 0 0 1-1.66-12.32z" style="fill:#0635c9" transform="translate(0 -15.576)"/>
    <path data-name="Path 14899" d="M176.9 334.79a168.084 168.084 0 0 0 12.54-11.47c.05 18.09-.12 36.19.09 54.29-4.25-1.66-8.5-3.36-12.6-5.36.02-12.49.07-24.97-.03-37.46z" style="fill:#0635c9" transform="translate(0 -15.576)"/>
    <path data-name="Path 14900" d="M170.92 339.21a61.5 61.5 0 0 0 5.98-4.42c.1 12.49.05 24.97.03 37.46a45.781 45.781 0 0 0-5.94-2.55c-.3-10.16-.16-20.33-.07-30.49z" style="fill:#d4e1f4" transform="translate(0 -15.576)"/>
    <path data-name="Path 14901" d="M242.09 351.23c1.52-.74 3.25-.6 4.9-.64 21.67.03 43.35-.01 65.03.02a6.29 6.29 0 1 1-.07 12.52c-22.68-.06-45.37.14-68.05-.1-5.93-.49-7.31-9.54-1.81-11.8z" style="fill:#0635c9" transform="translate(0 -15.576)"/>
    <path data-name="Path 14902" d="M337.28 351.34c1.73-.93 3.77-.7 5.67-.75 10.68.1 21.36-.15 32.03.12 4.38.37 6.92 5.98 4.37 9.55a6.784 6.784 0 0 1-6.35 2.88c-11.34-.12-22.71.22-34.04-.17-5.61-.78-6.8-9.28-1.68-11.63z" style="fill:#0635c9" transform="translate(0 -15.576)"/>
    <path data-name="Path 14903" d="M389.1 351.19c3.97-.88 9.63-1.65 12.3 2.26 2.57 3.55.03 9.13-4.31 9.57-3.39.11-7.59.86-10.08-2.04a6.289 6.289 0 0 1 2.09-9.79z" style="fill:#0635c9" transform="translate(0 -15.576)"/>
    <path data-name="Path 14905" d="m-18884.123 15 72.6 163.065-16.814 16.326 20.672 13.237 20.555-9.152-3.89 18.024-44.334-27.833-72-163.333z" transform="rotate(24 -9503.304 45504.517)" style="fill:#d4e1f4"/>
    <path data-name="Path 14906" d="M145.284 191.534c1.412 1.363 2.776 3.114 4.866 3.381a5.9 5.9 0 0 0 5.382-1.977q18.747-18.736 37.479-37.495a5.755 5.755 0 0 0 .137-8.512c-29.3-29.345-93.99-93.989-123.294-123.319-1.783-1.726-3.405-3.889-5.939-4.51C45.05 12.865 26.242 6.482 7.362.318A5.622 5.622 0 0 0 .051 6.192c.815 3.76 2.364 7.318 3.478 10.989Q5.393 22.736 7.2 28.308c4.091 12 8.02 24.061 12.062 36.075.718 2.3 2.719 3.784 4.325 5.446 9.077 9.045 53.477 53.477 62.547 62.53q4.115 4.127 8.23 8.238 25.44 25.488 50.92 50.937m-6.9-23.237c2.041-2.146 21.737-22.189 29.684-29.9l.468-.04c4.373 4.163 8.545 8.528 12.837 12.765-7.972 7.915-15.838 15.943-23.867 23.8a78.541 78.541 0 0 0-6.189 6.2c-4.462-4.123-8.666-8.512-12.934-12.821M33.1 62.873a70.512 70.512 0 0 0 6.108-6.213c7.867-8.036 15.879-15.935 23.834-23.891 20.639 20.656 76.65 76.65 97.29 97.306-7.988 7.979-28.143 27.982-30.249 29.991-20.494-20.655-76.65-76.384-96.983-97.193m-9.626-22.14c-2.735-8.633-5.994-17.121-8.391-25.859 2.889 1.009 5.769 2.058 8.746 2.783 9.577 3.2 19.171 6.334 28.732 9.586q-9.489 9.513-19.009 18.993a79.712 79.712 0 0 0-6.132 5.89c-1.582-3.695-2.59-7.608-3.946-11.393z" transform="rotate(-135 301.13 98.944)" style="fill:#1541cb"/>
</svg>
