<svg xmlns="http://www.w3.org/2000/svg" width="575" height="575" viewBox="0 0 575 575">
    <defs>
        <clipPath id="d4014iu9la">
            <path data-name="Rectangle 2936" transform="translate(1460.334 141)" style="fill:#fb9d9d;opacity:0" d="M0 0h575v575H0z"/>
        </clipPath>
    </defs>
    <g transform="translate(-1460.334 -141)" style="clip-path:url(#d4014iu9la)">
        <path data-name="Path 7826" d="M-14793 298.667s-13.667 16.667-7.667 24.667-22.666 0-22.666 0l3.333-20z" transform="translate(16375.332 296)" style="fill:#d4e1f4"/>
        <path data-name="Path 7827" d="M-14793-101s-30 3.089-31 49.428 0 236.84 0 236.84-1 28.833 14 37.071-20 0-20 0l-13-15.446-7-30.892V-61.87l7-26.773 23-12.357z" transform="translate(16355.332 296)" style="fill:#d4e1f4"/>
        <path data-name="Path 7797" d="M1785.534 244.24c23.1 0 49.458 8.439 50.569 8.8.265.082 32.578 10.047 65.169 10.047 32.7 0 66.755-9.99 67.1-10.091.59-.234 23.748-8.755 45.168-8.755a57.635 57.635 0 0 1 16.329 2.11c25.035 7.448 34.844 35.864 35.25 37.07l39.322 118.171c.458 2.093 6.369 33.852-11.986 53.942-17.864 19.551-61.811 24.34-63.673 24.535a948.287 948.287 0 0 1-127.5 9.172c-67.266 0-143.64-9.091-144.4-9.183-1.689-.193-42.316-5.058-56.214-25.159-13.873-20.064-6.579-51.48-6.262-52.807l41.271-118.731c.033-.446 6.172-29.465 32.609-37.028a63.451 63.451 0 0 1 17.248-2.093zm115.737 30.846c-34.474 0-67.42-10.179-68.806-10.612-.308-.1-25.755-8.234-46.932-8.234a51.668 51.668 0 0 0-13.961 1.63c-19.344 5.534-24.317 28.435-24.365 28.666l-41.314 118.922c.034 0-6.121 27.072 4.628 42.619 8.992 13.005 37.512 18.894 47.743 20.065.79.095 76.473 9.1 143.005 9.1a937.16 937.16 0 0 0 125.966-9.07c11.723-1.24 44.081-7.3 56.352-20.731 14.329-15.683 9.314-42.54 9.262-42.809l-39.119-117.4c-.071-.208-8.283-23.719-27.291-29.374a45.787 45.787 0 0 0-12.907-1.612c-19.284 0-41.151 8.05-41.37 8.131-1.839.555-36.462 10.709-70.891 10.709z" transform="translate(-151.172 -15.24)" style="fill:#0635c9"/>
        <path data-name="Line 606" d="M6 49.5H-6V0H6z" transform="translate(1585.832 535)" style="fill:#0635c9"/>
        <path data-name="Line 607" d="M6 49.5H-6V0H6z" transform="translate(1605.832 535)" style="fill:#0635c9"/>
        <path data-name="Line 608" d="M6 49.5H-6V0H6z" transform="translate(1875.832 535)" style="fill:#0635c9"/>
        <path data-name="Line 609" d="M6 59.5H-6V0H6z" transform="translate(1895.832 535)" style="fill:#0635c9"/>
        <g data-name="Group 2030">
            <path data-name="Path 7798" d="M1941.986 286.024c5.739 0 11.662 2 17.6 5.951 8.382 4.542 15.662 14.067 20.215 21.21 6.242 9.793 7.2 25.942 6.333 33.821-1.147 10.476-5.648 21.583-5.839 22.05-.321.746-6.955 15.777-22.082 20.97-4.4 1.511-10.1 2.277-16.938 2.277a129.273 129.273 0 0 1-17.624-1.347c-5.109 9.126-19.154 31.57-39.275 42.926-12.466 7.035-25.262 10.6-38.033 10.6a63.11 63.11 0 0 1-18.916-2.836c-16.725-4.5-33.75-24.282-39.915-36.215-3.857-7.466-7.184-17.733-9.185-24.574l-16.353 8.44c-1.82 1.62-6.3 5-11.987 5a14.141 14.141 0 0 1-2.491-.22c-5.478-.978-7.695-4.384-9.476-7.121a25.215 25.215 0 0 0-5.17-6.11 27.625 27.625 0 0 0-7.02-4.142c-4.32-1.986-9.7-4.457-12.535-11.933-3.7-9.75 2.511-18.946 6.767-22.843a6 6 0 0 1 7.9-.178l18.974 15.867c4.62-7.525 12.868-19.508 21.336-24.765a25.525 25.525 0 0 1 13.635-3.957 27.373 27.373 0 0 1 14.258 4.059 6 6 0 0 1 .859.694s22.153 21.54 27.316 26.657a3.523 3.523 0 0 0 2.592 1.3 2.853 2.853 0 0 0 1.031-.189 9.23 9.23 0 0 1 1.406-.491 125.576 125.576 0 0 1 23.67-2.354c8.965 0 18.307 2.579 23.453 4.264l4.547-5.018c-3.839-7.513-9.851-23.744.69-37.447 4.553-5.92 10.946-6.938 16.587-7.837a38.117 38.117 0 0 0 7.571-1.724c1.6-.612 4.788-4.217 7.347-7.115 6.582-7.454 15.6-17.663 28.744-17.664zm27.251 78.386s4.013-9.94 4.974-18.711c.857-7.816-.756-20.153-4.524-26.064-5.286-8.294-11.223-14.634-16.287-17.394-4.39-2.89-8.08-4.217-11.415-4.217-7.735 0-14.118 7.229-19.75 13.607-4.132 4.679-7.7 8.72-12.069 10.385a48.6 48.6 0 0 1-9.956 2.361c-4.675.745-7.4 1.266-8.964 3.3-8.708 11.32 2.024 27.4 2.133 27.559a6 6 0 0 1-.517 7.4l-10.156 11.207a6.007 6.007 0 0 1-6.661 1.547c-.122-.048-12.311-4.829-23-4.829a116.468 116.468 0 0 0-20.578 1.973 14.785 14.785 0 0 1-5.528 1.061 15.44 15.44 0 0 1-11.039-4.773c-4.683-4.642-23.391-22.84-26.724-26.081a15.977 15.977 0 0 0-7.261-1.852 13.7 13.7 0 0 0-7.307 2.152c-7.944 4.931-17.684 20.862-20.767 26.584a6 6 0 0 1-9.132 1.759l-19.588-16.38a6.942 6.942 0 0 0-.6 5.5c1.046 2.754 2.353 3.463 6.329 5.291a38.885 38.885 0 0 1 9.839 5.952 37.315 37.315 0 0 1 7.4 8.657 14.06 14.06 0 0 0 1.3 1.827 7.521 7.521 0 0 0 4.771-2.039 6 6 0 0 1 1.576-1.177L1779.4 366.8a6 6 0 0 1 8.572 3.876c.046.184 4.679 18.559 10.2 29.248 5.255 10.172 19.892 26.78 32.61 30.2a51.67 51.67 0 0 0 15.56 2.354c10.679 0 21.49-3.046 32.135-9.053 21.815-12.311 36.368-41.438 36.513-41.73a6.008 6.008 0 0 1 6.5-3.244 122.491 122.491 0 0 0 19.784 1.846 42.421 42.421 0 0 0 13.042-1.626c10-3.434 14.869-14.159 14.915-14.266z" transform="translate(-99.093 5.516)" style="fill:#0635c9"/>
            <path data-name="Path 7799" d="M1818.642 392.69c-17.076-4.642-22.389-32.618-21.795-50.29 1.337-39.9 23.6-76.958 24.542-78.516l10.257 6.229c-.216.356-21.576 36-22.806 72.69-.547 16.273 4.874 36.112 12.95 38.307z" transform="translate(-57.159 -16.118)" style="fill:#0635c9"/>
            <path data-name="Path 7800" d="M1601.59 382.65a6 6 0 0 1-5.959-6.762c.137-1.071 3.563-26.314 21.532-32.732 8.039-2.871 13.382-1.147 16.449.805 6.56 4.176 7.482 12.064 7.565 12.95a6 6 0 0 1-11.941 1.188c-.12-.973-.786-3.222-2.1-4.032-1.145-.708-3.255-.57-5.942.389-10.937 3.906-13.641 22.764-13.665 22.953a6 6 0 0 1-5.939 5.241z" transform="translate(41.611 -16.112)" style="fill:#0635c9"/>
            <path data-name="Path 7801" d="M1579.831 416.476c-8.638 0-13.08-9.07-14.266-17.037a6 6 0 0 1 3.1-6.174l15.059-8.055a6 6 0 0 1 5.66 10.581l-10.876 5.818a7.029 7.029 0 0 0 1.735 2.953c4.428-.391 4.428-.391 8.693-2.877l1.976-1.147a80.987 80.987 0 0 0 7.581-4.68 6.066 6.066 0 0 1 8.359.815 5.936 5.936 0 0 1-.532 8.276 77.44 77.44 0 0 1-9.413 5.984l-1.926 1.118c-5.959 3.474-7.142 3.944-14.351 4.4q-.404.025-.799.025z" transform="translate(40.087 -13.939)" style="fill:#0635c9"/>
            <path data-name="Path 7802" d="M1656.85 437.353a5.981 5.981 0 0 1-2.282-.454c-25.8-10.623-34.407-30.391-34.761-31.228a6 6 0 0 1 11.041-4.7c.318.727 7.306 16.192 28.29 24.833a6 6 0 0 1-2.287 11.55z" transform="translate(42.815 -13.289)" style="fill:#0635c9"/>
        </g>
        <path data-name="Path 7803" d="M45 12a33.037 33.037 0 0 0-33 33v259a33.037 33.037 0 0 0 33 33h402a33.037 33.037 0 0 0 33-33V45a33.037 33.037 0 0 0-33-33H45m0-12h402a45 45 0 0 1 45 45v259a45 45 0 0 1-45 45H45a45 45 0 0 1-45-45V45A45 45 0 0 1 45 0z" transform="translate(1503.332 186)" style="fill:#0635c9"/>
        <path data-name="Path 7804" d="M1666.332 627.333h-135a6 6 0 0 1-5.845-7.354l3.553-15.333c.587-1.758 4.234-11.433 12.127-16.393 7.8-4.9 18.409-4.321 19.594-4.239l105.571-.014a6 6 0 0 1 0 12h-105.987c-2.554-.15-8.985.02-12.794 2.414-3.763 2.365-6.394 7.87-7.019 9.612l-1.672 7.308h127.472a6 6 0 0 1 0 12z" transform="translate(20)" style="fill:#0635c9"/>
        <path data-name="Path 7805" d="M1640.332 627.333h-109a6 6 0 0 1 0-12h101.773l-1.54-8.23c-.644-2.068-2.849-7.021-5.437-9.035-2.633-2.049-7.2-2.2-8.743-2.087l-86.054.019a6 6 0 0 1 0-12h85.574c.522-.067 9.795-.693 16.593 4.6 6.488 5.05 9.415 14.654 9.727 15.732l3 15.9a6 6 0 0 1-5.9 7.1z" transform="translate(293)" style="fill:#0635c9"/>
        <path data-name="Ellipse 737" d="M16.5 12a4.5 4.5 0 1 0 4.5 4.5 4.505 4.505 0 0 0-4.5-4.5m0-12A16.5 16.5 0 1 1 0 16.5 16.5 16.5 0 0 1 16.5 0z" transform="translate(1927.332 480)" style="fill:#0635c9"/>
        <path data-name="Rectangle 2941" d="M16.5 12a4.5 4.5 0 0 0 0 9h6a4.5 4.5 0 0 0 0-9h-6m0-12h6a16.5 16.5 0 0 1 0 33h-6a16.5 16.5 0 0 1 0-33z" transform="translate(1547.332 480)" style="fill:#0635c9"/>
        <path data-name="Rectangle 2942" d="M16.5 12a4.5 4.5 0 0 0 0 9h6a4.5 4.5 0 0 0 0-9h-6m0-12h6a16.5 16.5 0 0 1 0 33h-6a16.5 16.5 0 0 1 0-33z" transform="translate(1597.332 480)" style="fill:#0635c9"/>
        <path data-name="Rectangle 2943" d="M16.5 12a4.5 4.5 0 0 0 0 9h6a4.5 4.5 0 0 0 0-9h-6m0-12h6a16.5 16.5 0 0 1 0 33h-6a16.5 16.5 0 0 1 0-33z" transform="translate(1647.332 480)" style="fill:#0635c9"/>
        <g data-name="Group 2032">
            <path data-name="Path 7828" d="M-15014 571.5s-93.5 83 5.5 147c7.021 4.539-7.282 2.162-8 3-.859 1.464-2.138-1.227-8-3-11.529-3.485-8.873-2.089-3.5 0-19.254-9.645-18-9-18-9l-29.5-31s-5-37.5-5-39 9.5-33.5 9.5-33.5l22.5-24.5z" transform="translate(16758.332 -42)" style="fill:#d4e1f4"/>
            <path data-name="Ellipse 739" d="M80 12a68 68 0 1 0 68 68 68.077 68.077 0 0 0-68-68m0-12A80 80 0 1 1 0 80 80 80 0 0 1 80 0z" transform="translate(1670.332 525)" style="fill:#1ae5be"/>
            <g data-name="Group 2031">
                <path data-name="Path 7820" d="M1860.54 253.2c-6.514 0-11.61-1.885-15.178-5.621-5.592-5.855-4.747-13.637-4.632-14.505a6 6 0 1 1 11.9 1.572s-.257 2.95 1.458 4.691c1.88 1.909 5.725 2.015 8.619 1.767 6.559-.561 11.144-2.5 12.912-5.453a4.68 4.68 0 0 0 .495-4.057c-1.471-2.508-12.031-5.939-15.5-7.066l-1.955-.64c-11.09-3.688-17.47-9.8-17.963-17.218a16.213 16.213 0 0 1 3.9-12.475c9-10.989 25.3-12.879 34.3-7.7 8.183 4.709 9.282 12.4 8.641 16.2a6 6 0 0 1-11.861-1.812c.04-.581-.071-2.441-2.765-3.991-3.6-2.07-13.556-1.779-19.035 4.907a4.5 4.5 0 0 0-1.209 4.069c.112 1.677 3.576 4.569 9.777 6.631l1.875.614c10.35 3.362 19.883 6.941 22.811 13.721a16.754 16.754 0 0 1-1.212 14.973c-2.689 4.5-8.721 10.1-22.188 11.251q-1.65.142-3.19.142z" transform="translate(-114.284 383.246)" style="fill:#1ae5be"/>
                <path data-name="Path 7821" d="M1917.5 279a6 6 0 0 1-6-6v-24.713a6 6 0 0 1 12 0V273a6 6 0 0 1-6 6z" transform="translate(-164.997 382.162)" style="fill:#1ae5be"/>
                <path data-name="Path 7822" d="M1917.5 274.835a6 6 0 0 1-6-6v-20.548a6 6 0 0 1 12 0v20.547a6 6 0 0 1-6 6.001z" transform="translate(-164.997 302.713)" style="fill:#1ae5be"/>
            </g>
        </g>
    </g>
</svg>
