<svg xmlns="http://www.w3.org/2000/svg" width="575" height="575" viewBox="0 0 575 575">
    <defs>
        <clipPath id="i5nx9hfoxa">
            <path data-name="Rectangle 2922" transform="translate(1460.334 141)" style="fill:#fb9d9d;opacity:0" d="M0 0h575v575H0z"/>
        </clipPath>
    </defs>
    <g transform="translate(-1460.334 -141)" style="clip-path:url(#i5nx9hfoxa)">
        <path data-name="Ellipse 693" d="M459.348 195.915c1.848 0 3.094-.944 4.4.71a18.432 18.432 0 0 1 1.468 4.08l.01.047.018.086.054.263v.009l.015.076v.016l.015.072v.013l.016.078v.009l.034.17v.024l.012.061.006.027.011.055.006.031.011.056.006.028.013.063v.021l.016.081.007.033.01.049.008.042.008.039.009.045.007.036.01.049.006.031.01.05.005.026.02.1.006.031.01.053v.025l.011.056.005.026.011.055v.024l.011.057v.014l.04.206v.012l.011.058v.025l.011.057v.02l.012.063v.007l.057.294c0 .024 1.163 7.467 1.566 12.931v.006l.005.071v.013l.005.07.022.3v.256l.015.214V217.783l.007.106V218.308l.006.085V218.775l.006.089.005.084V219.238l.017.271v.193c.134 2.222.236 4.444.308 6.683a6 6 0 0 1-11.994.368c-.4-12.661-.856-16.451-3.385-28.772-.666-3.246 2.389-7.3 5.635-7.961.58-.065.986 5.895 1.386 5.895zm.491 63.557a6.061 6.061 0 0 1 .828.057 6 6 0 0 1 5.123 6.764q-.216 1.567-.453 3.126l-.011.074-.012.076-.048.311-.01.066v.017l-.009.059v.027l-.008.055v.028l-.008.055v.027l-.03.2v.02l-.008.051-.005.034-.008.049-.006.036-.007.045-.007.042-.007.044-.006.039-.007.044-.008.049-.009.057-.01.061v.03l-.008.053-.006.036-.008.052v.031l-.009.058v.025l-.012.072v.013l-.028.176v.011l-.012.075v.02l-.011.065v.023l-.011.066v.021l-.013.081-.029.18-.014.083v.017l-.012.072v.015l-.012.073v.014l-.013.08v.006l-.045.268-.014.086-.014.084v.007a232.326 232.326 0 0 1-7.834 32.374 6 6 0 0 1-11.425-3.669 221.3 221.3 0 0 0 8.38-36.952 6 6 0 0 1 5.876-5.159zm-23.578 73.876a6 6 0 0 1 5.319 8.768 234.064 234.064 0 0 1-15.989 26.265l-.05.071-.3.43-.049.07-.049.069-.253.357-.047.066-.008.011-.043.061-.005.007-.045.064-.005.007-.048.067-.253.354-.006.009-.045.063v.007l-.045.063-.006.009-.048.066-.153.213-.048.066-.008.011-.041.056-.013.018-.038.053-.011.015-.04.056-.01.013-.048.066-.154.213-.047.065-.009.013-.039.054-.013.018-.039.053-.01.014-.042.058-.007.01-.048.066-.154.212v.006l-.045.062-.01.014-.039.053-.015.02-.038.052-.01.013-.043.058-.008.011-.2.277-.009.013-.041.056-.012.017-.037.05-.014.02-.037.051-.013.017-.037.051-.013.018-.043.058-.006.009-.1.138-.009.012-.041.056-.014.019-.035.048-.016.021-.034.046-.019.025-.032.043-.017.024-.033.045-.018.024-.042.056-.007.009-.051.069-.007.009-.044.059-.014.019-.035.047-.018.024-.033.045-.018.024-.03.04-.022.03-.029.039-.02.027-.031.041-.019.025-.036.049-.014.018-.049.066-.013.017-.038.051-.015.02-.036.048-.018.024-.031.041-.021.028-.028.038-.024.032-.027.036-.021.028-.033.044-.018.024-.046.062-.051.067-.013.017-.039.052-.013.017-.036.047-.019.026-.032.042-.019.026-.031.041-.02.026-.034.045-.015.02-.039.052-.011.015-.1.137-.046.061-.014.018-.037.049-.017.023-.034.045-.017.022-.034.045-.019.025-.034.045-.015.019-.041.054-.01.013-.1.135-.01.014-.041.055-.011.015-.039.052-.014.018-.038.05-.015.019-.035.046-.017.023-.04.053-.009.012-.058.076a6 6 0 0 1-9.537-7.283 222.8 222.8 0 0 0 20.346-31.982 6 6 0 0 1 5.281-3.194zm-47.061 61.68a6 6 0 0 1 4.1 10.383q-7.815 7.266-16.28 13.814l-.064.05-.008.006-.064.049-.065.05h-.005l-.207.16-.064.049-.018.014-.048.037-.021.016-.045.035-.022.017-.046.035-.022.017-.041.032-.027.021-.047.036-.018.014-.068.052-.063.048-.023.018-.041.031-.032.025-.034.026-.031.023-.037.028-.031.024-.034.026-.032.024-.031.024-.037.028-.027.021-.036.028-.034.026-.068.052-.027.02-.043.033-.02.015-.043.033-.024.018-.04.03-.025.019-.041.031-.023.018-.044.033-.016.012-.05.038-.007.005-.238.18h-.007l-.055.042-.009.006-.053.04-.011.008-.055.041h-.007l-.057.043q-6.242 4.7-12.8 8.986a6 6 0 1 1-6.563-10.046 223.625 223.625 0 0 0 29.86-23.361 5.978 5.978 0 0 1 4.069-1.583zm-64.952 42.414a6 6 0 0 1 2.389 11.507q-10.582 4.567-21.672 8.1h-.012l-.072.023h-.011l-.074.024h-.009l-.337.107h-.011l-.071.022-.018.006-.063.02-.024.008-.06.019-.021.007-.064.02-.019.006-.162.051-.026.008-.056.018-.029.009-.049.015-.035.011-.047.015-.034.011-.044.014-.038.012-.045.014-.035.011-.077.024-.029.009-.053.016-.032.01-.049.015-.035.011-.045.014-.037.011-.042.013-.041.013-.039.012-.04.012-.033.01-.176.054-.025.008-.049.015-.033.01-.049.015-.028.009-.052.016-.027.008-.053.016-.022.007-.057.017h-.009l-.209.064h-.009l-.059.018-.022.007-.057.017-.019.006-.061.019h-.011l-.437.132h-.01l-.068.021h-.006l-.071.021q-6.23 1.868-12.6 3.4a6 6 0 1 1-2.8-11.67 220.893 220.893 0 0 0 35.948-11.963 5.978 5.978 0 0 1 2.368-.475zM209.88 454.74a6.066 6.066 0 0 1 .634.033 226.929 226.929 0 0 0 37.929.765 6 6 0 0 1 .788 11.974c-.939.06-1.873.115-2.815.164h-.192l-.251.013H245.511l-.107.005-.1.005H244.841l-.112.005h-.25l-.226.01H244.013l-.347.014h-.01q-2.428.1-4.868.147h-.12l-.351.007H228.498l-.485-.012H226.03h.07H226l-1.161-.042H223.578q-7.217-.316-14.317-1.064a6 6 0 0 1 .62-11.968zm-74.6-21.164a5.978 5.978 0 0 1 2.6.595A221.025 221.025 0 0 0 173.3 447.6a6 6 0 1 1-3.274 11.545q-2.2-.623-4.377-1.288h-.007l-.069-.021h-.008l-.067-.021h-.01l-.439-.135h-.009l-.067-.021h-.01l-.066-.02h-.011l-.068-.021-.372-.115-.071-.022h-.007l-.068-.021h-.011l-.362-.113h-.008l-.063-.02-.017-.005-.061-.019h-.015l-.061-.019-.019-.006-.06-.019h-.011l-.277-.088-.018-.006-.056-.018-.024-.007-.055-.017-.024-.008-.054-.017-.023-.007-.058-.018h-.012l-.193-.062-.024-.008-.052-.016-.026-.008-.052-.017-.028-.009-.05-.016-.029-.009-.049-.016-.032-.01-.049-.016-.022-.007-.185-.06-.025-.008-.05-.016-.029-.009-.049-.016-.029-.009-.052-.017-.027-.009-.049-.016-.032-.01-.049-.016-.024-.008-.179-.058-.03-.01-.045-.015-.033-.011-.047-.015-.034-.011-.045-.015-.034-.011-.045-.015-.036-.012-.044-.014-.03-.01-.16-.052-.044-.014-.04-.013-.041-.013-.038-.013-.041-.014-.041-.013-.04-.013-.038-.013-.042-.014-.04-.013-.045-.015-.033-.011-.079-.026-.022-.007-.06-.02-.031-.01-.047-.015-.037-.012-.046-.015-.034-.011-.046-.015-.034-.011-.047-.016-.034-.011-.052-.017-.027-.009-.08-.027-.018-.006-.063-.021-.029-.01-.051-.017-.033-.011-.047-.016-.036-.012-.044-.015-.036-.012-.044-.015-.037-.012-.049-.017-.029-.01-.078-.026-.027-.009-.056-.019-.027-.009-.052-.017-.034-.012-.045-.015-.037-.012-.042-.014-.038-.013-.043-.014-.037-.013-.051-.017-.027-.009-.079-.027-.021-.007-.061-.021-.026-.009-.054-.018-.029-.01-.053-.018-.029-.01-.053-.018-.027-.009-.055-.019-.027-.009-.07-.024h-.009l-.082-.028h-.01l-.072-.025-.018-.006-.062-.021-.025-.009-.056-.019-.026-.009-.055-.019-.026-.009-.058-.02-.023-.008-.07-.024h-.011l-.081-.028-.015-.005-.067-.023-.021-.007-.059-.02-.025-.009-.054-.019-.029-.01-.054-.019-.025-.009-.063-.022-.018-.006-.163-.057-.013-.052-.068-.024-.018-.006-.062-.022-.023-.008-.058-.02-.024-.009-.058-.02-.023-.008-.065-.023-.015-.005-.163-.057-.015-.005-.066-.023-.024-.008-.056-.02-.026-.009-.055-.019-.027-.009-.057-.02-.021-.007-.066-.023-.015-.005-.164-.058h-.005l-.077-.027h-.012l-.067-.024-.021-.007-.062-.022-.019-.007-.066-.023-.014-.005-.077-.027-.167-.06h-.006l-.074-.026-.018-.006-.062-.022-.023-.008-.056-.02-.026-.009-.06-.022-.017-.006-.074-.027h-.006l-.166-.06-.078-.028h-.011l-.068-.025-.019-.007-.062-.022-.02-.007-.062-.023-.018-.007-.078-.028-.167-.061h-.006l-.075-.027h-.013l-.068-.025-.015-.006-.066-.024-.017-.006-.067-.025h-.013l-.071-.026h-.011l-.165-.06-.077-.028h-.011l-.067-.025-.019-.007-.063-.023-.018-.007-.068-.025h-.012l-.248-.092-.08-.03h-.008l-.072-.027h-.013l-.068-.025-.016-.006-.071-.026h-.008l-.248-.092h-.006l-.077-.029h-.007l-.072-.027h-.013l-.071-.027h-.01l-.074-.028h-.007l-.249-.093-.079-.03h-.01l-.074-.028h-.007l-.076-.029h-.007l-.413-.157-.072-.027-.017-.006-.069-.026h-.011l-.077-.029-.33-.126h-.007l-.074-.028h-.01l-.071-.027h-.012l-.328-.126-.08-.031-.076-.029h-.011l-.071-.027h-.012l-.072-.028h-.009l-.247-.1-.079-.031h-.011l-.07-.027h-.013l-.07-.027h-.012l-.327-.128-.078-.031h-.006l-.073-.029-.013-.005-.07-.028h-.01l-.077-.03-.164-.065h-.007l-.074-.029h-.011l-.069-.027-.017-.007-.062-.025-.019-.008-.062-.024-.019-.008-.072-.029-.243-.1-.015-.006-.068-.027-.013-.005-.067-.027-.015-.006-.069-.027h-.012l-.075-.03h-.005l-.245-.1h-.008l-.07-.028-.018-.007-.065-.026-.014-.005-.07-.028h-.01l-.325-.131h-.009l-.073-.029h-.01l-.068-.027-.016-.007-.07-.029h-.007l-.325-.132h-.008l-.07-.028-.017-.007-.063-.026-.018-.007-.063-.026-.018-.007-.076-.031-.244-.1h-.01l-.073-.03h-.007l-.071-.029-.013-.005-.073-.03h-.006l-.244-.1h-.006l-.074-.03-.012-.005-.065-.027-.02-.008-.061-.025-.018-.007-.064-.026-.016-.007-.24-.1h-.007l-.072-.03-.015-.006-.066-.027-.015-.006-.062-.026-.02-.009-.064-.027-.014-.006-.078-.032-.16-.067-.022-.009-.058-.024-.02-.008-.059-.025-.023-.009-.057-.024-.022-.009-.055-.023-.026-.011-.064-.027-.012-.005-.08-.034-.074-.031-.023-.01-.053-.023-.028-.012-.054-.023-.024-.01-.054-.023-.025-.011-.058-.024-.02-.009-.068-.029h-.009l-.159-.067-.016-.007-.063-.027-.018-.008-.058-.025-.027-.011-.054-.023-.023-.01-.06-.026-.018-.008-.159-.068-.079-.034h-.007l-.07-.03-.015-.007-.064-.027-.018-.008-.057-.024-.025-.011-.058-.025-.019-.008-.075-.032-.157-.068-.024-.01-.055-.024-.022-.01-.058-.025-.021-.009-.059-.025-.02-.009-.057-.025-.023-.01-.156-.068h-.011l-.067-.029-.021-.009-.055-.024-.027-.012-.054-.023-.024-.01-.052-.023-.028-.012-.051-.022-.027-.012-.057-.025-.02-.009-.076-.033-.02-.009-.057-.025-.027-.012-.05-.022-.028-.012-.051-.022-.028-.012-.05-.022-.026-.012-.055-.024-.023-.01-.154-.068-.019-.008-.06-.026-.022-.01-.054-.024-.026-.011-.053-.024-.025-.011-.051-.022-.028-.012-.054-.024-.022-.01-.076-.034-.078-.035-.02-.009-.056-.025-.031-.014-.045-.02-.031-.014-.047-.021-.031-.014-.046-.021-.031-.014-.047-.021-.031-.014-.061-.027-.014-.006-.075-.034-.03-.013-.047-.021-.034-.015-.042-.019-.035-.016-.043-.019-.034-.015-.042-.019-.035-.016-.042-.019-.035-.016-.043-.019-.056-.025-.05-.022-.036-.016-.04-.018-.038-.017-.037-.017-.039-.018-.036-.017-.042-.019-.034-.015-.04-.018-.04-.018-.036-.016-.055-.025-.02-.009-.073-.033-.036-.016-.042-.019-.033-.015-.043-.019-.033-.015-.044-.02-.034-.015-.038-.017-.04-.018-.034-.015-.042-.019-.038-.017-.067-.03-.041-.019-.042-.019-.033-.015-.043-.019-.034-.015-.039-.018-.037-.017-.041-.019-.03-.014-.046-.021-.025-.011-.173-.08-.021-.01-.046-.021-.029-.013-.044-.02-.032-.015-.041-.019-.035-.016-.042-.02-.029-.013-.047-.022-.027-.013-.047-.022-.022-.01-.1-.046-.021-.01-.046-.021-.029-.014-.044-.021-.032-.015-.041-.019-.035-.016-.043-.02-.029-.013-.047-.022-.024-.011-.25-.116-.017-.008-.052-.024-.023-.011-.048-.022-.029-.014-.047-.022-.023-.011-.052-.024-.019-.009-.194-.091-.057-.027-.017-.008-.054-.025-.02-.009-.051-.024-.023-.011-.051-.024-.02-.01-.054-.025-.013-.006-.259-.122-.016-.007-.056-.027-.016-.007-.055-.026-.02-.009-.054-.026-.016-.008-.058-.028h-.006l-.266-.127-.011-.005-.058-.028-.015-.007-.055-.026-.018-.009-.058-.028h-.008l-.064-.031-.271-.13h-.008l-.06-.029-.013-.006-.058-.028h-.007a6 6 0 0 1 2.606-11.408zM7.075 250.216a6 6 0 0 1 5.965 5.423 221.833 221.833 0 0 0 6.857 37.27 6 6 0 0 1-11.57 3.183c-.106-.385-.213-.778-.316-1.164l-.116-.434-.022-.081v-.007l-.091-.344v-.006l-.021-.078v-.012l-.019-.072v-.015l-.021-.079-.068-.259v-.009l-.02-.076v-.012l-.019-.072v-.015l-.02-.075v-.008l-.066-.255v-.016l-.017-.067-.005-.021-.016-.062-.006-.022-.018-.069v-.014l-.044-.169v-.012l-.018-.071-.006-.023-.016-.061-.006-.024-.016-.061-.04-.027-.018-.07v-.012l-.043-.17v-.014l-.017-.067-.006-.024-.015-.06-.006-.025-.015-.058-.007-.026-.016-.065v-.017l-.043-.169v-.015l-.017-.068-.006-.024-.015-.061-.005-.021-.017-.066v-.019l-.018-.07v-.013l-.042-.169v-.018l-.016-.065-.006-.024-.015-.06-.006-.025-.015-.059-.006-.024-.017-.069v-.014l-.041-.167-.006-.023-.015-.059-.007-.028-.014-.057-.006-.026-.015-.061-.006-.023-.019-.075v-.006l-.021-.086v-.011l-.018-.072-.006-.025-.014-.057-.045-.033-.014-.056-.007-.029-.013-.053-.007-.03-.016-.066v-.016l-.02-.084v-.012l-.017-.07-.006-.025-.014-.058-.007-.03-.013-.054-.007-.029-.014-.058-.006-.026-.018-.073v-.008l-.02-.084v-.015l-.017-.069-.005-.021-.015-.061-.007-.027-.013-.056-.007-.029-.013-.056-.006-.026-.019-.078-.02-.084-.005-.021-.015-.061-.007-.028-.013-.056-.007-.031-.013-.054-.007-.029-.014-.059-.006-.025-.039-.166-.005-.022-.015-.062-.006-.024-.014-.061-.006-.024-.014-.061-.006-.025-.014-.061-.005-.023-.039-.168v-.019L6.1 287.3l-.006-.027-.013-.056-.007-.03-.014-.059-.005-.022-.016-.067v-.019l-.02-.084-.018-.08-.006-.026-.014-.061-.005-.023-.014-.06-.006-.025-.014-.063v-.021l-.018-.078-.039-.172v-.016l-.015-.067v-.022l-.014-.064-.005-.023-.015-.064v-.02l-.018-.077v-.006l-.039-.171v-.018l-.015-.068v-.018l-.015-.067v-.019l-.016-.07v-.016l-.018-.081-.039-.174v-.01l-.017-.074v-.016l-.015-.067-.005-.022-.066-.077v-.013l-.057-.258v-.014l-.016-.073v-.012l-.016-.073v-.015l-.018-.083-.057-.262v-.014l-.016-.073v-.014l-.016-.072v-.017l-.017-.078v-.005l-.056-.26v-.015l-.016-.073v-.012l-.017-.078v-.007l-.075-.35v-.009l-.017-.078v-.009l-.017-.079v-.008l-.074-.348v-.012l-.016-.077v-.008l-.017-.08v-.008l-.073-.35v-.01l-.017-.08v-.006l-.017-.084-.073-.354-.018-.087-.091-.445-.018-.087a233.816 233.816 0 0 1-3.6-24.1 6 6 0 0 1 5.4-6.543q.237-.051.527-.051zm5.638-77.385a6.005 6.005 0 0 1 5.828 7.448 222.287 222.287 0 0 0-5.953 37.429 6 6 0 0 1-11.97-.852 233.9 233.9 0 0 1 4.432-31.441q.853-4.041 1.847-8.037a6 6 0 0 1 5.816-4.547zm31.323-70.956a6 6 0 0 1 4.99 9.324 222.149 222.149 0 0 0-18.22 33.232 6 6 0 1 1-10.978-4.846q2.6-5.892 5.514-11.611l.034-.067.034-.066.208-.407.006-.012.029-.056.008-.016.028-.054.011-.021.027-.052.01-.02.026-.052.012-.023.026-.051v-.007l.1-.186.01-.02.026-.051.012-.023.023-.045.016-.03.022-.043.017-.032.02-.039.019-.037.02-.038.021-.041.016-.032.031-.061.02-.038.026-.049.015-.03.022-.043.018-.034.023-.044.014-.027.026-.05.013-.024.028-.054.011-.021.03-.058.009-.017.08-.153v-.005l.036-.069.009-.018.029-.056.013-.024.028-.054.01-.019.03-.058.01-.019.032-.062.006-.012.036-.069v-.007l.081-.155.039-.075v-.006l.036-.069.007-.012.036-.068v-.007l.037-.07v-.007a233.967 233.967 0 0 1 12.058-20.265 6 6 0 0 1 5.014-2.668zM97.318 45.49a6 6 0 0 1 3.6 10.8 223.939 223.939 0 0 0-28.283 25.245 6 6 0 0 1-8.734-8.23q3.849-4.073 7.891-7.961l.059-.057.057-.055.007-.007.056-.054.006-.005.059-.057.126-.121.059-.057.012-.011.048-.046.019-.018.041-.039.02-.019.04-.038.022-.021.04-.038.021-.02.039-.037.024-.023.056-.053.061-.058.016-.015.046-.044.019-.018.039-.037.028-.026.033-.032.028-.027.031-.029.03-.029.029-.028.032-.031.024-.022.037-.035.02-.019.135-.128.02-.018.039-.037.021-.02.039-.037.02-.019.037-.035.023-.022.039-.036.018-.017.042-.039.014-.013.212-.2.006-.006.049-.046.009-.008.046-.043.015-.014.045-.042.012-.011.047-.044.011-.01.049-.046.4-.37a235.22 235.22 0 0 1 19.299-16.166 5.972 5.972 0 0 1 3.595-1.201zm69.07-35.3a6 6 0 0 1 1.775 11.732 221.159 221.159 0 0 0-35.091 14.291 6 6 0 0 1-5.471-10.68c.585-.3 1.176-.6 1.764-.893h.005l.075-.037.077-.039.315-.157h.007l.066-.033.02-.01.054-.027.026-.013.053-.026.021-.01.056-.028.022-.011.07-.035.075-.037.026-.013.05-.025.031-.015.041-.02.038-.019.036-.018.039-.019.033-.016.043-.021.03-.015.046-.022.019-.009.173-.085.023-.011.051-.025.022-.011.051-.025.02-.01.055-.027.016-.008.057-.028.011-.005.409-.2a232.58 232.58 0 0 1 23.715-9.973h.013l.064-.023h.011l.064-.023h.012l.066-.023.286-.1h.009l.056-.02.025-.009.051-.018.026-.009.05-.018.031-.011.047-.016.034-.012.044-.016.042-.015.057-.02.056-.02.03-.011.051-.018.03-.01.051-.018.031-.011.05-.017.03-.01.053-.019.026-.009.066-.023h.013l.249-.087h.007l.075-.026h.01l.072-.025h.011q3.661-1.271 7.37-2.42a6 6 0 0 1 1.777-.311zM234 0H240.794l.273.008h.195l.275.009h.195l.368.012h.193l.277.01h.191l.277.01h.192l.37.015h.09l.467.02.373.016h.09l.465.021.56.027.373.019h.091c5.7.291-6.652-1.214-1.066-.521l.089.011.454.057h.006l.454.058.088.011.359.046h.012l.079.01h.01l.087.011.181.024h.006l.082.011h.013l.076.01h.014l.081.011h.006l.267.036h.014l.076.01h.013l.077.01h.013l.265.036h.014l.071.01h.022l.066.009h.021l.077.011h.009l.175.024h.02l.068.009h.02l.068.009h.021l.068.01h.019l.172.024h.022l.063.009h.028l.06.008h.027l.062.009h.024l.078.011h.007l.086.012h.022l.062.009h.032l.052.007.036.005.049.007h.035l.058.008h.026l.083.012h.024l.058.008.037.005.048.007.037.005.048.007.037.005.049.007.037.005.05.007.071.01.042.006.074.227.046.007.04.006.044.007.04.006.043.006.043.006.044.002.068.01.05.008.041.006.041.006.044.007.039.006.044.007.043.006.042.006.042.006.077.012.041.006.048.007.034.005.051.008h.03l.052.008h.029l.054.008h.022l.2.031h.012l.059.009h.024l.056.009h.026l.058.009h.014l.2.032h.016l.058.009h.023l.06.009h.018l.065.01h.008l.3.046h.005l.067.011h.014l.066.01h.009l.3.047.069.011h.011l.067.011h.011l.069.011.3.048h.006l.073.012s3.5 13.234-1 12.821S246.681 12 234 12a225.127 225.127 0 0 0-28.815 1.852 6 6 0 0 1-1.556-11.9c1.5-.195 3-.374 4.51-.54l.358-.039h.01l.08-.009h.023l.338-.036h.029l.073-.008h.025l.237-.025h.03l.066-.007h.037l.066-.007h.033l.138-.014h.022l.061-.006h.044l.058-.006h.048l.057-.006.061-.006.078-.008.059-.006.055-.006.052-.005.053-.005.056-.006h.048l.1-.01h.045l.061-.006h.049l.059-.006h.046l.07-.007h.037l.1-.01h.045l.06-.006h.048l.062-.006h.045l.092-.009h.026l.091-.009h.036l.072-.007h.041l.073-.007h.033l.1-.01h.028l.08-.008h.039l.069-.006h.04l.094-.1h.019l.108-.01h.025l.083-.008h.032l.081-.007h.03l.217-.02h.027l.085-.008h.028l.09-.018h.015l.113-.01h.008l.1-.009h.025l.094-.01h.022l.225-.02h.012l.1-.009h.02l.1-.008h.013l.226-.019h.017l.1-.008h.02l.108-.009.117-.01.11-.009h.017l.1-.008h.015l.223-.032h.011l.1-.008h.019l.1-.008h.009l.229-.018h.012l.1-.008h.014l.344-.027h.012l.109-.008.348-.026h.011l.348-.026.11-.008h.01l.362-.031.115-.008.351-.025h.006l.351-.024.129-.011.351-.023h.008l.112-.009.353-.023h.005l.471-.029.355-.022.477-.026.353-.02.115-.006.353-.02h.007l.469-.025h.007l.364-.022.117-.007.353-.018h.007l.111-.005h.006l.236-.011.113-.005h.009l.351-.016h.126l.349-.015h.123l.235-.01h.128l.346-.014h.126l.233-.009h.243l.232-.009h.243l.229-.008h.137l.226-.008h.248l.228-.007H227.263l.224-.006h.251l.227-.006h.616l.225-.005H234z" transform="translate(1503.332 192)" style="fill:#0635c9"/>
        <g data-name="Group 2020">
            <path data-name="Path 7806" d="m-15553-3313 35 62-18 7-12-16-22-31z" transform="translate(17047.331 3863)" style="fill:#d4e1f4"/>
            <g data-name="Group 2019">
                <path data-name="Path 7807" d="M207.168 104.075a43.021 43.021 0 0 0-60.084-60.087L104.8 1.71a5.827 5.827 0 0 0-9.6 2.125L60.4 99.547a230.424 230.424 0 0 1-53.259 83.625 24.456 24.456 0 0 0 0 34.543l26.3 26.3a24.422 24.422 0 0 0 34.543 0c.159-.159.326-.315.486-.474l54.387 54.387a5.827 5.827 0 0 0 8.243 0 43.071 43.071 0 0 0 0-60.843l-24.232-24.232a229.268 229.268 0 0 1 44.732-22.099l95.708-34.8a5.828 5.828 0 0 0 2.129-9.6zm-12.645-47.443a31.409 31.409 0 0 1 4.254 39.051l-43.305-43.305a31.413 31.413 0 0 1 39.047 4.254zM50.713 239.505a12.676 12.676 0 0 1-9.028-3.738l-26.3-26.3a12.777 12.777 0 0 1 0-18.053q6.814-6.814 13.066-14.19l45.48 45.476q-7.366 6.256-14.19 13.07a12.682 12.682 0 0 1-9.028 3.738zm72.144 5.822a31.42 31.42 0 0 1 3.738 39.844l-49.647-49.643a229.821 229.821 0 0 1 20.076-16.038zM147.62 179.8a242.02 242.02 0 0 0-64.562 35.541L35.817 168.1a242.137 242.137 0 0 0 35.537-64.566l31.674-87.108 131.7 131.7zm0 0" transform="rotate(15 -640.372 5983.22)" style="fill:#0635c9"/>
            </g>
            <path data-name="Path 7808" d="M3.515 4.419a5.615 5.615 0 0 0 4.2 10.415 49.766 49.766 0 0 1 64.757 64.758 5.613 5.613 0 0 0 10.412 4.2A60.992 60.992 0 0 0 3.519 4.419zm0 0" transform="rotate(18.98 -412.196 5211.131)" style="fill:#0635c9"/>
            <path data-name="Path 7809" d="M3.518 6.524a5.614 5.614 0 1 0 4.2 10.415 78.772 78.772 0 0 1 102.5 102.5 5.613 5.613 0 1 0 10.412 4.2A90 90 0 0 0 3.518 6.523zm0 0" transform="rotate(18.98 -320.144 5188.735)" style="fill:#0635c9"/>
            <g>
                <path data-name="Ellipse 719" d="M42 10a32 32 0 1 0 32 32 32.036 32.036 0 0 0-32-32m0-10A42 42 0 1 1 0 42 42 42 0 0 1 42 0z" transform="translate(1822.476 244.385)" style="fill:#1ae5be"/>
                <path data-name="Path 7810" d="M72.716 6.086 4.3 75.182" transform="translate(1827.031 247.676)" style="fill:#1ae5be"/>
                <path data-name="Path 7718 - Outline" d="M4.3 81.182A6 6 0 0 1 .033 70.961l68.419-69.1a6 6 0 0 1 8.527 8.443L8.56 79.4a5.982 5.982 0 0 1-4.26 1.782z" transform="translate(1827.031 247.676)" style="fill:#1ae5be"/>
                <path data-name="Path 7811" d="M205.279 44.73h-79.033a16.159 16.159 0 0 1-14.368-8.751l-11.129-21.446A26.882 26.882 0 0 0 76.764 0H27.01A27.022 27.022 0 0 0 0 27.011v151.043a27.022 27.022 0 0 0 27.01 27.01h178.269a27.022 27.022 0 0 0 27.01-27.01V71.74a27.02 27.02 0 0 0-27.01-27.01zM27.011 10.859h49.754a16.155 16.155 0 0 1 14.368 8.751l11.129 21.446a32.833 32.833 0 0 0 2.323 3.729H10.8V27.118a16.264 16.264 0 0 1 16.21-16.259zm194.474 167.247a16.252 16.252 0 0 1-16.206 16.206H27.011A16.252 16.252 0 0 1 10.8 178.106V55.534h110.152a5.054 5.054 0 0 0 1.568-.215 29.43 29.43 0 0 0 3.781.27h78.978A16.253 16.253 0 0 1 221.485 71.8zm0 0" transform="translate(1748.332 160.375)" style="fill:#1ae5be"/>
                <path data-name="Path 7720" d="M58.587 158.63c-47.758 0-108.32-.269-112.14-.286-9.126-1.489-24.508-8.537-24.508-25.173a6 6 0 0 1 6-6 6 6 0 0 1 6 6c0 10.8 13.418 13.237 13.554 13.26.28-.053 61.17.2 109.648.2 25.263 0 47.148-.068 55.342-.284 21.068-.555 27.55-26.35 28.034-39.912.348-9.768.21-28.65.077-46.91-.111-15.217-.223-30.616-.08-41.789.073-5.69-1.223-9.641-3.852-11.742-4.147-3.315-11.052-1.855-11.12-1.839a6 6 0 0 1-7.232-4.438 6 6 0 0 1 4.438-7.232c1.279-.306 12.741-2.791 21.406 4.135 5.67 4.532 8.482 11.688 8.359 21.27-.143 11.108-.03 26.418.081 41.547.141 19.233.274 37.4-.084 47.426-.867 24.314-13.664 50.795-39.711 51.48-8.217.215-29.505.287-54.212.287z" transform="translate(1852.161 231.039)" style="fill:#1ae5be"/>
            </g>
        </g>
    </g>
</svg>
