<svg version="1.1" xmlns="http://www.w3.org/2000/svg" xmlns:xlink="http://www.w3.org/1999/xlink" viewBox="0 0 172 172"><g fill="none" fill-rule="nonzero" stroke="none" stroke-width="1" stroke-linecap="butt" stroke-linejoin="miter" stroke-miterlimit="10" stroke-dasharray="" stroke-dashoffset="0" font-family="none" font-weight="none" font-size="none" text-anchor="none" style="mix-blend-mode: normal"><path d="M0,172v-172h172v172z" fill="none"></path><g><path d="M84.15436,49.41439h-14.91563c-1.1132,0 -2.01562,0.90243 -2.01562,2.01563c0,1.1132 0.90243,2.01563 2.01563,2.01563h14.91563c1.1132,0 2.01562,-0.90243 2.01562,-2.01562c0,-1.1132 -0.90243,-2.01562 -2.01562,-2.01562z" fill="#0635c9"></path><path d="M92.45605,72.44795c0,1.1132 0.90243,2.01563 2.01563,2.01563h34.10773c1.1132,0 2.01563,-0.90243 2.01563,-2.01562c0,-1.1132 -0.90243,-2.01562 -2.01562,-2.01562h-34.10773c-1.1132,0 -2.01562,0.90243 -2.01562,2.01563z" fill="#0635c9"></path><path d="M77.95262,72.44795c0,1.1132 0.90243,2.01563 2.01563,2.01563h6.95391c1.1132,0 2.01563,-0.90243 2.01563,-2.01562c0,-1.1132 -0.90243,-2.01562 -2.01562,-2.01562h-6.95391c-1.1132,0 -2.01562,0.90243 -2.01563,2.01563z" fill="#0635c9"></path><path d="M69.2384,74.46357h3.05703c1.1132,0 2.01563,-0.90243 2.01563,-2.01562c0,-1.1132 -0.90243,-2.01562 -2.01562,-2.01562h-3.05703c-1.1132,0 -2.01562,0.90243 -2.01562,2.01563c0,1.1132 0.90243,2.01563 2.01563,2.01563z" fill="#0635c9"></path><path d="M128.57941,91.44991h-2.62031c-1.1132,0 -2.01562,0.90243 -2.01562,2.01563c0,1.1132 0.90243,2.01563 2.01563,2.01563h2.62031c1.1132,0 2.01563,-0.90243 2.01563,-2.01562c0,-1.1132 -0.90243,-2.01562 -2.01562,-2.01562z" fill="#0635c9"></path><path d="M109.78773,91.44991c-1.1132,0 -2.01562,0.90243 -2.01562,2.01563c0,1.1132 0.90243,2.01563 2.01563,2.01563h8.61747c1.1132,0 2.01563,-0.90243 2.01563,-2.01562c0,-1.1132 -0.90243,-2.01562 -2.01562,-2.01562z" fill="#0635c9"></path><path d="M69.2384,95.48116h33.89609c1.1132,0 2.01563,-0.90243 2.01563,-2.01562c0,-1.1132 -0.90243,-2.01562 -2.01562,-2.01562h-33.89609c-1.1132,0 -2.01562,0.90243 -2.01562,2.01563c0,1.1132 0.90243,2.01563 2.01563,2.01563z" fill="#0635c9"></path><path d="M155.45676,19.57373c-0.14412,0 -0.28622,0.00605 -0.42899,0.01075c-0.06953,-0.00714 -0.13939,-0.01073 -0.20929,-0.01075h-86.04367c-8.09491,0.02608 -14.67294,6.53952 -14.7789,14.63377l-0.24893,30.43896c-0.00438,0.53458 0.20378,1.04901 0.5787,1.4301c0.37492,0.38109 0.88588,0.59764 1.42046,0.60198h0.0168c1.10667,0.00004 2.0064,-0.89219 2.01563,-1.99883l0.24893,-30.43594c0.07863,-5.88529 4.86187,-10.62038 10.74765,-10.63948h77.20583c-2.37964,2.45258 -3.70979,5.736 -3.70808,9.15329v45.04922l-0.05005,49.50845c0.01155,1.59276 -0.20855,3.17874 -0.6534,4.70816c-2.06803,6.87328 -8.17705,11.49108 -15.21192,11.49108c-8.77032,0 -15.9053,-7.31336 -15.9053,-16.30237v-11.86195c0,-1.1132 -0.90243,-2.01562 -2.01562,-2.01562h-50.10441c-0.33289,-0.00042 -0.66065,0.08201 -0.95373,0.23986l0.10918,-13.35016c0.00928,-1.1132 -0.88563,-2.02315 -1.99883,-2.03242c-1.1132,-0.00928 -2.02315,0.88563 -2.03242,1.99883l-0.11422,13.96391c-0.00438,0.53458 0.20378,1.04901 0.5787,1.4301c0.37492,0.38109 0.88588,0.59764 1.42046,0.60198h0.0168c0.3651,-0.00019 0.72322,-0.10008 1.0357,-0.28891c0.24523,0.86759 1.03678,1.46681 1.93836,1.46738h48.08878v9.84566c-0.01622,6.39132 2.95713,12.42254 8.03663,16.3017h-33.14863c-1.1132,0 -2.01562,0.90243 -2.01562,2.01563c0,1.1132 0.90243,2.01563 2.01563,2.01563h43.94667c0.09345,-0.00081 0.18673,-0.0081 0.27916,-0.02184c0.27648,0.01176 0.55363,0.02184 0.83313,0.02184c8.81668,0 16.47706,-5.77141 19.06177,-14.36099c0.55769,-1.90382 0.83539,-3.87866 0.82439,-5.86245l0.05005,-49.5108v-19.35638h20.32086c1.1132,0 2.01563,-0.90243 2.01563,-2.01562v-23.6799c-0.00815,-7.27787 -5.906,-13.17572 -13.18387,-13.18387zM164.60938,54.42188h-18.30523v-21.66427c0,-5.05485 4.09777,-9.15262 9.15262,-9.15262c5.05485,0 9.15262,4.09777 9.15262,9.15262z" fill="#0635c9"></path><path d="M128.57941,53.44564c1.1132,0 2.01563,-0.90243 2.01563,-2.01562c0,-1.1132 -0.90243,-2.01562 -2.01562,-2.01562h-4.28589c-1.1132,0 -2.01562,0.90243 -2.01562,2.01563c0,1.1132 0.90243,2.01563 2.01563,2.01563z" fill="#0635c9"></path><path d="M116.77188,49.41439h-25.19531c-1.1132,0 -2.01562,0.90243 -2.01562,2.01563c0,1.1132 0.90243,2.01563 2.01563,2.01563h25.19531c1.1132,0 2.01563,-0.90243 2.01563,-2.01562c0,-1.1132 -0.90243,-2.01562 -2.01562,-2.01562z" fill="#0635c9"></path><path d="M44.09919,105.53342c9.38077,0 17.83785,-5.65086 21.42769,-14.31758c3.58984,-8.66672 1.60547,-18.64252 -5.02779,-25.27568c-6.63326,-6.63316 -16.60909,-8.61738 -25.27575,-5.02742c-8.66667,3.58996 -14.3174,12.04712 -14.31727,21.42789c0.01463,12.80309 10.39003,23.17835 23.19313,23.19279zM44.09919,63.17876c10.58281,0 19.16187,8.57906 19.16187,19.16188c0,10.58281 -8.57906,19.16187 -19.16187,19.16187c-10.58281,0 -19.16187,-8.57906 -19.16187,-19.16187c0.01111,-10.57821 8.58367,-19.15077 19.16187,-19.16188z" fill="#1ae5be"></path><path d="M5.375,152.42627h76.23833c1.1132,0 2.01563,-0.90243 2.01563,-2.01562c0.00003,-1.70387 -0.107,-3.40606 -0.32048,-5.09651c-2.68997,-21.00326 -21.23346,-36.30406 -42.36539,-34.95697c-21.13193,1.3471 -37.58246,18.87866 -37.5837,40.05348c0,1.1132 0.90243,2.01563 2.01563,2.01563zM43.4945,114.3071c18.17204,-0.01602 33.5188,13.4879 35.81497,31.5143c0.1075,0.84959 0.18544,1.70992 0.2328,2.57362h-72.09622c1.09298,-19.11604 16.9012,-34.06451 36.04845,-34.08791z" fill="#1ae5be"></path></g></g></svg>