<svg version="1.1" xmlns="http://www.w3.org/2000/svg" xmlns:xlink="http://www.w3.org/1999/xlink" viewBox="0 0 172 172"><g fill="none" fill-rule="nonzero" stroke="none" stroke-width="1" stroke-linecap="butt" stroke-linejoin="miter" stroke-miterlimit="10" stroke-dasharray="" stroke-dashoffset="0" font-family="none" font-weight="none" font-size="none" text-anchor="none" style="mix-blend-mode: normal"><path d="M0,172v-172h172v172z" fill="none"></path><g><path d="M37.96094,9.51543c-3.59856,-0.17099 -7.27305,-1.43613 -10.07812,-3.80449v150.4187c2.89295,-2.24863 6.41693,-3.53583 10.07813,-3.6812z" fill="#d4e1f4"></path><path d="M103.7207,23.17969h-64.62362c-1.1132,0 -2.01562,0.90243 -2.01562,2.01563c0,1.1132 0.90243,2.01563 2.01563,2.01563h64.62363c1.1132,0 2.01563,-0.90243 2.01563,-2.01562c0,-1.1132 -0.90243,-2.01562 -2.01562,-2.01562z" fill="#0635c9"></path><path d="M39.09708,78.27344h0.7787c1.1132,0 2.01563,-0.90243 2.01563,-2.01562c0,-1.1132 -0.90243,-2.01562 -2.01562,-2.01562h-0.78005c-1.1132,0 -2.01562,0.90243 -2.01562,2.01563c0,1.1132 0.90243,2.01563 2.01563,2.01563z" fill="#0635c9"></path><path d="M53.55684,74.24219h-5.89436c-1.1132,0 -2.01562,0.90243 -2.01562,2.01563c0,1.1132 0.90243,2.01563 2.01563,2.01563h5.89436c1.1132,0 2.01563,-0.90243 2.01563,-2.01562c0,-1.1132 -0.90243,-2.01562 -2.01562,-2.01562z" fill="#0635c9"></path><path d="M105.73633,76.25781c0,-1.1132 -0.90243,-2.01562 -2.01562,-2.01562h-42.25254c-1.1132,0 -2.01562,0.90243 -2.01562,2.01563c0,1.1132 0.90243,2.01563 2.01563,2.01563h42.25254c1.1132,0 2.01563,-0.90243 2.01563,-2.01562z" fill="#0635c9"></path><path d="M39.09708,61.8125h0.7787c1.1132,0 2.01563,-0.90243 2.01563,-2.01562c0,-1.1132 -0.90243,-2.01562 -2.01562,-2.01562h-0.78005c-1.1132,0 -2.01562,0.90243 -2.01562,2.01563c0,1.1132 0.90243,2.01563 2.01563,2.01563z" fill="#0635c9"></path><path d="M53.55684,57.78125h-5.89436c-1.1132,0 -2.01562,0.90243 -2.01562,2.01563c0,1.1132 0.90243,2.01563 2.01563,2.01563h5.89436c1.1132,0 2.01563,-0.90243 2.01563,-2.01562c0,-1.1132 -0.90243,-2.01562 -2.01562,-2.01562z" fill="#0635c9"></path><path d="M103.7207,57.78125h-42.25254c-1.1132,0 -2.01562,0.90243 -2.01562,2.01563c0,1.1132 0.90243,2.01563 2.01563,2.01563h42.25254c1.1132,0 2.01563,-0.90243 2.01563,-2.01562c0,-1.1132 -0.90243,-2.01562 -2.01562,-2.01562z" fill="#0635c9"></path><path d="M39.09708,98.42969h0.7787c1.1132,0 2.01563,-0.90243 2.01563,-2.01562c0,-1.1132 -0.90243,-2.01562 -2.01562,-2.01562h-0.78005c-1.1132,0 -2.01562,0.90243 -2.01562,2.01563c0,1.1132 0.90243,2.01563 2.01563,2.01563z" fill="#0635c9"></path><path d="M55.57246,96.41406c0,-1.1132 -0.90243,-2.01562 -2.01562,-2.01562h-5.89436c-1.1132,0 -2.01562,0.90243 -2.01562,2.01563c0,1.1132 0.90243,2.01563 2.01563,2.01563h5.89436c1.1132,0 2.01563,-0.90243 2.01563,-2.01562z" fill="#0635c9"></path><path d="M61.46816,94.39844c-1.1132,0 -2.01562,0.90243 -2.01562,2.01563c0,1.1132 0.90243,2.01563 2.01563,2.01563h22.79034c1.1132,0 2.01563,-0.90243 2.01563,-2.01562c0,-1.1132 -0.90243,-2.01562 -2.01562,-2.01562z" fill="#0635c9"></path><path d="M45.73218,114.26813c2.33496,0.00204 4.22726,1.89449 4.22912,4.22945c-0.00935,0.72228 0.37062,1.39373 0.99462,1.75759c0.624,0.36386 1.3955,0.36386 2.0195,0c0.624,-0.36386 1.00397,-1.03531 0.99462,-1.75759c0.02935,-3.80313 -2.56852,-7.12389 -6.26691,-8.01077v-1.66524c0,-1.1132 -0.90243,-2.01562 -2.01562,-2.01562c-1.1132,0 -2.01562,0.90243 -2.01562,2.01563v1.66524c-3.68892,0.8917 -6.27095,4.21592 -6.22223,8.01077c0.01018,4.56223 3.70921,8.25646 8.27145,8.2607c2.33512,-0.01475 4.24007,1.86628 4.25482,4.2014c0.01475,2.33512 -1.86628,4.24007 -4.2014,4.25482c-0.01512,0 -0.02822,-0.00235 -0.04367,-0.00235c-0.01545,0 -0.02956,0.00202 -0.04468,0.00235c-2.31619,-0.02702 -4.18046,-1.91076 -4.18343,-4.2271c0,-1.11932 -0.90739,-2.02671 -2.02671,-2.02671c-1.11932,0 -2.02671,0.90739 -2.02671,2.02671c-0.04868,3.79495 2.53352,7.1192 6.22257,8.01077v1.94844c0,1.1132 0.90243,2.01563 2.01563,2.01563c1.1132,0 2.01563,-0.90243 2.01563,-2.01562v-1.94844c3.69846,-0.88677 6.29638,-4.20759 6.26691,-8.01077c0.00019,-4.55769 -3.69125,-8.25425 -8.24895,-8.26037c-2.33586,-0.00306 -4.22697,-1.89913 -4.22391,-4.235c0.00306,-2.33586 1.89913,-4.22697 4.235,-4.22391z" fill="#0635c9"></path><path d="M26.97343,158.0764c0.68656,0.32538 1.49902,0.22709 2.08819,-0.25262c5.62463,-4.54365 13.65818,-4.54365 19.28281,0c0.05207,0.04132 0.10078,0.08197 0.15722,0.11825c0.72746,0.47328 1.67646,0.42655 2.35391,-0.1159c5.62981,-4.54576 13.66879,-4.54576 19.2986,0c0.73556,0.58902 1.78128,0.58902 2.51684,0l7.98456,-6.38819l-2.51953,-3.14773l-6.7762,5.42304c-6.55404,-4.4582 -15.17058,-4.44407 -21.70996,0.03561c-5.96222,-4.05006 -13.70457,-4.4505 -19.75145,-1.19963v-143.13423c6.04688,3.24751 13.78385,2.84808 19.74405,-1.20064c6.56847,4.49262 15.22111,4.49262 21.78958,0c6.5453,4.49453 15.18247,4.49453 21.72777,0c5.96155,4.05174 13.66829,4.45218 19.71516,1.20165v76.24807h4.03125v-79.95312c0.03441,-0.76381 -0.38534,-1.47592 -1.07027,-1.81573c-0.68493,-0.33981 -1.50588,-0.24324 -2.09326,0.24623c-5.61426,4.54039 -13.6362,4.54613 -19.25695,0.01377c-0.73434,-0.60621 -1.79378,-0.61225 -2.53498,-0.01445c-5.62735,4.54265 -13.66197,4.54195 -19.28852,-0.00168c-0.02587,-0.02049 -0.05274,-0.04266 -0.07962,-0.06215c-0.73523,-0.52955 -1.73327,-0.50413 -2.44059,0.06215c-5.62864,4.54443 -13.6656,4.54443 -19.29423,0c-0.06709,-0.05357 -0.13744,-0.10294 -0.21063,-0.14781c-0.724,-0.44253 -1.64762,-0.38424 -2.31024,0.1458c-5.62877,4.54585 -13.66715,4.54585 -19.29591,0c-0.58373,-0.48356 -1.39721,-0.57869 -2.07677,-0.24288c-0.68535,0.34208 -1.10961,1.0511 -1.08709,1.81675v150.54132c-0.02184,0.77263 0.41101,1.48638 1.10624,1.82414z" fill="#0635c9"></path><path d="M103.7207,43.67188h-64.62362c-1.1132,0 -2.01562,0.90243 -2.01562,2.01563c0,1.1132 0.90243,2.01563 2.01563,2.01563h64.62363c1.1132,0 2.01563,-0.90243 2.01563,-2.01562c0,-1.1132 -0.90243,-2.01562 -2.01562,-2.01562z" fill="#0635c9"></path><path d="M103.7207,33.59375h-64.62362c-1.1132,0 -2.01562,0.90243 -2.01562,2.01563c0,1.1132 0.90243,2.01563 2.01563,2.01563h64.62363c1.1132,0 2.01563,-0.90243 2.01563,-2.01562c0,-1.1132 -0.90243,-2.01562 -2.01562,-2.01562z" fill="#0635c9"></path><path d="M19.82031,85.90863c1.1132,0 2.01563,-0.90243 2.01563,-2.01562v-49.25381c0,-1.1132 -0.90243,-2.01562 -2.01562,-2.01562c-1.1132,0 -2.01562,0.90243 -2.01562,2.01563v49.25381c0,1.1132 0.90243,2.01563 2.01563,2.01563z" fill="#0635c9"></path><path d="M19.82031,30.6889c1.1132,0 2.01563,-0.90243 2.01563,-2.01562v-1.075c0,-1.1132 -0.90243,-2.01562 -2.01562,-2.01562c-1.1132,0 -2.01562,0.90243 -2.01562,2.01563v1.075c0,1.1132 0.90243,2.01563 2.01563,2.01563z" fill="#0635c9"></path><path d="M116.57031,108.17188h-11.42187c-1.11296,0 -2.35156,0.56639 -2.35156,1.67969v11.42188h-10.07812c-1.11296,0 -2.35156,0.56639 -2.35156,1.67969v9.07031c0,1.1133 1.2386,2.35156 2.35156,2.35156h10.07813v11.08594c0,1.1133 1.2386,2.35156 2.35156,2.35156h11.42188c1.11296,0 1.67969,-1.23827 1.67969,-2.35156v-11.08594h10.75c1.11296,0 1.67969,-1.23827 1.67969,-2.35156v-9.07031c0,-1.1133 -0.56673,-1.67969 -1.67969,-1.67969h-10.75v-11.42187c0,-1.1133 -0.56673,-1.67969 -1.67969,-1.67969zM126.64844,125.30469v5.03906h-10.07812c-1.11296,0 -2.35156,0.56639 -2.35156,1.67969v11.75781h-7.39062v-11.75781c0,-1.1133 -0.56673,-1.67969 -1.67969,-1.67969h-10.75v-5.03906h10.75c1.11296,0 1.67969,-1.23827 1.67969,-2.35156v-10.75h7.39063v10.75c0,1.1133 1.2386,2.35156 2.35156,2.35156z" fill="#1ae5be"></path><path d="M111.8514,83.73746c-22.2179,0.00302 -40.48786,17.22855 -42.16486,39.04669c-0.04551,0.56135 0.14535,1.11621 0.52656,1.53078c0.38121,0.41456 0.91816,0.65119 1.48134,0.65282h0.00538c1.04493,0.00436 1.91781,-0.79496 2.00521,-1.83623c1.55405,-20.28256 19.1313,-36.38203 40.1227,-35.31375c19.73834,1.00345 35.59527,17.11299 36.27184,36.86545c0.74343,21.70694 -16.69878,39.62383 -38.24212,39.62383c-17.34346,-0.00746 -32.51697,-11.66943 -36.98672,-28.42703c-0.28053,-1.07609 -1.38028,-1.72103 -2.45637,-1.4405c-1.07609,0.28053 -1.72103,1.38028 -1.4405,2.45638c4.80626,17.91152 21.31221,31.43569 40.88158,31.43569c11.27098,-0.01289 22.07174,-4.51876 30.01026,-12.51971c7.93852,-8.00094 12.35966,-18.83667 12.28427,-30.1074c-0.17469,-23.13501 -19.16221,-41.97035 -42.29856,-41.96699z" fill="#1ae5be"></path></g></g></svg>