<svg id="Layer_1" height="512" viewBox="0 0 512 512" width="512" xmlns="http://www.w3.org/2000/svg" data-name="Layer 1"><path d="m77.58 420a31.744 31.744 0 0 1 -31.58-31.77v-291.62a31.607 31.607 0 0 1 31.58-31.61h-30a31.607 31.607 0 0 0 -31.58 31.61v291.62a31.744 31.744 0 0 0 31.58 31.77z" fill="#d4e1f4"/><g fill="#1ae5be"><path d="m462 124.675a31.675 31.675 0 0 0 -31.675-31.675h-349.65a31.675 31.675 0 0 0 -31.675 31.675v229.65a31.675 31.675 0 0 0 31.675 31.675h349.65a31.675 31.675 0 0 0 31.675-31.675zm-381.061-19.675h350.122a20 20 0 0 1 19.939 19.757v54.243h-390v-54.243a20 20 0 0 1 19.939-19.757zm350.122 269h-350.122a19.828 19.828 0 0 1 -19.939-19.562v-163.438h390v163.438a19.828 19.828 0 0 1 -19.939 19.562z"/><path d="m433 126a6 6 0 0 0 -6-6h-340a6 6 0 0 0 -6 6v37a6 6 0 0 0 6 6h340a6 6 0 0 0 6-6zm-340 6h328v24h-328z"/><path d="m78 200.093a6 6 0 0 0 -6 6v4.3a6 6 0 1 0 12 0v-4.3a6 6 0 0 0 -6-6z"/><path d="m78 225.388a6 6 0 0 0 -6 6v72a6 6 0 0 0 12 0v-72a6 6 0 0 0 -6-6z"/><path d="m222.5 275h-7.5c-2.8-26-24-46.689-50-49.483v-7.551a6 6 0 0 0 -12 0v7.551a56.083 56.083 0 0 0 -49.667 49.483h-7.823a6 6 0 1 0 0 12h7.821a55.852 55.852 0 0 0 49.669 50.183v7.448a6 6 0 0 0 12 0v-7.448a56.178 56.178 0 0 0 50-50.183h7.5a6 6 0 0 0 0-12zm-63.332 50.508a44.158 44.158 0 1 1 44.158-44.158 44.208 44.208 0 0 1 -44.161 44.158z"/><path d="m159.165 246.531a34.819 34.819 0 1 0 34.889 34.819 34.894 34.894 0 0 0 -34.889-34.819zm0 57.637a22.819 22.819 0 1 1 22.889-22.818 22.879 22.879 0 0 1 -22.889 22.818z"/><path d="m286.266 308.023a23.777 23.777 0 1 0 23.776 23.777 23.8 23.8 0 0 0 -23.776-23.777zm0 35.553a11.777 11.777 0 1 1 11.776-11.776 11.789 11.789 0 0 1 -11.776 11.776z"/><path d="m342.49 308.023a23.777 23.777 0 1 0 23.776 23.777 23.8 23.8 0 0 0 -23.776-23.777zm0 35.553a11.777 11.777 0 1 1 11.776-11.776 11.79 11.79 0 0 1 -11.776 11.776z"/><path d="m398.714 308.023a23.777 23.777 0 1 0 23.776 23.777 23.8 23.8 0 0 0 -23.776-23.777zm0 35.553a11.777 11.777 0 1 1 11.776-11.776 11.79 11.79 0 0 1 -11.776 11.776z"/><path d="m286.266 255.727a23.776 23.776 0 1 0 23.776 23.773 23.8 23.8 0 0 0 -23.776-23.773zm0 35.552a11.776 11.776 0 1 1 11.776-11.779 11.789 11.789 0 0 1 -11.776 11.779z"/><path d="m342.49 255.727a23.776 23.776 0 1 0 23.776 23.773 23.8 23.8 0 0 0 -23.776-23.773zm0 35.552a11.776 11.776 0 1 1 11.776-11.779 11.79 11.79 0 0 1 -11.776 11.779z"/><path d="m398.714 255.727a23.776 23.776 0 1 0 23.776 23.773 23.8 23.8 0 0 0 -23.776-23.773zm0 35.552a11.776 11.776 0 1 1 11.776-11.779 11.79 11.79 0 0 1 -11.776 11.779z"/><path d="m286.266 203.429a23.776 23.776 0 1 0 23.776 23.777 23.8 23.8 0 0 0 -23.776-23.777zm0 35.552a11.776 11.776 0 1 1 11.776-11.775 11.788 11.788 0 0 1 -11.776 11.775z"/><path d="m342.49 203.429a23.776 23.776 0 1 0 23.776 23.777 23.8 23.8 0 0 0 -23.776-23.777zm0 35.552a11.776 11.776 0 1 1 11.776-11.775 11.789 11.789 0 0 1 -11.776 11.775z"/><path d="m398.714 203.429a23.776 23.776 0 1 0 23.776 23.777 23.8 23.8 0 0 0 -23.776-23.777zm0 35.552a11.776 11.776 0 1 1 11.776-11.775 11.789 11.789 0 0 1 -11.776 11.775z"/></g><path d="m464.421 59h-416.842a37.651 37.651 0 0 0 -37.579 37.613v291.616a37.786 37.786 0 0 0 37.579 37.771h.421v20.966a5.94 5.94 0 0 0 5.9 6.034h98.947a6.166 6.166 0 0 0 6.153-6.034v-20.966h193v20.966a6.12 6.12 0 0 0 6.105 6.034h98.948a5.984 5.984 0 0 0 5.947-6.034v-20.966h1.421a37.786 37.786 0 0 0 37.579-37.771v-291.616a37.651 37.651 0 0 0 -37.579-37.613zm-317.421 382h-87v-15h87zm304 0h-87v-15h87zm39-52.579a25.579 25.579 0 0 1 -25.579 25.579h-416.842a25.579 25.579 0 0 1 -25.579-25.579v-291.842a25.579 25.579 0 0 1 25.579-25.579h416.842a25.579 25.579 0 0 1 25.579 25.579z" fill="#0635c9"/></svg>