<svg id="Layer_1" height="512" viewBox="0 0 512 512" width="512" xmlns="http://www.w3.org/2000/svg" data-name="Layer 1"><path d="m87.74 473a41.7 41.7 0 0 1 -41.74-41.7v-350.6a41.7 41.7 0 0 1 41.74-41.7h-30a41.7 41.7 0 0 0 -41.74 41.7v350.6a41.7 41.7 0 0 0 41.74 41.7z" fill="#d4e1f4"/><path d="m52 123.37v187c0 25.13 20.75 45.63 45.88 45.63h30c-25.13 0-45.88-20.5-45.88-45.63v-187c0-25.13 20.74-45.37 45.87-45.37h-30c-25.13 0-45.87 20.24-45.87 45.37z" fill="#d4e1f4"/><path d="m349.539 113.78a17.359 17.359 0 0 0 -23.092-6.885c-18.583 9.841-44.37 15.484-70.747 15.484-27.229 0-50.313-8.814-64.883-16.208a17.317 17.317 0 0 0 -22.582 6.495l-92.947 154.323a8.437 8.437 0 0 0 2.012 10.975c39.376 30.935 106.983 49.4 180.847 49.4 70.1 0 135.8-17.12 175.771-45.8a9.559 9.559 0 0 0 2.785-12.451zm-91.4 201.588c-69.695 0-133.243-16.749-170.929-44.921l11.539-19.147c8.337 8.229 28.158 24.727 55.965 28.247a6 6 0 0 0 1.508-11.905c-26.861-3.4-45.754-21.364-51.069-26.975l14.432-23.967c4.387 3.457 11.245 8.179 17.812 9.889a6 6 0 1 0 3.024-11.613c-4.778-1.244-10.83-5.59-14.584-8.656l39.369-65.367a32.6 32.6 0 0 0 18.147 6.477h.191a6 6 0 0 0 .183-12 21.04 21.04 0 0 1 -12.293-4.822l7.08-11.757a5.271 5.271 0 0 1 6.872-1.985c15.738 7.987 40.713 17.507 70.314 17.507 1.975 0 3.946-.037 5.913-.1 2.111 6.887 8.089 18.928 25 33.982 13.815 12.3 2.387 39.172-4.846 48.613a42.836 42.836 0 0 0 -3.767 5.032l.87-6.821a13.828 13.828 0 1 0 -27.531-2.372 25.857 25.857 0 0 1 -4.33 13.248c-.227.342-.484.73-2.191.4-2.808-.538-5.9-2.566-7.045-4.618-.477-.858-.339-1.217-.273-1.39a35.762 35.762 0 0 0 -3.229-31.991 38.312 38.312 0 0 0 -28.943-17.834 41.422 41.422 0 0 0 -32.322 11.6 49.292 49.292 0 0 0 -15.17 36.778 47.019 47.019 0 0 0 57.208 44.464 1.629 1.629 0 0 1 1.882 1.272c8.131 33.82 30.339 43.136 42.854 45.68a52.471 52.471 0 0 0 10.45 1.049 53.218 53.218 0 0 0 25.443-6.492c22.348-12.178 28.32-36.025 15.975-63.791a3.3 3.3 0 0 1 2.732-4.585c1.076-.077 2.129-.125 3.158-.173 6.186-.287 13.2-.612 19.364-6.918a16.516 16.516 0 0 0 2.391-3.189 17.01 17.01 0 0 0 .831-15.744 17.416 17.416 0 0 0 -25.289-7.571 8.7 8.7 0 0 1 -4.8 1.362 40.106 40.106 0 0 0 -8.813.967 71.515 71.515 0 0 0 2.758-9.606c3.22-15.434-.025-28-9.387-36.328-12.8-11.4-18.206-20.413-20.483-25.8 21.67-2.044 42.126-7.615 57.953-16a5.286 5.286 0 0 1 7.011 2.152l18.289 32.6c-7.368 7.81-20.52 7.33-20.733 7.318a6 6 0 0 0 -.62 11.984c.113.006.548.026 1.246.026 4 0 16.608-.676 26.143-8.57l28 49.9c-19.715 16.722-36.777 15.438-37.607 15.366a6 6 0 0 0 -1.233 11.936 24.744 24.744 0 0 0 2.487.1c6.276 0 23.461-1.577 42.32-16.769l6.334 11.29c-7.089 7.124-18.1 7.8-18.294 7.813a6 6 0 0 0 .276 11.993h.261c.639-.028 13.555-.694 23.775-9.076l15.436 27.511c-38.175 26.514-100.369 42.297-167.011 42.297zm42.54-69.407c5.683 12.783 11.844 36.066-10.752 48.379a41.04 41.04 0 0 1 -27.761 4.22c-9.717-1.975-27-9.371-33.576-36.725a13.736 13.736 0 0 0 -13.268-10.5 13.322 13.322 0 0 0 -2.885.318 35.019 35.019 0 0 1 -42.61-33.1 37.12 37.12 0 0 1 11.415-27.7 29.587 29.587 0 0 1 23.04-8.372 26.251 26.251 0 0 1 19.818 12.239 23.856 23.856 0 0 1 2.195 21.338 13.461 13.461 0 0 0 1 11.516c2.847 5.116 8.984 9.362 15.271 10.567 6.076 1.165 11.346-.866 14.446-5.551a37.842 37.842 0 0 0 6.321-19.374 1.827 1.827 0 0 1 3.131-1.174 1.8 1.8 0 0 1 .509 1.514l-2.434 19.078a11.163 11.163 0 1 0 22.14-.051c-.169-1.345-.019-1.756.135-2.036 6.525-11.854 16.173-14.331 23.174-14.279a20.761 20.761 0 0 0 11.31-3.249 5.414 5.414 0 0 1 7.879 2.371 5.142 5.142 0 0 1 -.234 4.761 4.609 4.609 0 0 1 -.619.87c-2.741 2.8-5.615 3.054-11.34 3.32-1.128.052-2.282.106-3.463.191a15.3 15.3 0 0 0 -12.836 21.429z" fill="#1ae5be"/><g fill="#0635c9"><path d="m414.124 71.866h-316.253a51.495 51.495 0 0 0 -51.49 51.5v187.007a51.553 51.553 0 0 0 51.5 51.5h316.243a51.553 51.553 0 0 0 51.5-51.495v-187.017a51.554 51.554 0 0 0 -51.5-51.495zm39.5 238.507a39.54 39.54 0 0 1 -39.5 39.5h-316.248a39.541 39.541 0 0 1 -39.5-39.5v-187.007a39.5 39.5 0 0 1 39.49-39.5h316.258a39.539 39.539 0 0 1 39.5 39.5z"/><path d="m454.261 32.957h-396.522a47.793 47.793 0 0 0 -47.739 47.743v350.6a47.793 47.793 0 0 0 47.739 47.739h396.522a47.793 47.793 0 0 0 47.739-47.739v-350.6a47.793 47.793 0 0 0 -47.739-47.743zm0 434.086h-396.522a35.779 35.779 0 0 1 -35.739-35.743v-42h468v42a35.78 35.78 0 0 1 -35.739 35.743zm35.739-89.743h-468v-296.6a35.779 35.779 0 0 1 35.739-35.743h396.522a35.78 35.78 0 0 1 35.739 35.743z"/><path d="m423.682 396.111a30.957 30.957 0 1 0 30.957 30.957 30.992 30.992 0 0 0 -30.957-30.957zm0 49.914a18.957 18.957 0 1 1 18.957-18.957 18.978 18.978 0 0 1 -18.957 18.957z"/><path d="m106.752 409.652h-38.609a6 6 0 0 0 -6 6v31.305a6 6 0 0 0 6 6h38.609a6 6 0 0 0 6-6v-31.305a6 6 0 0 0 -6-6zm-6 31.305h-26.609v-19.305h26.609z"/><path d="m169.361 409.652h-38.609a6 6 0 0 0 -6 6v31.305a6 6 0 0 0 6 6h38.609a6 6 0 0 0 6-6v-31.305a6 6 0 0 0 -6-6zm-6 31.305h-26.609v-19.305h26.609z"/><path d="m231.97 409.652h-38.609a6 6 0 0 0 -6 6v31.305a6 6 0 0 0 6 6h38.609a6 6 0 0 0 6-6v-31.305a6 6 0 0 0 -6-6zm-6 31.305h-26.609v-19.305h26.609z"/><path d="m76.512 108.649a6 6 0 0 0 -6 6v2.362a6 6 0 0 0 12 0v-2.362a6 6 0 0 0 -6-6z"/><path d="m76.512 128.211a6 6 0 0 0 -6 6v60.7a6 6 0 0 0 12 0v-60.7a6 6 0 0 0 -6-6z"/></g></svg>