<svg height="458pt" viewBox="0 -37 458.79955 458" width="458pt" xmlns="http://www.w3.org/2000/svg"><path d="m379.296875 15.042969c-9.773437-5.289063-21.605469-5.042969-31.152344.644531-9.542969 5.6875-15.390625 15.980469-15.386719 27.09375v61.589844h30v-61.589844c.007813-11.582031 6.355469-22.226562 16.539063-27.738281zm0 0" fill="#d4e1f4"/><path d="m42.382812 322.261719v-33.867188h-30v33.867188c0 30.644531 24.328126 55.570312 54.234376 55.570312h30c-29.90625.003907-54.234376-24.925781-54.234376-55.570312zm0 0" fill="#d4e1f4"/><path d="m133.9375 10.238281h-30c-20.207031.0625-36.632812 16.320313-36.902344 36.527344l-2.175781 246.628906h30l2.175781-246.625c.269532-20.207031 16.691406-36.46875 36.902344-36.53125zm0 0" fill="#d4e1f4"/><path d="m101.71875 102.035156h44.800781c3.3125 0 6-2.683594 6-6 0-3.3125-2.6875-6-6-6h-44.800781c-3.316406 0-6 2.6875-6 6 0 3.316406 2.683594 6 6 6zm0 0" fill="#0635c9"/><path d="m213.257812 153.160156c-3.316406 0-6 2.6875-6 6 0 3.316406 2.683594 6 6 6h16.699219c3.3125 0 6-2.683594 6-6 0-3.3125-2.6875-6-6-6zm0 0" fill="#0635c9"/><path d="m190.582031 165.160156c3.3125 0 6-2.683594 6-6 0-3.3125-2.6875-6-6-6h-20.890625c-3.3125 0-6 2.6875-6 6 0 3.316406 2.6875 6 6 6zm0 0" fill="#0635c9"/><path d="m101.71875 165.160156h44.925781c3.3125 0 6-2.683594 6-6 0-3.3125-2.6875-6-6-6h-44.925781c-3.316406 0-6 2.6875-6 6 0 3.316406 2.683594 6 6 6zm0 0" fill="#0635c9"/><path d="m101.71875 228.292969h94.0625c3.316406 0 6-2.6875 6-6 0-3.316407-2.683594-6-6-6h-94.0625c-3.316406 0-6 2.683593-6 6 0 3.3125 2.683594 6 6 6zm0 0" fill="#0635c9"/><path d="m56.050781 384.535156c.414063.089844.835938.136719 1.257813.136719h212.667968c.277344-.003906.558594-.023437.832032-.066406.832031.035156 1.667968.066406 2.507812.066406 31.121094 0 57.324219-24.769531 59.65625-56.386719.179688-2.148437-.8125-4.226562-2.589844-5.445312-1.78125-1.21875-4.074218-1.386719-6.015624-.445313-1.9375.945313-3.222657 2.855469-3.359376 5.007813-1.875 25.382812-22.820312 45.269531-47.722656 45.269531-26.375 0-47.828125-21.992187-47.828125-49.019531v-35.625c0-3.316406-2.6875-6-6-6h-153.410156l1.941406-237.617188c.238281-17.707031 14.628907-31.953125 32.335938-32.011718h232.03125c-7.191407 7.367187-11.214844 17.253906-11.210938 27.546874v89.316407h12v-12.191407h61.089844c3.3125 0 6-2.6875 6-6v-71.125c-.023437-21.828124-17.714844-39.519531-39.546875-39.546874-.429688 0-.859375.019531-1.289062.035156-.207032-.023438-.417969-.035156-.625-.035156h-258.449219c-24.28125.078124-44.015625 19.621093-44.335938 43.902343l-1.941406 237.726563h-48.046875c-3.3125 0-6 2.683594-6 6v35.625c0 32.351562 24.816406 58.890625 56.050781 60.882812zm332.183594-344.589844v65.125h-55.089844v-65.125c-.058593-9.878906 5.175781-19.035156 13.722657-23.992187 8.546874-4.957031 19.097656-4.957031 27.644531 0s13.78125 14.113281 13.722656 23.992187zm-376.234375 254.082032h201.457031v29.625c-.050781 19.238281 8.929688 37.386718 24.253907 49.019531h-177.882813c-26.375 0-47.828125-21.988281-47.828125-49.019531zm0 0" fill="#0635c9"/><path d="m267.082031 90.035156c-3.3125 0-6 2.6875-6 6 0 3.316406 2.6875 6 6 6h12.871094c3.316406 0 6-2.683594 6-6 0-3.3125-2.683594-6-6-6zm0 0" fill="#0635c9"/><path d="m250.492188 96.035156c0-3.3125-2.6875-6-6-6h-75.683594c-3.3125 0-6 2.6875-6 6 0 3.316406 2.6875 6 6 6h75.683594c3.3125 0 6-2.683594 6-6zm0 0" fill="#0635c9"/><g fill="#1ae5be"><path d="m400.882812 298.136719c38.246094-42.871094 35.132813-108.472657-7.007812-147.527344-42.136719-39.054687-107.785156-37.1875-147.632812 4.203125-39.847657 41.390625-39.222657 107.0625 1.402343 147.6875 39.519531 39.554688 103.046875 41.359375 144.75 4.121094l56.128907 56.117187c1.511718 1.535157 3.730468 2.140625 5.8125 1.589844 2.085937-.550781 3.710937-2.179687 4.261718-4.261719.554688-2.085937-.054687-4.304687-1.589844-5.816406zm-125.726562 10.566406c-34.574219-20.132813-52.5-60.035156-44.589844-99.253906s39.90625-69.050781 79.578125-74.203125c39.675781-5.15625 78.230469 15.515625 95.898438 51.414062 17.664062 35.894532 10.523437 79.054688-17.761719 107.351563-30 30.007812-76.449219 36.035156-113.117188 14.683593zm0 0"/><path d="m383.019531 167.128906c-33.589843-33.59375-88.050781-33.601562-121.644531-.011718-33.59375 33.589843-33.59375 88.054687 0 121.644531 33.59375 33.589843 88.054688 33.585937 121.644531-.011719 16.265625-16.050781 25.421875-37.953125 25.421875-60.808594 0-22.855468-9.15625-44.757812-25.421875-60.8125zm-98.070312 124.769532c-19.816407-11.574219-33.148438-31.683594-36.097657-54.441407-2.949218-22.757812 4.816407-45.597656 21.03125-61.84375 27.160157-27.144531 70.578126-29.003906 99.960938-4.277343 29.382812 24.726562 34.964844 67.824218 12.855469 99.222656-22.109375 31.398437-64.566407 40.667968-97.75 21.339844zm0 0"/><path d="m380.226562 219.636719h-35.128906c-3.316406 0-6 2.6875-6 6s2.683594 6 6 6h35.128906c3.3125 0 6-2.6875 6-6s-2.6875-6-6-6zm0 0"/><path d="m335.992188 225.636719c0-3.3125-2.6875-6-6-6h-33.042969c-3.3125 0-6 2.6875-6 6s2.6875 6 6 6h33.042969c3.3125 0 6-2.6875 6-6zm0 0"/><path d="m275.789062 219.636719h-5.8125c-3.316406 0-6 2.6875-6 6s2.683594 6 6 6h5.8125c3.316407 0 6-2.6875 6-6s-2.683593-6-6-6zm0 0"/><path d="m360.226562 256.398438h-4.953124c-3.316407 0-6 2.6875-6 6 0 3.316406 2.683593 6 6 6h4.953124c3.3125 0 6-2.683594 6-6 0-3.3125-2.6875-6-6-6zm0 0"/><path d="m332.054688 256.398438h-.300782c-3.3125 0-6 2.6875-6 6 0 3.316406 2.6875 6 6 6h.300782c3.3125 0 6-2.683594 6-6 0-3.3125-2.6875-6-6-6zm0 0"/><path d="m309.480469 256.398438h-19.503907c-3.316406 0-6 2.6875-6 6 0 3.316406 2.683594 6 6 6h19.503907c3.316406 0 6-2.683594 6-6 0-3.3125-2.683594-6-6-6zm0 0"/><path d="m352.703125 194.867188h7.523437c3.3125 0 6-2.683594 6-6 0-3.3125-2.6875-6-6-6h-7.523437c-3.3125 0-6 2.6875-6 6 0 3.316406 2.6875 6 6 6zm0 0"/><path d="m289.976562 194.867188h41.871094c3.3125 0 6-2.683594 6-6 0-3.3125-2.6875-6-6-6h-41.871094c-3.316406 0-6 2.6875-6 6 0 3.316406 2.683594 6 6 6zm0 0"/></g></svg>