<svg version="1.1" xmlns="http://www.w3.org/2000/svg" xmlns:xlink="http://www.w3.org/1999/xlink" viewBox="0 0 172 172"><g fill="none" fill-rule="nonzero" stroke="none" stroke-width="1" stroke-linecap="butt" stroke-linejoin="miter" stroke-miterlimit="10" stroke-dasharray="" stroke-dashoffset="0" font-family="none" font-weight="none" font-size="none" text-anchor="none" style="mix-blend-mode: normal"><path d="M0,172v-172h172v172z" fill="none"></path><g><path d="M30.57031,76.59375v69.25352c0.00291,1.42062 0.57221,2.78142 1.58177,3.78089c1.00956,0.99947 2.37601,1.55508 3.79659,1.54372h10.07812c-1.42057,0.01136 -2.78703,-0.54425 -3.79659,-1.54372c-1.00956,-0.99947 -1.57887,-2.36028 -1.58177,-3.78089v-69.25352z" fill="#d4e1f4"></path><path d="M84.6754,21.16742l-70.96915,51.8066c-0.70481,0.51019 -0.99887,1.41754 -0.72729,2.24416c0.27158,0.82662 1.04645,1.38278 1.91651,1.37557h10.07813c-0.87005,0.00721 -1.64493,-0.54895 -1.91651,-1.37557c-0.27158,-0.82662 0.02248,-1.73397 0.72729,-2.24416l67.12434,-48.99984l-3.85555,-2.81012c-0.70944,-0.51468 -1.66978,-0.51332 -2.37777,0.00336z" fill="#d4e1f4"></path><path d="M72.5625,114.55469h26.875v36.61719h4.03125v-38.52565c0.02647,-1.12642 -0.85023,-2.06841 -1.97565,-2.12279h-30.86392c-1.14972,0.04355 -2.06792,0.97263 -2.09793,2.12279v38.52565h4.03125z" fill="#1ae5be"></path><path d="M86,71.05952c6.86473,0 12.42969,-5.56496 12.42969,-12.42969c0,-6.86473 -5.56496,-12.42969 -12.42969,-12.42969c-6.86473,0 -12.42969,5.56496 -12.42969,12.42969c0.00778,6.8615 5.56818,12.42191 12.42969,12.42969zM86,50.23139c4.63833,0 8.39844,3.76011 8.39844,8.39844c0,4.63833 -3.76011,8.39844 -8.39844,8.39844c-4.63833,0 -8.39844,-3.76011 -8.39844,-8.39844c0.00518,-4.63618 3.76226,-8.39325 8.39844,-8.39844z" fill="#1ae5be"></path><path d="M40.3125,113.93085c1.1132,0 2.01563,-0.90243 2.01563,-2.01562v-1.60511c0,-1.1132 -0.90243,-2.01562 -2.01562,-2.01562c-1.1132,0 -2.01562,0.90243 -2.01562,2.01563v1.60511c0,1.1132 0.90243,2.01563 2.01563,2.01563z" fill="#0635c9"></path><path d="M40.3125,143.82929c1.1132,0 2.01563,-0.90243 2.01563,-2.01562v-22.56761c0,-1.1132 -0.90243,-2.01562 -2.01562,-2.01562c-1.1132,0 -2.01562,0.90243 -2.01562,2.01563v22.56761c0,1.1132 0.90243,2.01563 2.01563,2.01563z" fill="#0635c9"></path><path d="M159.4917,71.36723l-24.10889,-17.71432v-26.72853c-0.00332,-1.13909 -0.92591,-2.06169 -2.06501,-2.06501h-15.06512c-1.11468,0 -2.01831,0.90363 -2.01831,2.01831v13.06125l-27.99535,-20.40283c-1.41462,-1.03575 -3.33753,-1.03453 -4.75083,0.00302l-70.97116,51.8328c-1.4663,1.03656 -2.04647,2.93329 -1.41094,4.61276c0.60416,1.59492 2.13972,2.64309 3.84514,2.62468h13.60345v12.76563c0,1.1132 0.90243,2.01563 2.01563,2.01563v0c1.1132,0 2.01563,-0.90243 2.01563,-2.01562v-14.73187c0,-1.1132 -0.90243,-2.01562 -2.01562,-2.01562h-15.67484l70.97016,-51.83314l31.19885,22.73659c0.74406,0.54227 1.76098,0.51143 2.47082,-0.07491c0.47351,-0.40482 0.74137,-1.00004 0.73033,-1.62291v-14.9425h11.08594v25.7822c0.001,0.63442 0.30733,1.22957 0.82305,1.59906l24.92757,18.30624h-15.62311c-1.13909,0.00332 -2.06169,0.92591 -2.06501,2.06501v69.20313c0,1.82806 -1.48193,3.30999 -3.30999,3.30999h-100.15607c-1.85452,-0.00553 -3.35653,-1.50754 -3.36206,-3.36206v-40.30981c0,-1.1132 -0.90243,-2.01562 -2.01562,-2.01562v0c-1.1132,0 -2.01562,0.90243 -2.01562,2.01563v40.30981c0,4.08321 3.3101,7.39331 7.39331,7.39331h100.10938c4.08025,0 7.38794,-3.30769 7.38794,-7.38794v-67.19019h13.6011c1.69703,0.01813 3.2269,-1.01946 3.83775,-2.60284c0.64574,-1.68312 0.07341,-3.58997 -1.39246,-4.6393z" fill="#0635c9"></path></g></g></svg>