<svg id="Layer_1" height="512" viewBox="0 0 512 512" width="512" xmlns="http://www.w3.org/2000/svg" data-name="Layer 1"><path d="m39 100.39v380.61h30v-381.134z" fill="#d4e1f4"/><g fill="#0635c9"><path d="m39.17 487h346.78c3.314 0 6.05-2.266 6.05-5.58v-71.42h-12v65h-335v-369h66.98c3.313 0 6.02-2.3 6.02-5.61v-63.39h262v142h12v-148.42c0-3.314-2.736-5.58-6.05-5.58h-273.97a5.815 5.815 0 0 0 -4.148 1.455l-72.895 69.575a5.852 5.852 0 0 0 -1.937 4.23v381.16c0 3.314 2.856 5.58 6.17 5.58zm14.811-393 52.019-49.373v49.373z"/><path d="m96.66 240h241.34v-12h-241.34a6 6 0 1 0 0 12z"/><path d="m96.66 274h247.34v-12h-247.34a6 6 0 1 0 0 12z"/><path d="m96.66 296a6 6 0 1 0 0 12h252.34v-12z"/><path d="m96.66 330a6 6 0 1 0 0 12h195.34v-12z"/><path d="m90.66 370a6 6 0 0 0 6 6h194.34v-12h-194.34a6 6 0 0 0 -6 6z"/><path d="m96.66 398a6 6 0 1 0 0 12h142.54a6 6 0 1 0 0-12z"/><path d="m146.62 217.23a53.236 53.236 0 1 0 -53-53.23 53.18 53.18 0 0 0 53 53.23zm0-94.47a41.236 41.236 0 1 1 -41 41.24 41.172 41.172 0 0 1 41-41.24z"/><path d="m146.62 196.91a32.915 32.915 0 1 0 -33.01-32.91 33 33 0 0 0 33.01 32.91zm0-53.83a20.915 20.915 0 1 1 -21.01 20.92 20.994 20.994 0 0 1 21.01-20.92z"/></g><path d="m366.836 272.188a6 6 0 0 0 -4.959 6.885l1.02 6.27a6 6 0 0 0 11.845-1.926l-1.02-6.271a6 6 0 0 0 -6.886-4.958z" fill="#1ae5be"/><path d="m364.533 263.911a6.007 6.007 0 0 0 5.93-6.957l-7.139-44.223a5.195 5.195 0 0 1 5.186-5.161 6 6 0 0 0 0-12 17.191 17.191 0 0 0 -17.162 18.054 5.751 5.751 0 0 0 .069.642l7.2 44.6a6 6 0 0 0 5.916 5.045z" fill="#1ae5be"/><path d="m454.64 318h-36.51l16.264-100.913c.02-.126.036-.342.048-.468a38.9 38.9 0 0 0 -38.992-42.619h-26.94a38.846 38.846 0 0 0 -39 42.633c.012.128.028.381.049.507l16.26 100.86h-36.509a24.139 24.139 0 0 0 -22.91 16.111 22.89 22.89 0 0 0 -1.4 7.719v38.39a5.921 5.921 0 0 0 6.12 5.78h16.88v23.8a5.968 5.968 0 0 0 5.75 6.2h136.45a6.008 6.008 0 0 0 5.8-6.2v-23.8h16.83a5.964 5.964 0 0 0 6.17-5.78v-38.39c0-13.338-11.021-23.83-24.36-23.83zm-106.249-123.309a26.668 26.668 0 0 1 20.119-8.691h26.94a26.661 26.661 0 0 1 20.119 8.7 26.1 26.1 0 0 1 6.946 20.362l-16.515 101.938h-48.051l-16.513-101.94a26.114 26.114 0 0 1 6.955-20.369zm-50.662 143.365a12.136 12.136 0 0 1 11.581-8.056h145.33c6.722 0 12.36 5.108 12.36 11.83v9.17h-170v-9.17a10.983 10.983 0 0 1 .729-3.774zm64.606 35.944a6 6 0 0 0 0 12h81.665v18h-124v-18h14.013a6 6 0 0 0 0-12h-37.013v-11h170v11z" fill="#1ae5be"/></svg>