<svg xmlns="http://www.w3.org/2000/svg" width="496.018" height="496.034" viewBox="0 0 496.018 496.034">
    <g data-name="#0635c9ff">
        <path data-name="Path 11948" d="M149.9 13.59a44.966 44.966 0 0 1 30.52.96q56.355 21.735 112.74 43.38c3.52 1.38 7.28 3.19 9.09 6.72a8.983 8.983 0 0 1-1.89 10.7c-3.66 3.51-8.77 4.59-13.31 6.5.03 15.58-.08 31.16.06 46.74 9.07 2.84 13.76 14.35 9.18 22.7-4.01 8.49-15.72 11.4-23.41 6.11a28.154 28.154 0 0 1-2.16 26.29 29.068 29.068 0 0 1-13.89 11.29c.86 20.38-4.26 41.15-15.85 58.06a92.381 92.381 0 0 1-36.51 31.7c-.16 4.76-.14 9.53-.02 14.29.17 4.48 3.2 8.22 6.59 10.86 8.48 2.56 17.09 4.67 25.5 7.47 4.59 1.66 8.21 5.07 11.51 8.54 4.56 2.08 38.01 16.97 42.63 18.92a107.671 107.671 0 0 0-4.6 11.37c-1.41-.79-31.68-14.47-33.15-15.11a25.055 25.055 0 0 1-3.59 10.26c-16 26.48-32.82 52.47-49.3 78.65 20.24.02 60.63.711 80.87.721a123.219 123.219 0 0 0 6.14 12c-73.67-.01-167.49-.691-241.17-.731a5.988 5.988 0 0 1-6.21-6.04c-.07-18.31 0-36.63-.03-54.94-.61-15.99 7.12-31.85 19.55-41.79 8.56-7.13 19.62-9.84 29.43-14.7 3.16-2.93 6.53-5.78 10.63-7.29 6.88-2.54 13.91-4.65 20.87-6.98 3.01-.59 4.86-3.26 6.67-5.49 3.56-5.16 1.89-11.75 2.25-17.59a93.247 93.247 0 0 1-50.3-49.85c-5.82-13.31-7.71-27.96-7.4-42.39-12.57-4.49-20.59-18.67-17.8-31.76a22.888 22.888 0 0 1 15.01-17.56q.015-11.82.01-23.62c.12-1.81-1.51-3.17-1.43-4.97-.1-8.32 0-16.64-.04-24.97-11.56-4.55-23.23-8.84-34.77-13.46-4.34-1.61-8.46-5.64-7.95-10.62.4-4.82 4.77-8.03 8.99-9.56Q91.635 36.02 149.9 13.59m1.14 12.39C114.03 40.19 77.08 54.55 40.02 68.6c2.42 1.22 4.99 2.06 7.5 3.06q53.055 20.385 106.1 40.82a32.681 32.681 0 0 0 23-.98c33.14-12.8 66.36-25.42 99.44-38.36 3.24-2.63 8.02-1.8 11.09-4.66Q230.9 46.895 174.69 25.22a32.264 32.264 0 0 0-23.65.76M259.15 92.5c-.35 8.2.03 16.42-.19 24.63.06 1.77-1.56 3.07-1.47 4.82-.02 7.65.03 15.29-.02 22.94a31.593 31.593 0 0 1 9.1 4.42 16.693 16.693 0 0 1 8.48-20.12V86.46c-5.29 2.04-10.54 4.2-15.9 6.04M79.1 96.67c.08 5.29-.22 10.59.15 15.87 23.9 7.14 48.64 11.66 73.6 12.31-24.72-9.02-49.12-18.92-73.75-28.18m101.63 26.09c-1.95.77-3.95 1.39-5.94 2.01a280.792 280.792 0 0 0 72.1-12.27c.27-5.08.07-10.17.12-15.25-22.07 8.58-44.21 16.96-66.28 25.51m-100.17 2.63c-.04 7.94.05 15.89-.05 23.83a37.327 37.327 0 0 0 5.43 3.01c.88-8.13-.22-16.81 3.56-24.36-2.98-.85-5.95-1.69-8.94-2.48m85.79 11.83c25.2 9.19 52.55 11.55 79.14 8.93 0-6.92.01-13.84-.01-20.76-25.68 7.58-52.4 11.14-79.13 11.83m-67.46.59c-.64 7.34-.82 14.73-1.46 22.08a7.786 7.786 0 0 1-7.42 6.79c-2.6.14-4.84-1.39-7.08-2.48-3.89-2.14-8.23-3.69-11.38-6.95-7.77 3.58-8.19 14.49-3.46 20.7 2.71 4.05 7.35 5.96 11.91 7.04 4.63 2.14 3.21 7.92 3.4 12a82.468 82.468 0 0 0 10.82 44.73 80.749 80.749 0 0 0 150.6-42.74c.29-3.8-.73-7.87.73-11.48 1.77-3.5 6.23-2.93 9.16-4.79 6.92-3.58 10.38-12.6 7.44-19.85a11.112 11.112 0 0 0-7.27-6.23c-13.39 2.99-27.29 2.9-40.93 2.33-27.01-1.37-53.97-8.61-77.03-22.95a335.141 335.141 0 0 1-34.97-5.25 13.711 13.711 0 0 0-3.06 7.05m180.52 2.7a4.2 4.2 0 1 0 6.67 3.51c.22-3.32-4.07-5.65-6.67-3.51M141.06 291.16c-.03 4.67.33 9.48-1.22 13.97a27.617 27.617 0 0 1-7.69 11.66c1.52 8.79 2.99 17.59 4.56 26.37 19.5 6.78 41.42 6.89 60.79-.41 1.17-8.43 2.53-16.83 3.87-25.23-3.01-3.08-5.93-6.41-7.37-10.54-2.26-5.51-1.5-11.54-1.63-17.33a94.293 94.293 0 0 1-51.31 1.51m-37.62 37.33c-4.21 1.96-8.34 5.57-8.81 10.47-.36 4.42 3.05 7.78 4.95 11.46 11.79 19.04 23.66 38.05 35.94 56.77q-7.275-42.315-14.56-84.63c-5.86 1.91-11.73 3.8-17.52 5.93m109.1-5.43c-4.25 28.38-8.68 56.73-13.12 85.08 1.99-2.33 3.39-5.07 5.07-7.6 11.6-18.45 23.4-36.78 34.63-55.46a9.288 9.288 0 0 0 .95-9.14 15.756 15.756 0 0 0-10.13-8.11c-5.79-1.61-11.5-3.59-17.4-4.77M67.75 347.73c-10.25 7.65-16.72 20.39-16.12 33.25q.03 24.51.01 49.01 41.985.03 83.98.01c-14.83-23.4-29.83-46.7-44.4-70.28-3.49-6.19-8.53-12.02-8.67-19.5-5.06 2.23-10.42 4.01-14.8 7.51m83.79 82.16c10.8.25 21.6.04 32.4.11q5.73-36.915 11.41-73.81a102.377 102.377 0 0 1-56.16.21c3.65 24.55 8.41 48.97 12.35 73.49z" style="fill:#0635c9" transform="translate(-24.327 -11.378)"/>
    </g>
    <path data-name="Path 11953" d="M99.05 10h128.03a29.353 29.353 0 0 1 16.4 4.56c3.62 2.27 6.4 5.59 9.31 8.68q26.055 27.87 52.14 55.73a26.751 26.751 0 0 1 7.07 19c-.01 125.69.02 81.39-.01 207.08.13 10.01-6.1 19.56-15.05 23.91a30.945 30.945 0 0 1-14.94 3.05c-102.67-.02-75.34 0-178.01-.01-5.66.07-11.54.19-16.85-2.1-9.99-3.87-17.31-14.03-17.13-24.84-.02-146.02-.02-122.03 0-268.05-.34-13.42 10.98-25.34 24.13-26.75m-4.53 14.18c-.04.02-.12.07-.16.09A15.564 15.564 0 0 0 82 37.96v265.98a15.524 15.524 0 0 0 4.25 10.91c3.46 3.78 8.78 5.19 13.76 5.17 8.71-.08 17.42.08 26.13-.1 95.95.17 61.91.04 157.87.07 8.12.22 16.17-6.53 15.98-14.94.03-125.55 0-81.1.01-206.64-.01-.64-.03-1.92-.05-2.56-10.35.66-20.67 1.84-30.98 3-7.33-.23-14.66 1.65-22.03 1.53a28.208 28.208 0 0 1-22.22-12.11 26.082 26.082 0 0 1-3.88-20.41c3.27-15.16 6.31-30.38 9.68-45.52-3.5-.6-7.06-.26-10.59-.34-74.76-.05-19.51.1-94.27-.07l-.08.28c-7.46-.5-15.06-.06-22.58-.22-4.55-.17-9.34.14-13.39 2.45m151.74 4.28c-2.96 14.38-6.13 28.71-9.02 43.1-1.55 9.29 7.72 17.48 16.69 16.55 14.55-1.35 29.09-2.81 43.63-4.26.06-.12.19-.35.25-.47-17.21-18.28-34.21-36.76-51.55-54.92z" style="fill:#0635c9" transform="translate(184.005 164.005)"/>
    <g data-name="#d4e1f4ff">
        <path data-name="Path 11955" d="M89.61 24.44c4.05-2.31 8.84-2.62 13.39-2.45 7.52.16 15.12-.28 22.58.22l-.32 1.17-.46-1.24c-6.46 1.46-12.43 6.83-12.73 13.74-.18 11.85-.01 23.71-.08 35.56-3.61-.28-7.03 2.91-6.52 6.61.23 3.29 3.36 5.52 6.52 5.44q.015 18.18 0 36.36c-3.42-.2-6.74 2.57-6.54 6.12-.08 3.47 3.21 6.09 6.54 5.92q.03 18.18 0 36.36c-3.27-.16-6.49 2.34-6.54 5.74-.3 3.6 3.05 6.53 6.54 6.3q.03 18.21 0 36.42a6.082 6.082 0 0 0-6.54 6.35c.09 3.38 3.3 5.82 6.54 5.69.02 12.12-.02 64.89.02 76.28-.2 7.75 6.68 14.16 14.13 14.89-8.71.18-17.42.02-26.13.1-4.98.02-10.3-1.39-13.76-5.17A15.524 15.524 0 0 1 82 303.94V37.96a15.564 15.564 0 0 1 7.45-13.43c.04-.02.12-.07.16-.09z" style="fill:#d4e1f4" transform="translate(184.005 164.005)"/>
    </g>
    <path data-name="Path 11954" d="M123.44 409.41c5.95-4.83 14.3-6.11 21.64-4.37 5.06 1.16 9.92 4.76 11.16 10.01 1.67 6.91-1.95 13.8-6.37 18.89-4.43 5.25-10.91 8.28-17.56 9.58 6.23 6.84 18.18 5.51 23.99-1.21 3.09-3.47 5.46-8.13 10.19-9.6 3.86-1.33 8.08.13 10.91 2.9 7.21 6.29 18.32 6.82 26.64 2.44 2.1-1.09 4.61-2.17 6.91-.91 3.88 1.6 4.67 7.49 1.27 10.01-12.72 8.4-30.91 7.57-42.61-2.31-3.36 4.54-7.07 9.09-12.21 11.69-8.19 4.13-18.4 4.87-26.71.67-5.83-3-9.87-8.52-12.44-14.42-2.1-.61-4.2-1.21-6.26-1.93-2.26-.82-4.57-2.34-4.98-4.91-.84-3.38 1.77-6.56 4.98-7.3 1.2.16 2.4.32 3.6.5.04-7.2 2.14-14.94 7.85-19.73m7.42 9.45c-3.28 3.39-3.38 8.53-3.12 12.96 7.99.03 16.01-5.8 17.09-13.96a12.8 12.8 0 0 0-13.97 1z" transform="translate(184.005 4.005)" style="fill:#0635c9"/>
    <g data-name="#1ae5beff">
        <path data-name="Path 11957" d="M89.45 24.53c.022-.02.065-.07.086-.09-.021.02-.064.07-.086.09z" style="fill:#1ae5be" transform="translate(184.005 164.005)"/>
        <path data-name="Path 11958" d="M105.447 78.05c-.276-3.7 1.573-6.89 3.523-6.61 33.488.08 66.975-.02 100.463.05 1.475-.09 2.848 1.98 3.145 4.64.567 4.01-1.5 7.88-3.664 7.33-33.315.03-66.63-.03-99.944.03-1.708.08-3.399-2.15-3.523-5.44z" transform="translate(176.665 164.005)" style="fill:#1ae5be"/>
        <path data-name="Path 11959" d="M105.446 125.97c-.108-3.55 1.686-6.32 3.534-6.12q48.91.045 97.821 0c1.778.09 4.064-.7 5.242 2.47 1.589 3.63-.032 9.73-2.572 9.5-33.5.12-66.992-.02-100.49.07-1.8.17-3.581-2.45-3.535-5.92z" transform="translate(176.655 164.005)" style="fill:#1ae5be"/>
        <path data-name="Path 11960" d="M105.441 173.99c.027-3.4 1.767-5.9 3.534-5.74q77.289.045 154.572 0c1.616.14 3.556-.61 4.82 1.76a9.971 9.971 0 0 1-.092 8.71c-1.292 2.22-3.188 1.4-4.782 1.56q-77.256-.015-154.518.01c-1.885.23-3.696-2.7-3.534-6.3z" transform="translate(176.66 164.005)" style="fill:#1ae5be"/>
        <path data-name="Path 11961" d="M105.439 223.06c-.184-3.62 1.632-6.62 3.534-6.35q78.351.09 156.7.02c1.913-.46 3.777 2.57 3.658 6.17-.011 3.44-1.789 6.12-3.6 5.82q-78.383.06-156.76.03c-1.749.13-3.483-2.31-3.532-5.69z" transform="translate(176.662 164.005)" style="fill:#1ae5be"/>
    </g>
</svg>
