<?xml version="1.0"?>
<svg xmlns="http://www.w3.org/2000/svg" id="Layer_1" data-name="Layer 1" viewBox="0 0 512 512" width="512" height="512"><title>Text message ads</title><path d="M88.452,347.044a16.028,16.028,0,0,1,16.01-16.01,281.22,281.22,0,0,0,35.723-2.305V312.28a282.854,282.854,0,0,1-45.723,3.754,16.028,16.028,0,0,0-16.01,16.01v44.019a16.027,16.027,0,0,0,10,14.829Z" style="fill:#d4e1f4"/><path d="M120.165,484.544V405.326q-5.993-.578-12-.887v85.1a37.769,37.769,0,0,0,14.374-5.466C121.755,484.255,120.966,484.417,120.165,484.544Z" style="fill:#d4e1f4"/><path d="M214.472,289.41a284.51,284.51,0,0,1-62.287,20.619v15a284.51,284.51,0,0,0,62.287-20.619l64.374-30.041v-15Z" style="fill:#d4e1f4"/><polygon points="290.846 253.769 290.846 268.769 315.162 257.421 315.162 242.421 290.846 253.769" style="fill:#d4e1f4"/><path d="M327.162,304.547V233a6,6,0,0,0-8.538-5.438L209.4,278.535a273.573,273.573,0,0,1-114.935,25.5,28.042,28.042,0,0,0-28.01,28.01v44.019a28.041,28.041,0,0,0,28.01,28.01c.568,0,1.136.02,1.7.024v91.92a6,6,0,0,0,6,6A50.077,50.077,0,0,0,152.185,452V410.332A272.328,272.328,0,0,1,209.4,429.571l109.227,50.974a6,6,0,0,0,8.538-5.438V403.561a50.013,50.013,0,0,0,0-99.014Zm-232.7,87.526a16.027,16.027,0,0,1-16.01-16.01V332.044a16.028,16.028,0,0,1,16.01-16.01,282.854,282.854,0,0,0,45.723-3.754v83.547A282.854,282.854,0,0,0,94.462,392.073ZM140.185,452a38.081,38.081,0,0,1-32.02,37.547v-85.1A272.447,272.447,0,0,1,140.185,408Zm12-53.919V310.029a284.51,284.51,0,0,0,62.287-20.619l64.374-30.041v189.37L214.472,418.7A284.561,284.561,0,0,0,152.185,398.078Zm162.977,67.609-24.316-11.348V253.769l24.316-11.348Zm12-74.289V316.709a38.012,38.012,0,0,1,0,74.689Z" style="fill:#0635c9"/><path d="M422.781,354.057a70.893,70.893,0,0,0-43.193-65.334,6,6,0,1,0-4.7,11.041,59,59,0,0,1,0,108.574,6,6,0,1,0,4.7,11.041A70.884,70.884,0,0,0,422.781,354.057Z" style="fill:#0635c9"/><path d="M393.6,257.393a6,6,0,1,0-4.7,11.041,93.051,93.051,0,0,1,0,171.234,6,6,0,1,0,4.7,11.041,105.049,105.049,0,0,0,0-193.316Z" style="fill:#0635c9"/><path d="M473.776,76.638H317.828a26.417,26.417,0,0,0-26.387,26.387v81.429a26.418,26.418,0,0,0,26.387,26.388h8.3a1.079,1.079,0,0,1,1.075.727c4.672,26.445,22.014,34.749,26.167,36.379a6.1,6.1,0,0,0,2.809.69,5.945,5.945,0,0,0,.88-.066,6.307,6.307,0,0,0,5.159-4.8,38.706,38.706,0,0,0,.909-6.39c1.307-13.989,3.852-26.545,20.414-26.545h90.239a26.418,26.418,0,0,0,26.388-26.388V103.025A26.418,26.418,0,0,0,473.776,76.638Zm14.388,107.816a14.4,14.4,0,0,1-14.388,14.388H383.537c-12.317,0-21.609,5.2-26.872,15.029-3.4,6.359-4.558,13.518-5.166,19.118-4.546-3.758-10.243-10.829-12.483-23.508a12.988,12.988,0,0,0-12.892-10.639h-8.3a14.4,14.4,0,0,1-14.387-14.388V103.025a14.4,14.4,0,0,1,14.387-14.387H473.776a14.4,14.4,0,0,1,14.388,14.387Z" style="fill:#1ae5be"/><path d="M468.68,138.876H437.8a6,6,0,0,0,0,12H468.68a6,6,0,0,0,0-12Z" style="fill:#1ae5be"/><path d="M420.446,138.876H410.071a6,6,0,0,0,0,12h10.375a6,6,0,0,0,0-12Z" style="fill:#1ae5be"/><path d="M399.106,144.876a6,6,0,0,0-6-6H322.925a6,6,0,0,0,0,12h70.181A6,6,0,0,0,399.106,144.876Z" style="fill:#1ae5be"/><path d="M468.68,106.239H417.134a6,6,0,0,0,0,12H468.68a6,6,0,0,0,0-12Z" style="fill:#1ae5be"/><path d="M375.2,118.239h25.083a6,6,0,0,0,0-12H375.2a6,6,0,0,0,0,12Z" style="fill:#1ae5be"/><path d="M322.925,118.239h35.267a6,6,0,0,0,0-12H322.925a6,6,0,0,0,0,12Z" style="fill:#1ae5be"/><path d="M446.763,171.513H432.086a6,6,0,0,0,0,12h14.677a6,6,0,0,0,0-12Z" style="fill:#1ae5be"/><path d="M408.053,171.513H374.968a6,6,0,0,0,0,12h33.085a6,6,0,0,0,0-12Z" style="fill:#1ae5be"/><path d="M351.057,171.513H322.925a6,6,0,0,0,0,12h28.132a6,6,0,0,0,0-12Z" style="fill:#1ae5be"/><path d="M247.359,9.983H44.373A32.574,32.574,0,0,0,11.836,42.521V148.51a32.574,32.574,0,0,0,32.537,32.537H161.831c23.061,0,26.661,17.88,28.372,36.192a49.392,49.392,0,0,0,1.125,8,6.355,6.355,0,0,0,5.234,4.941,5.985,5.985,0,0,0,.884.064,6.135,6.135,0,0,0,2.886-.726c4.861-1.869,27.063-12.16,33.048-46.028a3.163,3.163,0,0,1,3.181-2.441h10.8A32.574,32.574,0,0,0,279.9,148.51V42.521A32.574,32.574,0,0,0,247.359,9.983ZM267.9,148.51a20.56,20.56,0,0,1-20.537,20.537h-10.8a15.1,15.1,0,0,0-15,12.353c-3.444,19.493-13.049,29.2-19.512,33.654-1.387-14.616-5.18-46.007-40.22-46.007H44.373A20.56,20.56,0,0,1,23.836,148.51V42.521A20.561,20.561,0,0,1,44.373,21.983H247.359A20.561,20.561,0,0,1,267.9,42.521Z" style="fill:#1ae5be"/><path d="M97.207,96.994a6,6,0,0,0-6-6h-40.2a6,6,0,0,0,0,12h40.2A6,6,0,0,0,97.207,96.994Z" style="fill:#1ae5be"/><path d="M133.293,96.994a6,6,0,0,0-6-6h-13.5a6,6,0,1,0,0,12h13.5A6,6,0,0,0,133.293,96.994Z" style="fill:#1ae5be"/><path d="M240.725,90.994h-91.35a6,6,0,0,0,0,12h91.35a6,6,0,0,0,0-12Z" style="fill:#1ae5be"/><path d="M51.007,60.514H118.1a6,6,0,0,0,0-12H51.007a6,6,0,0,0,0,12Z" style="fill:#1ae5be"/><path d="M140.035,60.514h32.649a6,6,0,0,0,0-12H140.035a6,6,0,0,0,0,12Z" style="fill:#1ae5be"/><path d="M240.725,48.514h-45.9a6,6,0,0,0,0,12h45.905a6,6,0,0,0,0-12Z" style="fill:#1ae5be"/><path d="M98.638,133.475h-19.1a6,6,0,0,0,0,12h19.1a6,6,0,0,0,0-12Z" style="fill:#1ae5be"/><path d="M172.984,133.475H129.92a6,6,0,1,0,0,12h43.064a6,6,0,0,0,0-12Z" style="fill:#1ae5be"/><path d="M240.725,133.475H204.108a6,6,0,0,0,0,12h36.617a6,6,0,0,0,0-12Z" style="fill:#1ae5be"/></svg>
