<?xml version="1.0" encoding="utf-8"?>
<!-- Generator: Adobe Illustrator 23.1.0, SVG Export Plug-In . SVG Version: 6.00 Build 0)  -->
<svg version="1.1" id="Layer_1" xmlns="http://www.w3.org/2000/svg" xmlns:xlink="http://www.w3.org/1999/xlink" x="0px" y="0px"
	 viewBox="0 0 491 491" style="enable-background:new 0 0 491 491;" xml:space="preserve">
<style type="text/css">
	.st0{fill:#D4E1F4;}
	.st1{fill:#0635C9;}
	.st2{fill:#1AE5BE;}
	.st3{enable-background:new    ;}
</style>
<path class="st0" d="M227.2,19c4.1,0.1,8.2-0.8,11.9-2.6c-1.7-0.9-3.3-1.9-4.9-3c-3-2-5.2-3.5-10.1-3.5c-4.9,0-7.1,1.5-10.1,3.5
	c-0.6,0.4-1.2,0.8-1.8,1.2C216.7,17.6,221.9,19.1,227.2,19z"/>
<path class="st0" d="M173.6,19c4.1,0.1,8.2-0.8,11.9-2.6c-1.7-0.9-3.3-1.9-4.9-3c-3-2-5.2-3.5-10.1-3.5s-7.1,1.5-10.1,3.5
	c-0.6,0.4-1.2,0.8-1.8,1.2C163,17.6,168.2,19.1,173.6,19z"/>
<path class="st0" d="M120.9,19c4.1,0.1,8.2-0.8,11.9-2.6c-1.7-0.9-3.3-1.9-4.9-3c-3-2-5.2-3.5-10.1-3.5s-7.1,1.5-10.1,3.5
	c-0.6,0.4-1.2,0.8-1.8,1.2C110.4,17.6,115.6,19.1,120.9,19z"/>
<path class="st0" d="M100.1,376.6v-359c-2.9,1-6,1.5-9.1,1.4c-8.5,0-13.1-3.1-16.8-5.5c-1.3-0.9-2.6-1.7-4.1-2.4v365.6
	c0,12.1,6.2,23.4,16.4,30c10.2,6.5,23.1,7.4,34.1,2.2C108.1,403,100.1,390.5,100.1,376.6z"/>
<path class="st0" d="M182.1,375.6v-20.3c0-12.9,7.3-24.6,18.9-30.3c-10.5-5.2-22.9-4.6-32.8,1.6c-9.9,6.2-16,17-16,28.7v20.3
	c0,13.5-5.7,26.3-15.8,35.3h29.9C176.4,402,182.1,389.1,182.1,375.6z"/>
<path class="st0" d="M258.7,439.8v-84.4c0-12.9-5.4-25.2-15-33.8h-29.9c9.5,8.7,15,20.9,15,33.8v84.4c0,21.6,17.6,39.2,39.2,39.2
	h29.9C276.3,478.9,258.8,461.4,258.7,439.8z"/>
<g>
	<path class="st1" d="M179,54.7c0-3.3-2.7-6-6-6h-72.6c-3.3,0-6,2.7-6,6s2.7,6,6,6H173C176.3,60.7,179,58,179,54.7z"/>
	<path class="st1" d="M428.3,478.9h-1.8c-9.6-0.9-16.9-9-16.9-18.6v-99.7c0-28.2-22.9-51.1-51.2-51.2h-75v-91.1c0-3.3-2.7-6-6-6
		s-6,2.7-6,6v91.1H187c-0.1,0-0.2,0-0.4,0c-0.3,0-0.7,0-1,0c-25.3,0-45.8,20.5-45.8,45.8v20.3c-0.3,19.4-16.1,35-35.5,35
		s-35.2-15.6-35.5-35V13.1c1.4,0.7,2.8,1.5,4.1,2.4C76.6,18,81.1,21,89.7,21s13.1-3.1,16.8-5.5c3-2,5.2-3.5,10.1-3.5
		s7.1,1.5,10.1,3.5c3.7,2.5,8.2,5.5,16.8,5.5c8.5,0,13.1-3.1,16.8-5.5c3-2,5.2-3.5,10.1-3.5c4.9,0,7.1,1.5,10.1,3.5
		c3.7,2.5,8.2,5.5,16.8,5.5c8.5,0,13.1-3.1,16.8-5.5c3-2,5.2-3.5,10.1-3.5c4.9,0,7.1,1.5,10.1,3.5c3.7,2.5,8.2,5.5,16.8,5.5
		c8.5,0,13.1-3.1,16.8-5.5c1.3-0.9,2.6-1.7,4.1-2.4V33c0,3.3,2.7,6,6,6s6-2.7,6-6V6c0-3.3-2.7-6-6-6c-8.5,0-13.1,3.1-16.8,5.5
		c-3,2-5.2,3.5-10.1,3.5S244,7.5,241,5.5C237.3,3,232.8,0,224.2,0s-13.1,3.1-16.8,5.5c-3,2-5.2,3.5-10.1,3.5
		c-4.9,0-7.1-1.5-10.1-3.5C183.5,3,179,0,170.4,0c-8.5,0-13.1,3.1-16.8,5.5c-3,2-5.2,3.5-10.1,3.5c-4.9,0-7.1-1.5-10.1-3.5
		C129.6,3.1,125,0,116.5,0s-13.1,3.1-16.8,5.5c-3,2-5.2,3.5-10.1,3.5s-7.1-1.5-10.1-3.5C76,3.1,71.4,0,62.9,0c-3.3,0-6,2.7-6,6
		v369.7c0,26.2,21.3,47.5,47.5,47.5c1.4,0,2.8-0.1,4.2-0.2h111v16.8c0,28.2,22.9,51.1,51.2,51.2H426c0.8,0.1,1.5,0.1,2.3,0.1
		c3.3,0,6-2.7,6-6.1S431.6,478.9,428.3,478.9z M136.1,411c10-9,15.8-21.8,15.8-35.3v-20.3c0-18.7,15.1-33.8,33.8-33.8
		s33.8,15.1,33.8,33.8V411H136.1z M270.7,478.9c-21.6,0-39.2-17.6-39.2-39.2v-84.4c0-12.9-5.4-25.2-15-33.8h141.9
		c21.6,0,39.2,17.6,39.2,39.2v99.7c0,6.7,2.2,13.2,6.3,18.6H270.7V478.9z"/>
	<path class="st1" d="M188.2,92h-49.7c-3.3,0-6,2.7-6,6s2.7,6,6,6h49.7c3.3,0,6-2.7,6-6S191.6,92,188.2,92z"/>
	<path class="st1" d="M116.8,92h-16.4c-3.3,0-6,2.7-6,6s2.7,6,6,6h16.4c3.3,0,6-2.7,6-6S120.1,92,116.8,92z"/>
	<path class="st1" d="M138.5,147.2h46.7c3.3,0,6-2.7,6-6s-2.7-6-6-6h-46.7c-3.3,0-6,2.7-6,6S135.2,147.2,138.5,147.2z"/>
	<path class="st1" d="M116.8,135.2h-16.4c-3.3,0-6,2.7-6,6s2.7,6,6,6h16.4c3.3,0,6-2.7,6-6S120.1,135.2,116.8,135.2z"/>
	<path class="st1" d="M138.5,190.4h66.7c3.3,0,6-2.7,6-6s-2.7-6-6-6h-66.7c-3.3,0-6,2.7-6,6S135.2,190.4,138.5,190.4z"/>
	<path class="st1" d="M116.8,178.4h-16.4c-3.3,0-6,2.7-6,6s2.7,6,6,6h16.4c3.3,0,6-2.7,6-6C122.8,181.1,120.1,178.4,116.8,178.4z"/>
	<path class="st1" d="M240,221.7H138.5c-3.3,0-6,2.7-6,6s2.7,6,6,6H240c3.3,0,6-2.7,6-6C245.9,224.3,243.3,221.7,240,221.7z"/>
	<path class="st1" d="M116.8,221.7h-16.4c-3.3,0-6,2.7-6,6s2.7,6,6,6h16.4c3.3,0,6-2.7,6-6C122.8,224.3,120.1,221.7,116.8,221.7z"/>
	<path class="st1" d="M240,259.9H138.5c-3.3,0-6,2.7-6,6s2.7,6,6,6H240c3.3,0,6-2.7,6-6S243.3,259.9,240,259.9z"/>
	<path class="st1" d="M116.8,259.9h-16.4c-3.3,0-6,2.7-6,6s2.7,6,6,6h16.4c3.3,0,6-2.7,6-6S120.1,259.9,116.8,259.9z"/>
	<path class="st1" d="M362.3,426.5H301c-3.3,0-6,2.7-6,6s2.7,6,6,6h61.3c3.3,0,6-2.7,6-6S365.6,426.5,362.3,426.5z"/>
	<path class="st1" d="M280.6,426.5h-17c-3.3,0-6,2.7-6,6s2.7,6,6,6h17c3.3,0,6-2.7,6-6S283.9,426.5,280.6,426.5z"/>
	<path class="st1" d="M362.3,391.6H301c-3.3,0-6,2.7-6,6s2.7,6,6,6h61.3c3.3,0,6-2.7,6-6C368.3,394.3,365.6,391.6,362.3,391.6z"/>
	<path class="st1" d="M280.6,391.6h-17c-3.3,0-6,2.7-6,6s2.7,6,6,6h17c3.3,0,6-2.7,6-6C286.6,394.3,283.9,391.6,280.6,391.6z"/>
	<path class="st1" d="M362.3,356.6H301c-3.3,0-6,2.7-6,6s2.7,6,6,6h61.3c3.3,0,6-2.7,6-6C368.3,359.3,365.6,356.6,362.3,356.6z"/>
	<path class="st1" d="M280.6,356.6h-17c-3.3,0-6,2.7-6,6s2.7,6,6,6h17c3.3,0,6-2.7,6-6C286.6,359.3,283.9,356.6,280.6,356.6z"/>
</g>
<path class="st2" d="M396.3,211.5c-2.3-2.3-6.1-2.3-8.5,0l-8.1,8.1l-28.5-28.5c34.6-39.1,32.8-98.4-4.1-135.3
	c-38-38-99.5-38.7-138.3-1.4c-38.8,37.2-40.7,98.7-4.2,138.2s97.8,42.6,138.1,7l28.5,28.5l-8.1,8.1c-2.3,2.3-2.3,6.1,0,8.5
	l31.7,31.7c9.2,9.1,24,9.1,33.2,0c9.1-9.2,9.1-24,0-33.2L396.3,211.5z M233.6,200.7c-6.4-3.8-12.4-8.4-17.7-13.6
	c-32.2-32.3-33.8-84.1-3.7-118.3c30.2-34.2,81.7-39.2,117.8-11.3s44.4,79,18.9,116.8C323.5,212.1,273,223.7,233.6,200.7z
	 M419.5,267.9c-4.5,4.5-11.7,4.5-16.2,0l-27.4-27.4l16.2-16.2l27.4,27.4C423.9,256.2,423.9,263.4,419.5,267.9z"/>
<g class="st3">
	<path class="st2" d="M273.8,139.7c-1.7,0-3.2-0.3-4.4-1c-1.2-0.7-2.2-1.5-2.9-2.5c-0.4,0.5-0.9,1-1.4,1.5c-0.5,0.4-1.1,0.8-1.7,1.1
		c-0.7,0.3-1.4,0.6-2.3,0.7c-0.9,0.2-1.9,0.2-3.2,0.2c-0.9,0-1.6-0.1-2.3-0.2c-0.7-0.1-1.4-0.3-2-0.5c0,2.4-0.4,4.5-1.1,6.5
		c-0.7,2-1.7,3.7-2.9,5.2c-1.2,1.5-2.6,2.9-4.3,4c-1.6,1.1-3.4,2.1-5.2,2.8c-1.9,0.7-3.8,1.3-5.9,1.7c-2,0.4-4.1,0.5-6.1,0.5
		c-3.1,0-6-0.5-8.6-1.5c-2.6-1-4.9-2.5-6.8-4.3c-1.9-1.9-3.4-4.1-4.5-6.7c-1.1-2.6-1.6-5.5-1.6-8.6c0.1-1.8,0.3-3.7,0.7-5.6
		c0.4-1.9,1-3.8,1.7-5.6c0.7-1.8,1.4-3.6,2.3-5.2c0.8-1.7,1.7-3.1,2.6-4.5l6.6,5.1c-0.7,1.2-1.4,2.5-2.1,3.8
		c-0.7,1.3-1.3,2.7-1.8,4.1c-0.5,1.4-0.9,2.8-1.2,4.1c-0.3,1.4-0.5,2.7-0.5,4c-0.1,1.5,0.2,3,0.9,4.4c0.7,1.4,1.6,2.6,2.8,3.6
		c1.2,1,2.6,1.8,4.2,2.4c1.6,0.6,3.3,0.9,5.2,0.9c1.4,0,2.8-0.1,4.2-0.3c1.4-0.2,2.7-0.5,4-0.9c1.3-0.4,2.5-1,3.6-1.7
		c1.1-0.7,2-1.5,2.9-2.5c0.8-1,1.4-2.1,1.9-3.4c0.5-1.3,0.7-2.8,0.7-4.4c0-1.2-0.2-2.5-0.5-3.8c-0.4-1.3-0.8-2.7-1.4-4.1
		c-0.6-1.4-1.3-2.8-2-4.3c-0.8-1.4-1.6-2.9-2.4-4.3l8.5-4.5c0.7,1.7,1.5,3.5,2.3,5.2c0.8,1.7,1.6,3.2,2.5,4.5
		c0.9,1.3,1.7,2.4,2.7,3.2c0.9,0.8,1.9,1.2,2.8,1.1c0.8,0,1.5-0.2,1.9-0.7c0.5-0.4,0.8-1,1.1-1.7c0.3-0.7,0.4-1.5,0.5-2.4
		c0.1-0.9,0.1-1.8,0.1-2.8l-0.2-5.3l8.7-1.2c0,0.6,0,1.3,0.1,2.2c0.1,0.9,0.1,1.9,0.3,3c0.1,1.1,0.3,2.1,0.5,3.2
		c0.2,1.1,0.5,2.1,0.9,2.9c0.4,0.9,0.8,1.6,1.3,2.1c0.5,0.5,1.1,0.8,1.8,0.8c0.7,0,1.3-0.3,1.8-0.9c0.5-0.6,1-1.4,1.3-2.4
		c0.4-1,0.6-2.1,0.8-3.2c0.2-1.2,0.3-2.4,0.3-3.5c0-0.4,0-0.8,0-1c0-0.2,0-0.4,0-0.5c0-0.2,0-0.3,0-0.5c0-0.2,0-0.6,0-1.1l8.3-1.2
		c0.1,1.1,0.2,2,0.2,2.7c0.1,0.7,0.1,1.4,0.2,1.9c0.1,0.6,0.1,1.2,0.2,1.8c0.1,0.6,0.2,1.3,0.4,2.2c0.2,0.9,0.5,1.7,0.8,2.4
		c0.4,0.7,0.8,1.3,1.3,1.7c0.5,0.5,1.1,0.8,1.7,1c0.6,0.2,1.2,0.3,1.9,0.3h0.9v9.6l-0.6,0c-2.3,0-4.3-0.4-6-1.1
		c-1.7-0.7-3.2-1.9-4.4-3.5c-1.1,1.4-2.5,2.5-4.1,3.3C277.8,139.4,275.9,139.7,273.8,139.7z M264.9,104.2l-5.7,5.7l-5.9-5.9l5.9-5.9
		l5.8,5.8l5.7-5.7l5.9,5.9l-5.9,5.9L264.9,104.2z M270.3,95.3l-5.4,5.4l-5.5-5.5l5.4-5.4L270.3,95.3z"/>
	<path class="st2" d="M320.6,130.2v9.6h-0.7c-1,0-1.9-0.1-2.9-0.2c-0.9-0.2-1.8-0.4-2.7-0.7c-0.8-0.3-1.6-0.6-2.3-1.1
		c-0.7-0.4-1.3-0.8-1.8-1.3c-1,0.7-2,1.3-3.3,1.7c-1.2,0.4-2.5,0.8-3.9,1c-1.4,0.2-2.8,0.4-4.2,0.5c-1.5,0.1-2.9,0.1-4.3,0.1h-1.1
		v-9.6h1.1c1.5,0,2.8,0,3.9-0.1c1.1-0.1,2.2-0.2,3-0.4c0.9-0.2,1.6-0.5,2.2-0.8c0.6-0.3,1.1-0.8,1.4-1.3c0.5-0.7,0.8-1.4,0.9-2.2
		c0.1-0.8,0.1-1.6,0-2.5c-0.1-0.8-0.2-1.7-0.5-2.5c-0.2-0.8-0.4-1.7-0.6-2.4l8.9-2.5c0.2,0.9,0.5,1.7,0.6,2.5
		c0.2,0.8,0.3,1.5,0.5,2.2c0.1,0.7,0.2,1.4,0.3,2.2c0.1,0.7,0.2,1.5,0.3,2.4c0.1,0.5,0.2,1.1,0.3,1.8c0.1,0.6,0.4,1.2,0.7,1.8
		c0.3,0.5,0.7,1,1.3,1.4c0.5,0.4,1.2,0.5,2.1,0.5H320.6z M305.3,148.7l-5.7,5.7l-5.9-5.9l5.9-5.9l5.8,5.8l5.7-5.7l5.9,5.9l-5.9,5.9
		L305.3,148.7z"/>
	<path class="st2" d="M320.5,130.2c0.8,0,1.7,0,2.7,0c1.1,0,2.2,0,3.4-0.1c1.2,0,2.4-0.1,3.7-0.2c1.3-0.1,2.5-0.3,3.6-0.5
		c1.1-0.2,2.2-0.5,3.2-0.8s1.7-0.7,2.3-1.1c-2.7,0.3-5.1,0.3-7.3,0.2c-2.2-0.1-4.1-0.5-5.8-1.3c-1.6-0.7-2.9-1.8-3.8-3.3
		c-0.9-1.5-1.4-3.4-1.4-5.8c0-1.1,0.1-2.3,0.3-3.5c0.2-1.2,0.6-2.4,1-3.5c0.5-1.1,1-2.2,1.7-3.3s1.4-1.9,2.3-2.7
		c0.9-0.8,1.9-1.4,3-1.8c1.1-0.5,2.3-0.7,3.6-0.7c1.6,0,3.1,0.3,4.4,0.9c1.3,0.6,2.5,1.4,3.6,2.5c1.1,1,2,2.3,2.8,3.6
		c0.8,1.4,1.5,2.8,2,4.4c0.5,1.5,0.9,3.1,1.2,4.7c0.3,1.6,0.4,3.1,0.4,4.6c0,2.4-0.3,4.6-1,6.4c-0.7,1.8-1.6,3.4-2.9,4.6
		c-1.2,1.3-2.7,2.3-4.3,3.2c-1.7,0.8-3.5,1.5-5.5,1.9c-2,0.5-4.1,0.8-6.4,1c-2.2,0.2-4.5,0.3-6.9,0.3h-1.1v-9.6H320.5z M332.8,98.7
		l-6.8-6.8l6.8-6.8l6.8,6.8L332.8,98.7z M333,111.5c-0.5,0-1,0.1-1.4,0.4c-0.5,0.3-1,0.7-1.4,1.2c-0.4,0.5-0.7,1-1,1.7
		c-0.3,0.6-0.4,1.3-0.4,1.9c0,0.6,0.2,1.1,0.6,1.5c0.4,0.4,0.9,0.7,1.4,0.9c0.6,0.2,1.3,0.4,2,0.5c0.7,0.1,1.5,0.1,2.2,0.2
		c0.7,0,1.4,0,2,0c0.6,0,1.1-0.1,1.5-0.1c-0.2-0.9-0.4-1.8-0.7-2.8c-0.3-0.9-0.7-1.8-1.1-2.6c-0.4-0.8-1-1.4-1.6-1.9
		C334.5,111.8,333.8,111.6,333,111.5z"/>
</g>
</svg>
