<svg xmlns="http://www.w3.org/2000/svg" data-name="Layer 1" viewBox="0 0 512 512"><path fill="#d4e1f4" d="M132,489h30a19.994,19.994,0,0,1-20-20V99a19.994,19.994,0,0,1,20-20H132a19.994,19.994,0,0,0-20,20V469A19.994,19.994,0,0,0,132,489Z"></path><path fill="#1ae5be" d="M360,186a14,14,0,0,0-14-14H166a14,14,0,0,0-14,14V366a14,14,0,0,0,14,14H346a14,14,0,0,0,14-14Zm-80,72.081A23.919,23.919,0,0,1,256.081,282h-1.162A23.919,23.919,0,0,1,231,258.081V236.919A23.919,23.919,0,0,1,254.919,213h1.162A23.919,23.919,0,0,1,280,236.919Zm-37.126,33.7A35.743,35.743,0,0,0,255.3,294H256.7a35.743,35.743,0,0,0,12.429-2.222,37.718,37.718,0,0,0,29.75,27.419A25.664,25.664,0,0,1,320,344.333V368H192V344.333A25.664,25.664,0,0,1,213.124,319.2,37.718,37.718,0,0,0,242.874,291.778ZM164,186a1.986,1.986,0,0,1,1.981-2H346.019A1.986,1.986,0,0,1,348,186V366.036A1.956,1.956,0,0,1,346.019,368H332V344.333a37.66,37.66,0,0,0-30.977-36.944,25.4,25.4,0,0,1-20.658-22.1A35.949,35.949,0,0,0,293,258.076V237.252A36.576,36.576,0,0,0,256.7,201H255.3A36.576,36.576,0,0,0,219,237.252v20.824a36.011,36.011,0,0,0,12.708,27.214,25.574,25.574,0,0,1-20.827,22.1A37.575,37.575,0,0,0,180,344.333V368H165.981A1.956,1.956,0,0,1,164,366.036Z"></path><path fill="#1ae5be" d="M154.481,413H357.519a6,6,0,0,0,0-12H154.481a6,6,0,0,0,0,12Z"></path><path fill="#1ae5be" d="M154.481,445H357.519a6,6,0,0,0,0-12H154.481a6,6,0,0,0,0,12Z"></path><path fill="#0635c9" d="M136,116.891a6,6,0,0,0,6-6v-4.778a6,6,0,0,0-12,0v4.778A6,6,0,0,0,136,116.891Z"></path><path fill="#0635c9" d="M136,192.891a6,6,0,0,0,6-6V132.713a6,6,0,1,0-12,0v54.178A6,6,0,0,0,136,192.891Z"></path><path fill="#0635c9" d="M380,73H290V31a14,14,0,0,0-14-14H235.75A13.75,13.75,0,0,0,222,30.75V73H132a26,26,0,0,0-26,26v40a6,6,0,0,0,6,6h0a6,6,0,0,0,6-6V99a14,14,0,0,1,14-14h90v21h-3.063c-12.306,0-22.741,9.655-23.029,21.957A22.555,22.555,0,0,0,218.631,151h74.432c12.306,0,22.741-9.655,23.029-21.957A22.555,22.555,0,0,0,293.369,106H290V85h90a14,14,0,0,1,14,14V469a14,14,0,0,1-14,14H132a14,14,0,0,1-14-14V181a6,6,0,0,0-6-6h0a6,6,0,0,0-6,6V469a26,26,0,0,0,26,26H380a26,26,0,0,0,26-26V99A26,26,0,0,0,380,73ZM234,31a2,2,0,0,1,2-2h41a2,2,0,0,1,2,2v86a2,2,0,0,1-2,2H236a2,2,0,0,1-2-2Zm56.211,87h3.158a10.5,10.5,0,1,1,0,21H218.631a10.5,10.5,0,1,1,0-21h3.158a14.074,14.074,0,0,0,13.961,13h40.5A14.074,14.074,0,0,0,290.211,118Z"></path></svg>