<?xml version="1.0"?>
<svg xmlns="http://www.w3.org/2000/svg" id="Layer_1" data-name="Layer 1" viewBox="0 0 512 512" width="512" height="512"><path d="M81,459.71V222.42a30.427,30.427,0,0,1,24-29.57h-30a30.427,30.427,0,0,0-24,29.57V459.71A30.6,30.6,0,0,0,81.41,490h30A30.6,30.6,0,0,1,81,459.71Z" style="fill:#d4e1f4"/><path d="M346.7,16H165.333A6.546,6.546,0,0,0,159,22.291V193h12V28H341V192h12V22.291A6.514,6.514,0,0,0,346.7,16Z" style="fill:#1ae5be"/><path d="M323.475,83.838c-13.219-.618-21.843-12.409-22.122-29.746A6.081,6.081,0,0,0,295.45,48H216.585a6.165,6.165,0,0,0-6,6.091c-.285,17.619-8.62,29.039-22.037,29.653A5.937,5.937,0,0,0,183,89.832V192h12V95.093C210,91.865,220.115,79,222.207,60h67.608C292.068,81,304,92.091,317,95.055V192h12V89.832A5.836,5.836,0,0,0,323.475,83.838Z" style="fill:#1ae5be"/><path d="M256,137.95a37.4,37.4,0,0,0-31.276,57.89l10.031-6.586a25.392,25.392,0,1,1,42.6-.162l10.081,6.509A37.4,37.4,0,0,0,256,137.95Z" style="fill:#1ae5be"/><path d="M372,321.979V360.15a6,6,0,0,0,12,0V321.979a6,6,0,0,0-12,0Z" style="fill:#0635c9"/><path d="M408,366.15a6,6,0,0,0,6-6V321.979a6,6,0,0,0-12,0V360.15A6,6,0,0,0,408,366.15Z" style="fill:#0635c9"/><path d="M430.591,186H387V84.091a6.221,6.221,0,0,0-8.241-5.655L353,87.559v12.785l22-7.76V186H111.489L159,169.133V156.519L73.253,187.263A36.3,36.3,0,0,0,45,222.42V459.709A36.642,36.642,0,0,0,81.409,496H430.591A36.642,36.642,0,0,0,467,459.709V222.42A36.753,36.753,0,0,0,430.591,186ZM455,394H381.537A33.518,33.518,0,0,1,348,360.15V321.979A33.628,33.628,0,0,1,381.537,288H455Zm0-118H381.537A45.641,45.641,0,0,0,336,321.979V360.15A45.531,45.531,0,0,0,381.537,406H455v53.709A24.63,24.63,0,0,1,430.591,484H81.409A24.63,24.63,0,0,1,57,459.709V222.42A24.742,24.742,0,0,1,81.409,198H430.591A24.742,24.742,0,0,1,455,222.42Z" style="fill:#0635c9"/></svg>
