<svg height="451pt" viewBox="-3 0 451 451.99691" width="451pt" xmlns="http://www.w3.org/2000/svg"><g fill="#d4e1f4"><path d="m145.757812 39.511719c2.140626-2.144531 4.578126-3.96875 7.242188-5.414063-13.734375-7.449218-30.855469-3.683594-40.199219 8.835938-9.347656 12.519531-8.085937 30 2.960938 41.050781l5.285156 5.285156h30l-5.285156-5.285156c-12.261719-12.289063-12.265625-32.183594-.003907-44.472656zm0 0"/><path d="m76.5 101.269531h-30c-18.769531.019531-33.980469 15.230469-34 34v49.828125h30v-49.828125c.019531-18.769531 15.230469-33.980469 34-34zm0 0"/><path d="m70.746094 405.996094v-208.898438h-30v208.898438c.019531 18.769531 15.230468 33.980468 34 34h30c-18.769532-.019532-33.980469-15.230469-34-34zm0 0"/></g><path d="m398.699219 89.269531h-55l14.710937-15.101562c16.96875-16.96875 16.96875-44.476563 0-61.441407-16.964844-16.96875-44.472656-16.96875-61.441406 0l-73.277344 73.269532-54.976562-54.96875c-16.375-16.367188-42.707032-17.015625-59.871094-1.480469s-19.132812 41.800781-4.476562 59.722656h-57.867188c-25.394531.027344-45.972656 20.605469-46 46v55.828125c0 3.3125 2.683594 6 6 6h22.246094v208.898438c.03125 25.394531 20.605468 45.972656 46 46h295.699218c25.394532-.027344 45.972657-20.605469 46-46v-208.898438h22.253907c3.3125 0 6-2.6875 6-6v-55.828125c-.03125-25.394531-20.609375-45.972656-46-46zm-93.246094-68.0625c7.941406-8.007812 19.558594-11.148437 30.453125-8.238281 10.890625 2.914062 19.394531 11.433594 22.277344 22.335938 2.886718 10.898437-.285156 22.511718-8.3125 30.429687l-22.925782 23.535156h-89.554687zm-121.855469 163.890625v-83.828125h39.175782c.042968 0 .082031.011719.121093.011719.042969 0 .082031-.011719.125-.011719h37.578125v83.828125zm-67.839844-101.113281c-12.28125-12.28125-12.28125-32.191406 0-44.472656s32.191407-12.28125 44.472657 0l49.757812 49.757812h-88.945312zm-103.257812 51.285156c.019531-18.769531 15.230469-33.980469 34-34h125.097656v83.828125h-159.097656zm391.949219 270.726563c-.019531 18.769531-15.230469 33.980468-34 34h-295.699219c-18.769531-.019532-33.980469-15.230469-34-34v-208.898438h363.699219zm28.25-220.898438h-160.101563v-83.828125h126.101563c18.769531.019531 33.976562 15.230469 34 34zm0 0" fill="#0635c9"/><path d="m338.339844 354.644531c.003906-27.449219-16.65625-52.152343-42.101563-62.4375-25.449219-10.289062-54.59375-4.101562-73.667969 15.640625-19.078124-19.742187-48.222656-25.925781-73.671874-15.640625-25.449219 10.289063-42.109376 34.992188-42.109376 62.445313 0 27.449218 16.660157 52.152344 42.109376 62.441406 25.449218 10.285156 54.59375 4.101562 73.671874-15.640625 19.074219 19.742187 48.21875 25.925781 73.667969 15.636719 25.449219-10.285156 42.105469-34.992188 42.101563-62.441406zm-164.132813 55.351563c-30.570312 0-55.351562-24.78125-55.351562-55.351563 0-30.566406 24.78125-55.351562 55.351562-55.351562 30.570313 0 55.351563 24.785156 55.351563 55.351562-.035156 30.558594-24.796875 55.316407-55.351563 55.351563zm96.785157 0c-15.527344.039062-30.34375-6.484375-40.792969-17.964844 15.148437-22.621094 15.148437-52.148438 0-74.769531 17.125-18.691407 44.761719-23.351563 67.070312-11.320313 22.3125 12.035156 33.597657 37.6875 27.390625 62.265625-6.210937 24.574219-28.320312 41.792969-53.667968 41.789063zm0 0" fill="#1ae5be"/><path d="m222.570312 289.671875c1.585938.003906 3.105469-.625 4.226563-1.742187l31.023437-30.796876c5.183594-5.175781 8.097657-12.199218 8.097657-19.523437 0-7.320313-2.914063-14.34375-8.097657-19.519531-9.449218-9.359375-24.210937-10.703125-35.199218-3.203125-11.757813-8.113281-27.761719-5.929688-36.914063 5.035156-9.15625 10.964844-8.453125 27.101563 1.625 37.222656l31.007813 30.785157c1.125 1.117187 2.644531 1.746093 4.230468 1.742187zm-31.289062-52.058594c-.019531-4.160156 1.625-8.152343 4.570312-11.085937 2.945313-2.933594 6.945313-4.566406 11.101563-4.53125 4.058594-.050782 7.964844 1.5625 10.808594 4.464844.039062.039062.078125.082031.117187.121093l.453125.453125c2.339844 2.335938 6.132813 2.335938 8.476563 0l.457031-.457031c6.121094-6.03125 15.949219-6.03125 22.070313 0 2.929687 2.921875 4.578124 6.886719 4.582031 11.023437 0 4.136719-1.640625 8.105469-4.566407 11.03125l-26.78125 26.585938-26.765624-26.570312c-2.921876-2.929688-4.550782-6.902344-4.523438-11.035157zm0 0" fill="#1ae5be"/></svg>