<svg id="Layer_1" height="512" viewBox="0 0 512 512" width="512" xmlns="http://www.w3.org/2000/svg" data-name="Layer 1"><path d="m161 368.17a43.5 43.5 0 0 1 8.223-25.517l-9.143-9.143a43.749 43.749 0 0 1 -4.17-4.82 43.73 43.73 0 0 0 -24.91 39.48v94.93h30z" fill="#d4e1f4"/><path d="m356.646 322.373-4.675 11.052a37.654 37.654 0 0 1 23.029 34.742v88.933h-36.539a62.536 62.536 0 0 0 -2.248-43.385 6 6 0 1 0 -11.013 4.764 50.453 50.453 0 0 1 .518 38.621h-139.436a50.453 50.453 0 0 1 .518-38.621 6 6 0 1 0 -11.013-4.764 62.536 62.536 0 0 0 -2.248 43.385h-36.539v-88.933a37.912 37.912 0 0 1 21.5-34.056l-5.163-10.832a49.97 49.97 0 0 0 -28.337 44.888v94.933a6 6 0 0 0 6 6h250a6 6 0 0 0 6-6v-94.933a49.632 49.632 0 0 0 -30.354-45.794z" fill="#0635c9"/><g fill="#1ae5be"><path d="m312.137 318.414a88.716 88.716 0 0 1 -24.092 14.068 6 6 0 1 0 4.345 11.186 100.687 100.687 0 0 0 27.345-15.968 6 6 0 1 0 -7.6-9.287z"/><path d="m336.792 205.3v-35.982a80.792 80.792 0 1 0 -161.584 0v35.982a80.792 80.792 0 1 0 161.584 0zm-41.707-92.544a195.852 195.852 0 0 0 -78.164 0 68.583 68.583 0 0 1 78.164 0zm-39.085 161.333a68.869 68.869 0 0 1 -68.792-68.789v-35.982a68.39 68.39 0 0 1 12.654-39.685 183.1 183.1 0 0 1 112.281.006 68.393 68.393 0 0 1 12.649 39.679v35.982a68.869 68.869 0 0 1 -68.792 68.789z"/><path d="m290.406 154.857a18.923 18.923 0 0 0 -18.9 18.9 6 6 0 1 0 12 0 6.9 6.9 0 1 1 13.8 0 6 6 0 1 0 12 0 18.923 18.923 0 0 0 -18.9-18.9z"/><path d="m234.5 179.759a6 6 0 0 0 6-6 18.9 18.9 0 0 0 -37.8 0 6 6 0 1 0 12 0 6.9 6.9 0 0 1 13.8 0 6 6 0 0 0 6 6z"/><path d="m273.267 217.85a24.447 24.447 0 0 1 -34.534 0 6 6 0 0 0 -8.485 8.485 36.46 36.46 0 0 0 51.5 0 6 6 0 0 0 -8.485-8.485z"/><path d="m155.838 337.754 65.017 65.017a49.758 49.758 0 0 0 70.291 0l65.016-65.017a49.762 49.762 0 0 0 .1-70.193l-.879-.96a101.4 101.4 0 0 0 1.411-16.93v-105.979a100.792 100.792 0 1 0 -201.584 0v105.979a100.966 100.966 0 0 0 1.427 16.913l-.895.977a49.762 49.762 0 0 0 .096 70.193zm100.162 12.709a6 6 0 0 0 0-12 88.893 88.893 0 0 1 -88.792-88.792v-105.979a88.792 88.792 0 1 1 177.584 0v105.979a87.749 87.749 0 0 1 -8.852 38.629 89.131 89.131 0 0 1 -9.956 15.953 6 6 0 1 0 9.455 7.391 100.836 100.836 0 0 0 16.4-30.735 37.759 37.759 0 0 1 -4.165 48.358l-65.014 65.019a37.746 37.746 0 0 1 -53.32 0l-65.017-65.017a37.756 37.756 0 0 1 -4.156-48.369 100.967 100.967 0 0 0 95.833 69.563z"/><path d="m204.673 93.245a5.977 5.977 0 0 0 3.827-1.385 78.542 78.542 0 0 1 50.088-18.091 6 6 0 0 0 0-12 90.558 90.558 0 0 0 -57.752 20.861 6 6 0 0 0 3.837 10.615z"/></g></svg>