<svg xmlns="http://www.w3.org/2000/svg" width="613.562" height="472.781" viewBox="0 0 613.562 472.781"><g transform="translate(-8.698 -15.04)"><path d="M309.98,24.04H275.747l-19.015,6.9-5.592,69,24.607-20.7h22.929s-2.826-15.87,0-29.671S309.98,24.04,309.98,24.04Z" transform="translate(8.247 0.315)" fill="#d4e1f4"/><path d="M256.2,8.616l-14.949,20.49-122,94V381.9H84.733L79.558,141.367H27.807L233.791-10.293Z" transform="translate(-3.027 99.934)" fill="#d4e1f4"/><path d="M-16183.256,1002.486h-118.383a7,7,0,0,1-7-6.876l-4.1-231.361H-16364a7,7,0,0,1-6.65-4.816,7,7,0,0,1,2.5-7.821l217.738-160.249a7,7,0,0,1,8.33.023l20.084,14.957a7,7,0,0,1,1.434,9.8,7,7,0,0,1-9.795,1.433l-15.928-11.861-196.394,144.539h36.814a7,7,0,0,1,7,6.876l4.1,231.361h111.506a7,7,0,0,1,7,7A7,7,0,0,1-16183.256,1002.486Z" transform="translate(16379.698 -514.683)" fill="#0635c9"/><g transform="translate(252.155 15.04)"><path d="M129.222,170.457c33.318-.247,79.241,1.111,112.565,1.049,2.422-.2,4.653,3.076,4.531,6.738,0,3.59-2.2,6.707-4.578,6.481-32.949.021-78.49-1.142-111.446-1.142-2.149.257-4.258-2.14-4.633-5.339C125.121,174.726,126.868,170.961,129.222,170.457Z" transform="translate(59.491 -42.901)" fill="#0635c9"/><path d="M143.222,171.573c37.194-.247,74.411-.041,111.613-.1,2.7-.2,5.195,3.076,5.058,6.738,0,3.59-2.453,6.707-5.111,6.481q-55.174.031-110.363.01c-2.4.257-4.753-2.14-5.172-5.339C138.644,175.843,140.594,172.078,143.222,171.573Z" transform="translate(45.917 81.763)" fill="#0635c9"/><path d="M454.96,502.229H343.794l-.313-13.682H454.776a40.1,40.1,0,0,0,16.267-4.76c10-5.605,15.07-15.339,15.07-28.929V79.177a52.387,52.387,0,0,0-4.323-18.935c-5.216-11.429-14.016-16.984-26.9-16.984H184.641l-.328-.032c-.171-.015-19.192-1.6-31.047,9.224-6.565,6-9.894,14.989-9.894,26.727v39.348H129.689V79.177c0-15.793,4.858-28.211,14.438-36.911,15.5-14.072,37.846-12.942,41.126-12.691H454.886c23.331,0,34.388,13.834,39.556,25.439A65.8,65.8,0,0,1,499.8,79.175V454.857c0,23.874-12.3,35.564-22.61,41.166a53.524,53.524,0,0,1-22.151,6.2Z" transform="translate(-129.689 -29.447)" fill="#0635c9"/><path d="M142.594,101.724c1.7-1.029,3.745-.833,5.648-.864,16.48.051,32.97-.072,49.45.062a6.643,6.643,0,0,1,5.946,8.374,6.712,6.712,0,0,1-6.985,4.8c-17.406-.093-34.832.175-52.228-.123C138.561,113.112,137.255,104.245,142.594,101.724Z" transform="translate(3.587 -44.892)" fill="#0635c9"/><path d="M122.168,409.018c5.494-4.46,13.2-5.641,19.98-4.035,4.672,1.071,9.159,4.395,10.3,9.242,1.542,6.38-1.8,12.742-5.881,17.441-4.09,4.847-10.073,7.645-16.213,8.845,5.752,6.315,16.786,5.087,22.15-1.117,2.853-3.2,5.041-7.506,9.409-8.864a10.01,10.01,0,0,1,10.073,2.678c6.657,5.808,16.915,6.3,24.6,2.253,1.939-1.006,4.256-2,6.38-.84,3.582,1.477,4.312,6.916,1.173,9.242-11.745,7.756-28.54,6.99-39.342-2.133-3.1,4.192-6.528,8.393-11.274,10.793-7.562,3.813-16.989,4.5-24.662.619-5.383-2.77-9.113-7.867-11.486-13.314-1.939-.563-3.878-1.117-5.78-1.782-2.087-.757-4.22-2.161-4.6-4.533-.776-3.121,1.634-6.057,4.6-6.74,1.108.148,2.216.3,3.324.462.037-6.648,1.976-13.794,7.248-18.217m6.851,8.725c-3.028,3.13-3.121,7.876-2.881,11.966,7.377.028,14.782-5.355,15.779-12.889A11.814,11.814,0,0,0,129.019,417.743Z" transform="translate(122.832 -96.854)" fill="#0635c9"/><path d="M129.222,170.457c33.318-.247,79.241,1.111,112.565,1.049,2.422-.2,4.653,3.076,4.531,6.738,0,3.59-2.2,6.707-4.578,6.481-32.949.021-78.49-1.142-111.446-1.142-2.149.257-4.258-2.14-4.633-5.339C125.121,174.726,126.868,170.961,129.222,170.457Z" transform="translate(59.491 19.201)" fill="#0635c9"/></g><path d="M491.685,379.2l-5.044,10.791c15.014,5.747,24.866,19.236,24.866,34.015v87.267H472.1a55.917,55.917,0,0,0-2.463-42.578,6.626,6.626,0,0,0-8.445-3.167,5.842,5.842,0,0,0-3.519,7.741v.117a45.47,45.47,0,0,1,.586,37.886H308.119a45.035,45.035,0,0,1,.586-37.886,5.679,5.679,0,0,0-3.284-7.741,6.835,6.835,0,0,0-8.562,2.932v.117a56.429,56.429,0,0,0-2.463,42.578H254.985V424.006c0-14.31,9.032-27.212,23.224-33.429L272.7,379.9c-18.65,8.093-30.5,25.218-30.5,43.985v93.132c0,3.284,2.932,5.865,6.451,5.865H518.076c3.519,0,6.451-2.58,6.451-5.865V423.889c-.117-19.354-13.02-37.065-32.842-44.689Z" transform="translate(-51.378 -35.187)" fill="#0635c9"/><g transform="translate(210.379 69.896)"><path d="M420.223,376.09A100.1,100.1,0,0,1,394.3,389.931a5.741,5.741,0,0,0-3.636,7.624,6.657,6.657,0,0,0,8.328,3.4,107.622,107.622,0,0,0,29.441-15.717,5.572,5.572,0,0,0,.938-8.328,7.1,7.1,0,0,0-9.149-.821Z" transform="translate(-236.159 -105.844)" fill="#1ae5be"/><path d="M464.182,298.2V262.891c0-43.751-38.942-79.291-87.032-79.291S290,219.257,290,263.008v35.306c0,43.751,38.942,79.291,87.032,79.291S464.182,342.065,464.182,298.2Zm-44.924-90.668a230.981,230.981,0,0,0-84.217,0C360.259,191.459,393.923,191.459,419.258,207.528ZM377.15,365.758c-40.936,0-74.13-30.262-74.13-67.444V263.008a63.661,63.661,0,0,1,13.606-38.942,216.762,216.762,0,0,1,121.048,0,62.941,62.941,0,0,1,13.606,38.942v35.306C451.162,335.5,417.968,365.641,377.15,365.758Z" transform="translate(-253.492 -138.911)" fill="#1ae5be"/><path d="M274.5,434.748l70.025,63.808c20.878,19,54.776,19,75.772,0l70.025-63.808c20.878-19,20.878-49.733.117-68.852l-.938-.938A88.008,88.008,0,0,0,491.03,348.3V244.379c0-54.542-48.677-98.879-108.615-98.879S273.8,189.72,273.8,244.379h0V348.3a86.785,86.785,0,0,0,1.525,16.538l-.938.938C253.626,385.015,253.743,415.746,274.5,434.748Zm108.028,12.433c3.519,0,6.451-2.58,6.451-5.865s-2.932-5.865-6.451-5.865c-52.782,0-95.595-39.059-95.712-87.032V244.5c0-48.091,42.812-87.15,95.595-87.15,52.9,0,95.712,38.942,95.712,87.032v104.04a81.351,81.351,0,0,1-9.5,37.886,87.475,87.475,0,0,1-10.674,15.6,5.451,5.451,0,0,0,1.056,8.211,6.825,6.825,0,0,0,9.032-1.056,98.1,98.1,0,0,0,17.711-30.145c11.378,14.662,9.5,34.719-4.457,47.387L411.27,490.11c-15.835,14.427-41.639,14.427-57.474,0L283.653,426.42c-13.958-12.785-15.835-32.725-4.457-47.387,14.662,40.584,56.3,68.148,103.336,68.148Z" transform="translate(-258.875 -145.5)" fill="#1ae5be"/></g></g></svg>