<svg xmlns="http://www.w3.org/2000/svg" data-name="Layer 1" viewBox="0 0 512 512"><path fill="#d4e1f4" d="m22 80.948h10v232.4h-10z"></path><path fill="#d4e1f4" d="m32 325.349h-10v79.084l1.764 3.094h10l-1.764-3.094z"></path><path fill="#d4e1f4" d="m22 49.805h10v19.144h-10z"></path><path fill="#d4e1f4" d="m40.604 419.527h-10l10.909 19.139 5-8.772z"></path><path fill="#d4e1f4" d="m290.308 441.723v-207.482a12.015 12.015 0 0 1 12-12h-13a12.015 12.015 0 0 0 -12 12v207.482a12.015 12.015 0 0 0 12 12h11.805v-.061a12.017 12.017 0 0 1 -10.805-11.939z"></path><path fill="#d4e1f4" d="m326.115 470.368v-207.481a12.015 12.015 0 0 1 12-12h-13a12.015 12.015 0 0 0 -12 12v207.481a12.015 12.015 0 0 0 12 12h13a12.015 12.015 0 0 1 -12-12z"></path><path fill="#1ae5be" d="m255.721 185.863h-83.921a6 6 0 0 0 0 12h83.917a6 6 0 0 0 0-12z"></path><path fill="#1ae5be" d="m255.721 229.943h-83.921a6 6 0 0 0 0 12h83.917a6 6 0 0 0 0-12z"></path><path fill="#1ae5be" d="m255.721 274.022h-83.921a6 6 0 0 0 0 12h83.917a6 6 0 0 0 0-12z"></path><path fill="#1ae5be" d="m255.721 318.1h-83.921a6 6 0 0 0 0 12h83.917a6 6 0 1 0 0-12z"></path><path fill="#1ae5be" d="m255.721 362.183h-83.921a6 6 0 1 0 0 12h83.917a6 6 0 0 0 0-12z"></path><path fill="#1ae5be" d="m402.358 129.726h-103.24v-31.484a6 6 0 0 0 -6-6h-16.359v-37.552a6 6 0 0 0 -6-6h-51.169v-25.06a6 6 0 1 0 -12 0v25.06h-50.824a6 6 0 0 0 -6 6v37.552h-16.358a6 6 0 0 0 -6 6v312.758a6 6 0 0 0 6 6h136.351a6 6 0 0 0 0-12h-130.351v-300.758h146.71v112h12v-74.516h97.24v74.513h12v-80.513a6 6 0 0 0 -6-6zm-137.6-37.484h-101.992v-31.552h101.993z"></path><path fill="#1ae5be" d="m319.705 173.427a6 6 0 0 0 0 12h54.106a6 6 0 0 0 0-12z"></path><path fill="#1ae5be" d="m255.721 141.783h-83.921a6 6 0 0 0 0 12h83.917a6 6 0 0 0 0-12z"></path><g fill="#0635c9"><path d="m367.324 455.038h-32.224a6 6 0 1 0 0 12h32.226a6 6 0 1 0 0-12z"></path><path d="m398.388 394.258v-1.521a16.731 16.731 0 0 0 -6-32.354 4.743 4.743 0 1 1 4.742-4.742 6 6 0 0 0 12 0 16.756 16.756 0 0 0 -10.742-15.612v-1.029a6 6 0 0 0 -12 0v1.032a16.731 16.731 0 0 0 6 32.354 4.74 4.74 0 0 1 .052 9.479c-.017 0-.034 0-.052 0s-.034 0-.051 0a4.744 4.744 0 0 1 -4.691-4.737 6 6 0 0 0 -12 0 16.758 16.758 0 0 0 10.742 15.612v1.521a6 6 0 0 0 12 0z"></path><path d="m345.891 381.862c-.017 0-.034 0-.051 0s-.034 0-.052 0a4.744 4.744 0 0 1 -4.69-4.737 6 6 0 0 0 -12 0 16.756 16.756 0 0 0 10.742 15.612v1.521a6 6 0 0 0 12 0v-1.521a16.731 16.731 0 0 0 -6-32.354 4.743 4.743 0 1 1 4.742-4.742 6 6 0 0 0 12 0 16.758 16.758 0 0 0 -10.742-15.612v-1.029a6 6 0 0 0 -12 0v1.032a16.731 16.731 0 0 0 6 32.354 4.74 4.74 0 0 1 .051 9.479z"></path><path d="m438.989 381.862c-.018 0-.035 0-.052 0s-.034 0-.052 0a4.744 4.744 0 0 1 -4.69-4.737 6 6 0 0 0 -12 0 16.758 16.758 0 0 0 10.742 15.612v1.521a6 6 0 0 0 12 0v-1.521a16.731 16.731 0 0 0 -6-32.354 4.743 4.743 0 1 1 4.742-4.742 6 6 0 0 0 12 0 16.758 16.758 0 0 0 -10.742-15.612v-1.029a6 6 0 1 0 -12 0v1.032a16.731 16.731 0 0 0 6 32.354 4.74 4.74 0 0 1 .052 9.479z"></path><path d="m367.324 412.07h-32.224a6 6 0 0 0 0 12h32.226a6 6 0 0 0 0-12z"></path><path d="m367.324 433.555h-32.224a6 6 0 0 0 0 12h32.226a6 6 0 0 0 0-12z"></path><path d="m335.1 304.472h75.194a6 6 0 0 0 0-12h-75.194a6 6 0 1 0 0 12z"></path><path d="m335.1 325.955h75.194a6 6 0 0 0 0-12h-75.194a6 6 0 0 0 0 12z"></path><path d="m414.969 441.6a6 6 0 0 0 -8.486 0l-3.353 3.354-3.353-3.354a6 6 0 0 0 -8.485 8.485l3.354 3.353-3.354 3.354a6 6 0 1 0 8.485 8.484l3.353-3.353 3.353 3.353a6 6 0 1 0 8.486-8.484l-3.354-3.354 3.354-3.353a6 6 0 0 0 0-8.485z"></path><path d="m443.614 441.6a6 6 0 0 0 -8.485 0l-3.353 3.353-3.353-3.353a6 6 0 0 0 -8.486 8.485l3.354 3.353-3.354 3.354a6 6 0 0 0 8.486 8.485l3.353-3.353 3.353 3.353a6 6 0 0 0 8.485-8.485l-3.353-3.354 3.353-3.353a6 6 0 0 0 0-8.485z"></path><path d="m472.26 441.6a6 6 0 0 0 -8.486 0l-3.353 3.353-3.353-3.353a6 6 0 0 0 -8.485 8.485l3.353 3.353-3.353 3.354a6 6 0 0 0 8.485 8.485l3.353-3.353 3.353 3.353a6 6 0 0 0 8.486-8.485l-3.354-3.354 3.354-3.353a6 6 0 0 0 0-8.485z"></path><path d="m87.3 87.512h-14.273v-43.707a6 6 0 0 0 -6-6h-51.027a6 6 0 0 0 -6 6v362.217a6 6 0 0 0 .787 2.972l25.513 44.76a6 6 0 0 0 10.425 0l25.513-44.76a6 6 0 0 0 .788-2.972v-306.51h8.274v161.588a6 6 0 0 0 12 0v-167.588a6 6 0 0 0 -6-6zm-26.273 225.837h-39.027v-232.401h39.027zm-39.027 91.084v-79.084h39.027v79.084l-1.764 3.094h-35.5zm39.027-354.628v19.143h-39.027v-19.143zm-19.514 388.861-10.913-19.139h21.822z"></path><path d="m41.513 459.938a6 6 0 0 0 -6 6v7.625a6 6 0 0 0 12 0v-7.625a6 6 0 0 0 -6-6z"></path><path d="m500.243 297.456-56.814-56.813a6 6 0 0 0 -4.242-1.758h-4.677l-26.887-26.885a6 6 0 0 0 -4.243-1.758h-114.07a24.03 24.03 0 0 0 -24 24v207.481a24.03 24.03 0 0 0 24 24h11.805v4.643a24.029 24.029 0 0 0 24 24h152.885a24.029 24.029 0 0 0 24-24v-168.666a6 6 0 0 0 -1.757-4.244zm-55.056-38.086 36.328 36.33h-26.1a10.244 10.244 0 0 1 -10.232-10.232zm-35.807-28.645 8.161 8.16h-8.161zm-120.07 223a12.015 12.015 0 0 1 -12-12v-207.484a12.015 12.015 0 0 1 12-12h108.07v16.646h-72.264a24.029 24.029 0 0 0 -24 24v190.838zm188.69 28.645h-152.884a12.015 12.015 0 0 1 -12-12v-207.483a12.015 12.015 0 0 1 12-12h108.071v34.581a22.257 22.257 0 0 0 22.232 22.232h34.581v162.67a12.015 12.015 0 0 1 -12 12z"></path></g></svg>