<svg id="Group_2553" data-name="Group 2553" xmlns="http://www.w3.org/2000/svg" xmlns:xlink="http://www.w3.org/1999/xlink" width="141.587" height="155.196" viewBox="0 0 141.587 155.196">
  <defs>
    <linearGradient id="linear-gradient" x1="0.5" x2="0.5" y2="1" gradientUnits="objectBoundingBox">
      <stop offset="0" stop-color="#48c7ca"/>
      <stop offset="0.52" stop-color="#47c6cb"/>
      <stop offset="1" stop-color="#24b5dd"/>
    </linearGradient>
    <linearGradient id="linear-gradient-2" x1="0.5" x2="0.5" y2="1" gradientUnits="objectBoundingBox">
      <stop offset="0" stop-color="#48c7ca"/>
      <stop offset="1" stop-color="#24b5dd"/>
    </linearGradient>
  </defs>
  <path id="Path_267" data-name="Path 267" d="M3087.554,77.342h-.016V58.419a32.559,32.559,0,0,0-.371-5.886,16.847,16.847,0,0,0-6.76-10.754c-7.81-5.842-15.513-11.821-23.435-17.513-9.271-6.653-18.27-13.667-27.54-20.319a16.454,16.454,0,0,0-3.106-1.847c-8.09-3.462-15.709-2.7-22.736,2.7-5.673,4.363-11.362,8.707-17.125,12.952-11.135,8.194-22.147,16.551-33.157,24.91a17.151,17.151,0,0,0-6.921,11.1,30.636,30.636,0,0,0-.4,5.076q.013,17.784.008,35.567c0,1.565-.035,3.133.029,4.7a17.076,17.076,0,0,0,6.017,12.847c1.089.932,2.2,1.826,3.36,2.675,5.949,4.366,11.955,8.664,17.825,13.132,10.365,7.883,20.847,15.6,31.364,23.271,7.695,5.607,17.345,5.54,25.189-.124,4.744-3.427,9.372-7.04,13.955-10.69,9.49-7.551,19.157-14.868,28.811-22.2,2.887-2.192,5.856-4.28,8.6-6.656a17.426,17.426,0,0,0,6.43-13.743C3087.531,90.852,3087.554,84.1,3087.554,77.342ZM3071.3,100.016c-4.252,3.64-8.809,6.89-13.309,10.209-11.528,8.5-22.677,17.478-34.135,26.06a24.548,24.548,0,0,1-2.639,1.842,8.138,8.138,0,0,1-8.314.116,22.569,22.569,0,0,1-2.895-1.938q-21.427-16.179-43.068-32.047c-1.907-1.405-3.839-2.779-5.617-4.358-4.82-4.284-8.236-9.447-9.431-15.84-2.164-11.593,1.047-21.436,10.119-29.117,3.479-2.943,7.207-5.595,10.858-8.328q18.423-13.8,36.873-27.556c.749-.562,1.518-1.108,2.319-1.6a8.943,8.943,0,0,1,10.661.423q6.315,4.556,12.543,9.22c10.855,8.118,21.533,16.469,32.578,24.328a36.318,36.318,0,0,1,8.615,8.194,30.18,30.18,0,0,1,5.762,18.215c-.2,8.588-3.92,16.176-10.927,22.175Z" transform="translate(-2945.984 0.002)" fill="url(#linear-gradient)"/>
  <path id="Path_268" data-name="Path 268" d="M3206.575,305.933a2.273,2.273,0,0,0,1.129-.94,33.7,33.7,0,0,0,8.011-18.28,33.277,33.277,0,0,0-8.712-27.22,31.628,31.628,0,0,0-20.267-10.255,33.713,33.713,0,0,0-37.229,25.821c-2.633,11.255,0,21.346,7.511,30.146.292.339.6.657.892.965.49-.184.322-.556.327-.824.032-2.326.032-4.653.059-6.985.007-.893.027-1.789.076-2.686.188-3.31,1.736-5.161,4.987-5.927a8.491,8.491,0,0,1,6.342.919,4.062,4.062,0,0,1,2.213,3.589c.031.759.059,1.521.057,2.284q-.072,14.43-.156,28.858c0,.269-.021.538,0,.806.048.663-.287.736-.832.6a41.4,41.4,0,0,1-7.1-2.418c-14.116-6.582-22.91-17.421-25.842-32.755-2.111-11.022-.653-21.634,5.127-31.335,7.266-12.2,18.032-19.784,32.046-22.186,20.5-3.515,39.987,7.191,48.518,26.248a42.919,42.919,0,0,1,3.518,23.318c-1.862,14.616-8.992,26.024-21.474,33.935a38.305,38.305,0,0,1-12.319,5.142,4.977,4.977,0,0,1-.522.06,2.774,2.774,0,0,1-.146-1.478q.1-14.294.216-28.589c0-.582.044-1.163.1-1.746a5.764,5.764,0,0,1,5.426-5.667,10.381,10.381,0,0,1,4,.211,5.3,5.3,0,0,1,4.064,5.04c-.062,3.13-.018,6.262-.018,9.395Z" transform="translate(-3111.449 -205.546)" fill="url(#linear-gradient-2)"/>
  <path id="Path_269" data-name="Path 269" d="M3432.982,591.309v19.056c0,.357-.025.716,0,1.075.035.514-.218.709-.7.757-1.245.128-2.482.341-3.733.4a53.687,53.687,0,0,1-9.25-.257c-1.272-.152-1.279-.146-1.272-1.46q.082-19.258.172-38.514a5.6,5.6,0,0,1,1.747-4.074,8.706,8.706,0,0,1,12.3.537,3.228,3.228,0,0,1,.825,2.079q.071,1.075.074,2.149.006,9.125,0,18.251Z" transform="translate(-3354.615 -489.976)" fill="url(#linear-gradient-2)"/>
  <path id="Path_270" data-name="Path 270" d="M3419.593,423.15a8.559,8.559,0,0,1,8.648,8.437,8.632,8.632,0,1,1-17.262.144A8.509,8.509,0,0,1,3419.593,423.15Z" transform="translate(-3348.517 -366.308)" fill="url(#linear-gradient-2)"/>
  <path id="Path_271" data-name="Path 271" d="M3299.862,498.809a7.366,7.366,0,0,1,7.462,7.367,7.632,7.632,0,0,1-7.447,7.758,7.788,7.788,0,0,1-7.533-7.858A7.648,7.648,0,0,1,3299.862,498.809Z" transform="translate(-3245.818 -431.804)" fill="url(#linear-gradient-2)"/>
  <path id="Path_272" data-name="Path 272" d="M3562.409,503.492a7.432,7.432,0,0,1-6.893,7.648,7.525,7.525,0,1,1-.651-15.033A7.278,7.278,0,0,1,3562.409,503.492Z" transform="translate(-3466.734 -429.464)" fill="url(#linear-gradient-2)"/>
</svg>
