<svg xmlns="http://www.w3.org/2000/svg" width="368.852" height="285.367" viewBox="0 0 368.852 285.367">
    <defs>
        <linearGradient id="yrhad76xka" x1=".5" x2=".5" y2="1" gradientUnits="objectBoundingBox">
            <stop offset="0" stop-color="#48c7ca"/>
            <stop offset=".52" stop-color="#47c6cb"/>
            <stop offset="1" stop-color="#24b5dd"/>
        </linearGradient>
        <linearGradient id="y3o3o20bdb" x1=".5" x2=".5" y2="1" gradientUnits="objectBoundingBox">
            <stop offset="0" stop-color="#48c7ca"/>
            <stop offset="1" stop-color="#24b5dd"/>
        </linearGradient>
        <linearGradient id="dmny3jlgac" x1=".5" x2=".5" y2="1" gradientUnits="objectBoundingBox">
            <stop offset="0" stop-color="#48c7cb"/>
            <stop offset=".52" stop-color="#47c6cb"/>
            <stop offset="1" stop-color="#25b5dc"/>
        </linearGradient>
    </defs>
    <g data-name="Group 666">
        <path data-name="Path 267" d="M3089.207 78.244h-.017V59.1a33.05 33.05 0 0 0-.375-5.955 17.044 17.044 0 0 0-6.838-10.88c-7.9-5.91-15.695-11.959-23.709-17.717-9.379-6.731-18.483-13.826-27.862-20.556a16.655 16.655 0 0 0-3.141-1.869c-8.186-3.5-15.894-2.734-23 2.73-5.74 4.414-11.5 8.809-17.325 13.1-11.268 8.29-22.406 16.744-33.546 25.2a17.35 17.35 0 0 0-7 11.229 30.928 30.928 0 0 0-.406 5.136q.013 17.991.007 35.982c0 1.583-.034 3.169.031 4.756a17.276 17.276 0 0 0 6.085 13c1.1.943 2.229 1.847 3.4 2.706 6.016 4.417 12.094 8.765 18.032 13.285 10.484 7.975 21.09 15.786 31.731 23.543 7.784 5.672 17.544 5.6 25.481-.125 4.8-3.467 9.48-7.122 14.116-10.815 9.6-7.639 19.384-15.041 29.147-22.463 2.921-2.218 5.925-4.33 8.7-6.734a17.637 17.637 0 0 0 6.5-13.9c-.036-6.84-.011-13.674-.011-20.509zm-16.444 22.939c-4.3 3.683-8.912 6.97-13.467 10.328-11.662 8.594-22.939 17.682-34.53 26.364a25.057 25.057 0 0 1-2.671 1.863 8.232 8.232 0 0 1-8.41.117 22.806 22.806 0 0 1-2.93-1.961q-21.677-16.368-43.571-32.421c-1.929-1.421-3.885-2.812-5.682-4.409-4.876-4.334-8.331-9.558-9.541-16.025-2.19-11.728 1.058-21.687 10.237-29.457 3.518-2.978 7.293-5.66 10.986-8.426q18.638-13.959 37.3-27.878a29.877 29.877 0 0 1 2.349-1.616 9.047 9.047 0 0 1 10.785.428q6.384 4.61 12.688 9.328c10.983 8.212 21.786 16.661 32.958 24.612a36.64 36.64 0 0 1 8.715 8.29 30.529 30.529 0 0 1 5.831 18.428c-.2 8.688-3.965 16.365-11.055 22.434z" transform="translate(-2834.875 .002)" style="fill:url(#yrhad76xka)"/>
        <path data-name="Path 268" d="M3207.384 306.732a2.3 2.3 0 0 0 1.144-.951 34.089 34.089 0 0 0 8.1-18.493 33.665 33.665 0 0 0-8.812-27.538 32 32 0 0 0-20.5-10.375 34.107 34.107 0 0 0-37.666 26.125c-2.663 11.387-.006 21.6 7.6 30.5.294.343.611.665.9.976.5-.187.325-.563.331-.833.032-2.353.032-4.707.059-7.067.008-.9.028-1.81.076-2.718.191-3.349 1.756-5.221 5.044-6a8.592 8.592 0 0 1 6.418.929 4.114 4.114 0 0 1 2.24 3.631c.031.768.06 1.538.057 2.31q-.074 14.6-.158 29.2c0 .272-.021.544 0 .816.049.671-.29.745-.843.6a41.845 41.845 0 0 1-7.18-2.446c-14.282-6.659-23.179-17.625-26.145-33.137-2.136-11.15-.659-21.886 5.188-31.7 7.35-12.341 18.245-20.015 32.419-22.445 20.744-3.556 40.454 7.275 49.083 26.554a43.436 43.436 0 0 1 3.561 23.591c-1.883 14.787-9.1 26.327-21.723 34.331a38.805 38.805 0 0 1-12.463 5.2 4.984 4.984 0 0 1-.529.061 2.808 2.808 0 0 1-.146-1.495q.1-14.461.218-28.923c0-.588.044-1.177.1-1.767a5.831 5.831 0 0 1 5.489-5.734 10.5 10.5 0 0 1 4.047.213 5.364 5.364 0 0 1 4.113 5.1c-.065 3.166-.021 6.336-.021 9.5z" transform="translate(-3000.039 -205.174)" style="fill:url(#y3o3o20bdb)"/>
        <path data-name="Path 269" d="M3433.157 591.6v19.278c0 .362-.025.724 0 1.088.033.52-.22.718-.71.766-1.257.13-2.511.345-3.777.408a54.312 54.312 0 0 1-9.357-.259c-1.288-.154-1.3-.148-1.288-1.477q.084-19.483.173-38.964a5.674 5.674 0 0 1 1.768-4.121 8.807 8.807 0 0 1 12.439.543 3.263 3.263 0 0 1 .836 2.1q.069 1.087.074 2.174.006 9.231 0 18.464z" transform="translate(-3242.767 -489.089)" style="fill:url(#y3o3o20bdb)"/>
        <path data-name="Path 270" d="M3419.695 423.15a8.658 8.658 0 0 1 8.748 8.536 8.733 8.733 0 1 1-17.465.146 8.61 8.61 0 0 1 8.717-8.682z" transform="translate(-3236.679 -365.644)" style="fill:url(#y3o3o20bdb)"/>
        <path data-name="Path 271" d="M3299.95 498.809a7.451 7.451 0 0 1 7.548 7.453 7.721 7.721 0 0 1-7.534 7.848 7.88 7.88 0 0 1-7.621-7.95 7.737 7.737 0 0 1 7.607-7.351z" transform="translate(-3134.165 -431.022)" style="fill:url(#y3o3o20bdb)"/>
        <path data-name="Path 272" d="M3562.584 503.578a7.523 7.523 0 0 1-6.976 7.737 7.612 7.612 0 1 1-.657-15.209 7.364 7.364 0 0 1 7.633 7.472z" transform="translate(-3354.681 -428.686)" style="fill:url(#y3o3o20bdb)"/>
    </g>
    <g data-name="Group 2130">
        <path data-name="Union 50" d="M167.675 106.277c-.52-.442-1.324-1.109-2.418-2s-1.638-1.445-1.638-1.662q0-.723 2.282-5t2.769-4.272c.634-.265 1.549.192 2.753 1.357a22.445 22.445 0 0 1 2.747 3.084q1.108-1.832 2.475-4.112c.907-1.518 1.51-2.281 1.807-2.281.923 0 2.023.682 3.309 2.032a6.361 6.361 0 0 1 2.023 3.807 9.077 9.077 0 0 1-2.056 5c-1.332 1.9-2.311 2.836-2.938 2.836-.41 0-1.149-.538-2.225-1.606a24.782 24.782 0 0 0-2.836-2.506q-3 6.06-4.778 6.056a2.368 2.368 0 0 1-1.276-.733zM94.591 92.471a142.441 142.441 0 0 1-2.924-1.968 1.5 1.5 0 0 1-.827-1.164q0-1.228 2.08-5.309t2.7-4.088c.809-.329 2 .289 3.549 1.864s2.394 2.8 2.506 3.694q0 1.782-1.942 5.116c-1.3 2.216-2.251 3.333-2.838 3.333-.225-.113-.987-.603-2.304-1.478zm145.534-7.492q-3.83-4.037-4.055-11.2-.059-11.337 7.445-24.616c.962-1.774 1.534-2.345 1.718-1.694a3.269 3.269 0 0 1-.057 1.976q-4.937 9.77-5.051 16.889a10.214 10.214 0 0 0 3.806 8.112 16.083 16.083 0 0 0 9.47 2.995 27.511 27.511 0 0 0 13.893-3.831 23.009 23.009 0 0 0 9.22-11.725 18.916 18.916 0 0 0 1.005-6.778c0-1.076-.018-2.433-.033-4.08s-.024-2.827-.024-3.525a28.005 28.005 0 0 1 1.443-6.755 48.29 48.29 0 0 1 2.027-5.364c.538-1.109.988-1.662 1.365-1.662.255 0 .369.289.328.859s-.1 1.678-.169 3.308-.143 4.666-.216 9.109q-1 17.444-10.11 30-9.011 12.166-21.622 12.279-6.552-.271-10.384-4.298zm-106.782-.113q-3.833-4.036-4.055-11.2-.062-11.336 7.443-24.615c.964-1.775 1.536-2.337 1.718-1.695a3.252 3.252 0 0 1-.047 1.976q-4.952 9.783-5.059 16.889.277 5.554 3.92 8.3a15.314 15.314 0 0 0 9.356 2.8A27.491 27.491 0 0 0 160.51 73.5a26.414 26.414 0 0 0 7.942-8.28q4.557-6.939 4.057-19.106a23.769 23.769 0 0 0-.328-3.2 21.047 21.047 0 0 1-.338-3.2 3.032 3.032 0 0 1 .947-2.5 2.582 2.582 0 0 1 2.21-.544.007.007 0 0 0 0-.008 17.065 17.065 0 0 0 4.167.257 9.689 9.689 0 0 0 4.281-1.591c1.548-.955 2.795-3.052 3.718-6.272q.784-2.061 1.638-2c.579.032.886.78.917 2.216a7.869 7.869 0 0 0 .811 2.811 3.051 3.051 0 0 0 1.911 1.751c.306 0 .86-.634 1.669-1.9s1.335-1.887 1.559-1.887q1.72.554 2.08 3.726a11.767 11.767 0 0 1-1.084 6.329 5.933 5.933 0 0 1-4.22 3.715.028.028 0 0 1 0 .012h-.047a6.206 6.206 0 0 1-3.839-1.277 8.316 8.316 0 0 1-2.661-3.722 12.644 12.644 0 0 1-3.445 3.671 19.215 19.215 0 0 1-6.261 2.534c-.016.16-.029.319-.047.479a23.966 23.966 0 0 1-.247 2.7q-.2 1.474-.485 2.847a69.667 69.667 0 0 1-3.794 14.156 55.434 55.434 0 0 1-6.271 11.669q-9.014 12.168-21.615 12.28-6.565-.273-10.393-4.301zM3.286 83.115Q0 78.56 0 71.445a34.873 34.873 0 0 1 1.332-8.281 78.517 78.517 0 0 1 2.781-8.553q1.552-3.722 2.665-6.281c.224-.4.538-1.028.949-1.855s.921-1.92 1.548-3.252c.45-.82.846-1.558 1.2-2.225s.642-1.261.858-1.775c.564-1 .988-1.486 1.286-1.445.4.073.515.5.33 1.278a11.516 11.516 0 0 1-.723 2.385Q8.282 50.56 6.777 54.17q-2.616 6.613-2.61 10.216 0 6.842 4.224 9.781a14.334 14.334 0 0 0 8.054 2.056 22.483 22.483 0 0 0 14.892-5q5.108-4.277 5.106-9 0-.952-4-2.778-4.062-1.891-4.055-4.61a13.707 13.707 0 0 1 .858-4.418 30.694 30.694 0 0 1 2.09-4.7 40.47 40.47 0 0 1 3.445-5.558 70.716 70.716 0 0 1 5.831-6.882 16.04 16.04 0 0 1-2.834-1 2.765 2.765 0 0 1-1.5-2.5c0-.634.644-1.943 1.944-3.943a48.1 48.1 0 0 1 2.836-3.9c1.96-2.329 3.148-3.7 3.551-4.112 1.7-1.59 3.3-2.385 4.778-2.385a3.891 3.891 0 0 1 2.506.949 2.783 2.783 0 0 1 1 2.056c-.041.289-.114.738-.226 1.332a1.833 1.833 0 0 1-1.718 1.382 2.3 2.3 0 0 1-1.333-.611A3.645 3.645 0 0 0 47.785 20a4.62 4.62 0 0 0-3 1.221c-1.035.779-1.557 1.47-1.557 2.056a2.8 2.8 0 0 0 2 2.562 9.446 9.446 0 0 0 4.281 1 7.613 7.613 0 0 0 2.665-.5A17.248 17.248 0 0 0 54.62 25l2.826-2.056a3.142 3.142 0 0 1 1.174-.779q.383-.06.656.555a10.1 10.1 0 0 1-1.776 3.172 18.6 18.6 0 0 1-3.278 3.221q-1.661 1.109-6.112 3.831c-1.22.78-2.891 1.887-4.994 3.333a73.813 73.813 0 0 0-2.73 1.92 21.971 21.971 0 0 0-3.857 3.863c-1.43 1.735-2.176 2.964-2.257 3.663 0 .522.418 1.036 1.253 1.557s1.679 1.085 2.529 1.695a5.478 5.478 0 0 1 1.832 2.081 9.938 9.938 0 0 1 .554 3.782 31.508 31.508 0 0 1-.941 7.5A55.237 55.237 0 0 1 36 71.557a35.1 35.1 0 0 1-11 13.557 23.612 23.612 0 0 1-5 2.442 17.979 17.979 0 0 1-5.727.891q-7.163 0-10.987-5.332zm332.843-16.722a18.892 18.892 0 0 1-1.726-8.5.42.42 0 0 0 .01-.048l-.065-.008q.059-4.336.921-12.079.857-7.758 2.579-17.147.89-2.712 3.614-9.606c.187-.449.377-.633.579-.553s.312.256.312.553q-.168 3.386-1.388 12.947t-1.5 13.107c-.187 2.369-.283 3.671-.283 3.888V49c0 1.333.018 2.321.057 2.948a14.023 14.023 0 0 0 .611 3.558 6.158 6.158 0 0 0 2.223 2.827 6.531 6.531 0 0 0 4 1.116 7.635 7.635 0 0 0 5.444-1.887 16.935 16.935 0 0 1 3.614-2.892 2.233 2.233 0 0 1 1.414-.112 6.212 6.212 0 0 0 1.695.112c.666 0 1.292-.763 1.889-2.281a8.018 8.018 0 0 1 1.22-2.474 1.028 1.028 0 0 1 .778-.081 6.489 6.489 0 0 0 1.785.442c.625 0 1.18-.425 1.661-1.277a16.357 16.357 0 0 0 .949-2.329q.554-1.614.892-1.614c.289 0 .44.337.44 1a13.917 13.917 0 0 1-2.168 7.333c-1.518 2.369-3.05 3.558-4.609 3.558-1.006 1.438-1.573 2.241-1.726 2.385q-1.5 1.722-2.722 1.718a11.951 11.951 0 0 0-2.025-.216 4.107 4.107 0 0 0-1.75.441q-1.108.446-4.224 4.554-3.111 4.059-6.722 4.055a6.091 6.091 0 0 1-5.779-3.491zM290.343 68a8.637 8.637 0 0 1-2.16-4.168 33.467 33.467 0 0 1-.45-5.993c-.018 0-.037 0-.055-.006q.059-4.336.921-12.079.857-7.758 2.579-17.147.892-2.707 3.613-9.607c.187-.449.379-.633.587-.553s.3.256.3.553q-.168 3.386-1.387 12.947t-1.5 13.107c-.187 2.369-.283 3.671-.283 3.888v1.942a8.569 8.569 0 0 0 1.5 5.5 4.013 4.013 0 0 0 3.276 1.894c.226-.039.6-.963 1.119-2.778a9.687 9.687 0 0 1 1.387-3.229c.886-.329 1.624.056 2.217 1.172a9.724 9.724 0 0 1 .949 2.883 20.217 20.217 0 0 1-1.785 8.224q-2.492 5.336-6.72 5.333A5.393 5.393 0 0 1 290.343 68zm-88.336-1.5a18.916 18.916 0 0 1-1.388-8.329v-.394c.02-.086.041-.173.063-.259q.082-4.3.917-11.763.854-7.758 2.577-17.147.893-2.723 3.616-9.606c.183-.449.377-.633.579-.562a.532.532 0 0 1 .312.562q-.168 3.386-1.4 12.939-1.214 9.565-1.495 13.115c-.185 2.369-.279 3.671-.279 3.888-.016.3-.035.593-.057.881v.845q0 4.662 2.5 6.5a3.79 3.79 0 0 0 3 .667 3.578 3.578 0 0 0 2.306-1.55 12.821 12.821 0 0 0 1.365-2.867c.369-1.092.723-1.638 1.053-1.638.408 0 .577.394.5 1.172a32.294 32.294 0 0 1-1.245 6.5 22.724 22.724 0 0 1-3.25 7.388 6.47 6.47 0 0 1-5 3.052c-2.007-.08-3.558-1.203-4.674-3.394zm-137.557.45a14.452 14.452 0 0 1-1.616-7.285l.043-1.825h-.043q.062-4.336.915-12.079.87-7.761 2.587-17.154.893-2.707 3.616-9.607c.183-.449.377-.633.577-.553s.3.256.3.553q-.153 3.386-1.381 12.947t-1.5 13.107c-.169 2.169-.265 3.442-.277 3.808q.056 7.319 1.722 7.861a13.524 13.524 0 0 0 1.718-2.666 15.047 15.047 0 0 1 1-1.665v-.006a33.921 33.921 0 0 1 5.748-6.609 19.1 19.1 0 0 1 5.389-3.5 18.281 18.281 0 0 1 5.752-1 .032.032 0 0 0 0 .013v-.013a4.942 4.942 0 0 0 1.335.273 2.128 2.128 0 0 0 1.277-.273 8.422 8.422 0 0 0 1.3-1q1.2-1 6.3-6.385a32.533 32.533 0 0 0-4.079-1.534 13.713 13.713 0 0 0-3.637-.746 4.525 4.525 0 0 0-3.671 2.056c-.738 1.075-1.365 1.477-1.889 1.22-.334-.072-.408-.385-.224-.947a16.912 16.912 0 0 1 1.388-2.715 19.1 19.1 0 0 1 2.227-3.116 5.416 5.416 0 0 1 4-1.887 14.5 14.5 0 0 1 2.394.442c.809.224 1.921.57 3.331 1.028a13.693 13.693 0 0 0 3.751.754 5.02 5.02 0 0 0 2.555-.45 19.042 19.042 0 0 0 1.807-1.109c.884-.369 1.333-.072 1.333.892a8.47 8.47 0 0 1-.949 3 16.553 16.553 0 0 1-1.5 2.779c-.367.257-.738.53-1.106.8s-.844.626-1.424 1.028-3.894 4.04-9.965 10.89a7 7 0 0 1-2.394 1.783 4.087 4.087 0 0 1-2.162.5.018.018 0 0 0 0-.009v.009a15.188 15.188 0 0 0-6.114-.611c-2.584.113-5.2 1.591-7.828 4.441-.259.226-.426.37-.5.45-.78.771-.923 1.382-.442 1.831a3.3 3.3 0 0 0 2.217.634c1.035.025 1.8.032 2.282.032a1.123 1.123 0 0 1 1.106 1.277 15.06 15.06 0 0 1-.882 3.5 18.166 18.166 0 0 1-4.057 7.163 7.965 7.965 0 0 1-5.727 2.61 5.105 5.105 0 0 1-4.602-2.939zm238.51 2.441a1.222 1.222 0 0 1 .328-1 10.445 10.445 0 0 1 3.085-2.474q2.469-1.53 5.75-3.839a23.417 23.417 0 0 0 4.666-4.023 30.358 30.358 0 0 0 3.14-5.172c1.172-2.289 2.223-4.61 3.172-6.939s1.614-3.928 2.023-4.778.852-1.262 1.335-1.222q.61.109.609 1.109a29.5 29.5 0 0 1-1.139 5.445q-1.072 3.94-2.828 8.61a56.19 56.19 0 0 1-3.083 7.059 12.011 12.011 0 0 1-2.924 3.638 15.367 15.367 0 0 1-5.106 2.273 51.845 51.845 0 0 1-5.672 1.389 22.8 22.8 0 0 1-2.691.361c-.367-.028-.593-.182-.664-.439zM114.121 66.8a.514.514 0 0 1-.224-.635c0-.072.224-1.2.668-3.364a42.679 42.679 0 0 0 .827-6.305c.11-2.039.136-4.915.065-8.641a60.364 60.364 0 0 1 .271-8.529 24.5 24.5 0 0 1 .756-3.55c.346-1.222.746-2.425 1.188-3.615s.915-2.306 1.422-3.357.947-1.991 1.357-2.81c.328-.515.636-.724.892-.611a.52.52 0 0 1 .328.611 19.868 19.868 0 0 0-.247 2.088c-.088 1.093-.179 2.313-.249 3.662s-.136 2.683-.192 3.976-.088 2.257-.088 2.892c-.071 2.666-.13 5.068-.161 7.219a54.239 54.239 0 0 1-.336 5.446 33.029 33.029 0 0 1-1.83 8.472 29.339 29.339 0 0 1-2.194 4.916 16.639 16.639 0 0 1-1.31 1.774 1.276 1.276 0 0 1-.752.411.375.375 0 0 1-.191-.05zm37.308-5.887c-.805-.643-1.52-1.237-2.17-1.775s-1.212-1.028-1.695-1.478a1.822 1.822 0 0 1-.668-1.109c1.447-3.181 2.427-5.26 2.948-6.224a257.75 257.75 0 0 1 2.555-4.273 73.75 73.75 0 0 0 2.473 1.968 13.894 13.894 0 0 1 2.274 2.145 4.97 4.97 0 0 1 1.029 2.385 5.1 5.1 0 0 1-.161 2.448 16.312 16.312 0 0 1-1.286 3 11.476 11.476 0 0 1-2.272 3 2.668 2.668 0 0 1-1.5.884 4.005 4.005 0 0 1-1.527-.967zm107.278-.113c-.793-.642-1.516-1.237-2.166-1.774s-1.206-1.028-1.671-1.47a1.846 1.846 0 0 1-.691-1.116c.483-1 .837-1.759 1.062-2.273.738-1.67 1.371-2.987 1.909-3.943s1.383-2.393 2.531-4.28a86.388 86.388 0 0 0 2.473 1.968 13.658 13.658 0 0 1 2.274 2.145 4.942 4.942 0 0 1 1.025 2.385 5.076 5.076 0 0 1-.157 2.449 17.473 17.473 0 0 1-1.253 2.971 12.029 12.029 0 0 1-2.306 3.028 2.674 2.674 0 0 1-1.5.884 4.045 4.045 0 0 1-1.53-.974zm-39.2-23.692c-.515-.442-1.326-1.109-2.418-2s-1.638-1.445-1.638-1.671q0-.723 2.282-5c1.518-2.851 2.439-4.28 2.777-4.28.626-.257 1.551.192 2.747 1.357a24.447 24.447 0 0 1 2.755 3.084c.738-1.222 1.557-2.586 2.473-4.1s1.512-2.28 1.8-2.28c.931 0 2.031.674 3.309 2.032a6.443 6.443 0 0 1 2.031 3.8 9.16 9.16 0 0 1-2.056 5c-1.341 1.887-2.319 2.835-2.946 2.835q-.616 0-2.227-1.614a25.361 25.361 0 0 0-2.826-2.5q-3.011 6.058-4.778 6.055a2.36 2.36 0 0 1-1.284-.714zm106.647-16.525q-1.977-1.312-2.914-1.976c-.554-.369-.837-.755-.837-1.165 0-.811.7-2.586 2.08-5.308 1.4-2.723 2.29-4.08 2.7-4.08.821-.337 2 .29 3.559 1.864s2.384 2.8 2.5 3.694q0 1.77-1.944 5.108t-2.836 3.333c-.228-.112-.99-.602-2.308-1.47zM204.708 16.8c-.171-.016-.177-.2-.033-.553a5.693 5.693 0 0 1 .949-1.358c.481-.554 1-1.149 1.557-1.783l.328-.329v-.112a12.971 12.971 0 0 1-1.718-.859c-.593-.353-.876-.643-.833-.86.039-.594.98-1.8 2.834-3.614 1-1.109 1.518-1.67 1.549-1.67a3.3 3.3 0 0 1 2.339-.828 1.9 1.9 0 0 1 1.115.5 1.3 1.3 0 0 1 .442 1.109 1.4 1.4 0 0 1-.418.811.952.952 0 0 1-.8.305 1.66 1.66 0 0 1-.562-.305 2.08 2.08 0 0 0-1.057-.364 2.007 2.007 0 0 0-1.277.409c-.481.321-.725.571-.725.755a1.253 1.253 0 0 0 .748 1.2 4.09 4.09 0 0 0 3.975.137 15.271 15.271 0 0 0 2.168-1c.145-.1.275-.129.387-.048a.315.315 0 0 1 .167.273q-.059.446-2.912 2.169a31.136 31.136 0 0 0-4.916 3.582 16 16 0 0 1-2.227 1.863 2.618 2.618 0 0 1-1.055.58.118.118 0 0 1-.025-.01zm-136.09-1.911c-.522-.45-1.324-1.115-2.42-2s-1.636-1.445-1.636-1.671q0-.722 2.272-5c1.518-2.859 2.449-4.28 2.779-4.28q.952-.386 2.753 1.357a24.06 24.06 0 0 1 2.747 3.083c.738-1.221 1.565-2.585 2.474-4.111S79.1 0 79.4 0q1.385 0 3.3 2.023a6.43 6.43 0 0 1 2.031 3.808 9.182 9.182 0 0 1-2.056 5q-2 2.831-2.948 2.835c-.41 0-1.149-.538-2.223-1.614a24.042 24.042 0 0 0-2.828-2.5q-3 6.048-4.778 6.056a2.362 2.362 0 0 1-1.28-.719z" transform="translate(.5 177.867)" style="stroke:transparent;fill:url(#dmny3jlgac)"/>
    </g>
</svg>
